<svg width="65" height="59" viewBox="0 0 65 59" fill="none" xmlns="http://www.w3.org/2000/svg">
<g clip-path="url(#clip0_5_4558)">
<g clip-path="url(#clip1_5_4558)">
<g clip-path="url(#clip2_5_4558)">
<path d="M0.0032959 18.4273H33.8696C35.7188 18.4273 37.4923 19.1619 38.7999 20.4695C40.1075 21.777 40.8421 23.5505 40.8421 25.3997V58.27H14.9443C10.9817 58.27 7.18141 56.6959 4.37942 53.8939C1.57744 51.0919 0.0032959 47.2916 0.0032959 43.329L0.0032959 18.4273Z" fill="#FCA311"/>
<path fill-rule="evenodd" clip-rule="evenodd" d="M55.9252 49.3055C51.2927 49.3056 46.3537 48.1979 41.6423 46.1021C36.7337 43.9187 32.2159 40.783 28.2144 36.782C23.436 31.9997 19.8042 26.3255 17.7111 20.3722C15.6543 14.5223 15.1558 8.65096 16.2696 3.39302C16.5099 2.27333 17.4748 1.49398 18.6171 1.49398H29.1654C30.8827 1.49398 32.235 2.73216 32.6947 4.72534L35.1557 15.4132L35.3436 16.2291L34.7457 16.8153L29.5657 21.8943C31.1283 24.6293 33.1029 27.1995 35.4465 29.5469L35.5915 29.6922C37.9021 31.9785 40.4226 33.9051 43.0988 35.4318L48.1795 30.252L48.7657 29.6544L49.5813 29.8422L60.2705 32.3026C62.2647 32.763 63.5029 34.1152 63.5029 35.8317V46.3782C63.5029 47.5204 62.7234 48.4853 61.6074 48.7247C59.7908 49.1102 57.8801 49.3054 55.9252 49.3055Z" fill="#15213D"/>
<path fill-rule="evenodd" clip-rule="evenodd" d="M55.9251 47.8114C57.769 47.8113 59.5682 47.6301 61.294 47.2638C61.7169 47.1731 62.0087 46.811 62.0087 46.3782V35.8317C62.0087 34.6896 61.0476 34.0154 59.9353 33.7587L49.2462 31.2982L43.3728 37.2862C40.2425 35.636 37.1825 33.3966 34.3894 30.6039L34.3891 30.6026C31.6009 27.8099 29.3615 24.7454 27.7106 21.6208L33.6997 15.7484L31.2388 5.0611C30.9823 3.94909 30.308 2.98808 29.1654 2.98808H18.6171C18.1842 2.98808 17.822 3.27985 17.7313 3.70265C15.6122 13.7062 19.7086 26.1555 29.2708 35.7254C37.1879 43.6415 47.0787 47.8116 55.9251 47.8114ZM55.9252 50.7996C51.0851 50.7997 45.9361 49.6474 41.035 47.4673C38.5579 46.3654 36.1351 45.0012 33.8339 43.4126C31.4737 41.7832 29.2275 39.9078 27.158 37.8385C22.2221 32.8986 18.4683 27.0306 16.3015 20.8678C14.1538 14.7593 13.6373 8.6095 14.8079 3.0834C14.8085 3.08087 14.809 3.07834 14.8096 3.0758C14.9966 2.20402 15.4798 1.41734 16.1701 0.86068C16.8585 0.305582 17.7275 -0.00012207 18.6171 -0.00012207H29.1654C31.5788 -0.00012207 33.5355 1.72294 34.1505 4.38957L36.6117 15.0779C36.8451 16.0916 36.5345 17.1538 35.7918 17.8821L31.4498 22.1395C32.8445 24.3931 34.5383 26.5226 36.5038 28.4913C36.5181 28.5057 36.5323 28.5202 36.5463 28.5348C38.5046 30.4863 40.6188 32.1663 42.8534 33.5483L47.1128 29.2057C47.8411 28.4633 48.903 28.1529 49.9165 28.3861L60.6057 30.8466C63.274 31.4626 64.9969 33.4192 64.9969 35.8317V46.3782C64.9969 47.2679 64.6911 48.137 64.1358 48.8255C63.5791 49.5156 62.7924 49.9986 61.9207 50.1856C61.9186 50.186 61.9165 50.1865 61.9144 50.1869C59.9992 50.5934 57.9841 50.7995 55.9252 50.7996Z" fill="#FCA311"/>
</g>
</g>
</g>
<defs>
<clipPath id="clip0_5_4558">
<rect width="65" height="58.27" fill="white"/>
</clipPath>
<clipPath id="clip1_5_4558">
<rect width="65" height="58.27" fill="white"/>
</clipPath>
<clipPath id="clip2_5_4558">
<rect width="64.9935" height="58.27" fill="white" transform="translate(0.0032959)"/>
</clipPath>
</defs>
</svg>
