<svg width="71" height="59" viewBox="0 0 71 59" fill="none" xmlns="http://www.w3.org/2000/svg">
<g clip-path="url(#clip0_5_4531)">
<g clip-path="url(#clip1_5_4531)">
<g clip-path="url(#clip2_5_4531)">
<path d="M0.00457764 18.4146H33.8477C35.6956 18.4146 37.4679 19.1487 38.7746 20.4554C40.0813 21.7621 40.8153 23.5344 40.8153 25.3823V58.23H14.9353C10.9755 58.23 7.17776 56.6569 4.3777 53.8569C1.57764 51.0568 0.00457764 47.2591 0.00457764 43.2992L0.00457764 18.4146Z" fill="#FCA311"/>
<path d="M48.9288 49.2717C48.8903 49.2717 48.8511 49.2716 48.8124 49.2714C48.4185 49.2713 48.0364 49.2527 47.6668 49.2348C46.8088 49.1945 46.0138 48.8233 45.4307 48.1897C44.8471 47.5555 44.5432 46.732 44.5749 45.8706L44.5752 45.862L44.5756 45.8533C44.617 45.0006 44.9858 44.2125 45.6142 43.6341C46.2121 43.0844 46.9878 42.7821 47.7989 42.7821C47.8372 42.7821 47.8756 42.7827 47.914 42.7841L47.9245 42.7845L47.935 42.785L47.9605 42.7863C48.2815 42.8023 48.5588 42.8161 48.8163 42.8161H48.8219C53.8508 42.8159 58.5376 40.1109 61.0531 35.7567C63.5701 31.4005 63.572 25.9874 61.0581 21.6297C58.5438 17.2721 53.8568 14.564 48.8262 14.5622H48.7989L48.7607 14.5622C45.7532 14.5622 42.8808 15.5013 40.454 17.278C38.0175 19.0622 36.2511 21.5283 35.3459 24.4096L35.3394 24.4303L35.3323 24.4509C34.9643 25.513 34.0527 26.3178 32.9532 26.5513C32.733 26.598 32.5075 26.6217 32.2829 26.6217C31.3929 26.6217 30.5337 26.2489 29.9257 25.5989C29.1577 24.7786 28.8708 23.5965 29.1773 22.5144L29.1836 22.492L29.1907 22.4697C29.8119 20.5127 30.712 18.6772 31.873 16.9974L30.4308 15.5564C29.6176 14.7417 29.2983 13.5467 29.5961 12.4365C29.8952 11.325 30.7707 10.4511 31.8812 10.1546C32.153 10.082 32.4332 10.0453 32.7141 10.0453C33.5773 10.0453 34.3886 10.3815 34.9987 10.9921L36.323 12.3165C37.668 11.2915 39.1333 10.4377 40.6942 9.77078C42.2644 9.09995 43.9041 8.62975 45.5851 8.36731V7.94848H45.4373C44.2876 7.94848 43.2165 7.33003 42.6419 6.3345C42.0674 5.33915 42.0674 4.10252 42.6419 3.10717C43.2165 2.11164 44.2876 1.4932 45.4373 1.4932H52.1846C53.3342 1.4932 54.4053 2.11163 54.98 3.10714C55.5545 4.10251 55.5545 5.33914 54.98 6.3345C54.4053 7.33004 53.3342 7.94848 52.1846 7.94848H52.0368V8.36015C54.1854 8.68697 56.2556 9.34927 58.2078 10.3358C60.5689 11.5289 62.6505 13.1422 64.3948 15.1309C66.1392 17.1195 67.4676 19.3934 68.3429 21.8893C69.2184 24.3855 69.6012 26.991 69.4809 29.6337C69.3606 32.2764 68.7426 34.8366 67.6439 37.243C66.5452 39.6495 65.0156 41.7933 63.0976 43.615C61.1947 45.4227 58.9938 46.8327 56.5561 47.8058C54.1192 48.7785 51.553 49.2717 48.9288 49.2717ZM40.8422 47.4898H31.5572C30.4076 47.4898 29.3365 46.8714 28.7618 45.8758C28.1873 44.8805 28.1873 43.6438 28.7618 42.6485C29.3364 41.653 30.4076 41.0345 31.5572 41.0345H40.8422C41.9918 41.0345 43.0629 41.6529 43.6375 42.6485C44.2126 43.6436 44.2126 44.8807 43.6371 45.8765C43.0629 46.8714 41.9918 47.4898 40.8422 47.4898ZM40.8422 40.5515H26.3531C25.2035 40.5515 24.1324 39.9331 23.5577 38.9376C22.9832 37.9422 22.9832 36.7056 23.5577 35.7102C24.1324 34.7147 25.2035 34.0963 26.3531 34.0963H40.8422C41.9918 34.0963 43.0629 34.7147 43.6375 35.7102C44.2126 36.7053 44.2126 37.9425 43.6371 38.9383C43.0629 39.9331 41.9918 40.5515 40.8422 40.5515ZM40.8422 33.6133H21.1494C19.9998 33.6133 18.9287 32.9949 18.354 31.9993C17.7795 31.004 17.7795 29.7673 18.354 28.772C18.9287 27.7764 19.9998 27.158 21.1494 27.158H40.8422C41.7044 27.158 42.5149 27.4937 43.1245 28.1033C43.7341 28.7129 44.0698 29.5234 44.0698 30.3856C44.0698 31.2479 43.7341 32.0584 43.1245 32.668C42.5149 33.2776 41.7044 33.6133 40.8422 33.6133ZM48.7905 31.9411C47.9289 31.9411 47.1186 31.6054 46.509 30.9958C45.9014 30.3889 45.5566 29.5468 45.5637 28.6859C45.5716 27.8294 45.9268 26.9983 46.5389 26.4019L53.5042 19.4468L53.513 19.438L53.522 19.4293C54.1269 18.8451 54.9232 18.5234 55.7643 18.5234C56.0523 18.5234 56.3393 18.562 56.6173 18.6381C57.7115 18.9379 58.5774 19.8038 58.8771 20.8979C59.1767 21.9917 58.8736 23.1778 58.086 23.9933L58.0766 24.003L58.0671 24.0125L51.0904 30.9802C50.4946 31.5845 49.6682 31.9339 48.8189 31.941L48.7905 31.9411Z" fill="#15213D"/>
<path d="M48.9288 47.7786C53.8183 47.7786 58.5224 45.9019 62.0694 42.5324C65.6438 39.1376 67.7652 34.4906 67.9894 29.5658C68.2136 24.6409 66.5231 19.8213 63.2724 16.1155C60.0216 12.4093 55.4626 10.1056 50.5506 9.68677L50.5437 9.6918V6.4554H52.1846C52.8045 6.4554 53.3771 6.12475 53.6868 5.58812C53.9966 5.05149 53.9966 4.39017 53.6868 3.85355C53.3771 3.31692 52.8045 2.98627 52.1846 2.98627H45.4373C44.8174 2.98627 44.2448 3.31692 43.935 3.85355C43.6253 4.39018 43.6253 5.05149 43.935 5.58812C44.2448 6.12475 44.8174 6.4554 45.4373 6.4554H47.0781V9.68833C43.0588 10.0438 39.2567 11.668 36.2217 14.3267L33.9424 12.0474C33.5042 11.6088 32.8653 11.4373 32.2664 11.5971C31.6674 11.7571 31.1993 12.2248 31.0382 12.8233C30.8775 13.4223 31.0482 14.0615 31.4862 14.5002L33.8382 16.8504C32.4053 18.6624 31.3127 20.7195 30.6138 22.9214C30.4481 23.5064 30.6006 24.1352 31.0161 24.5789C31.4311 25.0226 32.0483 25.217 32.643 25.0908C33.2373 24.9646 33.7225 24.5363 33.9214 23.9621C34.9157 20.7973 36.8954 18.0333 39.5719 16.0733C42.2485 14.1138 45.4812 13.0612 48.7988 13.0691H48.8267C54.4072 13.0711 59.5622 16.0496 62.3514 20.8836C65.1398 25.7172 65.1379 31.6716 62.3459 36.5036C59.5554 41.3338 54.4 44.3089 48.8219 44.3091C48.5193 44.3093 48.2132 44.2938 47.8608 44.2762C47.4047 44.2599 46.961 44.4241 46.6253 44.7327C46.2896 45.0417 46.089 45.4703 46.067 45.9256C46.0499 46.3879 46.216 46.8382 46.5293 47.1786C46.8425 47.5189 47.2773 47.7218 47.7392 47.7435C48.0981 47.7609 48.459 47.7783 48.8163 47.7783C48.8536 47.7785 48.8916 47.7786 48.9288 47.7786ZM40.8421 45.9967C41.462 45.9967 42.0346 45.6661 42.3444 45.1294C42.6545 44.5928 42.6545 43.9315 42.3444 43.3949C42.0346 42.8582 41.462 42.5276 40.8421 42.5276H31.5572C30.9373 42.5276 30.3647 42.8582 30.0549 43.3949C29.7452 43.9315 29.7452 44.5928 30.0549 45.1294C30.3647 45.6661 30.9373 45.9967 31.5572 45.9967H40.8421ZM40.8421 39.0585C41.462 39.0585 42.0346 38.7278 42.3444 38.1912C42.6545 37.6546 42.6545 36.9933 42.3444 36.4566C42.0346 35.92 41.462 35.5893 40.8421 35.5893H26.3531C25.7332 35.5893 25.1606 35.92 24.8509 36.4566C24.5411 36.9933 24.5411 37.6546 24.8509 38.1912C25.1606 38.7278 25.7332 39.0585 26.3531 39.0585H40.8421ZM40.8421 32.1202C41.3025 32.1202 41.7435 31.9374 42.0687 31.6122C42.394 31.287 42.5767 30.8456 42.5767 30.3856C42.5767 29.9257 42.394 29.4843 42.0687 29.1591C41.7435 28.8338 41.3025 28.6511 40.8421 28.6511H21.1494C20.5295 28.6511 19.9569 28.9817 19.6472 29.5184C19.3374 30.055 19.3374 30.7163 19.6472 31.2529C19.9569 31.7896 20.5295 32.1202 21.1494 32.1202H40.8421ZM48.7905 30.4481C48.7958 30.4481 48.8011 30.448 48.8064 30.448C49.2718 30.4441 49.7159 30.2532 50.0388 29.9187L50.0353 29.9238L57.012 22.9561C57.4375 22.5155 57.5989 21.8832 57.4371 21.2924C57.2752 20.7015 56.8137 20.24 56.2229 20.0782C55.632 19.9163 54.9998 20.0778 54.5592 20.5033L47.5864 27.4659C47.2515 27.7892 47.061 28.2333 47.0568 28.6984C47.0529 29.1637 47.2356 29.6113 47.5647 29.94C47.8901 30.2654 48.3309 30.4481 48.7905 30.4481ZM48.9288 50.7648C48.8885 50.7648 48.8476 50.7647 48.8071 50.7644C48.3788 50.7642 47.9623 50.744 47.5944 50.7261C46.3435 50.6674 45.1832 50.1256 44.3321 49.2008C44.0265 48.8687 43.7734 48.5011 43.5767 48.1082C42.7895 48.6669 41.8359 48.9829 40.8421 48.9829H31.5572C29.8758 48.9829 28.3092 48.0783 27.4687 46.6222C26.6557 45.2137 26.6294 43.4746 27.3897 42.0446H26.3531C24.6717 42.0446 23.1051 41.1401 22.2646 39.684C21.4516 38.2754 21.4253 36.5364 22.1856 35.1064H21.1494C19.468 35.1064 17.9014 34.2018 17.0609 32.7457C16.2207 31.29 16.2207 29.4813 17.0609 28.0256C17.9014 26.5695 19.468 25.6649 21.1494 25.6649H28.1461C27.5599 24.5913 27.4008 23.3073 27.7407 22.1075C27.7492 22.0775 27.7582 22.0477 27.7676 22.018C28.3066 20.3198 29.0415 18.7068 29.962 17.1987L29.3755 16.6126C28.1855 15.4204 27.7185 13.6731 28.154 12.0496C28.5915 10.4237 29.8719 9.14567 31.4961 8.71203C31.8934 8.60597 32.3032 8.55219 32.7141 8.55219C33.9763 8.55219 35.1628 9.04393 36.0549 9.93683L36.4838 10.3658C37.625 9.59914 38.8367 8.94077 40.1076 8.39777C40.6695 8.15771 41.2395 7.94165 41.8169 7.74977C41.6432 7.54258 41.4863 7.31914 41.3487 7.08087C40.5085 5.62515 40.5085 3.81652 41.3487 2.3608C42.1892 0.904687 43.7558 0.000121117 45.4373 0.000121117H52.1846C53.866 0.000121117 55.4326 0.904656 56.2731 2.36073C57.1133 3.8165 57.1133 5.62514 56.2731 7.08087C56.1393 7.31266 55.9871 7.53053 55.819 7.73295C56.8652 8.07719 57.8874 8.501 58.8812 9.00321C61.4136 10.2829 63.6463 12.0133 65.5173 14.1464C67.3882 16.2792 68.813 18.7181 69.7519 21.3952C70.6908 24.0725 71.1015 26.8672 70.9725 29.7016C70.8434 32.5361 70.1805 35.282 69.0021 37.863C67.8237 40.4442 66.1831 42.7437 64.1258 44.6976C62.0849 46.6364 59.7242 48.1488 57.1096 49.1924C54.4958 50.2358 51.7434 50.7648 48.9288 50.7648ZM44.0421 40.7931C44.3885 41.1118 44.6894 41.4842 44.9306 41.9021C44.9794 41.9865 45.0254 42.0721 45.0685 42.1587C45.9086 41.5621 46.9226 41.2549 47.9674 41.292C47.9813 41.2925 47.9953 41.2931 48.0092 41.2938L48.0347 41.295C48.3483 41.3107 48.596 41.323 48.8163 41.323H48.8219C53.3193 41.3228 57.5106 38.9038 59.7603 35.0098C61.8427 31.4057 62.0001 26.9926 60.232 23.2664C60.0117 23.9177 59.6499 24.5231 59.1599 25.0305C59.1475 25.0434 59.1348 25.0562 59.1221 25.0689L52.1455 32.0366C52.1249 32.0572 52.1041 32.0774 52.083 32.0973C51.2173 32.9386 50.0407 33.424 48.8313 33.4341L48.7905 33.4342C47.5301 33.4342 46.3449 32.9432 45.4532 32.0516C45.4057 32.0041 45.3592 31.9556 45.3139 31.9062C45.0844 32.5832 44.7005 33.2035 44.1803 33.7238C44.1353 33.7688 44.0895 33.8127 44.043 33.8557C44.3889 34.1742 44.6897 34.5464 44.9306 34.9638C45.7716 36.419 45.7716 38.2288 44.9298 39.6854C44.6889 40.1027 44.3882 40.4747 44.0421 40.7931ZM36.4201 25.6649H40.8421C42.1032 25.6649 43.2887 26.156 44.1803 27.0476C44.2292 27.0965 44.2769 27.1463 44.3234 27.197C44.5608 26.4997 44.9589 25.8592 45.4897 25.3396L52.4492 18.3902C52.4609 18.3785 52.4728 18.3669 52.4847 18.3554C52.9912 17.8662 53.5893 17.5029 54.239 17.2816C52.5715 16.4884 50.7261 16.056 48.8257 16.0553H48.7988C48.7965 16.0553 48.7942 16.0553 48.7919 16.0553L48.7607 16.0553C46.0726 16.0553 43.5051 16.8947 41.3359 18.4828C39.1582 20.0774 37.5794 22.2817 36.7703 24.8571C36.7616 24.8848 36.7525 24.9123 36.7431 24.9397C36.6556 25.192 36.5472 25.4344 36.4201 25.6649Z" fill="#FCA311"/>
</g>
</g>
</g>
<defs>
<clipPath id="clip0_5_4531">
<rect width="71" height="58.23" fill="white"/>
</clipPath>
<clipPath id="clip1_5_4531">
<rect width="71" height="58.23" fill="white"/>
</clipPath>
<clipPath id="clip2_5_4531">
<rect width="70.9908" height="58.23" fill="white" transform="translate(0.00457764)"/>
</clipPath>
</defs>
</svg>
