<svg width="70" height="59" viewBox="0 0 70 59" fill="none" xmlns="http://www.w3.org/2000/svg">
<g clip-path="url(#clip0_5_4549)">
<g clip-path="url(#clip1_5_4549)">
<g clip-path="url(#clip2_5_4549)">
<path d="M0.00256348 18.3672H33.7585C35.6017 18.3672 37.3693 19.0994 38.6727 20.4027C39.976 21.706 40.7082 23.4737 40.7082 25.3169V58.08H14.8949C10.9452 58.08 7.15727 56.511 4.36442 53.7181C1.57157 50.9253 0.00256348 47.1374 0.00256348 43.1877L0.00256348 18.3672Z" fill="#FCA311"/>
<path fill-rule="evenodd" clip-rule="evenodd" d="M46.2862 49.1446H27.117C25.442 49.1446 23.8685 48.4924 22.6865 47.308C21.5043 46.1282 20.852 44.5547 20.852 42.8796V7.75425C20.852 6.07923 21.5043 4.50578 22.6886 3.32376C23.8684 2.1415 25.4419 1.48923 27.117 1.48923H46.2862C49.4287 1.48923 52.0382 3.81459 52.484 6.83516C52.9852 6.48303 53.5956 6.27606 54.2533 6.27606H59.149C59.1478 6.24079 59.1472 6.20533 59.1472 6.16986C59.1472 5.34549 59.4678 4.57086 60.05 3.98865C60.6322 3.40646 61.4069 3.08582 62.2312 3.08582C63.0556 3.08582 63.8302 3.40645 64.4124 3.98865L67.6036 7.17989C68.1861 7.76072 68.5078 8.53589 68.5078 9.36105C68.5078 10.1862 68.1862 10.9614 67.6021 11.5438L64.4124 14.7335C63.8302 15.3157 63.0556 15.6363 62.2312 15.6363C61.4069 15.6363 60.6323 15.3157 60.05 14.7335C59.4678 14.1513 59.1472 13.3767 59.1472 12.5523C59.1472 12.5167 59.1478 12.4812 59.149 12.4457H54.2533C53.6247 12.4457 53.0394 12.2568 52.5513 11.9326V14.2541H55.8584C57.5321 14.2541 59.1057 14.906 60.2894 16.0897C61.473 17.2734 62.1249 18.847 62.1249 20.5206V26.9126V28.4018H60.6357H38.2971C38.2385 28.4018 38.1908 28.4496 38.1908 28.5082C38.1908 28.5669 38.2385 28.6146 38.2971 28.6146H60.6357H62.1249V30.1038V31.709C62.1249 33.3827 61.473 34.9562 60.2893 36.1399C59.1057 37.3236 57.5321 37.9755 55.8584 37.9755H52.0383C52.3624 38.4636 52.5513 39.0488 52.5513 39.6773V42.8796C52.5513 46.3341 49.7408 49.1446 46.2862 49.1446ZM30.4259 7.65892L27.117 7.65894C27.092 7.65894 27.0684 7.66875 27.0506 7.68656C27.0312 7.70589 27.0217 7.72886 27.0217 7.75427V42.8796C27.0217 42.905 27.0312 42.928 27.0493 42.946C27.0687 42.9654 27.0916 42.9749 27.117 42.9749H46.2862C46.3397 42.9749 46.3816 42.9331 46.3816 42.8796V39.6773C46.3816 39.0488 46.5705 38.4636 46.8946 37.9755H36.692C35.0183 37.9755 33.4447 37.3236 32.261 36.1399C31.0774 34.9563 30.4255 33.3827 30.4255 31.709V20.5206C30.4255 18.847 31.0774 17.2734 32.2611 16.0897C33.4447 14.906 35.0183 14.2541 36.692 14.2541H46.382V7.75425C46.382 7.70079 46.3402 7.65891 46.2867 7.65891H42.9781V7.76529C42.9781 9.44287 42.3247 11.019 41.1384 12.2034C39.9557 13.388 38.3796 14.0414 36.702 14.0414C35.0476 14.0414 33.4308 13.3719 32.2631 12.2046C31.0954 11.0364 30.4259 9.41967 30.4259 7.76848V7.65892ZM51.0625 22.0194C51.0038 22.0194 50.9561 22.0671 50.9561 22.1258C50.9561 22.1844 51.0038 22.2322 51.0625 22.2322H55.8493C55.908 22.2322 55.9557 22.1844 55.9557 22.1258C55.9557 22.0671 55.908 22.0194 55.8493 22.0194H51.0625Z" fill="#15213D"/>
<path fill-rule="evenodd" clip-rule="evenodd" d="M27.117 2.97846C25.8501 2.97846 24.6356 3.48101 23.7406 4.37785C22.8438 5.27289 22.3412 6.48743 22.3412 7.75426V42.8796C22.3412 44.1465 22.8437 45.361 23.7406 46.256C24.6356 47.1528 25.8502 47.6554 27.117 47.6554H46.2862C48.924 47.6554 51.062 45.5174 51.062 42.8796V39.6773C51.062 38.7965 50.3472 38.0817 49.4664 38.0817C48.5856 38.0817 47.8708 38.7965 47.8708 39.6773V42.8796C47.8708 43.7558 47.1624 44.4642 46.2862 44.4642H27.117C26.6957 44.4642 26.2935 44.2968 25.9969 43.9997C25.6998 43.703 25.5324 43.3009 25.5324 42.8796V7.75427C25.5324 7.33294 25.6998 6.93083 25.9969 6.63415C26.2936 6.33712 26.6957 6.16972 27.117 6.16972L31.9151 6.16967V7.76848C31.9151 9.03713 32.4194 10.2545 33.3159 11.1514C34.2127 12.0478 35.4301 12.5521 36.6988 12.5521H36.702C37.9721 12.5521 39.1894 12.0478 40.0862 11.1495C40.9845 10.2527 41.4888 9.03531 41.4888 7.7653V6.16967H46.2867C47.1628 6.16967 47.8713 6.8781 47.8713 7.75426V15.7433H36.6919C35.425 15.7433 34.2109 16.2459 33.3141 17.1427C32.4173 18.0396 31.9147 19.2537 31.9147 20.5206V31.709C31.9147 32.9759 32.4172 34.1901 33.3141 35.0869C34.2109 35.9837 35.425 36.4863 36.6919 36.4863H55.8584C57.1253 36.4863 58.3395 35.9837 59.2363 35.0869C60.1331 34.1901 60.6357 32.9759 60.6357 31.709V30.1038H38.2971C37.4163 30.1038 36.7015 29.389 36.7015 28.5082C36.7015 27.6274 37.4163 26.9126 38.2971 26.9126H60.6357V20.5206C60.6357 19.2537 60.1331 18.0396 59.2363 17.1427C58.3395 16.2459 57.1253 15.7433 55.8584 15.7433H51.062V7.75426C51.062 5.11649 48.924 2.97846 46.2862 2.97846H27.117ZM55.8493 23.7214H51.0625C50.1817 23.7214 49.4668 23.0066 49.4668 22.1258C49.4668 21.245 50.1817 20.5302 51.0625 20.5302H55.8493C56.7301 20.5302 57.4449 21.245 57.4449 22.1258C57.4449 23.0066 56.7301 23.7214 55.8493 23.7214ZM62.2312 4.57505C61.8227 4.57505 61.4142 4.7306 61.1031 5.04171C60.4808 5.66392 60.4808 6.67579 61.1031 7.29799L61.5707 7.76529H54.2533C53.3725 7.76529 52.6577 8.4801 52.6577 9.3609C52.6577 10.2417 53.3725 10.9565 54.2533 10.9565H61.5707L61.1031 11.4242C60.4808 12.0464 60.4808 13.0582 61.1031 13.6804C61.7253 14.3026 62.7371 14.3027 63.3593 13.6804L66.5505 10.4892C67.1746 9.86699 67.1746 8.85513 66.5505 8.23292L63.3593 5.04171C63.0482 4.7306 62.6397 4.57505 62.2312 4.57505ZM27.117 0H46.2862C49.5366 0 52.3262 2.01018 53.4773 4.85267C53.7296 4.80938 53.9888 4.78683 54.2533 4.78683H57.8695C58.0876 4.09563 58.4701 3.46253 58.997 2.9356C59.8604 2.07216 61.009 1.59659 62.2312 1.59659C63.4533 1.59659 64.6019 2.07211 65.4654 2.93559L68.6566 6.12684C69.5199 6.9876 69.997 8.13728 69.997 9.36105C69.997 10.5848 69.5199 11.7345 68.6536 12.5983L65.4654 15.7865C64.7417 16.5103 63.8175 16.9615 62.8177 17.0886C63.3387 18.1426 63.6141 19.3105 63.6141 20.5206V26.9126C63.6141 27.4997 63.4443 28.047 63.1511 28.5082C63.4443 28.9695 63.6141 29.5168 63.6141 30.1038V31.709C63.6141 33.7805 62.8073 35.728 61.3423 37.193C59.8775 38.6579 57.9299 39.4648 55.8584 39.4648H54.0356C54.0388 39.5352 54.0405 39.606 54.0405 39.6773V42.8796C54.0405 47.1553 50.5619 50.6338 46.2862 50.6338H27.117C25.0446 50.6338 23.0978 49.8272 21.6346 48.3622C20.1696 46.8991 19.3627 44.9521 19.3627 42.8796V7.75426C19.3627 5.68191 20.1694 3.73507 21.6344 2.27189C23.0975 0.806871 25.0445 0 27.117 0ZM44.8928 9.14813H44.3453C44.1072 10.4808 43.5254 11.7216 42.6439 12.7649H44.8928V9.14813ZM32.2742 14.1438C31.8949 13.8819 31.5382 13.5857 31.2102 13.2579C30.0933 12.1405 29.3448 10.6917 29.0624 9.14816H28.5109V41.4857H44.8923V39.6773C44.8923 39.606 44.894 39.5352 44.8972 39.4648H36.6919C34.6205 39.4648 32.673 38.658 31.208 37.193C29.743 35.7281 28.9362 33.7805 28.9362 31.709V20.5206C28.9362 18.4492 29.743 16.5016 31.208 15.0367C31.54 14.7047 31.8968 14.4064 32.2742 14.1438Z" fill="#FCA311"/>
</g>
</g>
</g>
<defs>
<clipPath id="clip0_5_4549">
<rect width="70" height="58.08" fill="white"/>
</clipPath>
<clipPath id="clip1_5_4549">
<rect width="70" height="58.08" fill="white"/>
</clipPath>
<clipPath id="clip2_5_4549">
<rect width="69.9948" height="58.08" fill="white" transform="translate(0.00256348)"/>
</clipPath>
</defs>
</svg>
