<svg width="63" height="59" viewBox="0 0 63 59" fill="none" xmlns="http://www.w3.org/2000/svg">
<g clip-path="url(#clip0_5_4540)">
<g clip-path="url(#clip1_5_4540)">
<g clip-path="url(#clip2_5_4540)">
<path d="M0 18.5H34C35.8565 18.5 37.637 19.2375 38.9497 20.5503C40.2625 21.863 41 23.6435 41 25.5V58.5H15C11.0218 58.5 7.20644 56.9196 4.3934 54.1066C1.58035 51.2936 0 47.4782 0 43.5L0 18.5Z" fill="#FCA311"/>
<path d="M61.5003 49.4999H60.0003H19.5H18V47.9999V45.75C18 41.9199 19.0157 38.1499 20.9374 34.8477C22.8049 31.6384 25.4752 28.9475 28.6594 27.0657L28.9464 26.8961C26.3491 24.1979 24.7499 20.5322 24.7499 16.5001C24.7499 8.22903 31.4789 1.5 39.75 1.5C48.0211 1.5 54.7501 8.22903 54.7501 16.5001C54.7501 20.5322 53.151 24.1977 50.5537 26.8959L50.841 27.0658C54.0253 28.9479 56.6955 31.639 58.563 34.8482C60.4846 38.1503 61.5003 41.9201 61.5003 45.75V47.9999V49.4999Z" fill="#15213D"/>
<path d="M39.75 3C32.3024 3 26.2499 9.05249 26.2499 16.5001C26.2499 23.9477 32.3024 30.0002 39.75 30.0002C47.1976 30.0002 53.2501 23.9477 53.2501 16.5001C53.2501 9.05251 47.1976 3 39.75 3ZM29.4226 28.3571C23.4827 31.8673 19.5 38.3693 19.5 45.75V47.9999H60.0003V45.75C60.0003 38.3698 56.0177 31.8681 50.0778 28.3571C47.31 30.8097 43.6874 32.2496 39.7502 32.2496C35.813 32.2496 32.1903 30.8096 29.4226 28.3571ZM39.75 0C48.8482 0 56.2501 7.40192 56.2501 16.5001C56.2501 20.2795 54.9733 23.7657 52.8277 26.5507C55.6939 28.4984 58.1073 31.0829 59.8595 34.0937C61.9142 37.6246 63.0003 41.6553 63.0003 45.75V47.9999C63.0003 49.6568 61.6572 50.9999 60.0003 50.9999H19.5C17.8432 50.9999 16.5 49.6568 16.5 47.9999V45.75C16.5 41.6551 17.5861 37.6242 19.6409 34.0932C21.393 31.0825 23.8064 28.4982 26.6723 26.5508C24.5268 23.7658 23.2499 20.2795 23.2499 16.5001C23.2499 7.40192 30.6518 0 39.75 0Z" fill="#FCA311"/>
</g>
</g>
</g>
<defs>
<clipPath id="clip0_5_4540">
<rect width="63" height="58.5" fill="white"/>
</clipPath>
<clipPath id="clip1_5_4540">
<rect width="63" height="58.5" fill="white"/>
</clipPath>
<clipPath id="clip2_5_4540">
<rect width="63" height="58.5" fill="white"/>
</clipPath>
</defs>
</svg>
