<?xml version="1.0" encoding="utf-8"?>
<!-- Generator: Adobe Illustrator 27.5.0, SVG Export Plug-In . SVG Version: 6.00 Build 0)  -->
<svg version="1.1" xmlns="http://www.w3.org/2000/svg" xmlns:xlink="http://www.w3.org/1999/xlink" x="0px" y="0px"
	 viewBox="0 0 2500 2500" style="enable-background:new 0 0 2500 2500;" xml:space="preserve">
<g id="Background">
	<rect style="fill:#FFFFFF;" width="2500" height="2500"/>
</g>
<g id="Illustration">
	<g id="Nursing_home_1_">
		<circle style="fill:#F2E6DC;" cx="1250" cy="1250" r="915"/>
		<g>
			<g>
				<rect x="1156.612" y="728.714" style="fill:#E6D0BE;" width="450.627" height="648.786"/>
				<g>
					<g>
						<rect x="1257.047" y="785.557" style="fill:#F7F1EB;" width="132.479" height="107.218"/>
						<g>
							<path style="fill:#D3BBA3;" d="M1320.709,902.394c-1.219,0-2.205-0.987-2.205-2.205V778.144c0-1.218,0.986-2.205,2.205-2.205
								s2.205,0.987,2.205,2.205v122.044C1322.914,901.406,1321.928,902.394,1320.709,902.394z"/>
							<path style="fill:#D3BBA3;" d="M1396.11,841.371h-150.8c-1.219,0-2.205-0.987-2.205-2.205s0.986-2.205,2.205-2.205h150.8
								c1.219,0,2.205,0.987,2.205,2.205S1397.329,841.371,1396.11,841.371z"/>
						</g>
					</g>
					<g>
						<rect x="1427.795" y="785.557" style="fill:#F7F1EB;" width="132.479" height="107.218"/>
						<g>
							<path style="fill:#D3BBA3;" d="M1491.757,902.394c-1.219,0-2.205-0.987-2.205-2.205V778.144c0-1.218,0.986-2.205,2.205-2.205
								c1.219,0,2.205,0.987,2.205,2.205v122.044C1493.962,901.406,1492.976,902.394,1491.757,902.394z"/>
							<path style="fill:#D3BBA3;" d="M1567.156,841.371h-150.797c-1.219,0-2.205-0.987-2.205-2.205s0.986-2.205,2.205-2.205
								h150.797c1.219,0,2.205,0.987,2.205,2.205S1568.375,841.371,1567.156,841.371z"/>
						</g>
					</g>
					<g>
						<rect x="1259.246" y="986.07" style="fill:#F7F1EB;" width="132.479" height="107.218"/>
						<g>
							<path style="fill:#D3BBA3;" d="M1322.908,1102.906c-1.219,0-2.205-0.987-2.205-2.205V978.657
								c0-1.218,0.986-2.205,2.205-2.205s2.205,0.987,2.205,2.205v122.044C1325.112,1101.919,1324.126,1102.906,1322.908,1102.906z"
								/>
							<path style="fill:#D3BBA3;" d="M1398.306,1041.884h-150.798c-1.219,0-2.205-0.987-2.205-2.205
								c0-1.218,0.986-2.205,2.205-2.205h150.798c1.219,0,2.205,0.987,2.205,2.205
								C1400.511,1040.897,1399.525,1041.884,1398.306,1041.884z"/>
						</g>
					</g>
					<g>
						<rect x="1429.994" y="986.07" style="fill:#F7F1EB;" width="132.479" height="107.218"/>
						<g>
							<path style="fill:#D3BBA3;" d="M1493.955,1102.906c-1.219,0-2.205-0.987-2.205-2.205V978.657
								c0-1.218,0.986-2.205,2.205-2.205c1.219,0,2.205,0.987,2.205,2.205v122.044
								C1496.16,1101.919,1495.174,1102.906,1493.955,1102.906z"/>
							<path style="fill:#D3BBA3;" d="M1569.354,1041.884h-150.798c-1.219,0-2.205-0.987-2.205-2.205
								c0-1.218,0.986-2.205,2.205-2.205h150.798c1.219,0,2.205,0.987,2.205,2.205
								C1571.559,1040.897,1570.573,1041.884,1569.354,1041.884z"/>
						</g>
					</g>
					<g>
						<rect x="1261.444" y="1184.07" style="fill:#F7F1EB;" width="132.479" height="107.218"/>
						<g>
							<path style="fill:#D3BBA3;" d="M1325.106,1300.906c-1.219,0-2.205-0.987-2.205-2.205v-122.044
								c0-1.218,0.986-2.205,2.205-2.205s2.205,0.987,2.205,2.205v122.044C1327.311,1299.919,1326.325,1300.906,1325.106,1300.906z"
								/>
							<path style="fill:#D3BBA3;" d="M1400.505,1239.884h-150.798c-1.219,0-2.205-0.987-2.205-2.205
								c0-1.218,0.986-2.205,2.205-2.205h150.798c1.219,0,2.205,0.987,2.205,2.205
								C1402.71,1238.897,1401.723,1239.884,1400.505,1239.884z"/>
						</g>
					</g>
					<g>
						<rect x="1432.192" y="1184.07" style="fill:#F7F1EB;" width="132.479" height="107.218"/>
						<g>
							<path style="fill:#D3BBA3;" d="M1496.154,1300.906c-1.219,0-2.205-0.987-2.205-2.205v-122.044
								c0-1.218,0.986-2.205,2.205-2.205c1.219,0,2.205,0.987,2.205,2.205v122.044
								C1498.359,1299.919,1497.373,1300.906,1496.154,1300.906z"/>
							<path style="fill:#D3BBA3;" d="M1571.553,1239.884h-150.798c-1.219,0-2.205-0.987-2.205-2.205
								c0-1.218,0.986-2.205,2.205-2.205h150.798c1.219,0,2.205,0.987,2.205,2.205
								C1573.757,1238.897,1572.771,1239.884,1571.553,1239.884z"/>
						</g>
					</g>
				</g>
				<rect x="1142.691" y="696.132" style="fill:#D3BBA3;" width="465.342" height="40.102"/>
			</g>
			<path style="fill:#363E44;" d="M1104.661,1610.599c-1.219,0-2.205-0.987-2.205-2.205v-445.52c0-1.218,0.986-2.205,2.205-2.205
				s2.205,0.987,2.205,2.205v445.52C1106.865,1609.612,1105.879,1610.599,1104.661,1610.599z"/>
			<g>
				<polygon style="fill:#D3BBA3;" points="2129.169,1449.542 1542.959,1449.542 1542.959,658.409 1845.301,450.386 
					2129.169,658.409 				"/>
				<path style="fill:#363E44;" d="M1554.291,1443.643c-1.219,0-2.205-0.987-2.205-2.205V656c0-1.218,0.986-2.205,2.205-2.205
					s2.205,0.987,2.205,2.205v785.439C1556.496,1442.656,1555.51,1443.643,1554.291,1443.643z"/>
				<g>
					<g>
						<rect x="1596.745" y="899.844" style="fill:#F7F1EB;" width="132.479" height="99.926"/>
						<g>
							<path style="fill:#D3BBA3;" d="M1660.409,1008.884c-1.219,0-2.205-0.987-2.205-2.205V892.935
								c0-1.218,0.986-2.205,2.205-2.205c1.219,0,2.205,0.987,2.205,2.205v113.744
								C1662.613,1007.896,1661.627,1008.884,1660.409,1008.884z"/>
							<path style="fill:#D3BBA3;" d="M1735.807,952.012h-150.8c-1.219,0-2.205-0.987-2.205-2.205c0-1.218,0.986-2.205,2.205-2.205
								h150.8c1.219,0,2.205,0.987,2.205,2.205C1738.012,951.025,1737.026,952.012,1735.807,952.012z"/>
						</g>
					</g>
					<g>
						<rect x="1767.493" y="899.844" style="fill:#F7F1EB;" width="132.479" height="99.926"/>
						<g>
							<path style="fill:#D3BBA3;" d="M1831.454,1008.884c-1.219,0-2.205-0.987-2.205-2.205V892.935
								c0-1.218,0.986-2.205,2.205-2.205s2.205,0.987,2.205,2.205v113.744C1833.659,1007.896,1832.673,1008.884,1831.454,1008.884z"
								/>
							<path style="fill:#D3BBA3;" d="M1906.853,952.012h-150.798c-1.219,0-2.205-0.987-2.205-2.205
								c0-1.218,0.986-2.205,2.205-2.205h150.798c1.219,0,2.205,0.987,2.205,2.205
								C1909.058,951.025,1908.072,952.012,1906.853,952.012z"/>
						</g>
					</g>
					<g>
						<rect x="1938.241" y="899.844" style="fill:#F7F1EB;" width="132.479" height="99.926"/>
						<g>
							<path style="fill:#D3BBA3;" d="M2005.174,1008.884c-1.219,0-2.205-0.987-2.205-2.205V892.935
								c0-1.218,0.986-2.205,2.205-2.205c1.219,0,2.205,0.987,2.205,2.205v113.744
								C2007.379,1007.896,2006.393,1008.884,2005.174,1008.884z"/>
							<path style="fill:#D3BBA3;" d="M2080.573,952.012h-150.797c-1.219,0-2.205-0.987-2.205-2.205
								c0-1.218,0.986-2.205,2.205-2.205h150.797c1.219,0,2.205,0.987,2.205,2.205
								C2082.778,951.025,2081.792,952.012,2080.573,952.012z"/>
						</g>
					</g>
					<g>
						<rect x="1596.745" y="733" style="fill:#F7F1EB;" width="132.479" height="99.926"/>
						<g>
							<path style="fill:#D3BBA3;" d="M1660.409,842.04c-1.219,0-2.205-0.987-2.205-2.205V726.091c0-1.218,0.986-2.205,2.205-2.205
								c1.219,0,2.205,0.987,2.205,2.205v113.744C1662.613,841.053,1661.627,842.04,1660.409,842.04z"/>
							<path style="fill:#D3BBA3;" d="M1735.807,785.168h-150.8c-1.219,0-2.205-0.987-2.205-2.205s0.986-2.205,2.205-2.205h150.8
								c1.219,0,2.205,0.987,2.205,2.205S1737.026,785.168,1735.807,785.168z"/>
						</g>
					</g>
					<g>
						<rect x="1767.493" y="733" style="fill:#F7F1EB;" width="132.479" height="99.926"/>
						<g>
							<path style="fill:#D3BBA3;" d="M1831.454,842.04c-1.219,0-2.205-0.987-2.205-2.205V726.091c0-1.218,0.986-2.205,2.205-2.205
								s2.205,0.987,2.205,2.205v113.744C1833.659,841.053,1832.673,842.04,1831.454,842.04z"/>
							<path style="fill:#D3BBA3;" d="M1906.853,785.168h-150.798c-1.219,0-2.205-0.987-2.205-2.205s0.986-2.205,2.205-2.205
								h150.798c1.219,0,2.205,0.987,2.205,2.205S1908.072,785.168,1906.853,785.168z"/>
						</g>
					</g>
					<g>
						<rect x="1767.493" y="564.7" style="fill:#F7F1EB;" width="132.479" height="99.926"/>
						<g>
							<path style="fill:#D3BBA3;" d="M1831.454,673.739c-1.219,0-2.205-0.987-2.205-2.205V557.792c0-1.218,0.986-2.205,2.205-2.205
								s2.205,0.987,2.205,2.205v113.743C1833.659,672.752,1832.673,673.739,1831.454,673.739z"/>
							<path style="fill:#D3BBA3;" d="M1906.853,616.867h-150.798c-1.219,0-2.205-0.987-2.205-2.205s0.986-2.205,2.205-2.205
								h150.798c1.219,0,2.205,0.987,2.205,2.205S1908.072,616.867,1906.853,616.867z"/>
						</g>
					</g>
					<g>
						<rect x="1938.241" y="733" style="fill:#F7F1EB;" width="132.479" height="99.926"/>
						<g>
							<path style="fill:#D3BBA3;" d="M2005.174,842.04c-1.219,0-2.205-0.987-2.205-2.205V726.091c0-1.218,0.986-2.205,2.205-2.205
								c1.219,0,2.205,0.987,2.205,2.205v113.744C2007.379,841.053,2006.393,842.04,2005.174,842.04z"/>
							<path style="fill:#D3BBA3;" d="M2080.573,785.168h-150.797c-1.219,0-2.205-0.987-2.205-2.205s0.986-2.205,2.205-2.205
								h150.797c1.219,0,2.205,0.987,2.205,2.205S2081.792,785.168,2080.573,785.168z"/>
						</g>
					</g>
					<g>
						<rect x="1600.416" y="1234.243" style="fill:#F7F1EB;" width="132.479" height="99.926"/>
						<g>
							<path style="fill:#D3BBA3;" d="M1664.078,1343.283c-1.219,0-2.205-0.987-2.205-2.205v-113.744
								c0-1.218,0.986-2.205,2.205-2.205s2.205,0.987,2.205,2.205v113.744C1666.282,1342.296,1665.296,1343.283,1664.078,1343.283z"
								/>
							<path style="fill:#D3BBA3;" d="M1739.479,1286.411h-150.8c-1.219,0-2.205-0.987-2.205-2.205s0.986-2.205,2.205-2.205h150.8
								c1.219,0,2.205,0.987,2.205,2.205S1740.697,1286.411,1739.479,1286.411z"/>
						</g>
					</g>
					<g>
						<rect x="1771.164" y="1234.243" style="fill:#F7F1EB;" width="132.479" height="99.926"/>
						<g>
							<path style="fill:#D3BBA3;" d="M1835.125,1343.283c-1.219,0-2.205-0.987-2.205-2.205v-113.744
								c0-1.218,0.986-2.205,2.205-2.205c1.219,0,2.205,0.987,2.205,2.205v113.744
								C1837.33,1342.296,1836.344,1343.283,1835.125,1343.283z"/>
							<path style="fill:#D3BBA3;" d="M1910.524,1286.411h-150.797c-1.219,0-2.205-0.987-2.205-2.205s0.986-2.205,2.205-2.205
								h150.797c1.219,0,2.205,0.987,2.205,2.205S1911.743,1286.411,1910.524,1286.411z"/>
						</g>
					</g>
					<g>
						<rect x="1941.911" y="1234.243" style="fill:#F7F1EB;" width="132.479" height="99.926"/>
						<g>
							<path style="fill:#D3BBA3;" d="M2008.845,1343.283c-1.219,0-2.205-0.987-2.205-2.205v-113.744
								c0-1.218,0.986-2.205,2.205-2.205c1.219,0,2.205,0.987,2.205,2.205v113.744
								C2011.05,1342.296,2010.064,1343.283,2008.845,1343.283z"/>
							<path style="fill:#D3BBA3;" d="M2084.244,1286.411h-150.797c-1.219,0-2.205-0.987-2.205-2.205s0.986-2.205,2.205-2.205
								h150.797c1.219,0,2.205,0.987,2.205,2.205S2085.463,1286.411,2084.244,1286.411z"/>
						</g>
					</g>
					<g>
						<rect x="1600.416" y="1067.399" style="fill:#F7F1EB;" width="132.479" height="99.926"/>
						<g>
							<path style="fill:#D3BBA3;" d="M1664.078,1176.438c-1.219,0-2.205-0.987-2.205-2.205V1060.49
								c0-1.218,0.986-2.205,2.205-2.205s2.205,0.987,2.205,2.205v113.743C1666.282,1175.451,1665.296,1176.438,1664.078,1176.438z"
								/>
							<path style="fill:#D3BBA3;" d="M1739.479,1119.566h-150.8c-1.219,0-2.205-0.987-2.205-2.205c0-1.218,0.986-2.205,2.205-2.205
								h150.8c1.219,0,2.205,0.987,2.205,2.205C1741.683,1118.579,1740.697,1119.566,1739.479,1119.566z"/>
						</g>
					</g>
					<g>
						<rect x="1771.164" y="1067.399" style="fill:#F7F1EB;" width="132.479" height="99.926"/>
						<g>
							<path style="fill:#D3BBA3;" d="M1835.125,1176.438c-1.219,0-2.205-0.987-2.205-2.205V1060.49
								c0-1.218,0.986-2.205,2.205-2.205c1.219,0,2.205,0.987,2.205,2.205v113.743
								C1837.33,1175.451,1836.344,1176.438,1835.125,1176.438z"/>
							<path style="fill:#D3BBA3;" d="M1910.524,1119.566h-150.797c-1.219,0-2.205-0.987-2.205-2.205
								c0-1.218,0.986-2.205,2.205-2.205h150.797c1.219,0,2.205,0.987,2.205,2.205
								C1912.729,1118.579,1911.743,1119.566,1910.524,1119.566z"/>
						</g>
					</g>
					<g>
						<rect x="1941.911" y="1067.399" style="fill:#F7F1EB;" width="132.479" height="99.926"/>
						<g>
							<path style="fill:#D3BBA3;" d="M2008.845,1176.438c-1.219,0-2.205-0.987-2.205-2.205V1060.49
								c0-1.218,0.986-2.205,2.205-2.205c1.219,0,2.205,0.987,2.205,2.205v113.743
								C2011.05,1175.451,2010.064,1176.438,2008.845,1176.438z"/>
							<path style="fill:#D3BBA3;" d="M2084.244,1119.566h-150.797c-1.219,0-2.205-0.987-2.205-2.205
								c0-1.218,0.986-2.205,2.205-2.205h150.797c1.219,0,2.205,0.987,2.205,2.205
								C2086.449,1118.579,2085.463,1119.566,2084.244,1119.566z"/>
						</g>
					</g>
				</g>
				<polygon style="fill:#D87355;" points="1496.205,676.747 1844.566,426.133 2164.265,678.952 2126.783,680.422 1840.157,462.145 
					1542.506,680.422 				"/>
			</g>
			<g>
				<rect x="1135.405" y="1072.354" style="fill:#D3BBA3;" width="756.211" height="445.52"/>
				<rect x="1117.322" y="1056.575" style="fill:#D87355;" width="786.948" height="37.369"/>
				<rect x="1207.71" y="1123.258" style="fill:#F2E6DC;" width="607.705" height="112.107"/>
				<g>
					<path style="fill:#D3BBA3;" d="M1308.156,1237.698c-1.212,0-2.198-0.98-2.205-2.193l-0.584-109.429
						c-0.006-1.218,0.975-2.21,2.194-2.217c0.002,0,0.006,0,0.011,0c1.212,0,2.198,0.98,2.205,2.193l0.583,109.429
						c0.006,1.218-0.975,2.21-2.194,2.217C1308.165,1237.698,1308.161,1237.698,1308.156,1237.698z"/>
					<path style="fill:#D3BBA3;" d="M1418.102,1236.13c-1.212,0-2.198-0.98-2.205-2.193l-0.586-109.429
						c-0.006-1.218,0.975-2.21,2.194-2.217c0.002,0,0.006,0,0.011,0c1.212,0,2.198,0.98,2.205,2.193l0.586,109.429
						c0.006,1.218-0.975,2.21-2.194,2.217C1418.111,1236.13,1418.107,1236.13,1418.102,1236.13z"/>
					<path style="fill:#D3BBA3;" d="M1517.685,1233.242c-1.212,0-2.198-0.98-2.205-2.193l-0.586-109.429
						c-0.006-1.218,0.975-2.21,2.194-2.217c0.002,0,0.006,0,0.011,0c1.212,0,2.198,0.98,2.205,2.193l0.586,109.429
						c0.006,1.218-0.975,2.21-2.194,2.217C1517.694,1233.242,1517.69,1233.242,1517.685,1233.242z"/>
					<path style="fill:#D3BBA3;" d="M1612.977,1237.745c-1.212,0-2.198-0.98-2.205-2.193l-0.586-109.429
						c-0.006-1.218,0.975-2.21,2.194-2.217c0.002,0,0.006,0,0.011,0c1.212,0,2.198,0.98,2.205,2.193l0.586,109.429
						c0.007,1.218-0.975,2.21-2.194,2.217C1612.986,1237.745,1612.981,1237.745,1612.977,1237.745z"/>
					<path style="fill:#D3BBA3;" d="M1715.51,1233.349c-1.212,0-2.198-0.98-2.205-2.193l-0.583-109.428
						c-0.007-1.218,0.975-2.21,2.194-2.217c0.002,0,0.006,0,0.011,0c1.212,0,2.198,0.98,2.205,2.193l0.583,109.428
						c0.006,1.218-0.975,2.21-2.194,2.217C1715.518,1233.349,1715.514,1233.349,1715.51,1233.349z"/>
				</g>
				<rect x="1394.298" y="1271.997" style="fill:#E6D0BE;" width="243.998" height="243.998"/>
				<g>
					<rect x="1281.958" y="1274.353" style="fill:#F7F1EB;" width="32.242" height="272.831"/>
					<rect x="1715.753" y="1272.731" style="fill:#F7F1EB;" width="32.242" height="272.831"/>
					<rect x="1262.903" y="1264.326" style="fill:#F2E6DC;" width="504.141" height="43.966"/>
					<rect x="1247.02" y="1254.411" style="fill:#FFFFFF;" width="531.959" height="35.171"/>
					<path style="fill:#363E44;" d="M1779.157,1256.615H1245.59c-1.219,0-2.205-0.987-2.205-2.205c0-1.218,0.986-2.205,2.205-2.205
						h533.566c1.219,0,2.205,0.987,2.205,2.205C1781.361,1255.628,1780.375,1256.615,1779.157,1256.615z"/>
				</g>
				<path style="fill:#D3BBA3;" d="M1514.578,1521.193c-1.219,0-2.205-0.987-2.205-2.205v-211.663c0-1.218,0.986-2.205,2.205-2.205
					c1.219,0,2.205,0.987,2.205,2.205v211.663C1516.783,1520.206,1515.797,1521.193,1514.578,1521.193z"/>
				<g>
					<rect x="1373.803" y="1504.195" style="fill:#F2E6DC;" width="284.312" height="21.494"/>
					<rect x="1348.399" y="1517.874" style="fill:#F7F1EB;" width="335.117" height="21.494"/>
					<rect x="1336.674" y="1533.506" style="fill:#FFFFFF;" width="362.475" height="21.494"/>
				</g>
			</g>
		</g>
		<g>
			<path style="fill:#E6D0BE;" d="M671.185,1466.305c-0.054,0-0.11-0.002-0.166-0.006c-1.214-0.089-2.125-1.146-2.035-2.361
				c9.523-128.641,36.046-259.012,78.827-387.497c34.222-102.775,78.865-204.58,132.69-302.586
				c91.655-166.887,179.389-266.222,180.266-267.205c0.807-0.911,2.203-0.991,3.114-0.182c0.909,0.81,0.99,2.203,0.181,3.112
				c-0.872,0.982-88.337,100.025-179.757,266.513c-84.352,153.613-189.416,397.699-210.922,688.169
				C673.295,1465.422,672.329,1466.305,671.185,1466.305z"/>
			<path style="fill:#E6D0BE;" d="M1008.703,576.176c0,0-14.747-95.203,148.913-189.423
				C1157.616,386.753,1144.406,572.133,1008.703,576.176z"/>
			<path style="fill:#E6D0BE;" d="M960.15,627.509c1.965,1.297,34.694-88.389-50.126-198.61
				C910.024,428.899,886.936,579.151,960.15,627.509z"/>
			<path style="fill:#E6D0BE;" d="M902.971,709.847c0,0,5.034-82.294-114.661-175.188
				C788.31,534.659,831.381,705.705,902.971,709.847z"/>
			<path style="fill:#E6D0BE;" d="M849.564,812.857c2.355-0.002-19.861-92.853-151.43-137.94
				C698.134,674.917,761.822,812.948,849.564,812.857z"/>
			<path style="fill:#E6D0BE;" d="M810.581,892.478c0,0-40.586-61.654-176.277-64.571
				C634.304,827.907,757.036,927.582,810.581,892.478z"/>
			<path style="fill:#E6D0BE;" d="M764.772,1004.374c0,0-53.12-36.376-163.63,6.066
				C601.143,1010.44,733.134,1050.391,764.772,1004.374z"/>
			<path style="fill:#E6D0BE;" d="M972.669,641.178c-1.698-1.214,62.161-56.792,180.352-21.57
				C1153.021,619.608,1035.955,686.438,972.669,641.178z"/>
			<path style="fill:#E6D0BE;" d="M924.641,724.923c0,0,75.034-34.172,204.631,44.318
				C1129.272,769.241,954.147,790.281,924.641,724.923z"/>
			<path style="fill:#E6D0BE;" d="M870.675,833.839c-0.841-2.199,93.808-14.708,183.022,91.988
				C1053.697,925.827,902.012,915.795,870.675,833.839z"/>
			<path style="fill:#E6D0BE;" d="M830.304,908.644c0,0,72.1,15.814,123.417,141.461
				C953.721,1050.105,816.704,971.208,830.304,908.644z"/>
			<path style="fill:#E6D0BE;" d="M783.644,1015.361c0,0,52.987,36.57,52.935,154.949
				C836.579,1170.31,752.01,1061.381,783.644,1015.361z"/>
		</g>
		<g>
			<g>
				<path style="fill:#8B865C;" d="M2103.273,1264.72c9.932,1.591,20.385-0.028,30.044-5.372
					c25.208-13.946,35.439-47.893,22.853-75.824c-6.228-13.82-16.877-23.568-29.099-28.211c7.8-18.585,8.177-40.785-0.729-60.547
					c-11.607-25.757-28.434-37.206-52.828-35.584c10.462-16.512,7.099-56.794-25.525-65.887c-23.568-6.569-36.381,2.56-36.852,1.516
					c-17.408-38.632-62.052-44.168-96.918-24.879c-32.745,18.116-47.215,60.634-34.432,97.742
					c-21.834,23.062-28.595,60.044-14.416,91.509c8.346,18.52,22.436,31.746,38.68,38.393
					c-18.769,16.202-25.281,45.319-14.244,69.812c12.358,27.425,42.116,38.833,67.053,26.037
					c0.361,11.557,2.891,23.214,7.858,34.236c18.523,41.105,63.612,57.789,100.709,37.265
					C2099.158,1346.265,2114.66,1303.27,2103.273,1264.72z"/>
				<path style="fill:#D3BBA3;" d="M1963.636,1032.418c-0.065,0-0.129-0.003-0.192-0.009c-0.624-0.055-1.195-0.371-1.57-0.871
					c-0.314-0.416-7.652-10.315-6.737-21.806c0.917-11.511,9.728-19.857,10.102-20.207c0.459-0.427,1.077-0.634,1.697-0.585
					c0.624,0.055,1.195,0.371,1.57,0.871c0.314,0.416,7.652,10.314,6.739,21.805c-0.917,11.512-9.73,19.859-10.105,20.208
					C1964.73,1032.208,1964.191,1032.418,1963.636,1032.418z M1966.441,994.725c-2.392,2.859-6.367,8.554-6.907,15.358
					c-0.547,6.875,2.498,13.276,4.408,16.542c2.392-2.858,6.367-8.555,6.907-15.358
					C1971.396,1004.392,1968.349,997.991,1966.441,994.725z"/>
				<path style="fill:#D3BBA3;" d="M2058.835,1078.14c-0.583,0-1.146-0.231-1.559-0.646c-0.435-0.435-0.667-1.031-0.644-1.646
					c0.019-0.52,0.588-12.841,7.986-20.969c7.48-8.213,18.795-8.744,19.273-8.762c0.648-0.023,1.212,0.21,1.645,0.644
					c0.435,0.435,0.667,1.031,0.644,1.646c-0.02,0.52-0.588,12.842-7.988,20.969c-7.478,8.215-18.792,8.744-19.271,8.762
					C2058.891,1078.139,2058.863,1078.14,2058.835,1078.14z M2081.497,1050.853c-3.37,0.61-9.358,2.315-13.619,6.995
					c-4.444,4.883-6.018,11.82-6.563,15.553c3.372-0.61,9.357-2.315,13.616-6.995
					C2079.378,1061.523,2080.952,1054.586,2081.497,1050.853z"/>
				<path style="fill:#D3BBA3;" d="M1940.496,1134.318c-0.519,0-1.044-0.019-1.572-0.06c-10.546-0.817-18.332-9.852-18.659-10.236
					c-0.775-0.914-0.678-2.279,0.217-3.076c0.37-0.332,9.267-8.087,19.805-7.278c10.546,0.817,18.332,9.852,18.659,10.236
					c0.775,0.914,0.678,2.279-0.218,3.076C1958.376,1127.295,1950.355,1134.318,1940.496,1134.318z M1925.258,1122.828
					c2.547,2.388,7.818,6.554,14.006,7.033c6.167,0.488,11.875-2.793,14.689-4.763c-2.547-2.388-7.818-6.554-14.006-7.033
					C1933.795,1117.591,1928.074,1120.859,1925.258,1122.828z"/>
				<path style="fill:#D3BBA3;" d="M1997.634,1240.096c-6.113,0-10.955-1.991-11.255-2.117c-0.54-0.227-0.969-0.66-1.188-1.203
					c-0.22-0.544-0.215-1.153,0.015-1.693c0.202-0.474,5.056-11.658,14.801-16.016c9.823-4.395,20.461-0.025,20.911,0.165
					c0.54,0.227,0.969,0.661,1.188,1.205s0.215,1.152-0.015,1.692c-0.202,0.474-5.058,11.658-14.801,16.016
					C2004.027,1239.603,2000.672,1240.096,1997.634,1240.096z M1990.361,1234.654c3.26,0.895,9.491,1.986,15.13-0.536
					c5.796-2.592,9.676-8.396,11.446-11.561c-3.264-0.895-9.493-1.986-15.13,0.535
					C1996.008,1225.685,1992.13,1231.489,1990.361,1234.654z"/>
				<path style="fill:#D3BBA3;" d="M2038.335,1156.74c-0.358,0-0.713-0.086-1.036-0.258c-0.426-0.227-10.527-5.695-14.374-16.445
					c-3.822-10.681,0.108-22.208,0.278-22.693c0.211-0.607,0.678-1.093,1.277-1.327c0.605-0.234,1.273-0.195,1.841,0.106
					c0.426,0.227,10.527,5.695,14.374,16.446c3.822,10.68-0.108,22.206-0.278,22.692c-0.211,0.607-0.678,1.093-1.277,1.327
					C2038.88,1156.689,2038.606,1156.74,2038.335,1156.74z M2026.626,1121.553c-0.838,3.738-1.813,10.671,0.45,16.998
					c2.205,6.16,7.011,10.387,9.92,12.492c0.838-3.74,1.809-10.668-0.452-16.989
					C2034.326,1127.861,2029.528,1123.647,2026.626,1121.553z"/>
				<path style="fill:#D3BBA3;" d="M2054.464,1336.849c-4.024,0-11.315-0.758-17.288-5.544
					c-8.468-6.786-10.749-18.886-10.843-19.398c-0.108-0.593,0.032-1.205,0.388-1.691c0.355-0.488,0.894-0.808,1.492-0.888
					c0.472-0.065,11.75-1.475,20.304,5.384c8.468,6.786,10.749,18.885,10.843,19.397c0.108,0.593-0.032,1.205-0.388,1.691
					c-0.355,0.488-0.894,0.808-1.492,0.888C2057.338,1336.707,2056.208,1336.849,2054.464,1336.849z M2031.296,1313.587
					c1.049,3.578,3.572,10.218,8.636,14.277c4.879,3.909,11.074,4.547,14.465,4.565c-1.049-3.577-3.572-10.217-8.636-14.276
					C2040.882,1314.243,2034.687,1313.604,2031.296,1313.587z"/>
				<path style="fill:#D3BBA3;" d="M1880.163,1083.632c-4.016,0-9.205-0.745-13.899-3.726c-9.086-5.771-12.514-17.556-12.654-18.054
					c-0.164-0.573-0.086-1.188,0.211-1.703c0.297-0.516,0.79-0.889,1.367-1.036c0.467-0.12,11.545-2.84,20.726,2.988
					c9.086,5.771,12.512,17.556,12.652,18.055c0.164,0.573,0.086,1.186-0.211,1.702c-0.297,0.516-0.79,0.889-1.367,1.036
					C1886.76,1082.952,1883.998,1083.632,1880.163,1083.632z M1858.687,1062.983c1.374,3.419,4.511,9.753,9.941,13.201
					c5.245,3.331,11.5,3.219,14.859,2.835c-1.374-3.421-4.509-9.747-9.937-13.194
					C1868.277,1062.475,1862.035,1062.591,1858.687,1062.983z"/>
				<path style="fill:#D3BBA3;" d="M1903.012,1006.808c-0.116,0-0.232-0.009-0.347-0.028c-0.474-0.075-11.655-1.952-18.274-10.991
					c-6.554-8.947-5.919-21.255-5.889-21.775c0.037-0.622,0.334-1.199,0.818-1.59c0.484-0.392,1.124-0.562,1.729-0.459
					c0.474,0.075,11.655,1.952,18.274,10.991c6.554,8.947,5.919,21.255,5.889,21.775c-0.037,0.622-0.334,1.199-0.818,1.59
					C1904,1006.639,1903.511,1006.808,1903.012,1006.808z M1882.934,976.966c0.189,3.801,1.096,10.868,5.015,16.219
					c3.792,5.177,9.534,7.584,12.833,8.596c-0.189-3.801-1.096-10.868-5.015-16.219
					C1891.975,980.385,1886.233,977.978,1882.934,976.966z"/>
				<path style="fill:#D3BBA3;" d="M1898.912,1261.721c-0.381,0-0.76-0.099-1.098-0.293c-0.549-0.315-0.937-0.854-1.064-1.475
					c-0.101-0.508-2.453-12.551,2.758-22.497c5.254-10.034,16.004-13.801,16.459-13.956c0.605-0.206,1.262-0.14,1.811,0.174
					c0.549,0.315,0.937,0.854,1.064,1.475c0.101,0.508,2.453,12.551-2.756,22.498c-5.254,10.034-16.006,13.8-16.461,13.955
					C1899.392,1261.682,1899.151,1261.721,1898.912,1261.721z M1914.882,1228.791c-3.141,1.594-8.466,4.98-11.468,10.711
					c-3.101,5.92-3.038,12.993-2.7,16.808c3.144-1.594,8.466-4.98,11.466-10.708
					C1915.293,1239.657,1915.225,1232.599,1914.882,1228.791z"/>
				<path style="fill:#D3BBA3;" d="M2132.109,1214.159c-2.002,0-4.091-0.245-6.19-0.861c-10.187-2.984-16.278-13.436-16.532-13.879
					c-0.603-1.049-0.248-2.386,0.794-2.998c0.422-0.249,10.467-6.055,20.722-3.046c10.187,2.984,16.278,13.437,16.532,13.88
					c0.603,1.049,0.248,2.386-0.795,2.998C2146.302,1210.45,2139.877,1214.159,2132.109,1214.159z M2114.532,1199.197
					c2.104,2.885,6.595,8.102,12.626,9.87c5.941,1.743,12.025-0.241,15.135-1.585c-2.102-2.885-6.595-8.108-12.63-9.876
					C2123.754,1195.875,2117.652,1197.855,2114.532,1199.197z"/>
			</g>
			
				<rect x="1995.328" y="1279.004" transform="matrix(-1 -1.224647e-16 1.224647e-16 -1 3998.9758 2837.3018)" style="fill:#84524D;" width="8.32" height="279.295"/>
		</g>
		<g>
			<path style="fill:#84524D;" d="M1718.158,1604.241c-0.095,0-0.189-0.005-0.286-0.018c-1.206-0.156-2.058-1.263-1.903-2.47
				l10.29-79.374c0.157-1.209,1.262-2.076,2.472-1.903c1.206,0.156,2.058,1.263,1.903,2.47l-10.292,79.374
				C1720.199,1603.431,1719.25,1604.241,1718.158,1604.241z"/>
			<rect x="1766.663" y="1438.88" style="fill:#EFBC73;" width="205.783" height="70.554"/>
			<path style="fill:#84524D;" d="M1758.76,1597.811c-1.128,0-2.091-0.862-2.194-2.008l-6.797-75.882
				c-0.108-1.213,0.786-2.285,2-2.393c1.232-0.104,2.282,0.787,2.392,1.999l6.797,75.882c0.108,1.213-0.786,2.285-2,2.393
				C1758.891,1597.807,1758.824,1597.811,1758.76,1597.811z"/>
			<path style="fill:#84524D;" d="M1978.322,1602.771c-1.079,0-2.02-0.79-2.179-1.887l-11.758-80.843
				c-0.177-1.206,0.659-2.324,1.865-2.5c1.204-0.176,2.321,0.66,2.498,1.865l11.758,80.843c0.177,1.206-0.659,2.324-1.865,2.5
				C1978.533,1602.764,1978.428,1602.771,1978.322,1602.771z"/>
			<path style="fill:#84524D;" d="M1933.679,1605.527c-0.084,0-0.168-0.004-0.254-0.014c-1.21-0.14-2.078-1.234-1.938-2.444
				l8.819-76.433c0.14-1.209,1.234-2.085,2.442-1.937c1.21,0.139,2.078,1.233,1.938,2.443l-8.819,76.433
				C1935.738,1604.7,1934.784,1605.527,1933.679,1605.527z"/>
			<path style="fill:#84524D;" d="M1724.587,1510.169c-0.013,0-0.026,0-0.039,0c-1.216-0.021-2.188-1.026-2.166-2.244l0.551-31.419
				c0.011-0.598,0.263-1.165,0.7-1.573c0.435-0.408,1.025-0.622,1.617-0.59l42.994,2.205c1.217,0.063,2.153,1.098,2.091,2.315
				c-0.065,1.217-1.169,2.141-2.315,2.089l-40.718-2.088l-0.51,29.139C1726.771,1509.208,1725.787,1510.169,1724.587,1510.169z"/>
			<path style="fill:#E0AA63;" d="M1967.118,1462.765c-0.004,0-0.009,0-0.013,0l-196.78-1.102c-1.216-0.006-2.198-0.999-2.192-2.217
				c0.009-1.219,0.969-2.174,2.218-2.193l196.78,1.103c1.217,0.006,2.198,0.999,2.192,2.217
				C1969.316,1461.787,1968.33,1462.765,1967.118,1462.765z"/>
			<path style="fill:#E0AA63;" d="M1963.81,1491.428c-0.015,0-0.03,0-0.045,0l-192.37-3.858c-1.217-0.025-2.183-1.031-2.16-2.249
				c0.026-1.218,0.975-2.157,2.25-2.161l192.37,3.858c1.217,0.025,2.183,1.031,2.16,2.249
				C1965.991,1490.47,1965.007,1491.428,1963.81,1491.428z"/>
			<path style="fill:#84524D;" d="M1927.431,1510.169c-0.013,0-0.026,0-0.039,0c-1.217-0.021-2.188-1.026-2.166-2.244l0.551-31.419
				c0.021-1.169,0.952-2.12,2.121-2.164l42.994-1.654c1.118-0.06,2.239,0.9,2.287,2.118c0.047,1.218-0.902,2.242-2.119,2.288
				l-40.91,1.574l-0.515,29.334C1929.614,1509.208,1928.63,1510.169,1927.431,1510.169z"/>
			<rect x="1718.887" y="1505.024" style="fill:#84524D;" width="258.699" height="22.048"/>
		</g>
		<g>
			<g>
				<g>
					<g>
						<path style="fill:#363E44;" d="M847.504,683.753c0,0,27.066,13.102,38.419,29.263c13.468-21.432,22.059-45.934,24.243-72.154
							c-67.129,1.129-120.903-63.667-120.903-63.667h-47.005c-99.421,39.126-144.612-1.496-165.311-26.902
							c-11.581,21.061-18.558,44.745-19.707,69.864c8.907,15.87,40.029,23.041,60.181,17.578c0,0-18.835,28.057-58.579,13.61
							c12.218,81.199,85.927,143.633,175.046,143.633c52.24,0,99.185-21.452,131.556-55.56
							C865.633,721.815,862.861,696.873,847.504,683.753z"/>
						<path style="fill:#40484C;" d="M710.22,626.973c-0.685,0-1.361-0.318-1.792-0.916c-9.909-13.749-27.252-21.924-44.152-20.839
							c-7.898,0.509-15.35,2.769-24.268,5.671l-0.7,0.227c-7.883,2.565-16.032,5.218-24.509,6.02
							c-7.052,0.667-17.285,0.238-25.922-5.619c-8.287-5.622-12.742-15.313-11.089-24.116c0.224-1.197,1.387-1.981,2.573-1.76
							c1.197,0.225,1.985,1.377,1.759,2.574c-1.313,6.993,2.483,15.075,9.233,19.653c7.551,5.121,16.7,5.479,23.03,4.878
							c7.99-0.756,15.905-3.332,23.56-5.823l0.7-0.228c7.25-2.358,16.271-5.292,25.349-5.878
							c18.381-1.172,37.239,7.709,48.015,22.663c0.711,0.987,0.489,2.365-0.5,3.077C711.118,626.839,710.666,626.973,710.22,626.973
							z"/>
					</g>
					<g>
						<g>
							<path style="fill:#E2A18D;" d="M790.069,696.11c-16.939,6.712-50.88-31.094-50.88-31.094l-11.368-54.491
								c6.1-24.896,31.227-40.133,56.122-34.032c24.896,6.1,40.133,31.227,34.032,56.123
								C817.975,632.614,807.322,689.274,790.069,696.11z"/>
							<polygon style="fill:#E2A18D;" points="690.711,741.422 781.108,825.94 756.346,730.42 782.568,623.402 727.945,610.018 
															"/>
							<path style="fill:#E2A18D;" d="M809.891,643.198c0,0,9.398,16.345,7.868,19.678c-1.826,3.977-16.534,3.073-16.534,3.073
								S810.219,643.312,809.891,643.198z"/>
							<g>
								<path style="fill:#FFFFFF;" d="M769.683,631.301c0,0,8.541-2.21,17.638,0.02c1.935,0.474-5.511,15.068-7.134,13.741
									C773.055,639.226,769.683,631.301,769.683,631.301z"/>
								<g>
									<defs>
										<path id="SVGID_1_" d="M769.683,631.301c0,0,12.562-3.25,23.443,2.11c10.881,5.36,15.961,17.3,15.961,17.3
											s-12.562,3.25-23.443-2.11C774.763,643.241,769.683,631.301,769.683,631.301z"/>
									</defs>
									<clipPath id="SVGID_00000011731369158727488950000002931140649474069126_">
										<use xlink:href="#SVGID_1_"  style="overflow:visible;"/>
									</clipPath>
									<path style="clip-path:url(#SVGID_00000011731369158727488950000002931140649474069126_);fill:#363E44;" d="
										M787.804,631.017c7.491-4.543,17.246-2.152,21.789,5.339c4.543,7.491,2.152,17.246-5.339,21.789
										c-7.491,4.543-17.246,2.152-21.789-5.339C777.923,645.315,780.313,635.56,787.804,631.017z"/>
								</g>
							</g>
							<path style="fill:#363E44;" d="M789.72,673.411c-2.368,0-4.683-0.959-6.354-2.733c-2.252-2.397-2.961-5.947-1.802-9.043
								c0.426-1.14,1.697-1.721,2.838-1.292c1.139,0.426,1.718,1.697,1.292,2.838c-0.575,1.535-0.228,3.292,0.885,4.475
								c1.154,1.226,2.941,1.661,4.552,1.11c1.15-0.396,2.409,0.217,2.801,1.369c0.396,1.151-0.215,2.405-1.367,2.801
								C791.632,673.256,790.672,673.411,789.72,673.411z"/>
							<path style="fill:#363E44;" d="M775.609,697.442c-0.297,0-0.601-0.061-0.889-0.19c-17.12-7.571-36.543-29.075-37.361-29.987
								c-0.814-0.905-0.738-2.3,0.168-3.113c0.9-0.813,2.297-0.742,3.114,0.168c0.194,0.216,19.615,21.712,35.863,28.899
								c1.113,0.493,1.617,1.795,1.124,2.908C777.262,696.951,776.455,697.442,775.609,697.442z"/>
						</g>
						<g>
							<path style="fill:#363E44;" d="M711.571,633.669c-8.223-12.179,4.058-41.194,21.2-54.344
								c22.101-16.954,56.069-14.704,76.244-0.477c4.959,3.497,15.387,13.034,14.99,22.791
								c-0.309,7.597-13.235,16.186-25.216,13.812c-16.844-3.337-34.559-18.067-36.654,2.128
								C755.785,678.773,720.607,647.053,711.571,633.669z"/>
						</g>
					</g>
					<g>
						<path style="fill:#363E44;" d="M742.272,586.705c0,0-52.414-44.059-14.451-68.531
							C763.467,495.195,795.492,549.13,742.272,586.705z"/>
						<path style="fill:#FFFFFF;" d="M738.51,573.352c-0.28,0-0.562-0.054-0.835-0.166c-8.561-3.505-14.105-12.731-13.186-21.935
							c0.25-2.5,0.93-4.471,2.078-6.027c1.621-2.193,4.153-3.372,6.576-3.062c3.299,0.412,5.689,3.114,7.11,8.026
							c1.406,4.864,2.353,9.876,2.821,14.901c0.112,1.212-0.779,2.287-1.994,2.399c-1.223,0.114-2.284-0.782-2.399-1.992
							c-0.439-4.748-1.337-9.486-2.666-14.083c-0.497-1.724-1.604-4.649-3.419-4.876c-0.866-0.108-1.828,0.423-2.48,1.307
							c-0.665,0.899-1.07,2.156-1.238,3.844c-0.719,7.191,3.781,14.678,10.469,17.417c1.126,0.461,1.667,1.748,1.206,2.875
							C740.2,572.836,739.378,573.352,738.51,573.352z"/>
						<path style="fill:#FFFFFF;" d="M736.772,578.992c-0.631,0-1.255-0.268-1.692-0.788c-0.782-0.933-0.659-2.323,0.273-3.106
							c6.589-5.525,14.917-9.14,23.448-10.18c1.227-0.138,2.308,0.715,2.455,1.922c0.149,1.209-0.713,2.308-1.921,2.456
							c-7.695,0.938-15.206,4.199-21.148,9.181C737.773,578.823,737.272,578.992,736.772,578.992z"/>
					</g>
				</g>
				<g>
					<g>
						<polygon style="fill:#E2A18D;" points="543.688,1838.987 420.567,1838.987 403.851,1686.417 526.972,1686.417 						"/>
						<path style="fill:#E6D0BE;" d="M528.927,1832.71H415.649l5.305,111.939h286.887l-8.812-14.904
							C663.469,1869.604,598.794,1832.71,528.927,1832.71z"/>
					</g>
					<g>
						<polygon style="fill:#E2A18D;" points="867.043,1838.987 743.921,1838.987 709.983,1689.578 833.105,1689.578 						"/>
						<path style="fill:#FFFFFF;" d="M852.281,1832.71H739.003l14.427,111.939h277.766l-8.812-14.904
							C986.823,1869.604,922.149,1832.71,852.281,1832.71z"/>
						<path style="fill:#D3BBA3;" d="M1031.195,1946.854H753.429c-1.109,0-2.045-0.824-2.188-1.923l-14.426-111.939
							c-0.155-1.208,0.698-2.313,1.905-2.469c1.238-0.165,2.313,0.699,2.47,1.904l14.176,110.016h275.829
							c1.219,0,2.205,0.987,2.205,2.205C1033.4,1945.866,1032.414,1946.854,1031.195,1946.854z"/>
					</g>
					<path style="fill:#776E42;" d="M362.197,1129.861l0.21,624.893h226.303c0,0-41.821-495.139-39.336-554.301h28.123
						l113.629,555.944h224.63c0,0-148.006-502.779-188.03-650.18C727.724,1106.218,596.282,933.928,362.197,1129.861z"/>
				</g>
				<g>
					<g>
						<path style="fill:#E2A18D;" d="M719.235,870.807c42.828,34.456,212.092,182.63,261.18,126.419
							c36.306-41.574,23.635-92.852-117.851-204.845C835.205,820.955,746.595,842.233,719.235,870.807z"/>
						<g>
							<g>
								<path style="fill:#E2A18D;" d="M953.675,888.396c50.641-15.31,168.115-57.27,179.745-60.909
									c21.741-6.803,129.927-46.658,134.449-23.45c2.132,10.943-49.059,26.853-60.457,30.466
									c13.542-1.824,70.902-16.266,72.571-1.89c1.717,14.794-67.101,29.457-67.588,29.833c7.201-0.889,59.648-12.184,62.65,3.334
									c2.891,14.943-53.377,19.171-60.581,22.291c9.283,0.035,44.595-5.898,46.466,3.848
									c2.507,13.058-43.503,18.859-49.629,22.372c-19.312,6.06-47.869,20.426-83.075,35.528
									c-82.684,35.467-121.042,47.812-164.086,57.712c-16.696,3.84-49.516,3.467-72.773-26.719
									C912.239,949.713,932.803,919.493,953.675,888.396z"/>
								<path style="fill:#363E44;" d="M947.653,892.6c-0.943,0-1.817-0.61-2.108-1.559c-0.357-1.164,0.297-2.398,1.462-2.755
									c2.366-0.727,8.802-2.831,16.254-5.269c8.143-2.663,17.316-5.664,23.095-7.49c1.156-0.368,2.399,0.278,2.765,1.438
									c0.368,1.162-0.276,2.4-1.438,2.767c-5.766,1.822-14.924,4.817-23.049,7.476c-7.474,2.444-13.927,4.555-16.334,5.294
									C948.084,892.568,947.867,892.6,947.653,892.6z"/>
							</g>
							<path style="fill:#E2A18D;" d="M1178.382,819.468c19.357-30.078,19.569-38.661,16.855-41.329
								c-8.938-8.785-60.968,35.434-67.895,55.332c-3.17,9.106-2.59,18.395-2.59,18.395c0.347,5.549,0.579,9.269,2.367,10.501
								C1130.792,864.897,1142.8,858.154,1178.382,819.468z"/>
							<path style="fill:#363E44;" d="M1157.656,867.503c-0.855,0-1.669-0.502-2.026-1.338c-0.48-1.119,0.039-2.415,1.158-2.895
								c19.624-8.407,16.019-36.931,15.981-37.218c-0.161-1.206,0.682-2.317,1.888-2.48c1.227-0.165,2.317,0.681,2.483,1.886
								c0.177,1.308,4.108,32.131-18.616,41.867C1158.242,867.445,1157.947,867.503,1157.656,867.503z"/>
						</g>
						<path style="fill:#8B865C;" d="M918.542,826.675c0,0-27.938-52.472-80.108-72.024l-54.15,79.841l11.803,109.037
							L918.542,826.675z"/>
					</g>
					<g>
						<path style="fill:#E2A18D;" d="M364.742,933.662c0,0,16.448-104.392,122.703-158.098l80.914,107.95L364.742,933.662z"/>
						<path style="fill:#8B865C;" d="M550.358,899.113L450.219,780.02c0,0,65.343-53.992,143.48-58.441L550.358,899.113z"/>
					</g>
					<g>
						<path style="fill:#8B865C;" d="M338.971,1149.256l439.618,13.047l34.659-348.952l42.322-49.198
							c0,0-29.29-25.322-89.025-40.164c0,0-48.642,40.951-47.172,40.951c1.47,0-21.33-51.727-24.253-52.181
							c-36.966-5.737-79.173,0.657-129.717,12.494l3.24,62.24C568.644,787.494,397.768,1039.626,338.971,1149.256z"/>
					</g>
				</g>
			</g>
			<g>
				<g>
					<rect x="836.938" y="1091.203" style="fill:#E6D0BE;" width="296.868" height="281.868"/>
					<path style="fill:#363E44;" d="M836.937,1499.422c-1.219,0-2.205-0.987-2.205-2.205v-397.904
						c0-43.051-35.025-78.076-78.075-78.076H679.41c-1.219,0-2.205-0.987-2.205-2.205s0.986-2.205,2.205-2.205h77.246
						c45.483,0,82.485,37.003,82.485,82.486v397.904C839.141,1498.434,838.155,1499.422,836.937,1499.422z"/>
				</g>
				<g>
					<g>
						<g>
							<polygon style="fill:#E2A18D;" points="1337.09,1738.368 1351.847,1893.097 1457.736,1871.058 1449.536,1716.32 							"/>
							<g>
								<path style="fill:#D3BBA3;" d="M1567.693,1943.289l-216.071,15.327l-7.013-98.856l153.383-10.88
									c34.622-2.456,64.679,23.62,67.135,58.241L1567.693,1943.289z"/>
								<path style="fill:#363E44;" d="M1461.641,1873.455c-0.512,0-1.027-0.178-1.445-0.539c-0.919-0.798-1.019-2.191-0.22-3.11
									l17.714-20.417c0.797-0.922,2.19-1.017,3.109-0.221c0.919,0.798,1.018,2.191,0.22,3.11l-17.714,20.417
									C1462.871,1873.198,1462.257,1873.455,1461.641,1873.455z"/>
								<path style="fill:#363E44;" d="M1483.778,1878.419c-0.512,0-1.027-0.177-1.445-0.539c-0.919-0.798-1.018-2.191-0.222-3.11
									l17.712-20.417c0.801-0.922,2.192-1.017,3.111-0.221c0.919,0.798,1.018,2.191,0.222,3.11l-17.712,20.417
									C1485.007,1878.162,1484.393,1878.419,1483.778,1878.419z"/>
							</g>
						</g>
						<g>
							<polygon style="fill:#E2A18D;" points="1186.06,1749.392 1202.771,1923.324 1309.097,1903.499 1294.096,1642.458 							"/>
							<g>
								<path style="fill:#FFFFFF;" d="M1410.282,1993.367l-216.541-5.642l2.581-99.071l153.717,4.005
									c34.697,0.904,62.091,29.764,61.187,64.461L1410.282,1993.367z"/>
								<path style="fill:#363E44;" d="M1311.696,1913.614c-0.583,0-1.165-0.23-1.6-0.687c-0.838-0.883-0.801-2.279,0.082-3.117
									l19.604-18.609c0.883-0.838,2.278-0.801,3.118,0.081c0.838,0.883,0.801,2.279-0.082,3.117l-19.604,18.609
									C1312.788,1913.413,1312.241,1913.614,1311.696,1913.614z"/>
								<path style="fill:#363E44;" d="M1333.247,1920.696c-0.583,0-1.165-0.23-1.6-0.687c-0.838-0.883-0.801-2.279,0.082-3.117
									l19.604-18.609c0.885-0.838,2.278-0.801,3.118,0.081c0.838,0.883,0.801,2.279-0.082,3.117l-19.604,18.608
									C1334.339,1920.495,1333.792,1920.696,1333.247,1920.696z"/>
							</g>
						</g>
						<path style="fill:#84524D;" d="M1337.09,1418.669l-235.53-26.729l-60.283,56.494l-68.402-16.786l-23.026,54.376
							c-22.042,52.051,2.286,112.115,54.336,134.156l165.339,34.405l3.307,147.723l307.572-42.994l-5.512-89.295l3.307-123.47
							C1479.301,1472.687,1434.102,1434.103,1337.09,1418.669z"/>
					</g>
					<g>
						<g>
							<path style="fill:#9E6C5A;" d="M1289.852,1173.35c109.787,45.578,163.37,84.28,142.723,124.426
								c-11.977,23.288-89.864,19.347-178.395-12.027C1263.088,1249.254,1278.097,1217.265,1289.852,1173.35z"/>
							<path style="fill:#9E6C5A;" d="M929.97,1170.142c-40.866,43.674-166.153,163.024-118.202,211.619
								c39.663,40.196,156.83-81.066,200.088-121.995C984.561,1229.891,957.266,1200.016,929.97,1170.142z"/>
							<path style="fill:#EFBC73;" d="M896.795,1161.987c0,0,37.181-41.336,209.857-43.048c100.839-1,198.647,48.429,198.647,48.429
								l-47.98,121.968l8.115,118.309l-310.88,65.042l-11.124-175.728L896.795,1161.987z"/>
						</g>
						<g>
							<path style="fill:#9E6C5A;" d="M1323.236,1268.93c-0.002-0.001-0.004-0.005-0.002-0.008
								c39.319-100.141,65.295-171.944,74.186-193.795c0.931-2.288,2.556-6.335,6.014-10.825
								c12.813-16.638,30.262-12.708,51.718-24.055c24.346-12.875,30.765-33.908,37.285-31.271
								c4.535,1.834,4.348,10.449-2.404,26.453c0,0.001,0.002,0.003,0.002,0.003c6.528-11.571,16.065-26.874,22.448-23.248
								c7.146,4.581-1.947,23.877-8.019,35.281c7.349-13.804,15.387-18.945,18.442-16.037c4.809,4.578,1.603,16.609-8.818,34.476
								c0,0,0,0.002,0.001,0.001c10.641-10.326,14.762-11.246,16.836-8.016c3.786,5.896-5.057,20.424-14.844,32.068
								c-11.017,13.109-24.11,19.453-32.46,23.257c-0.002,0.001-0.004,0.003-0.005,0.005
								c-20.266,72.992-33.203,119.957-48.37,179.241c-3.103,12.129-15.933,18.996-27.751,14.863
								C1375.544,1296.15,1357.756,1289.288,1323.236,1268.93z"/>
							<path style="fill:#363E44;" d="M1337.523,1234.485c-0.265,0-0.534-0.049-0.797-0.15c-1.135-0.44-1.699-1.717-1.26-2.853
								c4.291-11.07,8.38-21.695,12.269-31.841c0.435-1.137,1.714-1.705,2.847-1.269c1.139,0.435,1.707,1.711,1.27,2.848
								c-3.889,10.15-7.982,20.781-12.273,31.856C1339.241,1233.949,1338.406,1234.485,1337.523,1234.485z"/>
							<path style="fill:#9E6C5A;" d="M1437.898,1055.245c8.317-25.95,5.818-37.072,1.663-38.259
								c-6.986-1.996-23.156,17.252-40.089,53.646C1410.562,1067.306,1426.808,1058.572,1437.898,1055.245z"/>
							<path style="fill:#363E44;" d="M1441.557,1102.697c-0.222,0-0.448-0.034-0.67-0.105c-1.161-0.37-1.8-1.611-1.432-2.77
								c1.563-4.898,4.918-11.942,12.03-17.682c10.055-8.117,21.387-8.395,25.799-8.136c1.214,0.071,2.142,1.114,2.071,2.33
								c-0.071,1.214-1.092,2.16-2.33,2.071c-3.886-0.224-13.907,0.011-22.772,7.167c-6.259,5.052-9.218,11.266-10.596,15.589
								C1443.359,1102.099,1442.491,1102.696,1441.557,1102.697z"/>
							<path style="fill:#363E44;" d="M1414.448,1058.043c-0.779,0-1.535-0.414-1.936-1.146c-0.586-1.068-0.194-2.408,0.874-2.993
								c5.456-2.988,11.41-4.582,17.716-6.27c2.887-0.773,5.874-1.573,8.948-2.541c1.163-0.361,2.399,0.281,2.765,1.442
								c0.366,1.162-0.28,2.4-1.443,2.766c-3.165,0.996-6.199,1.808-9.132,2.594c-6.04,1.617-11.748,3.145-16.736,5.877
								C1415.17,1057.956,1414.806,1058.043,1414.448,1058.043z"/>
							<path style="fill:#363E44;" d="M1471.612,1054.234c-0.76,0-1.499-0.393-1.908-1.097c-0.614-1.053-0.256-2.402,0.797-3.014
								c2.75-1.597,5.361-3.458,7.766-5.529c3.484-3.006,6.561-6.477,9.144-10.318c0.68-1.012,2.052-1.277,3.062-0.599
								c1.01,0.679,1.277,2.05,0.599,3.06c-2.806,4.167-6.145,7.934-9.926,11.196c-2.61,2.249-5.445,4.269-8.427,6.003
								C1472.37,1054.139,1471.989,1054.234,1471.612,1054.234z"/>
							<path style="fill:#363E44;" d="M1486.93,1064.446c-0.76,0-1.499-0.393-1.908-1.097c-0.614-1.053-0.256-2.402,0.797-3.014
								c2.75-1.597,5.361-3.458,7.766-5.529c3.482-3.004,6.558-6.474,9.144-10.318c0.682-1.012,2.05-1.277,3.062-0.599
								c1.01,0.679,1.277,2.05,0.599,3.06c-2.806,4.17-6.145,7.937-9.926,11.196c-2.61,2.249-5.445,4.269-8.427,6.003
								C1487.688,1064.35,1487.307,1064.446,1486.93,1064.446z"/>
							<path style="fill:#363E44;" d="M1496.119,1084.869c-0.76,0-1.499-0.393-1.908-1.097c-0.614-1.053-0.254-2.403,0.799-3.014
								c2.748-1.597,5.359-3.457,7.762-5.529c3.486-3.005,6.565-6.477,9.149-10.318c0.683-1.012,2.05-1.277,3.062-0.599
								c1.01,0.679,1.277,2.05,0.599,3.06c-2.806,4.168-6.145,7.936-9.928,11.196c-2.609,2.25-5.445,4.27-8.429,6.003
								C1496.875,1084.774,1496.496,1084.869,1496.119,1084.869z"/>
						</g>
						<g>
							<g>
								<path style="fill:#9E6C5A;" d="M856.384,1292.968c46.195,10.051,156.153,28.335,166.816,30.548
									c19.932,4.136,126.325,29.106,124.386,44.849c-0.926,7.522-21.641,3.638-28.605,2.121
									c5.021,3.998,15.626,11.452,12.435,19.327c-3.748,9.252-20.786,3.077-21.329,3.159c5.51,3.543,13.864,10.861,11.702,16.858
									c-2.813,7.802-13.286,7.689-20.58,5.546c0.472,1.22,8.739,9.384,6.818,14.089c-2.128,5.213-11.339,6.165-20.681,5.01
									c-17.712-3.661-87.309-14.191-121.36-17.698c-79.973-8.237-104.652-17.39-142.619-28.174
									C808.505,1384.382,833.716,1304.535,856.384,1292.968z"/>
								<path style="fill:#363E44;" d="M940.443,1309.926c-0.131,0-0.263-0.012-0.398-0.036
									c-22.404-4.081-68.812-12.633-84.108-15.784c-1.193-0.245-1.959-1.413-1.714-2.604c0.248-1.193,1.4-1.962,2.605-1.715
									c15.255,3.144,61.621,11.686,84.009,15.764c1.197,0.219,1.992,1.366,1.772,2.564
									C942.415,1309.181,941.487,1309.926,940.443,1309.926z"/>
								<path style="fill:#363E44;" d="M1119.377,1372.004c-0.396,0-0.797-0.107-1.158-0.329c-3.54-2.191-7.258-4.15-11.052-5.826
									c-6.825-3.013-14.043-5.185-21.452-6.454c-1.199-0.206-2.007-1.346-1.8-2.546c0.205-1.199,1.333-2.001,2.545-1.801
									c7.766,1.331,15.333,3.608,22.49,6.768c3.979,1.757,7.878,3.812,11.59,6.109c1.036,0.641,1.354,2,0.715,3.035
									C1120.837,1371.634,1120.116,1372.004,1119.377,1372.004z"/>
								<path style="fill:#363E44;" d="M1110.588,1394.748c-0.317,0-0.639-0.069-0.945-0.214c-0.788-0.376-1.598-0.747-2.424-1.112
									c-6.817-3.013-14.034-5.185-21.45-6.456c-1.199-0.207-2.007-1.346-1.8-2.546c0.205-1.198,1.32-2.009,2.545-1.801
									c7.773,1.333,15.337,3.611,22.487,6.77c0.866,0.381,1.71,0.772,2.536,1.165c1.1,0.523,1.568,1.839,1.044,2.938
									C1112.203,1394.284,1111.413,1394.748,1110.588,1394.748z"/>
								<path style="fill:#363E44;" d="M1100.772,1417.267c-0.237,0-0.478-0.039-0.715-0.121c-4.608-1.579-9.399-2.801-14.239-3.631
									c-1.199-0.207-2.007-1.346-1.8-2.546c0.205-1.199,1.333-2.008,2.545-1.801c5.073,0.87,10.094,2.151,14.923,3.808
									c1.152,0.395,1.766,1.649,1.372,2.8C1102.544,1416.691,1101.687,1417.267,1100.772,1417.267z"/>
							</g>
						</g>
						<path style="fill:#EFBC73;" d="M1305.299,1167.368l46.122,22l28.663-84.885l101.422,27.56
							c-12.146,61.759-30.423,125.542-52.916,190.717c-64.158,1.017-123.734-12.659-181.898-30.867L1305.299,1167.368z"/>
						<path style="fill:#EFBC73;" d="M896.795,1161.987c-45.867,49.429-67.32,108.14-97.542,165.814
							c-12.703,24.242-1.231,54.162,24.411,63.728c43.171,16.106,101.953,27.331,176.089,33.755l30.867-104.729l-90.18-12.833
							C960.46,1316.777,933.286,1247.146,896.795,1161.987z"/>
						<path style="fill:#363E44;" d="M1024.006,1347.014c-0.213,0-0.433-0.032-0.648-0.099c-1.165-0.357-1.817-1.591-1.46-2.755
							l8.107-26.342l-94.633-19.357c-0.672-0.137-1.242-0.579-1.542-1.195c-0.299-0.617-0.295-1.337,0.011-1.951l13.229-26.458
							c0.547-1.09,1.867-1.53,2.958-0.986c1.089,0.545,1.531,1.869,0.986,2.958l-11.943,23.887l94.196,19.269
							c0.609,0.124,1.137,0.501,1.455,1.035c0.317,0.535,0.394,1.179,0.211,1.773l-8.819,28.663
							C1025.821,1346.404,1024.949,1347.014,1024.006,1347.014z"/>
					</g>
					<g>
						<path style="fill:#F2E6DC;" d="M1055.749,1151.998c0.618,1.009,1.264,2.01,1.935,3.003
							c23.881,35.304,76.04,35.725,101.629,1.64c0.172-0.23,0.344-0.46,0.516-0.69c6.748-9.075,1.889-22.099-9.183-24.403
							c-38.576-8.031-63.025-8.489-82.564-5.605C1055.922,1127.736,1049.326,1141.518,1055.749,1151.998z"/>
						<path style="fill:#9E6C5A;" d="M1076.599,947.559c2.535-1.339,27-13.8,49.352-2.748c16.633,8.224,24.78,24.198,34.394,53.056
							c11.322,33.984,13.342,55.881,6.503,66.313c-10.806,16.482-65.331,11.914-94.123-10
							c-20.782-15.818-30.402-43.229-25.935-69.148C1051.245,959.185,1074.981,948.414,1076.599,947.559z"/>
						<path style="fill:#9E6C5A;" d="M1118.446,1155.928l-11.759-1.47c-16.86,0-30.364,1.974-30.364-14.886v-94.078
							c0-16.86,13.668-30.528,30.528-30.528h2.333c16.86,0,30.528,13.668,30.528,30.528v94.078
							C1139.711,1156.432,1135.306,1155.928,1118.446,1155.928z"/>
						<path style="fill:#363E44;" d="M1136.79,1076.299c-19.607,0-46.76-6.176-65.4-20.363c-0.969-0.737-1.156-2.121-0.42-3.09
							c0.741-0.969,2.121-1.158,3.09-0.42c18.532,14.106,45.952,19.921,64.93,19.435c1.245-0.059,2.226,0.929,2.261,2.147
							c0.03,1.218-0.93,2.23-2.149,2.261C1138.347,1076.289,1137.574,1076.299,1136.79,1076.299z"/>
						<g>
							<path style="fill:#FFFFFF;" d="M1138.309,953.843c-21.084-30.45-76.104-24.303-99.038,2.627
								c-24.514,28.784-16.327,72.174-0.032,93.613c9.687,12.745,30.034,28.951,40.089,20.846
								c12.166-9.807-6.162-31.712,5.943-64.834C1094.62,980.511,1129.974,974.524,1138.309,953.843z"/>
							<circle style="fill:#FFFFFF;" cx="1057.813" cy="1073.247" r="26.825"/>
							<circle style="fill:#FFFFFF;" cx="1012.247" cy="974.765" r="26.825"/>
							<circle style="fill:#FFFFFF;" cx="1040.91" cy="948.308" r="26.825"/>
							<path style="fill:#E6D0BE;" d="M1020.817,991.082c-0.525,0-1.051-0.185-1.471-0.562c-6.147-5.502-9.672-13.388-9.672-21.634
								c0-16.008,13.022-29.03,29.031-29.03c0.988,0,1.964,0.049,2.924,0.145c1.212,0.122,2.095,1.203,1.974,2.415
								c-0.12,1.211-1.223,2.102-2.414,1.973c-0.818-0.082-1.647-0.124-2.485-0.124c-13.575,0-24.621,11.044-24.621,24.62
								c0,6.993,2.991,13.681,8.203,18.348c0.906,0.813,0.984,2.206,0.172,3.113
								C1022.025,990.834,1021.422,991.082,1020.817,991.082z"/>
							<circle style="fill:#FFFFFF;" cx="1021.066" cy="1055.609" r="26.825"/>
							<circle style="fill:#FFFFFF;" cx="1009.675" cy="1016.289" r="24.253"/>
							<path style="fill:#FFFFFF;" d="M1106.687,988.362c-8.3,10.513-27.099,26.626-39.687,22.048
								c-12.588-4.577-18.541-26.364-13.964-38.952c4.578-12.588,34.448-25.156,47.036-20.578
								C1112.66,955.457,1117.711,974.398,1106.687,988.362z"/>
							<circle style="fill:#FFFFFF;" cx="1100.807" cy="948.675" r="24.253"/>
							<circle style="fill:#FFFFFF;" cx="1124.325" cy="955.289" r="24.253"/>
							<circle style="fill:#FFFFFF;" cx="1067" cy="1028.048" r="24.253"/>
							<circle style="fill:#FFFFFF;" cx="1083.904" cy="1059.651" r="24.253"/>
							<circle style="fill:#FFFFFF;" cx="1075.084" cy="944.265" r="24.253"/>
							<path style="fill:#E6D0BE;" d="M1081.997,1080.199c-0.099,0-0.198-0.001-0.297-0.002c-1.216-0.016-2.19-1.017-2.175-2.234
								c0.017-1.208,1.001-2.176,2.205-2.176c0.075,0.002,0.177,0.002,0.267,0.002c4.436,0,8.643-1.676,11.87-4.734
								c5.521-5.229,6.98-13.324,3.634-20.142c-0.536-1.093-0.086-2.414,1.008-2.95c1.096-0.539,2.414-0.084,2.95,1.008
								c4.201,8.56,2.369,18.72-4.56,25.285C1092.846,1078.095,1087.565,1080.199,1081.997,1080.199z"/>
							<path style="fill:#E6D0BE;" d="M1035.189,1079.716c-5.413,0.001-10.727-1.522-15.419-4.479
								c-6.561-4.134-11.119-10.575-12.835-18.137c-1.716-7.562-0.385-15.34,3.749-21.901c0.799-1.266,1.692-2.47,2.655-3.578
								c0.801-0.922,2.192-1.015,3.111-0.216c0.919,0.799,1.016,2.191,0.217,3.11c-0.818,0.939-1.576,1.962-2.254,3.037
								c-3.505,5.563-4.634,12.159-3.178,18.572c1.456,6.414,5.323,11.877,10.886,15.382c5.564,3.506,12.157,4.638,18.573,3.179
								c6.412-1.456,11.875-5.32,15.382-10.885c2.661-4.224,3.966-9.084,3.774-14.055c-0.047-1.216,0.9-2.241,2.117-2.288
								c1.26-0.1,2.244,0.899,2.289,2.118c0.228,5.863-1.311,11.595-4.451,16.576c-4.132,6.561-10.574,11.119-18.136,12.835
								C1039.517,1079.475,1037.345,1079.716,1035.189,1079.716z"/>
							<path style="fill:#E6D0BE;" d="M1072.31,1001.52c-3.736,0-7.448-0.719-10.912-2.13c-1.128-0.46-1.671-1.746-1.21-2.873
								c0.459-1.129,1.75-1.67,2.872-1.211c4.022,1.639,8.434,2.174,12.762,1.555c12.912-1.855,22.149-13.479,21.032-26.462
								c-0.105-1.213,0.795-2.281,2.007-2.386c1.249-0.121,2.28,0.794,2.386,2.007c1.32,15.312-9.573,29.019-24.798,31.206
								C1075.072,1001.422,1073.688,1001.52,1072.31,1001.52z"/>
							<path style="fill:#E6D0BE;" d="M1138.25,970.529c-0.487,0-0.975-0.16-1.385-0.491c-0.947-0.765-1.094-2.154-0.327-3.101
								c2.588-3.198,3.955-7.07,3.955-11.195c0-9.825-7.992-17.817-17.817-17.817c-4.978,0-9.765,2.106-13.132,5.777
								c-0.825,0.899-2.222,0.956-3.116,0.135c-0.898-0.823-0.958-2.218-0.136-3.115c4.201-4.58,10.172-7.207,16.383-7.207
								c12.256,0,22.227,9.971,22.227,22.227c0,5.073-1.753,10.034-4.937,13.969C1139.531,970.249,1138.894,970.529,1138.25,970.529
								z"/>
						</g>
						<g>
							<path style="fill:#FFFFFF;" d="M1099.18,1008.124c0,0,7.911-6.409,18.531-8.421c2.26-0.428,1.425,18.461-0.914,17.843
								C1106.514,1014.832,1099.18,1008.124,1099.18,1008.124z"/>
							<path style="fill:#373E44;" d="M1124.807,999.119c-2.45-0.074-4.82,0.167-7.076,0.594
								c-3.496,5.545-3.662,12.292-0.942,17.827c2.341,0.619,4.836,1.033,7.432,1.112c13.992,0.42,25.628-9.005,25.628-9.005
								S1138.799,999.539,1124.807,999.119z"/>
						</g>
						<path style="fill:#363E44;" d="M1147.482,1043.524c-1.158,0-2.315-0.224-3.406-0.691c-4.687-2.004-5.344-7.117-5.37-7.334
							c-0.142-1.209,0.721-2.306,1.931-2.449c1.186-0.137,2.306,0.722,2.448,1.93c0,0.008,0.42,2.814,2.722,3.798
							c1.869,0.798,4.143,0.164,5.54-1.542c0.773-0.938,2.162-1.08,3.103-0.307c0.943,0.772,1.079,2.162,0.308,3.104
							C1152.91,1042.284,1150.198,1043.524,1147.482,1043.524z"/>
						<path style="fill:#363E44;" d="M1163.633,1024.203c-0.508,0-1.016-0.173-1.432-0.528c-0.926-0.79-1.036-2.182-0.245-3.108
							c2.121-2.486,2.608-4.065,2.381-4.662c-0.097-0.253-0.484-0.502-1.348-1.008c-0.922-0.543-2.071-1.218-3.324-2.4
							c-1.85-1.741-3.245-3.956-4.145-6.582c-0.394-1.153,0.22-2.406,1.372-2.801c1.152-0.397,2.405,0.22,2.801,1.371
							c0.663,1.941,1.673,3.557,2.995,4.803c0.894,0.842,1.729,1.333,2.536,1.807c1.206,0.708,2.571,1.51,3.232,3.237
							c0.958,2.519-0.071,5.493-3.146,9.096C1164.873,1023.941,1164.255,1024.203,1163.633,1024.203z"/>
						<path style="fill:#FFFFFF;" d="M1140.035,1113.026c-1.76,13.091-5.557,30.205-25.631,42.443l12.409,22.738
							c5.106,10.382,19.498,11.836,26.341,2.507c9.562-13.036,15.71-27.302,18.209-40.22L1140.035,1113.026z"/>
						<path style="fill:#FFFFFF;" d="M1115.23,1154.642l-13.115,28.462c-3.964,9.203-15.938,11.646-23.142,4.682
							c-15.811-15.285-28.053-30.81-36.961-46.556l29.398-30.133C1080.833,1129.039,1093.9,1145.537,1115.23,1154.642z"/>
					</g>
				</g>
				<g>
					<circle style="opacity:0.5;fill:#FFFFFF;" cx="946.569" cy="1756.883" r="270.083"/>
					<path style="fill:#363E44;" d="M969.407,2006.334c-150.141,0-272.289-122.148-272.289-272.289
						c0-150.14,122.148-272.288,272.289-272.288s272.289,122.148,272.289,272.288
						C1241.695,1884.186,1119.547,2006.334,969.407,2006.334z M969.407,1466.167c-147.71,0-267.879,120.169-267.879,267.878
						s120.169,267.879,267.879,267.879s267.879-120.17,267.879-267.879S1117.117,1466.167,969.407,1466.167z"/>
					<path style="fill:#363E44;" d="M969.407,1892.512c-87.379,0-158.467-71.088-158.467-158.467
						c0-87.379,71.088-158.466,158.467-158.466s158.467,71.087,158.467,158.466
						C1127.874,1821.424,1056.786,1892.512,969.407,1892.512z M969.407,1579.989c-84.948,0-154.057,69.109-154.057,154.056
						c0,84.948,69.109,154.057,154.057,154.057s154.057-69.109,154.057-154.057
						C1123.464,1649.099,1054.355,1579.989,969.407,1579.989z"/>
				</g>
			</g>
			<g>
				<path style="fill:#E2A18D;" d="M841.557,1004.714c-16.008-6.53-69.977-42.123-98.839-24.299
					c-29.069,17.952-41.182,53.717-41.238,87.883c0.095,0.102,0.2,0.214,0.294,0.315c3.955,8.592,11.19,20.839,24.413,29.216
					c15.075,9.548,23.494,4.921,40.97,12.52c29.498,12.827,34.259,39.457,44.68,34.844c7.152-3.165,5.049-18.802-0.579-32.565
					c-5.779-14.131-15.463-20.837-13.892-22.782c1.724-2.135,10.682,5.95,22.743,14.982c5.603,4.196,13.895,25.193,24.304,22.309
					c8.299-2.3,5.141-26.286-8.219-42.623c-9.453-11.557-23.717-14.114-22.713-16.648c0.754-1.902,9.217-0.168,16.065,3.499
					c11.302,6.049,20.015,27.44,29.544,24.599c9.336-2.784,6.21-23.685-5.127-39.487c-9.559-13.325-25.603-15.417-24.373-18.574
					c0.865-2.22,1.276-3.039,16.377,0.435c12.604,2.901,20.35,27.619,25.355,14.882
					C875.532,1042.508,865.719,1014.568,841.557,1004.714z"/>
				<path style="fill:#E2A18D;" d="M466.04,864.954c-37.105-8.919-76.327,7.053-95.346,40.137
					c-12.47,21.691-15.74,50.038,9.073,83.785c60.415,82.166,358.066,87.36,358.066,87.36l72.173-65.038
					C720.228,948.937,568.173,889.503,466.04,864.954z"/>
			</g>
		</g>
	</g>
</g>
</svg>
