<?xml version="1.0" encoding="utf-8"?>
<!-- Generator: Adobe Illustrator 27.5.0, SVG Export Plug-In . SVG Version: 6.00 Build 0)  -->
<svg version="1.1" xmlns="http://www.w3.org/2000/svg" xmlns:xlink="http://www.w3.org/1999/xlink" x="0px" y="0px"
	 viewBox="0 0 700 500" style="enable-background:new 0 0 700 500;" xml:space="preserve">
<g id="BACKGROUND">
	<rect style="fill:#FFFFFF;" width="700" height="500"/>
</g>
<g id="OBJECTS">
	<g>
		<ellipse style="opacity:0.44;fill:#8FC6C1;" cx="351.275" cy="437.098" rx="289.404" ry="10.723"/>
		<g>
			<g>
				
					<rect x="382.654" y="309.342" transform="matrix(-1 -1.224647e-16 1.224647e-16 -1 848.9731 734.7818)" style="fill:#FFFFFF;" width="83.665" height="116.097"/>
				<g style="opacity:0.27;">
					<path style="fill:#ADDFDC;" d="M462.464,417.813c2.137-6.304-0.995-13.447-5.782-17.936c-4.786-4.489-10.966-6.97-16.859-9.715
						s-11.873-6.052-15.543-11.551c-5.474-8.202-4.561-19.21-7.959-28.533c-4.758-13.057-12.661-18.984-24.264-26.117
						c-0.535-0.329-7.298-3.597-7.914-3.505c-1.333,0.199,0.067,2.813,0.124,4.203c1.25,30.187-1.391,65.283-0.14,95.47
						c24.667,1.141,48.965-0.761,75.841,0.38"/>
				</g>
				<g style="opacity:0.27;">
					<path style="fill:#ADDFDC;" d="M383.217,380.023c1.645-0.389,3.356-0.601,5.115-0.601c12.626,0,22.862,10.577,22.862,23.624
						c0,8.033-3.883,15.125-9.812,19.393c-5.465,0.06-10.928,0.281-16.38,0.67C384.406,408.747,383.812,394.385,383.217,380.023z"/>
				</g>
				<path style="opacity:0.27;fill:#ADDFDC;" d="M461.133,331.586c1.148,0,2.266,0.132,3.345,0.372v32.099
					c-1.079,0.239-2.197,0.372-3.345,0.372c-8.776,0-15.891-7.352-15.891-16.421C445.242,338.938,452.356,331.586,461.133,331.586z"
					/>
				<path style="fill:#8FC6C1;" d="M380.169,305.332v120.695h86.978V305.332H380.169z M385.721,313.035h75.875v105.287h-75.875
					V313.035z"/>
			</g>
			<g>
				<g>
					<g>
						<g>
							<path style="fill:#8FC6C1;" d="M73.183,307.453c-0.078-4.87-0.156-9.74-0.235-14.609c-0.037-2.33-0.088-4.725-1-6.884
								c-0.912-2.159-2.896-4.059-5.293-4.204c-1.147-0.07-2.314,0.258-3.436,0.013c-2.825-0.616-2.364-5.214-2.972-7.962
								c-1.673-7.562-8.143-13.185-15.21-16.769c-2.425-1.229-5.212-2.113-7.873-1.521c-2.661,0.592-4.994,3.097-4.517,5.709
								c0.346,1.892,1.966,3.306,2.771,5.063c1.827,3.988-0.701,9.253,2.048,12.71c2.828,3.556,9.704,2.966,11.3,7.18
								c0.529,1.397,0.26,2.954,0.538,4.417c0.52,2.742,2.898,4.829,5.461,6.094c2.563,1.264,5.399,1.917,8.009,3.086
								c4.121,1.845,7.61,4.997,9.803,8.854"/>
						</g>
						<g>
							<path style="fill:#ADDFDC;" d="M66.448,310.747c0.462-5.049-0.264-10.2-2.385-14.741c-1.048-2.273-2.444-4.357-3.975-6.362
								c-1.522-2.003-3.225-3.886-4.776-5.932c-1.523-2.048-2.929-4.238-3.985-6.584c-1.074-2.328-1.979-4.7-2.982-7.011
								c-1.002-2.308-2.236-4.512-3.881-6.41c-1.611-1.91-3.71-3.454-6.155-4.181c2.508,0.505,4.747,2.004,6.518,3.852
								c1.763,1.878,3.113,4.113,4.216,6.416c1.129,2.296,2.01,4.684,3.106,6.946c1.058,2.278,2.437,4.363,3.961,6.372
								c3.006,3.994,6.647,7.779,8.651,12.584c1.005,2.371,1.657,4.883,1.941,7.428C66.965,305.671,66.884,308.245,66.448,310.747z"
								/>
						</g>
						<g>
							<path style="fill:#8FC6C1;" d="M75.025,305.514c0.104-5.181,0.209-10.363,0.313-15.544c0.05-2.48,0.113-5.027,1.069-7.328
								c0.955-2.302,3.02-4.333,5.505-4.5c1.189-0.08,2.396,0.263,3.56-0.003c2.931-0.669,3.693-4.374,4.336-7.301
								c1.77-8.053,7.282-15.253,14.622-19.102c2.518-1.32,5.411-2.274,8.165-1.657c2.754,0.617,5.16,3.27,4.653,6.052
								c-0.367,2.014-2.053,3.527-2.895,5.4c-1.912,4.253,0.683,9.841-2.182,13.532c-2.948,3.797-10.07,3.204-11.744,7.696
								c-0.555,1.489-0.284,3.144-0.578,4.702c-0.552,2.92-3.026,5.153-5.687,6.511c-2.661,1.358-5.604,2.066-8.314,3.323
								c-4.279,1.983-7.91,5.354-10.2,9.469"/>
						</g>
						<g>
							<path style="fill:#ADDFDC;" d="M76.459,306.044c-0.446-2.665,0.043-5.436,1.026-7.959c1.006-2.531,2.519-4.826,4.212-6.94
								c3.44-4.213,7.727-7.556,11.06-11.69c1.713-2.026,3.099-4.274,4.214-6.695c1.143-2.404,2.064-4.934,3.235-7.372
								c1.142-2.446,2.538-4.825,4.368-6.841c1.832-1.99,4.17-3.624,6.815-4.197c-2.58,0.794-4.775,2.47-6.447,4.521
								c-1.711,2.035-2.992,4.384-4.035,6.836c-1.046,2.454-1.99,4.969-3.11,7.438c-1.103,2.472-2.528,4.852-4.268,6.946
								c-3.494,4.187-7.76,7.528-11.244,11.546c-1.729,2.012-3.278,4.208-4.351,6.639C76.825,300.683,76.24,303.357,76.459,306.044z
								"/>
						</g>
						<g>
							<path style="fill:#ADDFDC;" d="M73.433,301.084c-3.434-5.152-6.869-10.304-10.303-15.455
								c-1.644-2.465-3.32-5.007-3.949-7.902c-0.629-2.896,0.02-6.268,2.356-8.091c1.118-0.872,2.542-1.343,3.508-2.381
								c2.432-2.614,0.655-6.757-0.709-10.058c-3.752-9.082-3.233-19.826,1.377-28.503c1.582-2.977,3.782-5.845,6.919-7.08
								c3.137-1.235,7.32-0.24,8.72,2.827c1.013,2.221,0.384,4.831,0.832,7.231c1.018,5.448,7.392,9.196,7.086,14.731
								c-0.315,5.694-7.742,9.869-6.326,15.393c0.469,1.832,1.866,3.273,2.64,4.999c1.449,3.233,0.53,7.563-1.167,10.673
								c-1.697,3.11-4.668,4.306-6.482,7.348c-2.865,4.803-2.609,10.45-2.057,16.016"/>
						</g>
						<g>
							<path style="fill:#8FC6C1;" d="M74.362,301.436c-2.871-5.83-4.119-12.488-3.57-19.026c0.503-6.57,3.21-12.711,3.09-19.132
								c0.04-6.425-1.964-12.698-2.732-19.188c-0.362-3.248-0.404-6.561,0.189-9.791c0.615-3.205,1.927-6.357,4.18-8.726
								c-2.076,2.515-3.25,5.634-3.697,8.808c-0.485,3.18-0.358,6.429,0.09,9.611c0.905,6.368,2.92,12.655,2.968,19.286
								c0.017,6.686-2.694,12.823-3.327,19.204c-0.351,3.193-0.273,6.439,0.217,9.626C72.226,295.303,73.122,298.435,74.362,301.436
								z"/>
						</g>
					</g>
					<polygon style="fill:#DDCDB6;" points="84.913,342.463 60.619,342.463 52.92,297.753 91.842,297.753 					"/>
					<rect x="50.266" y="295.4" style="fill:#F2E2C8;" width="44.23" height="7.272"/>
				</g>
				<g>
					<rect x="45.851" y="341.353" style="fill:#F2E2C8;" width="74.743" height="77.78"/>
				</g>
				<g>
					<rect x="108.617" y="341.353" style="fill:#DDCDB6;" width="11.977" height="77.78"/>
				</g>
				<g>
					
						<rect x="98.507" y="341.353" transform="matrix(-1 -1.224647e-16 1.224647e-16 -1 202.7007 760.4857)" style="fill:#DDCDB6;" width="5.687" height="77.78"/>
				</g>
			</g>
			<g>
				<g>
					<g>
						<g>
							<g>
								<path style="fill:#8FC6C1;" d="M643.997,305.11c-8.694-4.373-12.074-15.677-6.734-22.521
									c10.224,3.218,15.175,16.176,8.95,23.424"/>
							</g>
							<g>
								<path style="fill:#8FC6C1;" d="M662.064,285.405c-7.869,2.007-12.123,10.982-8.221,17.346
									c0.34,0.554,0.779,1.123,1.456,1.336c0.619,0.194,1.301,0.047,1.917-0.143c6.529-2.015,8.361-11.972,5.592-17.569"/>
							</g>
							<g>
								<path style="fill:#ADDFDC;" d="M630.58,293.093c7.23,1.162,13.019,7.318,12.909,13.729
									c-0.008,0.441-0.073,0.939-0.475,1.201c-0.436,0.285-1.057,0.157-1.574-0.005c-6.366-2.003-10.902-7.851-10.658-13.737"/>
							</g>
						</g>
					</g>
				</g>
				<g>
					<g>
						<path style="fill:#8FC6C1;" d="M609.443,307.835c-1.622-12.499-11.629-23.472-23.926-26.234
							c5.307,11.211,13.461,21.061,23.484,28.368"/>
					</g>
					<g>
						<path style="fill:#8FC6C1;" d="M613.479,309.175c4.47-13.824,0.542-30.011-9.769-40.248c-0.318,13.173,1.724,26.399,6,38.863"
							/>
					</g>
					<g>
						<path style="fill:#ADDFDC;" d="M613.407,306.243c5.879-5.297,8.127-14.261,5.445-21.705
							c-6.372,6.414-10.328,15.173-10.926,24.193"/>
					</g>
					<g>
						<path style="fill:#ADDFDC;" d="M611.554,309.714c0.829-10.394-3.793-21.071-11.937-27.581
							c-0.817,9.275,2.096,18.825,7.949,26.066"/>
					</g>
				</g>
				<rect x="574.58" y="358.891" style="fill:#F2E2C8;" width="85.296" height="63.239"/>
				<rect x="581.44" y="299.305" style="fill:#DDCDB6;" width="88.707" height="60.203"/>
				<g>
					<path style="fill:#00021C;" d="M610.961,299.31l10.441,30.601l10.513,30.574l10.396,30.617l5.09,15.346
						c1.653,5.13,3.327,10.253,4.929,15.4l-10.747-30.497L630.97,360.81c-3.457-10.209-6.945-20.408-10.294-30.655
						C617.324,319.91,614.042,309.641,610.961,299.31z"/>
				</g>
				<g>
					<path style="fill:#00021C;" d="M625.793,422.204c2.2-10.289,4.507-20.553,6.83-30.813l7.089-30.751l7.314-30.697l3.737-15.329
						l3.84-15.305l-3.363,15.419l-3.466,15.394l-7.091,30.75l-7.316,30.696C630.89,401.792,628.395,412.011,625.793,422.204z"/>
				</g>
			</g>
			<g>
				<g>
					<g>
						<g>
							<g>
								<path style="fill:#FFFFFF;" d="M277.54,358.745c2.062-1.289,4.124-2.578,6.186-3.867c2.246-1.404,4.661-3.022,5.419-5.56
									c0.758-2.538-1.452-5.902-3.978-5.107c0.873-3.316,1.747-6.631,2.62-9.947c0.426-1.619,0.588-3.829-0.954-4.482
									c-0.632-0.267-1.352-0.146-2.035-0.21c-2.613-0.245-4.141-3.019-4.995-5.501c-0.288-0.839-0.589-1.738-1.29-2.28
									c-1.544-1.195-3.908,0.225-4.599,2.051c-0.691,1.827-0.379,3.863-0.616,5.802c-0.237,1.939-1.421,4.088-3.37,4.207
									c-1.5,0.092-2.805-1.064-4.297-1.244c-2.328-0.28-4.342,2.032-4.536,4.368c-0.194,2.337,0.939,4.573,2.224,6.534
									c1.286,1.961,2.782,3.845,3.473,6.086c1.302,4.22-0.141,9.714,3.303,12.478"/>
							</g>
							<g>
								<path style="fill:#FFFFFF;" d="M294.452,364.832c3.856-6.038,7.713-12.076,11.569-18.113
									c2.99-4.681,6.084-9.703,6.078-15.258c-0.001-1.037-0.172-2.19-0.979-2.841c-0.783-0.632-1.928-0.578-2.879-0.246
									c-5.608,1.958-7.186,11.5-13.107,11.029c-1.007-4.936,1.86-9.71,3.947-14.294c3.815-8.383,5.238-17.84,4.057-26.974
									c-0.159-1.233-0.573-2.704-1.775-3.023c-0.683-0.181-1.405,0.098-2.007,0.466c-3.013,1.841-4.092,5.621-4.927,9.052
									c-0.877,3.603-1.753,7.207-2.63,10.81c-0.513,2.107-1.819,4.759-3.943,4.321c-2.582-0.532-2.164-4.727-4.282-6.296
									c-1.852-1.371-4.69,0.2-5.438,2.379c-0.748,2.18-0.078,4.563,0.593,6.767c1.737,5.707,3.473,11.414,5.21,17.121
									c-1.837-1.297-4.469-1.343-6.35-0.111c-1.881,1.232-2.891,3.663-2.436,5.865c0.469,2.273,2.248,3.999,3.698,5.811
									c4.148,5.182,5.998,12.139,4.97,18.697"/>
							</g>
						</g>
						<g>
							<g>
								<rect x="256.438" y="354.774" style="fill:#FFFFFF;" width="105.098" height="72.004"/>
								<rect x="256.438" y="358.143" style="fill:#FFFFFF;" width="105.727" height="21.054"/>
								<polygon style="fill:#FFFFFF;" points="251.403,371.617 367.829,371.617 361.667,346.353 258.798,346.353 								"/>
							</g>
							<polyline style="opacity:0.4;fill:#FFFFFF;" points="367.829,371.617 361.667,346.353 355.829,346.608 360.254,364.651 
								338.127,364.651 326.892,391.885 334.042,392.055 333.361,426.268 351.403,426.608 							"/>
							<g>
								<rect x="338.751" y="374.368" style="fill:#FFFFFF;" width="101.871" height="52.155"/>
								<rect x="338.751" y="376.808" style="fill:#FFFFFF;" width="102.481" height="15.25"/>
								<polygon style="fill:#FFFFFF;" points="333.871,386.568 446.722,386.568 440.749,368.268 341.039,368.268 								"/>
							</g>
						</g>
					</g>
				</g>
				<g>
					<g>
						<g>
							<path style="fill:#8FC6C1;" d="M281.243,359.754c2.526-1.173,5.051-2.346,7.577-3.52c2.751-1.278,5.709-2.751,6.637-5.061
								c0.928-2.31-1.778-5.373-4.873-4.649c1.07-3.018,2.14-6.036,3.209-9.055c0.522-1.474,0.72-3.486-1.168-4.08
								c-0.774-0.244-1.656-0.133-2.492-0.192c-3.2-0.223-5.072-2.748-6.118-5.007c-0.353-0.763-0.722-1.582-1.581-2.076
								c-1.892-1.088-4.787,0.204-5.633,1.867c-0.846,1.663-0.464,3.517-0.755,5.281c-0.29,1.765-1.741,3.721-4.128,3.83
								c-1.837,0.083-3.436-0.969-5.263-1.132c-2.852-0.255-5.319,1.849-5.556,3.977c-0.237,2.127,1.15,4.163,2.725,5.948
								c1.575,1.785,3.408,3.5,4.254,5.54c1.594,3.841-0.172,8.842,4.046,11.358"/>
						</g>
						<g>
							<path style="fill:#ADDFDC;" d="M301.958,365.295c4.724-5.496,9.447-10.992,14.17-16.489
								c3.662-4.261,7.452-8.833,7.444-13.889c-0.001-0.944-0.211-1.993-1.2-2.586c-0.959-0.575-2.362-0.526-3.526-0.224
								c-6.869,1.783-8.802,10.469-16.055,10.04c-1.233-4.493,2.279-8.839,4.835-13.012c4.674-7.631,6.415-16.239,4.969-24.554
								c-0.195-1.123-0.702-2.462-2.174-2.752c-0.836-0.165-1.72,0.089-2.459,0.424c-3.69,1.676-5.012,5.117-6.035,8.24
								c-1.074,3.28-2.148,6.56-3.221,9.84c-0.628,1.918-2.228,4.332-4.829,3.934c-3.163-0.484-2.65-4.303-5.245-5.731
								c-2.268-1.248-5.745,0.182-6.661,2.166c-0.916,1.984-0.095,4.154,0.727,6.16c2.127,5.195,4.254,10.39,6.381,15.585
								c-2.25-1.18-5.474-1.222-7.777-0.101c-2.304,1.121-3.541,3.334-2.984,5.339c0.575,2.069,2.753,3.64,4.53,5.29
								c5.081,4.717,7.347,11.05,6.088,17.02"/>
						</g>
					</g>
					<g>
						<g>
							
								<rect x="256.438" y="354.774" transform="matrix(-1 -1.224647e-16 1.224647e-16 -1 617.9732 781.5528)" style="fill:#F2E2C8;" width="105.098" height="72.004"/>
							
								<rect x="256.438" y="358.143" transform="matrix(-1 -1.224647e-16 1.224647e-16 -1 618.6026 737.3398)" style="fill:#DDCDB6;" width="105.727" height="21.054"/>
							<polygon style="fill:#F2E2C8;" points="251.403,371.617 367.829,371.617 361.667,346.353 258.798,346.353 							"/>
						</g>
						<polyline style="opacity:0.4;fill:#DDCDB6;" points="367.829,371.617 361.667,346.353 355.829,346.608 360.254,364.651 
							338.127,364.651 326.892,391.885 334.042,392.055 333.361,426.268 351.403,426.608 						"/>
						<g>
							
								<rect x="338.751" y="374.538" transform="matrix(-1 -1.224647e-16 1.224647e-16 -1 779.3736 801.2311)" style="fill:#F2E2C8;" width="101.871" height="52.155"/>
							
								<rect x="338.751" y="376.978" transform="matrix(-1 -1.224647e-16 1.224647e-16 -1 779.9836 769.2059)" style="fill:#DDCDB6;" width="102.481" height="15.25"/>
							<polygon style="fill:#F2E2C8;" points="333.871,386.738 446.722,386.738 440.749,368.438 341.039,368.438 							"/>
						</g>
					</g>
				</g>
			</g>
		</g>
	</g>
	<g>
		<g>
			<path style="fill:#8FC6C1;" d="M274.624,287.64L274.624,287.64c-2.682,0.472-5.296-1.126-6.097-3.729l-7.718-25.069
				c-0.956-3.104,1.025-6.343,4.224-6.906l6.408-1.128c3.198-0.563,6.167,1.804,6.329,5.048l1.31,26.197
				C279.216,284.773,277.306,287.168,274.624,287.64z"/>
			<path style="fill:#8FC6C1;" d="M469.853,253.258L469.853,253.258c-2.682,0.472-5.296-1.126-6.097-3.729l-7.718-25.068
				c-0.956-3.104,1.025-6.343,4.224-6.906l6.408-1.129c3.198-0.563,6.167,1.804,6.329,5.048l1.31,26.197
				C474.445,250.39,472.535,252.786,469.853,253.258z"/>
			<path style="fill:#ADDFDC;" d="M462.729,160.521l-209.618,36.916c-8.066,1.421-15.757-3.967-17.177-12.033l-5.781-32.825
				c-1.981-11.249,5.532-21.973,16.781-23.954l198.093-34.887c11.249-1.981,21.973,5.532,23.954,16.78l5.781,32.825
				C476.182,151.411,470.795,159.101,462.729,160.521z"/>
			<path style="fill:#ADDFDC;" d="M480.533,214.515l-229.696,40.453l1.875,10.647c0.428,2.43,2.745,4.053,5.175,3.625
				l220.896-38.903c2.43-0.428,4.053-2.745,3.625-5.175L480.533,214.515z"/>
			<path style="fill:#8FC6C1;" d="M495.433,117.19l-5.452-1.496c-13.667-3.75-27.786,4.289-31.536,17.956l-6.181,22.528
				l-195.269,34.389l-12.93-18.966c-8.227-12.067-24.678-15.181-36.745-6.954l-4.097,2.793
				c-12.067,8.227-15.181,24.678-6.954,36.745l31.115,45.642c5.145,7.546,16.175,13.585,24.668,13.545
				c1.358,1.061,0.46-0.413,2.291-0.735l221.787-39.06c1.4-0.247,4.454-0.442,5.354-1.407c8.781-2.125,14.315-9.334,16.875-18.663
				l15.031-54.781C517.139,135.059,509.1,120.94,495.433,117.19z"/>
			<g>
				<g>
					<path style="fill:#8FC6C1;" d="M338.727,134.989c0.324,1.84-0.905,3.595-2.745,3.919s-3.595-0.905-3.919-2.745
						s0.905-3.595,2.745-3.919C336.648,131.92,338.403,133.149,338.727,134.989z"/>
					<path style="fill:#8FC6C1;" d="M371.729,129.466c0.324,1.84-0.905,3.595-2.745,3.919s-3.595-0.905-3.919-2.745
						s0.905-3.595,2.745-3.919C369.651,126.397,371.405,127.626,371.729,129.466z"/>
					<path style="fill:#8FC6C1;" d="M271.94,147.04c0.324,1.84-0.905,3.595-2.745,3.919s-3.595-0.905-3.919-2.745
						s0.905-3.595,2.745-3.919S271.616,145.2,271.94,147.04z"/>
					<path style="fill:#8FC6C1;" d="M305.894,140.862c0.324,1.84-0.905,3.595-2.745,3.919s-3.595-0.905-3.919-2.745
						c-0.324-1.84,0.905-3.595,2.745-3.919C303.816,137.792,305.57,139.022,305.894,140.862z"/>
					<path style="fill:#8FC6C1;" d="M402.967,123.676c0.324,1.84-0.905,3.595-2.745,3.919c-1.84,0.324-3.595-0.905-3.919-2.745
						c-0.324-1.84,0.905-3.595,2.745-3.919C400.888,120.606,402.643,121.835,402.967,123.676z"/>
					<path style="fill:#8FC6C1;" d="M435.97,118.153c0.324,1.84-0.905,3.595-2.745,3.919c-1.84,0.324-3.595-0.905-3.919-2.745
						c-0.324-1.84,0.905-3.595,2.745-3.919C433.891,115.083,435.646,116.313,435.97,118.153z"/>
				</g>
			</g>
			<g>
				<g>
					<path style="fill:#8FC6C1;" d="M343.032,159.437c0.324,1.84-0.905,3.595-2.745,3.919s-3.595-0.905-3.919-2.745
						s0.905-3.595,2.745-3.919C340.954,156.367,342.708,157.596,343.032,159.437z"/>
					<path style="fill:#8FC6C1;" d="M376.035,153.914c0.324,1.84-0.905,3.595-2.745,3.919c-1.84,0.324-3.595-0.905-3.919-2.745
						s0.905-3.595,2.745-3.919S375.711,152.074,376.035,153.914z"/>
					<path style="fill:#8FC6C1;" d="M276.246,171.488c0.324,1.84-0.905,3.595-2.745,3.919s-3.595-0.905-3.919-2.745
						c-0.324-1.84,0.905-3.595,2.745-3.919C274.167,168.419,275.922,169.648,276.246,171.488z"/>
					<path style="fill:#8FC6C1;" d="M310.2,165.309c0.324,1.84-0.905,3.595-2.745,3.919s-3.595-0.905-3.919-2.745
						s0.905-3.595,2.745-3.919C308.121,162.24,309.876,163.469,310.2,165.309z"/>
					<path style="fill:#8FC6C1;" d="M407.273,148.123c0.324,1.84-0.905,3.595-2.745,3.919s-3.595-0.905-3.919-2.745
						s0.905-3.595,2.745-3.919C405.194,145.054,406.949,146.283,407.273,148.123z"/>
					<path style="fill:#8FC6C1;" d="M440.275,142.6c0.324,1.84-0.905,3.595-2.745,3.919c-1.84,0.324-3.595-0.905-3.919-2.745
						s0.905-3.595,2.745-3.919C438.197,139.531,439.951,140.76,440.275,142.6z"/>
				</g>
			</g>
			<g>
				<g>
					<g>
						<path style="fill:#ADDFDC;" d="M249.1,226.112c-0.93-3.397-1.273-6.964-1.154-10.513c0.105-3.555,0.713-7.095,1.706-10.518
							c1.028-3.413,2.445-6.713,4.292-9.753c1.833-3.042,4.063-5.847,6.695-8.188c-2.004,2.891-3.8,5.852-5.326,8.939
							c-1.512,3.09-2.788,6.282-3.744,9.57c-0.991,3.279-1.658,6.651-2.073,10.066C249.094,219.135,248.99,222.597,249.1,226.112z"
							/>
					</g>
					<g>
						<path style="fill:#ADDFDC;" d="M446.591,152.2c3.654,1.435,7.098,3.425,10.274,5.776c3.188,2.343,6.083,5.083,8.678,8.077
							c2.567,3.018,4.836,6.297,6.668,9.803c1.842,3.496,3.285,7.203,4.146,11.034c-1.649-3.559-3.452-6.987-5.499-10.256
							c-2.057-3.259-4.318-6.376-6.832-9.279c-2.486-2.927-5.224-5.636-8.132-8.164C452.975,156.671,449.859,154.368,446.591,152.2z
							"/>
					</g>
					<g>
						<path style="fill:#ADDFDC;" d="M207.489,205.443c-1.994-1.933-3.816-4.037-5.366-6.38c-1.558-2.332-2.798-4.948-3.454-7.761
							c-0.621-2.843-0.54-5.841,0.384-8.595c0.888-2.736,2.741-5.265,5.271-6.495c-2.024,1.92-3.209,4.369-3.767,6.913
							c-0.538,2.55-0.52,5.216,0.062,7.735c0.558,2.561,1.617,5.015,2.844,7.415C204.702,200.673,206.15,203.006,207.489,205.443z"
							/>
					</g>
					<g>
						<path style="fill:#ADDFDC;" d="M503.662,153.344c0.204-2.464,0.59-4.871,0.825-7.254c0.224-2.382,0.342-4.742,0.059-7.044
							c-0.246-2.278-0.942-4.517-2.035-6.545c-1.111-2.019-2.675-3.819-4.807-5.08c2.453,0.471,4.649,2.155,6.125,4.244
							c1.511,2.095,2.392,4.597,2.703,7.156c0.27,2.547,0.043,5.095-0.511,7.517C505.48,148.767,504.666,151.089,503.662,153.344z"
							/>
					</g>
				</g>
			</g>
		</g>
		<g>
			<g>
				<path style="fill:#EA8039;" d="M162.301,127.348c-6.11,0.37-11.791-2.566-14.909-6.495c-3.119-3.928-4.059-8.7-4.298-13.375
					c-0.207-4.044,0.089-8.21,2.073-12.033c1.984-3.823,5.887-7.284,10.976-8.557c3.443-0.861,7.139-0.674,10.605-0.104
					c2.261,0.371,4.544,0.933,6.224,2.12c1.555,1.099,2.456,2.641,3.106,4.199c2.284,5.479,1.864,11.471,1.072,17.289
					c-0.444,3.26-1.017,6.569-2.74,9.61c-1.723,3.041-4.765,5.824-8.805,6.988"/>
			</g>
			<g>
				<g>
					<path style="fill:#F7B094;" d="M153.613,144.843c-1.239-1.153-2.09-2.747-1.765-4.579c0.816-4.606,1.998-11.388,2.563-14.499
						c0.232-1.279,0.465-2.559,0.746-3.83c0.064-0.288,0.143-0.598,0.347-0.79c0.171-0.161,0.396-0.205,0.608-0.225
						c2.093-0.2,3.873,1.243,5.799,1.979c2.356,0.9,5.005,0.749,7.394,1.554c0.287,0.097,0.599,0.237,0.706,0.557
						c0.062,0.186,0.043,0.4,0.023,0.605c-0.367,3.721-1.335,11.611-1.84,16.286c-0.114,1.053,0.067,2.529-0.702,3.232l-1.365,1.487
						c-2.183,1.998-6.619,2.24-8.888,0.694C157.238,147.314,154.945,146.083,153.613,144.843z"/>
					<g>
						<path style="fill:#E89C82;" d="M155.503,121.145c0.171-0.161,0.396-0.205,0.608-0.225c2.093-0.2,3.873,1.243,5.799,1.979
							c2.356,0.9,5.005,0.749,7.394,1.554c0.287,0.097,0.599,0.237,0.706,0.557c0.062,0.186,0.042,0.4,0.022,0.605
							c-0.205,2.08-0.41,4.16-0.615,6.239c-2.373,1.113-4.877,1.696-7.319,1.453c-3.352-0.334-6.508-2.435-8.019-5.72
							c0.11-0.607,0.221-1.215,0.331-1.822c0.232-1.279,0.465-2.559,0.746-3.83C155.219,121.648,155.298,121.337,155.503,121.145z"
							/>
					</g>
				</g>
				<g>
					<path style="fill:#F7B094;" d="M151.437,117.449c-2.688-0.447-5.065-2.023-5.369-4.052c-0.303-2.029,1.97-4.277,4.753-4.308"/>
				</g>
				<g>
					<path style="fill:#F7B094;" d="M150.991,117.619c2.174,10.128,9.312,11.565,16.716,14.114c1.308,0.451,3.529,0.676,4.958,0.552
						c3.508-0.305,5.302-3.547,6.173-6.308c1.515-4.807,2.439-9.724,2.752-14.657c0.216-3.395,0.125-6.878-1.367-10.028
						c-1.492-3.15-4.612-5.942-8.705-6.692c-5.097-0.935-10.402,1.445-14.06,4.542c-5.398,4.57-8.437,11.179-6.732,17.237"/>
				</g>
				<g>
					<path style="fill:#F7B094;" d="M181.593,111.158c-0.208,3.126-0.046,2.612,0.142,4.403c0.02,0.194,0.312,1.728,1.336,2.467
						c0.808,0.583,0.93,1.865,0.139,2.551c-0.44,0.382-0.859,0.546-1.444,0.634c-0.827,0.124-1.613-0.108-2.034-0.785"/>
				</g>
			</g>
			<g>
				<g>
					<path style="fill:#EA8039;" d="M172.088,105.448c-0.125,0.059-0.03,0.215,0.123,0.258c0.153,0.044,0.316,0.014,0.467-0.012
						c1.836-0.32,3.981-0.017,5.635,0.796c0.254,0.125,0.509,0.265,0.807,0.313c0.298,0.048,0.65-0.037,0.693-0.232
						c0.019-0.084-0.022-0.173-0.075-0.255c-0.223-0.348-0.657-0.627-1.12-0.852c-1.495-0.727-3.437-0.981-5.074-0.664
						c-0.613,0.118-1.207,0.327-1.521,0.691"/>
				</g>
			</g>
			<g style="opacity:0.21;">
				<path style="fill:#E66E60;" d="M162.109,117.288c-0.199,2.27,1.674,4.234,4.184,4.387c2.51,0.153,4.707-1.564,4.907-3.834
					c0.2-2.27-1.674-4.234-4.184-4.387C164.506,113.302,162.309,115.018,162.109,117.288z"/>
			</g>
			<path style="fill:#38303B;" d="M174.144,110.486c-0.096,1.206,0.417,2.219,1.146,2.263c0.729,0.044,1.399-0.897,1.495-2.103
				c0.096-1.206-0.417-2.219-1.146-2.263C174.91,108.339,174.24,109.28,174.144,110.486z"/>
			<g>
				<path style="fill:#EA8039;" d="M173.458,93.614c9.117-4.13,9.848-10.536,7.625-9.276c-5.677,3.219-11.101,2.644-17.621,2.327
					c-1.553-0.075-4.485,3.197-6.04,3.164c-4.193-0.087-7.888,3.182-9.156,6.968c-1.269,3.786-0.545,7.918,0.8,11.668l1.481,0.301
					c0.025-0.031,0.053-0.06,0.078-0.091c0.417,0.835,0.828,1.676,1.203,2.448c0.403,0.831,1.672,0.79,2.02-0.066
					c2.064-5.065,4.794-9.387,9.742-11.086c1.324-0.289,2.673-0.465,4.031-0.498c3.057-0.076,2.277-0.292,5.333-0.229
					c3.057,0.063,6.294-0.422,8.67-2.252C184.231,94.983,170.556,94.929,173.458,93.614z"/>
			</g>
			<g>
				<path style="fill:#38303B;" d="M177.936,109.626c-0.345-0.223-0.693-0.346-1.034-0.478c-0.346-0.117-0.69-0.227-1.041-0.297
					c-0.348-0.082-0.704-0.131-1.066-0.166c-0.363-0.02-0.728-0.052-1.13,0.03c0.265-0.327,0.688-0.512,1.097-0.582
					c0.415-0.08,0.84-0.058,1.252,0.026c0.409,0.097,0.802,0.257,1.145,0.501C177.502,108.894,177.807,109.228,177.936,109.626z"/>
			</g>
			<g>
				<path style="fill:#EA8039;" d="M176.323,88.844c1.085,0.266,0.883,0.309,1.976,0.366c0.815,0.042,1.613-0.123,2.403-0.288
					c2.578-0.537,5.156-1.074,7.734-1.611c0.279-0.058,0.585-0.111,0.844,0.062c0.436,0.291,0.484,1.016,0.419,1.586
					c-0.258,2.254-1.331,4.278-2.891,5.454c2.041,0.478,4.151,0.177,5.949-0.847c0.505,1.877-0.059,3.909-1.132,5.235
					c-1.073,1.326-2.582,2.035-4.118,2.427c-3.341,0.852-7,0.315-10.246-1.504c0.812,0.699,0.658,2.298-0.073,2.982
					c-0.73,0.684-1.772,0.688-2.734,0.569c-2.119-0.261-4.229-0.986-6.195-2.128c0.499,1.29-0.241,2.787-1.29,3.239
					c-1.049,0.452-2.266,0.117-3.365-0.38c-1.727-0.781-3.353-1.958-4.76-3.446"/>
			</g>
			<g>
				<defs>
					<path id="SVGID_1_" d="M178.432,127.134c0.292-0.778,0.722-2.032,0.978-3.104c0.039-0.164,0.068-0.335,0.009-0.493
						c-0.068-0.18-0.247-0.29-0.416-0.382c-0.955-0.519-1.978-0.912-3.034-1.168c-0.643-0.156-1.325-0.259-1.962-0.078
						c-0.637,0.182-1.213,0.716-1.254,1.377c-0.016,0.254,0.046,0.507,0.131,0.747c0.135,0.378,0.331,0.734,0.578,1.05
						c0.463,0.592,1.09,1.03,1.711,1.452c1.016,0.69,2.056,1.365,3.201,1.809"/>
				</defs>
				<clipPath id="SVGID_00000102546457890092416440000015517829083669468549_">
					<use xlink:href="#SVGID_1_"  style="overflow:visible;"/>
				</clipPath>
				<g style="clip-path:url(#SVGID_00000102546457890092416440000015517829083669468549_);">
					<g>
						<path style="fill:#E66E60;" d="M184.715,125.034c-2.462,1.744-4.766,1.976-7.493,0.861c-0.85-0.348-2.716-2.122-2.976-2.999
							c3.231,1.949,6.837,2.747,10.544,2.016"/>
					</g>
					<g>
						<path style="fill:#FFFFFF;" d="M184.715,125.034c-2.479,0.605-5.288,0.401-8.823-0.952c-0.801-0.306-1.573-0.751-1.895-1.306
							c3.331,1.433,7.486,2.259,11.084,2.092L184.715,125.034z"/>
					</g>
				</g>
			</g>
			<g>
				<g>
					<path style="fill:#F7B094;" d="M197.856,404.38c-0.999,2.715-1.998,5.429-2.997,8.143c-0.194,0.528-0.391,1.065-0.429,1.626
						c-0.149,2.194,2.045,3.833,2.599,5.962c0.059,0.227,0.099,0.468,0.034,0.693c-0.208,0.719-1.203,0.752-1.943,0.635
						c-2.163-0.342-4.326-0.684-6.489-1.027c-0.817-0.129-1.768-0.358-2.086-1.122c-0.144-0.344-0.122-0.732-0.098-1.104
						c0.348-5.431,0.695-10.863,1.043-16.294"/>
				</g>
				<g>
					<path style="fill:#2E3346;" d="M217.301,428.49c-5.446,0.207-9.909,0.37-15.355,0.577c-1.666,0.063-3.418,0.108-4.897-0.662
						c-0.815-0.424-1.629-1.107-2.53-0.925c-0.698,0.141-1.187,0.766-1.826,1.078c-0.561,0.273-1.208,0.292-1.832,0.305
						c-1.904,0.04-3.808,0.081-5.712,0.121c-0.628,0.013-1.321,0.005-1.795-0.408c-0.557-0.485-0.591-1.326-0.558-2.064
						c0.133-2.919,0.663-5.82,1.569-8.598c0.206-0.632,0.511-1.338,1.146-1.536c0.584-0.182,1.19,0.148,1.723,0.447
						c2.157,1.212,4.99,2.068,6.982,0.6c0.518-0.382,0.945-0.904,1.539-1.149c0.657-0.271,1.402-0.158,2.101-0.029
						c6.032,1.11,11.917,3.022,17.449,5.671c1.255,0.601,2.552,1.292,3.298,2.467c0.746,1.175,0.69,2.972-0.475,3.734"/>
				</g>
				<g>
					<g>
						<path style="fill:#F09532;" d="M206.084,417.651c-1.183,0.859-1.804,2.199-1.978,3.625c-0.032,0.261,0.253,0.511,0.5,0.5
							c0.298-0.013,0.466-0.221,0.5-0.5c0.011-0.093-0.004,0.02,0.005-0.036c0.005-0.032,0.01-0.064,0.015-0.097
							c0.012-0.073,0.026-0.145,0.041-0.217c0.03-0.145,0.066-0.288,0.109-0.43c0.042-0.142,0.092-0.281,0.145-0.42
							c0.01-0.026,0.027-0.067,0.006-0.018c0.016-0.038,0.033-0.075,0.05-0.113c0.031-0.067,0.063-0.134,0.097-0.199
							c0.064-0.124,0.134-0.245,0.209-0.362c0.04-0.062,0.081-0.123,0.124-0.183c-0.002,0.003,0.077-0.103,0.049-0.067
							c-0.025,0.033,0.032-0.039,0.037-0.045c0.094-0.113,0.193-0.222,0.3-0.324c0.053-0.051,0.108-0.101,0.164-0.148
							c0.025-0.021,0.05-0.042,0.076-0.063c-0.066,0.053,0.056-0.041,0.057-0.042c0.211-0.153,0.336-0.442,0.179-0.684
							C206.633,417.621,206.31,417.487,206.084,417.651L206.084,417.651z"/>
					</g>
				</g>
				<g>
					<g>
						<path style="fill:#F09532;" d="M201.071,416.15c-1.16,1.173-2.01,2.629-2.461,4.215c-0.177,0.62,0.788,0.885,0.964,0.266
							c0.405-1.424,1.164-2.721,2.204-3.774C202.231,416.399,201.524,415.692,201.071,416.15L201.071,416.15z"/>
					</g>
				</g>
			</g>
			<g>
				<g>
					<path style="fill:#F7B094;" d="M126.384,406.225c-1.278,2.595-2.557,5.189-3.835,7.784c-0.249,0.505-0.5,1.018-0.597,1.572
						c-0.379,2.166,1.632,4.027,1.959,6.201c0.035,0.232,0.049,0.476-0.04,0.693c-0.283,0.693-1.276,0.622-1.999,0.428
						c-2.115-0.567-4.23-1.134-6.345-1.702c-0.799-0.214-1.72-0.542-1.957-1.335c-0.107-0.357-0.045-0.74,0.018-1.108
						c0.916-5.365,1.831-10.73,2.747-16.095"/>
				</g>
				<g>
					<path style="fill:#2E3346;" d="M144.373,429.418c-5.446,0.207-9.909,0.37-15.355,0.577c-1.666,0.063-3.418,0.108-4.897-0.661
						c-0.815-0.424-1.629-1.107-2.53-0.925c-0.698,0.141-1.186,0.766-1.826,1.078c-0.561,0.273-1.208,0.292-1.832,0.305
						c-1.904,0.041-3.808,0.081-5.712,0.122c-0.628,0.013-1.321,0.005-1.795-0.408c-0.557-0.485-0.591-1.326-0.558-2.064
						c0.133-2.919,0.663-5.82,1.569-8.598c0.206-0.632,0.511-1.338,1.146-1.536c0.584-0.182,1.19,0.148,1.723,0.447
						c2.157,1.212,4.991,2.068,6.982,0.6c0.518-0.382,0.945-0.904,1.539-1.149c0.657-0.271,1.402-0.158,2.101-0.029
						c6.032,1.11,11.917,3.022,17.449,5.671c1.255,0.601,2.552,1.292,3.298,2.467c0.745,1.175,0.69,2.973-0.475,3.734"/>
				</g>
				<g>
					<g>
						<path style="fill:#F09532;" d="M133.156,418.58c-1.183,0.859-1.804,2.199-1.978,3.625c-0.032,0.261,0.253,0.511,0.5,0.5
							c0.298-0.013,0.466-0.221,0.5-0.5c0.011-0.093-0.004,0.02,0.005-0.036c0.005-0.032,0.01-0.064,0.015-0.096
							c0.012-0.073,0.026-0.145,0.041-0.217c0.03-0.145,0.066-0.288,0.108-0.43c0.042-0.142,0.092-0.281,0.145-0.42
							c0.01-0.026,0.027-0.067,0.006-0.018c0.016-0.038,0.033-0.075,0.05-0.113c0.031-0.067,0.063-0.134,0.097-0.199
							c0.064-0.124,0.134-0.245,0.209-0.362c0.04-0.062,0.081-0.123,0.124-0.183c-0.002,0.003,0.077-0.103,0.049-0.067
							c-0.025,0.033,0.032-0.039,0.037-0.045c0.094-0.113,0.193-0.222,0.3-0.324c0.053-0.051,0.108-0.101,0.164-0.149
							c0.025-0.021,0.05-0.042,0.076-0.063c-0.065,0.053,0.056-0.041,0.057-0.042c0.211-0.153,0.336-0.442,0.179-0.684
							C133.705,418.55,133.382,418.415,133.156,418.58L133.156,418.58z"/>
					</g>
				</g>
				<g>
					<g>
						<path style="fill:#F09532;" d="M128.143,417.079c-1.16,1.173-2.01,2.628-2.461,4.215c-0.176,0.62,0.788,0.885,0.964,0.266
							c0.405-1.424,1.163-2.721,2.204-3.774C129.303,417.328,128.596,416.62,128.143,417.079L128.143,417.079z"/>
					</g>
				</g>
			</g>
			<g>
				<path style="fill:#367754;" d="M124.771,410.417c0.641,0.297,1.4,0.053,1.742-0.565c12.421-22.494,25.995-48.697,37.336-71.537
					c4.29-8.641,9.778-20.385,8.317-22.266c-0.959-1.235-7.92,16.121-9.468,15.895c-6.583-0.958-11.011-6.059-17.594-7.017
					c-9.394,24.001-23.155,58.738-32.605,82.89c-0.259,0.663,0.044,1.407,0.69,1.706L124.771,410.417z"/>
			</g>
			<g>
				<path style="fill:#367754;" d="M143.496,335.415c0.515-7.882,1.03-15.764,1.545-23.646c0.523-8.011,1.046-16.071,0.166-24.051
					c-1.189-10.782-4.789-19.997-2.414-30.582c0.814-3.63,2.072-9.139,2.422-10.628c1.715-7.281,3.926-15.271,5.571-15.582
					c11.21-2.118,21.931,13.962,32.76,10.371c-1.691,26.406-5.781,52.657-12.201,78.326c-1.175,4.697-2.492,9.509-5.428,13.36
					c-2.936,3.851-7.899,6.55-12.61,5.431"/>
			</g>
			<g>
				<path style="fill:#4C9374;" d="M197.097,412.325c0.494-0.092,0.858-0.512,0.875-1.015c0.858-25.66,0.789-48.575,0.513-74.203
					c-0.104-9.647-0.551-22.602-2.707-23.614c-1.416-0.664,0.268,17.959-1.212,18.462c-6.299,2.138-12.598,4.275-18.897,6.413
					c2.539,25.681,4.893,47.373,7.439,73.142c0.062,0.625,0.645,1.057,1.262,0.942L197.097,412.325z"/>
			</g>
			<g>
				<path style="fill:#4C9374;" d="M176.874,343.893c-2.369-7.535-4.739-15.07-7.108-22.605c-2.408-7.659-4.835-15.363-8.54-22.485
					c-5.006-9.623-20.101-13.877-19.696-29.876c0.34-13.447,5.017-7.035,4.806-8.55c-1.033-7.408-4.187-14.763-2.766-15.648
					c9.686-6.027,27.822,4.195,36.62-3.067c7.969,25.231,13.646,51.186,16.939,77.44c0.602,4.804,1.114,9.767-0.231,14.418
					c-1.345,4.651-4.997,8.963-9.794,9.622"/>
			</g>
			<g>
				<path style="fill:#4C9374;" d="M178.022,270.361c4.933-2.853,5.633-8.97,5.81-14.274c0.548-16.498,0.725-33.014,0.529-49.532
					c-0.205-17.304-0.902-35.005-7.848-51.281c-1.976-4.629-4.546-9.222-8.688-12.535c-4.141-3.313-10.14-5.117-15.288-3.491
					c-7.503,2.37-10.228,10.48-11.171,17.584c-1.291,9.739-1.132,19.607-0.971,29.44c0.451,27.566,0.903,55.133,1.354,82.699"/>
			</g>
			<g>
				<path style="fill:#F2E2C8;" d="M142.872,156.392c0.997-7.753,3.881-16.706,11.966-18.357c3.208-0.655,6.524,0.116,9.335,1.795
					c4.156,2.482,6.186,5.484,8.187,9.742c0.674,1.434,1.731,5.785,1.841,7.365c0.442,6.326-0.271,10.817-1.116,17.126
					c-2.951,22.034-6.856,32.918-11.032,56.659c-0.857,4.873-2.423,7.29-4.524,8.436c-3.802,2.073-7.253,0.341-9.246-2.62
					c-1.993-2.962-2.277-6.714-2.5-10.276c-0.998-15.949-1.996-31.899-2.994-47.848c-0.268-4.279-0.534-8.561-0.744-12.845
					C142.224,162.502,142.48,159.441,142.872,156.392z"/>
			</g>
			<g>
				<g>
					<path style="fill:#367754;" d="M179.956,166.332c-0.265,2.146-0.433,4.302-0.669,6.453c-0.225,2.154-0.527,4.293-0.672,6.451
						c-0.365,4.31-0.886,8.612-1.49,12.9c-1.201,8.584-3.073,17.049-4.761,25.524c-0.876,4.233-1.727,8.469-2.514,12.717
						c-0.808,4.2-1.336,8.663-3.568,12.546c-1.099,1.914-2.724,3.622-4.789,4.527c-2.068,0.913-4.304,1.029-6.451,1.162
						c-4.366,0.257-8.652-0.605-12.979-0.324c4.316-0.503,8.668,0.26,12.947-0.158c2.139-0.186,4.322-0.352,6.223-1.248
						c1.905-0.885,3.379-2.495,4.388-4.335c2.024-3.747,2.57-8.081,3.336-12.332c0.76-4.261,1.571-8.514,2.431-12.755
						c1.787-8.468,3.604-16.914,5.018-25.435c0.715-4.26,1.273-8.542,1.812-12.834c0.234-2.151,0.587-4.289,0.865-6.43
						C179.365,170.617,179.621,168.469,179.956,166.332z"/>
				</g>
				<g>
					<path style="fill:#367754;" d="M167.768,328.203c-0.954-2.844-1.612-5.746-2.196-8.662c-0.555-2.922-1.035-5.858-1.215-8.853
						c0.957,2.843,1.614,5.745,2.196,8.662C167.105,322.272,167.585,325.209,167.768,328.203z"/>
				</g>
				<g>
					<path style="fill:#367754;" d="M188.996,320.05c-0.125,3.028-1.685,5.954-3.912,8.057c-1.126,1.049-2.422,1.923-3.837,2.52
						c-1.406,0.61-2.935,0.929-4.439,0.906C182.607,330.069,187.192,325.756,188.996,320.05z"/>
				</g>
				<g>
					<path style="fill:#367754;" d="M186.242,330.633c-0.844,1.047-1.859,1.841-2.914,2.576c-1.073,0.709-2.187,1.356-3.474,1.749
						c0.842-1.049,1.857-1.843,2.914-2.576C183.842,331.675,184.956,331.027,186.242,330.633z"/>
				</g>
				<g>
					<path style="fill:#367754;" d="M141.973,258.917c1.095-0.154,2.192-0.243,3.288-0.367c0.557-0.035,1.071-0.119,1.691-0.095
						c0.304,0.02,0.655,0.1,0.95,0.329c0.298,0.227,0.465,0.562,0.563,0.86c0.473,2.266,0.708,4.374,1.031,6.575
						c0.278,2.184,0.557,4.36,0.753,6.561c0.086,1.109,0.127,2.246-0.068,3.369c-0.215,1.103-0.724,2.233-1.655,2.866
						c0.771-0.806,1.118-1.869,1.169-2.931c0.087-1.063-0.034-2.14-0.21-3.211c-0.374-2.161-0.681-4.345-0.98-6.523l-0.407-3.274
						l-0.182-1.64c-0.074-0.534-0.095-1.13-0.187-1.581c-0.1-0.462-0.345-0.702-0.844-0.774c-0.478-0.064-1.064-0.025-1.605-0.043
						C144.177,258.996,143.076,258.989,141.973,258.917z"/>
				</g>
			</g>
			<g>
				<path style="fill:#D8C2A7;" d="M165.517,213.115c-1.966,6.488-4.211,12.883-7.406,18.846c-1.036,1.934-2.324,3.949-4.383,4.704
					c-2.362,0.866-4.865-0.312-6.55-2.267c0.296,0.746,0.652,1.466,1.107,2.141c1.993,2.962,5.444,4.693,9.246,2.62
					c2.101-1.146,3.667-3.563,4.524-8.436C163.234,224.005,164.394,218.317,165.517,213.115z"/>
			</g>
			<g>
				<path style="fill:#FBB291;" d="M209.645,237.246c6.688,1.69,14.899,0.948,20.097,4.549c0.481,0.334,0.571,1.055,0.116,1.424
					c-1.816,1.475-4.726,0.811-6.371,1.78c5.236,2.031,10.471,4.061,15.707,6.092c0.541,0.21,1.153,0.499,1.283,1.064
					c0.129,0.561-0.294,1.092-0.727,1.471c-3.333,2.917-8.399,2.531-12.663,1.33c-8.015-2.256-12.66-4.891-19.4-11.63"/>
			</g>
			<g>
				<path style="fill:#DDCDB6;" d="M209.168,246.328c-8.892-5.73-15.511-10.779-24.173-17.188
					c-4.551-3.367-9.157-6.788-12.756-11.335c-2.894-3.656-5.051-7.935-7.186-12.178c-7.585-15.077-16.775-29.435-17.852-46.682
					c-0.368-5.896,2.122-14.291,6.96-16.945c3.359-1.843,7.559-0.77,10.511,1.719c2.951,2.489,5.822,7.631,7.023,11.506
					c3.189,10.288,6.164,23.906,8.48,36.704c1.028,5.681,5.294,12.472,8.801,16.775c4.154,5.096,7.261,8.675,10.59,12.097
					c7.506,7.714,11.386,11.578,14.211,16.04"/>
			</g>
		</g>
		<g>
			<g>
				<path style="fill:#38303B;" d="M544.655,131.943c6.11,0.37,11.791-2.566,14.909-6.495c3.119-3.928,4.059-8.701,4.298-13.376
					c0.207-4.044-0.089-8.21-2.073-12.033c-1.984-3.823-5.887-7.284-10.976-8.557c-3.443-0.861-7.139-0.674-10.605-0.104
					c-2.261,0.371-4.544,0.933-6.224,2.12c-1.555,1.099-2.456,2.641-3.106,4.199c-2.284,5.479-1.864,11.471-1.072,17.289
					c0.444,3.26,1.017,6.569,2.74,9.61c1.723,3.041,4.765,5.824,8.805,6.988"/>
			</g>
			<g>
				<path style="fill:#E28F6F;" d="M553.344,149.439c1.239-1.153,2.09-2.747,1.765-4.579c-0.816-4.606-1.998-11.388-2.563-14.499
					c-0.232-1.279-0.465-2.559-0.746-3.83c-0.064-0.288-0.143-0.598-0.347-0.79c-0.171-0.161-0.396-0.205-0.608-0.225
					c-2.093-0.2-3.873,1.243-5.799,1.979c-2.356,0.901-5.005,0.749-7.394,1.554c-0.287,0.097-0.599,0.237-0.706,0.557
					c-0.062,0.186-0.043,0.4-0.022,0.605c0.367,3.721,1.335,11.611,1.84,16.286c0.113,1.053-0.067,2.529,0.701,3.232l1.365,1.487
					c2.183,1.998,6.619,2.24,8.888,0.694C549.718,151.91,552.011,150.679,553.344,149.439z"/>
				<g style="opacity:0.52;">
					<path style="fill:#D68065;" d="M551.454,125.741c-0.171-0.161-0.396-0.205-0.608-0.225c-2.093-0.2-3.873,1.243-5.799,1.979
						c-2.356,0.901-5.005,0.749-7.394,1.554c-0.287,0.097-0.599,0.237-0.706,0.557c-0.062,0.186-0.042,0.4-0.022,0.605
						c0.205,2.08,0.41,4.16,0.615,6.239c2.373,1.113,4.877,1.696,7.319,1.453c3.352-0.334,6.508-2.435,8.019-5.721
						c-0.11-0.607-0.221-1.215-0.331-1.822c-0.232-1.279-0.465-2.559-0.746-3.83C551.737,126.243,551.658,125.933,551.454,125.741z"
						/>
				</g>
			</g>
			<g>
				<path style="fill:#E28F6F;" d="M555.965,122.214c-2.174,10.128-9.312,11.565-16.716,14.114
					c-1.308,0.451-3.529,0.676-4.958,0.552c-3.508-0.305-5.302-3.547-6.172-6.308c-1.515-4.807-2.439-9.724-2.752-14.657
					c-0.216-3.395-0.125-6.878,1.367-10.028c1.492-3.15,4.612-5.942,8.705-6.692c5.097-0.935,10.402,1.445,14.06,4.542
					c5.398,4.57,8.437,11.179,6.732,17.237"/>
			</g>
			<g>
				<path style="fill:#E28F6F;" d="M525.364,115.754c0.209,3.126,0.047,2.612-0.142,4.403c-0.02,0.194-0.312,1.728-1.336,2.467
					c-0.808,0.583-0.931,1.865-0.14,2.551c0.44,0.382,0.859,0.546,1.444,0.634c0.827,0.124,1.613-0.108,2.034-0.785"/>
			</g>
			<g>
				<path style="fill:#38303B;" d="M534.868,110.043c0.125,0.059,0.03,0.214-0.123,0.258c-0.153,0.044-0.317,0.014-0.468-0.012
					c-1.836-0.32-3.981-0.017-5.635,0.796c-0.254,0.125-0.509,0.265-0.807,0.313c-0.298,0.048-0.65-0.037-0.693-0.232
					c-0.019-0.084,0.022-0.173,0.075-0.255c0.223-0.348,0.657-0.627,1.12-0.852c1.495-0.727,3.437-0.981,5.075-0.664
					c0.613,0.118,1.207,0.327,1.521,0.691"/>
			</g>
			<g style="opacity:0.56;">
				<path style="fill:#D68065;" d="M544.834,121.913c0.187,2.298-1.703,4.299-4.221,4.467c-2.518,0.169-4.71-1.557-4.897-3.855
					c-0.187-2.298,1.703-4.299,4.221-4.468C542.455,117.889,544.648,119.615,544.834,121.913z"/>
			</g>
			<path style="fill:#38303B;" d="M532.812,115.082c0.096,1.206-0.417,2.22-1.146,2.264c-0.729,0.044-1.399-0.897-1.495-2.103
				c-0.096-1.206,0.417-2.219,1.146-2.263C532.046,112.934,532.716,113.876,532.812,115.082z"/>
			<g>
				<path style="fill:#38303B;" d="M529.021,114.221c0.129-0.398,0.434-0.732,0.776-0.965c0.343-0.243,0.736-0.404,1.145-0.501
					c0.412-0.084,0.837-0.107,1.252-0.026c0.409,0.07,0.832,0.256,1.097,0.582c-0.402-0.082-0.768-0.05-1.13-0.03
					c-0.362,0.036-0.718,0.084-1.066,0.166c-0.351,0.07-0.695,0.179-1.041,0.297C529.714,113.875,529.365,113.998,529.021,114.221z"
					/>
			</g>
			<g>
				<defs>
					<path id="SVGID_00000060725205379838510900000010275057271750198931_" d="M528.525,131.73
						c-0.292-0.778-0.722-2.031-0.978-3.104c-0.039-0.164-0.068-0.335-0.008-0.493c0.068-0.18,0.247-0.29,0.416-0.382
						c0.955-0.519,1.978-0.912,3.035-1.168c0.643-0.156,1.325-0.259,1.962-0.078c0.637,0.182,1.213,0.716,1.254,1.377
						c0.016,0.254-0.046,0.507-0.131,0.747c-0.135,0.378-0.331,0.734-0.578,1.05c-0.463,0.592-1.089,1.03-1.711,1.452
						c-1.016,0.69-2.056,1.365-3.201,1.809"/>
				</defs>
				<clipPath id="SVGID_00000093142354549301622360000001722851168920265867_">
					<use xlink:href="#SVGID_00000060725205379838510900000010275057271750198931_"  style="overflow:visible;"/>
				</clipPath>
				<g style="clip-path:url(#SVGID_00000093142354549301622360000001722851168920265867_);">
					<g>
						<path style="fill:#E66E60;" d="M522.241,129.63c2.462,1.744,4.766,1.976,7.493,0.861c0.85-0.347,2.716-2.122,2.976-2.999
							c-3.231,1.949-6.837,2.747-10.544,2.016"/>
					</g>
					<g>
						<path style="fill:#FFFFFF;" d="M522.241,129.63c2.478,0.605,5.288,0.401,8.823-0.952c0.801-0.306,1.573-0.751,1.895-1.306
							c-3.331,1.434-7.486,2.259-11.084,2.092L522.241,129.63z"/>
					</g>
				</g>
			</g>
			<g>
				<g>
					<path style="fill:#E28F6F;" d="M598.683,404.421c2.096,1.994,4.191,3.987,6.287,5.981c0.408,0.388,0.821,0.783,1.103,1.269
						c1.104,1.902-0.141,4.342,0.303,6.496c0.047,0.229,0.118,0.464,0.276,0.637c0.505,0.553,1.412,0.143,2.023-0.288
						c1.789-1.263,3.578-2.525,5.367-3.788c0.676-0.477,1.427-1.103,1.376-1.928c-0.023-0.372-0.214-0.71-0.399-1.033
						c-2.712-4.719-5.424-9.438-8.136-14.157"/>
				</g>
				<g>
					<path style="fill:#2E3346;" d="M591.893,434.641c4.977-2.221,9.052-4.047,14.029-6.267c1.522-0.679,3.114-1.414,4.101-2.757
						c0.544-0.741,0.972-1.712,1.861-1.947c0.688-0.182,1.403,0.163,2.115,0.16c0.624-0.003,1.212-0.272,1.778-0.536
						c1.726-0.805,3.452-1.61,5.178-2.415c0.57-0.266,1.187-0.579,1.43-1.159c0.285-0.681-0.055-1.451-0.412-2.098
						c-1.409-2.56-3.166-4.928-5.207-7.02c-0.465-0.476-1.05-0.975-1.707-0.871c-0.604,0.095-1.003,0.658-1.348,1.163
						c-1.399,2.04-3.563,4.061-5.998,3.624c-0.633-0.114-1.247-0.393-1.888-0.351c-0.709,0.047-1.328,0.478-1.898,0.902
						c-4.921,3.661-9.354,7.977-13.147,12.797c-0.861,1.094-1.718,2.287-1.868,3.671c-0.15,1.384,0.694,2.971,2.076,3.14"/>
				</g>
				<g>
					<g>
						<path style="fill:#F09532;" d="M596.998,420.943c0.15,0.026,0.299,0.06,0.445,0.103c0.073,0.022,0.145,0.046,0.216,0.072
							c0.029,0.01,0.057,0.022,0.085,0.032c0.138,0.053-0.087-0.042,0.048,0.02c0.269,0.124,0.525,0.273,0.765,0.448
							c0.014,0.01,0.097,0.073,0.026,0.018c0.024,0.019,0.048,0.038,0.071,0.057c0.059,0.048,0.117,0.098,0.174,0.148
							c0.114,0.102,0.223,0.209,0.327,0.32c0.104,0.111,0.202,0.227,0.297,0.347c-0.031-0.04-0.018-0.024,0.005,0.007
							c0.022,0.03,0.045,0.061,0.067,0.092c0.048,0.067,0.094,0.136,0.14,0.205c0.143,0.219,0.449,0.331,0.684,0.179
							c0.218-0.141,0.332-0.45,0.179-0.684c-0.745-1.14-1.891-2.095-3.263-2.33c-0.257-0.044-0.551,0.068-0.615,0.349
							C596.594,420.57,596.722,420.896,596.998,420.943L596.998,420.943z"/>
					</g>
				</g>
				<g>
					<g>
						<path style="fill:#F09532;" d="M600.706,417.356c1.395,0.482,2.646,1.327,3.637,2.424c0.181,0.2,0.523,0.184,0.707,0
							c0.199-0.199,0.182-0.506,0-0.707c-1.107-1.225-2.52-2.142-4.078-2.681c-0.255-0.088-0.547,0.101-0.615,0.349
							C600.282,417.016,600.45,417.267,600.706,417.356L600.706,417.356z"/>
					</g>
				</g>
			</g>
			<g>
				<g>
					<path style="fill:#E28F6F;" d="M517.269,408.805c0.797,2.78,1.595,5.561,2.392,8.341c0.155,0.541,0.311,1.09,0.308,1.653
						c-0.012,2.199-2.321,3.673-3.029,5.755c-0.076,0.222-0.133,0.46-0.084,0.689c0.155,0.732,1.145,0.838,1.891,0.776
						c2.182-0.183,4.364-0.366,6.547-0.548c0.824-0.069,1.789-0.228,2.163-0.966c0.168-0.332,0.175-0.72,0.179-1.093
						c0.051-5.442,0.102-10.885,0.153-16.327"/>
				</g>
				<g>
					<path style="fill:#2E3346;" d="M496.924,432.354c5.446,0.207,9.909,0.37,15.355,0.577c1.666,0.063,3.418,0.108,4.897-0.661
						c0.815-0.424,1.629-1.107,2.53-0.925c0.698,0.141,1.186,0.766,1.826,1.078c0.561,0.273,1.208,0.292,1.832,0.305
						c1.904,0.041,3.808,0.081,5.712,0.122c0.628,0.013,1.321,0.005,1.795-0.408c0.557-0.485,0.592-1.326,0.558-2.064
						c-0.133-2.919-0.663-5.82-1.569-8.598c-0.206-0.632-0.511-1.338-1.146-1.536c-0.584-0.182-1.19,0.148-1.723,0.447
						c-2.157,1.212-4.991,2.068-6.982,0.6c-0.518-0.382-0.945-0.904-1.539-1.149c-0.657-0.271-1.402-0.158-2.101-0.029
						c-6.032,1.11-11.917,3.022-17.449,5.671c-1.255,0.601-2.552,1.292-3.298,2.467c-0.745,1.175-0.69,2.973,0.475,3.734"/>
				</g>
				<g>
					<g>
						<path style="fill:#F09532;" d="M507.637,422.379c0.076,0.055,0.163,0.126,0.279,0.236c0.107,0.101,0.207,0.209,0.302,0.322
							c0.021,0.025,0.042,0.05,0.062,0.076c-0.042-0.053,0.01,0.014,0.026,0.035c0.043,0.059,0.085,0.12,0.125,0.182
							c0.08,0.124,0.155,0.251,0.222,0.383c0.03,0.058,0.059,0.117,0.087,0.177c0.017,0.037,0.034,0.075,0.051,0.112
							c0.033,0.076-0.024-0.06,0.007,0.017c0.054,0.138,0.104,0.277,0.147,0.419c0.043,0.142,0.08,0.285,0.111,0.429
							c0.015,0.072,0.029,0.144,0.042,0.217c0.006,0.032,0.011,0.064,0.016,0.096c0.025,0.158-0.011-0.098,0.008,0.06
							c0.032,0.259,0.207,0.513,0.5,0.5c0.244-0.011,0.534-0.222,0.5-0.5c-0.174-1.426-0.795-2.766-1.978-3.625
							c-0.212-0.154-0.566-0.043-0.684,0.179C507.32,421.955,507.41,422.215,507.637,422.379L507.637,422.379z"/>
					</g>
				</g>
				<g>
					<g>
						<path style="fill:#F09532;" d="M512.447,420.722c1.041,1.052,1.799,2.35,2.204,3.774c0.176,0.618,1.141,0.355,0.964-0.266
							c-0.452-1.586-1.302-3.042-2.461-4.215C512.701,419.556,511.994,420.264,512.447,420.722L512.447,420.722z"/>
					</g>
				</g>
			</g>
			<g>
				<path style="fill:#367754;" d="M517.032,412.422c-0.703,0.074-1.343-0.401-1.467-1.097
					c-4.505-25.298-9.078-54.456-12.279-79.754c-0.905-7.155,6.073-22.474,8.627-31.325c0.433-1.502-7.021,25.38-5.484,25.666
					c6.54,1.216,14.263-1.35,20.803-0.134c1.155,25.748,1.236,60.282,2.394,86.19c0.032,0.711-0.495,1.317-1.203,1.392
					L517.032,412.422z"/>
			</g>
			<g>
				<path style="fill:#367754;" d="M522.126,341.778c3.372-7.143,5.106-8.851,10.213-18.043c3.899-7.018,7.699-13.837,12.339-20.389
					c6.269-8.852,13.886-15.166,16.942-25.574c1.048-3.569,2.62-8.997,3.036-10.469c2.031-7.199,0.631-13.477-0.657-14.546
					c-8.776-7.288-22.609-0.208-30.337-8.599c-11.326,23.913-20.481,48.854-27.314,74.416c-1.25,4.677-2.432,9.525-1.732,14.316
					c0.7,4.791,3.731,9.559,8.394,10.865"/>
			</g>
			<g>
				<path style="fill:#4C9374;" d="M600.99,409.27c-0.461,0.201-0.998,0.058-1.294-0.348
					c-15.122-20.749-27.936-39.747-42.102-61.105c-5.333-8.039-12.239-19.009-11.023-21.057c0.798-1.345,9.865,15.009,11.372,14.594
					c6.412-1.769,11.397-3.577,17.81-5.346c12.324,22.674,23.986,41.981,36.354,64.732c0.3,0.551,0.06,1.237-0.515,1.488
					L600.99,409.27z"/>
			</g>
			<g>
				<path style="fill:#4C9374;" d="M579.147,343.395c-0.766-3.83-3.574-10.723-7.149-24c-2.087-7.752-3.671-15.155-4.786-23.106
					c-1.506-10.742,4.275-20.554,0.531-36.214c-3.128-13.082-3.452-18.414-4.085-17.021c-3.404,7.489-11.771-1.154-13.442-1.049
					c-11.386,0.711-15.69,18.54-27.069,17.73c2.553,28.426,12.98,50.92,25.532,74.213c2.297,4.262,5.831,8.308,9.625,11.316
					c3.794,3.007,9.27,4.4,13.56,2.154"/>
			</g>
			<g>
				<path style="fill:#4C9374;" d="M528.934,274.957c-4.933-2.853-5.633-8.97-5.81-14.274c-0.548-16.498-0.725-33.014-0.529-49.532
					c0.205-17.304,0.902-35.005,7.848-51.281c1.976-4.629,4.546-9.222,8.688-12.535c4.141-3.313,10.14-5.117,15.288-3.491
					c7.503,2.37,10.228,10.48,11.17,17.584c1.292,9.739,1.132,19.606,0.971,29.44c-0.451,27.566-0.903,55.133-1.354,82.699"/>
			</g>
			<g>
				<path style="fill:#F2E2C8;" d="M564.085,160.988c-0.997-7.753-3.881-16.706-11.966-18.357c-3.208-0.655-6.524,0.116-9.335,1.795
					c-4.156,2.482-6.186,5.484-8.187,9.742c-0.674,1.434-1.731,5.785-1.841,7.365c-0.442,6.326,0.271,10.817,1.116,17.126
					c2.951,22.034,6.856,32.918,11.032,56.659c0.857,4.873,2.423,7.29,4.524,8.436c3.802,2.073,7.253,0.341,9.246-2.62
					c1.993-2.962,2.277-6.714,2.5-10.276c0.998-15.949,1.996-31.899,2.994-47.848c0.268-4.279,0.534-8.561,0.744-12.845
					C564.732,167.098,564.477,164.037,564.085,160.988z"/>
			</g>
			<g>
				<path style="fill:#367754;" d="M526.32,176.715c0.347,2.048,0.612,4.11,0.906,6.164c0.297,2.052,0.652,4.103,0.895,6.166
					c0.559,4.116,1.152,8.219,1.904,12.298c1.473,8.161,3.397,16.232,5.232,24.34c0.884,4.061,1.724,8.133,2.498,12.218
					c0.398,2.047,0.738,4.076,1.336,6.036c0.582,1.955,1.361,3.865,2.57,5.479c0.61,0.798,1.324,1.511,2.134,2.1
					c0.82,0.573,1.729,1.021,2.694,1.317c1.939,0.585,4.035,0.689,6.089,0.845c4.118,0.271,8.296-0.341,12.441,0.114
					c-4.157-0.24-8.274,0.468-12.461,0.354c-2.08-0.092-4.177-0.16-6.242-0.726c-1.026-0.291-2.014-0.75-2.907-1.348
					c-0.884-0.613-1.668-1.364-2.336-2.202c-1.316-1.696-2.196-3.672-2.799-5.686c-0.629-2.012-0.99-4.088-1.401-6.112
					c-0.805-4.07-1.674-8.126-2.589-12.174c-1.75-8.11-3.708-16.204-4.986-24.431c-0.641-4.11-1.19-8.236-1.581-12.372
					c-0.105-1.032-0.171-2.072-0.308-3.097l-0.389-3.092C526.772,180.842,526.596,178.773,526.32,176.715z"/>
			</g>
			<g>
				<g>
					<path style="fill:#367754;" d="M548.599,323.625c1.804,5.706,6.389,10.019,12.188,11.483c-1.504,0.023-3.033-0.296-4.439-0.906
						c-1.415-0.597-2.71-1.47-3.837-2.52C550.284,329.579,548.724,326.653,548.599,323.625z"/>
				</g>
				<g>
					<path style="fill:#367754;" d="M551.353,334.207c1.286,0.394,2.4,1.042,3.474,1.749c1.056,0.733,2.071,1.527,2.914,2.576
						c-1.287-0.392-2.401-1.04-3.474-1.749C553.212,336.049,552.197,335.255,551.353,334.207z"/>
				</g>
			</g>
			<g>
				<path style="fill:#367754;" d="M566.501,263.557c-1.028,0.408-2.073,0.755-3.108,1.134c-0.51,0.184-1.079,0.328-1.514,0.536
					c-0.452,0.223-0.611,0.526-0.564,0.997c0.052,0.458,0.215,1.031,0.31,1.562l0.332,1.616l0.622,3.241
					c0.386,2.164,0.767,4.336,1.078,6.507c0.163,1.072,0.379,2.134,0.79,3.119c0.377,0.994,1.034,1.9,2.016,2.428
					c-1.081-0.316-1.914-1.233-2.458-2.217c-0.532-1.008-0.843-2.102-1.103-3.184c-0.491-2.154-0.897-4.311-1.305-6.474
					c-0.371-2.193-0.797-4.271-1.045-6.573c0-0.314,0.056-0.684,0.27-0.992c0.21-0.308,0.519-0.492,0.802-0.605
					c0.582-0.214,1.097-0.293,1.638-0.431C564.341,264.001,565.412,263.749,566.501,263.557z"/>
			</g>
			<g>
				<path style="fill:#D8C2A7;" d="M541.44,217.71c1.966,6.488,4.211,12.883,7.406,18.846c1.036,1.934,2.323,3.949,4.383,4.704
					c2.362,0.866,4.865-0.312,6.55-2.267c-0.296,0.746-0.652,1.466-1.107,2.141c-1.993,2.962-5.444,4.693-9.246,2.62
					c-2.101-1.146-3.667-3.563-4.524-8.436C543.722,228.601,542.562,222.913,541.44,217.71z"/>
			</g>
			<g>
				<path style="fill:#E28F6F;" d="M491.542,216.699c-6.717,1.568-14.914,0.677-20.177,4.183c-0.488,0.325-0.59,1.045-0.142,1.422
					c1.789,1.508,4.711,0.896,6.338,1.895c-5.272,1.935-10.544,3.87-15.815,5.806c-0.544,0.2-1.162,0.478-1.302,1.041
					c-0.139,0.559,0.274,1.097,0.7,1.484c3.28,2.978,8.351,2.683,12.636,1.56c8.055-2.11,12.746-4.66,19.608-11.276"/>
			</g>
			<g>
				<path style="fill:#DDCDB6;" d="M490.811,227.68c9.617-2.632,30.77-6.488,36.241-8.408c8.077-2.834,15.101-4.859,17.087-9.174
					c7.059-15.33,15.747-29.998,16.227-47.271c0.164-5.905-2.615-14.209-7.542-16.694c-3.421-1.726-7.581-0.508-10.445,2.082
					c-2.864,2.59-5.555,7.827-6.621,11.742c-2.831,10.392-5.334,24.105-7.205,36.975c-0.831,5.713-34.69,15.57-41.201,19.371"/>
			</g>
			<g>
				<path style="fill:#38303B;" d="M559.743,112.842c-6.441,1.454-12.058,1.66-17.127-2.502c-1.188-0.976-2.276-2.083-3.587-2.894
					c-3.493-2.163-8.104-1.883-11.912-0.31c-0.723,0.299-1.53,0.644-2.258,0.361c-0.523-0.203-0.871-0.688-1.165-1.159
					c-1.754-2.804-2.755-6.06-2.874-9.35c-0.014-0.384-0.012-0.786,0.168-1.127c0.707-1.345,3.011-0.414,4.227-1.344
					c0.989-0.756,1.036-2.591,2.273-2.788c0.429-0.068,0.852,0.113,1.271,0.228c1.507,0.414,3.234-0.084,4.275-1.234
					c0.287-0.317,0.542-0.692,0.938-0.862c0.287-0.123,0.612-0.122,0.925-0.118c1.46,0.018,2.919,0.036,4.378,0.054
					c3.289,0.041,6.668,0.098,9.712,1.321c3.098,1.244,5.581,3.587,7.983,5.876"/>
			</g>
			<g>
				<path style="fill:#E28F6F;" d="M555.519,122.044c2.688-0.446,5.065-2.023,5.369-4.052c0.303-2.029-1.97-4.277-4.753-4.308"/>
			</g>
		</g>
	</g>
</g>
</svg>
