<?xml version="1.0" encoding="utf-8"?>
<!-- Generator: Adobe Illustrator 27.5.0, SVG Export Plug-In . SVG Version: 6.00 Build 0)  -->
<svg version="1.1" xmlns="http://www.w3.org/2000/svg" xmlns:xlink="http://www.w3.org/1999/xlink" x="0px" y="0px"
	 viewBox="0 0 750 500" style="enable-background:new 0 0 750 500;" xml:space="preserve">
<g id="Clouds">
	<g>
		
			<path style="fill:#FFFFFF;stroke:#9ABAE3;stroke-width:2.5;stroke-linecap:round;stroke-linejoin:round;stroke-miterlimit:10;" d="
			M50.255,142.277h117.438c0,0-3.055-6.456-13.306-7.155c0,0-3.228-11.168-13.371-13.785c-10.142-2.618-16.599,4.013-16.599,4.013
			s-5.235-16.403-19.02-16.054c-13.786,0.349-16.403,12.389-16.403,12.389s-8.027-1.222-10.121,5.758c0,0-8.376-3.315-13.611,0.873
			c-5.235,4.188-5.41,7.678-5.41,7.678S53.396,135.646,50.255,142.277z"/>
		
			<path style="fill:#FFFFFF;stroke:#9ABAE3;stroke-width:2.5;stroke-linecap:round;stroke-linejoin:round;stroke-miterlimit:10;" d="
			M208.71,94.745c2.372-4.316,10.031-14.34,26.199-9.433c1.875-4.158,11.423-14.962,24.298-6.968
			c3.293-5.179,7.476-9.924,20.006-6.703c2.797-7.414,9.835-12.686,18.099-12.686c10.046,0,18.309,7.777,19.302,17.743
			c0.034,0,0.066-0.004,0.1-0.004c1.01,0,1.993,0.074,2.953,0.198c2.284-4.76,6.601-7.978,11.561-7.978
			c7.164,0,12.989,6.707,13.265,15.099c0.755-0.098,1.526-0.16,2.318-0.16c7.509,0,13.597,4.598,13.597,10.27
			c0,0.21-0.025,0.415-0.042,0.622H208.71z"/>
	</g>
</g>
<g id="Bus">
	<g>
		<g>
			<g>
				
					<polygon style="fill:#FFFFFF;stroke:#263238;stroke-width:2.5;stroke-linecap:round;stroke-linejoin:round;stroke-miterlimit:10;" points="
					192.996,468.607 403.921,422.683 459.188,422.683 248.263,468.607 				"/>
			</g>
			<g>
				
					<line style="fill:none;stroke:#263238;stroke-width:2.5;stroke-linecap:round;stroke-linejoin:round;stroke-miterlimit:10;" x1="220.623" y1="468.283" x2="431.548" y2="422.359"/>
			</g>
		</g>
		<g>
			
				<path style="fill:#EC644E;stroke:#263238;stroke-width:2.5;stroke-linecap:round;stroke-linejoin:round;stroke-miterlimit:10;" d="
				M354.635,422.148h35.28c5.84,0,10.574-4.734,10.574-10.574V176.369c0-5.84-4.734-10.574-10.574-10.574h-35.28
				c-5.84,0-10.574,4.734-10.574,10.574v235.205C344.06,417.414,348.795,422.148,354.635,422.148z"/>
			
				<path style="fill:#9ABAE3;stroke:#263238;stroke-width:2.5;stroke-linecap:round;stroke-linejoin:round;stroke-miterlimit:10;" d="
				M357.805,413.46h28.94c3.178,0,5.755-2.577,5.755-5.755V180.238c0-3.178-2.577-5.755-5.755-5.755h-28.94
				c-3.178,0-5.755,2.577-5.755,5.755v227.467C352.05,410.884,354.626,413.46,357.805,413.46z"/>
			
				<line style="fill:none;stroke:#FFFFFF;stroke-width:2.5;stroke-linecap:round;stroke-linejoin:round;stroke-miterlimit:10;" x1="361.7" y1="226.467" x2="388.36" y2="199.807"/>
			
				<line style="fill:none;stroke:#FFFFFF;stroke-width:2.5;stroke-linecap:round;stroke-linejoin:round;stroke-miterlimit:10;" x1="357.112" y1="328.492" x2="387.438" y2="298.166"/>
			
				<line style="fill:none;stroke:#FFFFFF;stroke-width:2.5;stroke-linecap:round;stroke-linejoin:round;stroke-miterlimit:10;" x1="372.275" y1="327.269" x2="386.277" y2="313.268"/>
			
				<line style="fill:none;stroke:#FFFFFF;stroke-width:2.5;stroke-linecap:round;stroke-linejoin:round;stroke-miterlimit:10;" x1="358.273" y1="403.787" x2="372.275" y2="389.785"/>
			
				<line style="fill:none;stroke:#FFFFFF;stroke-width:2.5;stroke-linecap:round;stroke-linejoin:round;stroke-miterlimit:10;" x1="362.045" y1="193.478" x2="376.047" y2="179.477"/>
		</g>
		<g>
			<g>
				<path style="fill:#263238;" d="M377.4,227.926c-1.309,0-2.37-1.061-2.37-2.37v-16.079c0-1.309,1.061-2.37,2.37-2.37h13.831
					c1.309,0,2.37,1.061,2.37,2.37c0,1.309-1.061,2.37-2.37,2.37H379.77v13.708C379.77,226.865,378.709,227.926,377.4,227.926z"/>
				
					<path style="fill:#263238;stroke:#263238;stroke-width:2.5;stroke-linecap:round;stroke-linejoin:round;stroke-miterlimit:10;" d="
					M379.188,270.324h-3.575c-3.627,0-6.567-2.94-6.567-6.567V228.97c0-3.627,2.94-6.567,6.567-6.567h3.575
					c3.627,0,6.567,2.94,6.567,6.567v34.787C385.755,267.384,382.815,270.324,379.188,270.324z"/>
			</g>
			<g>
				<path style="fill:#263238;" d="M723.671,227.926c1.309,0,2.37-1.061,2.37-2.37v-16.079c0-1.309-1.061-2.37-2.37-2.37H709.84
					c-1.309,0-2.37,1.061-2.37,2.37c0,1.309,1.061,2.37,2.37,2.37h11.461v13.708C721.301,226.865,722.362,227.926,723.671,227.926z"
					/>
				
					<path style="fill:#263238;stroke:#263238;stroke-width:2.5;stroke-linecap:round;stroke-linejoin:round;stroke-miterlimit:10;" d="
					M721.883,270.324h3.575c3.627,0,6.567-2.94,6.567-6.567V228.97c0-3.627-2.94-6.567-6.567-6.567h-3.575
					c-3.627,0-6.567,2.94-6.567,6.567v34.787C715.316,267.384,718.256,270.324,721.883,270.324z"/>
			</g>
		</g>
		<g>
			
				<path style="fill:#263238;stroke:#263238;stroke-width:2.5;stroke-linecap:round;stroke-linejoin:round;stroke-miterlimit:10;" d="
				M431.938,383.018h-4.302c-9.236,0-16.724,7.488-16.724,16.724v51.855c0,9.236,7.487,16.724,16.724,16.724h4.302
				c9.236,0,16.724-7.487,16.724-16.724v-51.855C448.662,390.506,441.174,383.018,431.938,383.018z"/>
			
				<path style="fill:#263238;stroke:#263238;stroke-width:2.5;stroke-linecap:round;stroke-linejoin:round;stroke-miterlimit:10;" d="
				M673.435,383.018h-4.302c-9.236,0-16.724,7.488-16.724,16.724v51.855c0,9.236,7.487,16.724,16.724,16.724h4.302
				c9.236,0,16.724-7.487,16.724-16.724v-51.855C690.159,390.506,682.672,383.018,673.435,383.018z"/>
		</g>
		<g>
			<path style="fill:#EC644E;" d="M699.018,439.259H402.053c-6.1,0-11.044-4.945-11.044-11.044V109.253
				c0-6.1,4.945-11.044,11.044-11.044h296.965c6.099,0,11.044,4.945,11.044,11.044v318.962
				C710.062,434.315,705.118,439.259,699.018,439.259z"/>
			<path style="fill:#FFFFFF;" d="M710.06,109.25v318.97c0,5.97-4.74,10.84-10.67,11.03c1.69-1.94,2.71-4.47,2.71-7.24V113.05
				c0-6.1-4.94-11.04-11.04-11.04H394.09c-0.13,0-0.26,0-0.39,0.01c2.03-2.33,5.01-3.81,8.35-3.81h296.97
				C705.12,98.21,710.06,103.15,710.06,109.25z"/>
			<path style="fill:none;stroke:#263238;stroke-width:2.5;stroke-linecap:round;stroke-linejoin:round;stroke-miterlimit:10;" d="
				M699.018,439.259H402.053c-6.1,0-11.044-4.945-11.044-11.044V109.253c0-6.1,4.945-11.044,11.044-11.044h296.965
				c6.099,0,11.044,4.945,11.044,11.044v318.962C710.062,434.315,705.118,439.259,699.018,439.259z"/>
		</g>
		<path style="fill:#9ABAE3;" d="M708.815,449.418H392.257c-4.868,0-8.814-3.946-8.814-8.814v-9.641
			c0-4.868,3.946-8.814,8.814-8.814h316.558c4.868,0,8.814,3.946,8.814,8.814v9.641
			C717.629,445.471,713.683,449.418,708.815,449.418z"/>
		<path style="fill:#FFFFFF;" d="M717.63,430.96v9.64c0,4.44-3.28,8.11-7.55,8.73c1.08-1.46,1.73-3.28,1.73-5.25v-9.64
			c0-4.87-3.95-8.82-8.81-8.82H386.44c-0.43,0-0.86,0.03-1.27,0.09c1.62-2.16,4.19-3.56,7.09-3.56h316.55
			C713.68,422.15,717.63,426.09,717.63,430.96z"/>
		<path style="fill:none;stroke:#263238;stroke-width:2.5;stroke-linecap:round;stroke-linejoin:round;stroke-miterlimit:10;" d="
			M708.815,449.418H392.257c-4.868,0-8.814-3.946-8.814-8.814v-9.641c0-4.868,3.946-8.814,8.814-8.814h316.558
			c4.868,0,8.814,3.946,8.814,8.814v9.641C717.629,445.471,713.683,449.418,708.815,449.418z"/>
		
			<rect x="509.235" y="410.463" style="fill:#FFFFFF;stroke:#263238;stroke-width:2.5;stroke-linecap:round;stroke-linejoin:round;stroke-miterlimit:10;" width="82.601" height="23.37"/>
		<g>
			
				<path style="fill:#263238;stroke:#263238;stroke-width:2.5;stroke-linecap:round;stroke-linejoin:round;stroke-miterlimit:10;" d="
				M673.83,328.841H427.241c-6.081,0-11.011-4.93-11.011-11.011V173.523c0-6.081,4.93-11.011,11.011-11.011H673.83
				c6.081,0,11.011,4.93,11.011,11.011v144.307C684.841,323.912,679.911,328.841,673.83,328.841z"/>
			
				<path style="fill:#9ABAE3;stroke:#263238;stroke-width:2.5;stroke-linecap:round;stroke-linejoin:round;stroke-miterlimit:10;" d="
				M673.83,324.575H427.241c-6.081,0-11.011-4.93-11.011-11.011V177.789c0-6.081,4.93-11.011,11.011-11.011H673.83
				c6.081,0,11.011,4.93,11.011,11.011v135.775C684.841,319.645,679.911,324.575,673.83,324.575z"/>
			
				<line style="fill:none;stroke:#FFFFFF;stroke-width:2.5;stroke-linecap:round;stroke-linejoin:round;stroke-miterlimit:10;" x1="617.373" y1="314.197" x2="662.564" y2="269.006"/>
			
				<line style="fill:none;stroke:#FFFFFF;stroke-width:2.5;stroke-linecap:round;stroke-linejoin:round;stroke-miterlimit:10;" x1="454.525" y1="213.137" x2="481.184" y2="186.477"/>
			
				<line style="fill:none;stroke:#FFFFFF;stroke-width:2.5;stroke-linecap:round;stroke-linejoin:round;stroke-miterlimit:10;" x1="497.606" y1="292.937" x2="558.259" y2="232.285"/>
			
				<line style="fill:none;stroke:#FFFFFF;stroke-width:2.5;stroke-linecap:round;stroke-linejoin:round;stroke-miterlimit:10;" x1="497.606" y1="313.358" x2="638.164" y2="172.8"/>
			<g>
				
					<rect x="559.066" y="307.283" transform="matrix(0.9652 0.2615 -0.2615 0.9652 101.419 -144.4905)" style="fill:#263238;" width="69.24" height="3.184"/>
				
					<rect x="616.957" y="316.36" transform="matrix(0.9652 0.2615 -0.2615 0.9652 105.4932 -154.2118)" style="fill:#263238;" width="30.589" height="5.923"/>
			</g>
			<g>
				
					<rect x="450.525" y="307.283" transform="matrix(0.9652 0.2615 -0.2615 0.9652 97.6427 -116.1091)" style="fill:#263238;" width="69.24" height="3.184"/>
				
					<rect x="508.416" y="316.36" transform="matrix(0.9652 0.2615 -0.2615 0.9652 101.7169 -125.8303)" style="fill:#263238;" width="30.589" height="5.923"/>
			</g>
		</g>
		
			<path style="fill:#FFFFFF;stroke:#263238;stroke-width:2.5;stroke-linecap:round;stroke-linejoin:round;stroke-miterlimit:10;" d="
			M680.511,119.017H420.56c-2.391,0-4.329,1.938-4.329,4.329v20.346c0,2.391,1.938,4.329,4.329,4.329h259.952
			c2.391,0,4.329-1.938,4.329-4.329v-20.346C684.841,120.955,682.902,119.017,680.511,119.017z"/>
		
			<path style="fill:#FFFFFF;stroke:#263238;stroke-width:2.5;stroke-linecap:round;stroke-linejoin:round;stroke-miterlimit:10;" d="
			M452.912,395.931h-30.877c-4.674,0-8.464-3.789-8.464-8.464v-6.484c0-4.674,3.789-8.464,8.464-8.464h30.877
			c4.674,0,8.464,3.789,8.464,8.464v6.484C461.376,392.141,457.586,395.931,452.912,395.931z"/>
		
			<path style="fill:#FFFFFF;stroke:#263238;stroke-width:2.5;stroke-linecap:round;stroke-linejoin:round;stroke-miterlimit:10;" d="
			M679.036,395.931h-30.877c-4.674,0-8.464-3.789-8.464-8.464v-6.484c0-4.674,3.789-8.464,8.464-8.464h30.877
			c4.674,0,8.464,3.789,8.464,8.464v6.484C687.5,392.141,683.711,395.931,679.036,395.931z"/>
		
			<rect x="483.698" y="373.128" style="fill:#263238;stroke:#263238;stroke-width:2.5;stroke-linecap:round;stroke-linejoin:round;stroke-miterlimit:10;" width="133.675" height="2.509"/>
		
			<rect x="483.698" y="381.764" style="fill:#263238;stroke:#263238;stroke-width:2.5;stroke-linecap:round;stroke-linejoin:round;stroke-miterlimit:10;" width="133.675" height="2.509"/>
		
			<rect x="483.698" y="390.399" style="fill:#263238;stroke:#263238;stroke-width:2.5;stroke-linecap:round;stroke-linejoin:round;stroke-miterlimit:10;" width="133.675" height="2.509"/>
		
			<line style="fill:none;stroke:#263238;stroke-width:2.5;stroke-linecap:round;stroke-linejoin:round;stroke-miterlimit:10;" x1="391.009" y1="348.323" x2="710.062" y2="348.323"/>
		<g>
			<path style="fill:#EC644E;" d="M662.869,80.531H438.202c-7.691,0-14.76,4.23-18.395,11.008l-3.577,6.67h268.61l-3.577-6.67
				C677.629,84.761,670.56,80.531,662.869,80.531z"/>
			<path style="fill:#FFFFFF;" d="M684.84,98.21h-7.72l-2.38-4.45c-3.64-6.78-10.71-11.01-18.4-11.01H431.68
				c-1.14,0-2.28,0.09-3.38,0.28c2.99-1.61,6.39-2.5,9.9-2.5h224.67c7.69,0,14.76,4.23,18.39,11.01L684.84,98.21z"/>
			<path style="fill:none;stroke:#263238;stroke-width:2.5;stroke-linecap:round;stroke-linejoin:round;stroke-miterlimit:10;" d="
				M662.869,80.531H438.202c-7.691,0-14.76,4.23-18.395,11.008l-3.577,6.67h268.61l-3.577-6.67
				C677.629,84.761,670.56,80.531,662.869,80.531z"/>
		</g>
	</g>
</g>
<g id="Floor">
	
		<line style="fill:none;stroke:#263238;stroke-width:2.5;stroke-linecap:round;stroke-linejoin:round;stroke-miterlimit:10;" x1="51.88" y1="468.607" x2="698.12" y2="468.607"/>
</g>
<g id="Speech_Bubble">
	<g>
		
			<path style="fill:#FFFFFF;stroke:#263238;stroke-width:2.5;stroke-linecap:round;stroke-linejoin:round;stroke-miterlimit:10;" d="
			M236.616,187.49c-8.93-3.419-20.676-2.478-28.206,3.762c-6.706,5.554-8.898,15.593-5.723,23.604
			c3.788,9.553,14.711,14.764,24.602,13.11c0.655-0.111-0.571,4.48-3.424,7.06c-1.12,1.013-2.24,1.965-3.556,2.637
			c6.082-0.476,12.026-3.054,13.649-9.596c7.25-2.266,17.939-8.924,18.214-18.431C252.463,199.76,245.636,190.935,236.616,187.49z"
			/>
		<path style="fill:#EC644E;" d="M222.407,216.193l-6.518-6.517c-0.329-0.329-0.329-0.863,0-1.192l1.975-1.975
			c0.329-0.329,0.863-0.329,1.193,0l3.628,3.629c0.176,0.176,0.461,0.176,0.636,0l11.058-11.058c0.329-0.329,0.863-0.329,1.193,0
			l1.974,1.975c0.329,0.329,0.329,0.863,0,1.192L223.6,216.193C223.27,216.522,222.736,216.522,222.407,216.193z"/>
	</g>
</g>
<g id="Character_1">
	<g>
		<g>
			<g>
				<path style="fill:#B5846B;" d="M175.74,300.84c0,0-0.67,5.49-6.85,3.06c0,0-4.9,3.07-7.68-0.4
					c-8.41-10.5-13.05-11.38-14.91-17.37c0,0-1.64-1.27-4.14-3.26c-7.15-5.7-21.3-17.37-23.9-22.41c-0.67-1.31-1.42-2.82-2.19-4.46
					c-0.64-1.37-1.31-2.83-1.97-4.34c-0.11-0.24-0.22-0.49-0.32-0.73c-0.65-1.5-1.3-3.03-1.91-4.55c-1.17-2.9-2.22-5.77-2.99-8.28
					c-1.2-3.94-1.72-7-0.92-7.98c1.86-2.28,8.04-7.63,14.59-9.09c0.03-0.01,0.07-0.02,0.1-0.02c0.26-0.06,0.52-0.11,0.78-0.15
					c0.18-0.03,0.35-0.06,0.53-0.08c0.13-0.02,0.26-0.04,0.39-0.05c2.03-0.22,4.06,0,5.97,0.85c0.71,0.31,1.41,0.72,2.08,1.22
					c0.27,0.2,0.56,0.48,0.86,0.84c0.83,0.93,1.79,2.36,2.82,4.05c0.48,0.79,0.97,1.63,1.46,2.51c0,0.01,0,0.01,0.01,0.02
					c0.65,1.13,1.3,2.31,1.95,3.51c2.99,5.47,5.9,11.11,7.2,12.18c7.05,5.8,20.15,22.67,23.98,24.9c0.33,0.19,0.66,0.4,1,0.61
					c4.58,2.99,6.87,6.78,8.55,12.38l0.85,2.81l0.14,0.48c0,0,0.04,0.44,0.1,1.16c0.01,0.09,0.02,0.18,0.02,0.28
					c0.04,0.49,0.09,1.08,0.15,1.73c0.01,0.02,0.01,0.05,0.01,0.07c0.01,0.16,0.02,0.32,0.04,0.49c0.01,0.08,0.02,0.16,0.02,0.24
					c0.01,0.14,0.03,0.28,0.04,0.42c0.03,0.29,0.06,0.57,0.08,0.86c0.04,0.48,0.09,0.98,0.14,1.47c0.03,0.24,0.05,0.47,0.07,0.71
					c0.03,0.24,0.05,0.49,0.08,0.72c0.01,0.18,0.03,0.36,0.05,0.54c0.02,0.2,0.04,0.4,0.06,0.59c0.06,0.46,0.1,0.89,0.15,1.26
					C182.69,301.32,178.81,303.27,175.74,300.84z"/>
				<path style="fill:#FFFFFF;" d="M171.404,271.252c-0.243-0.151-0.485-0.304-0.724-0.442c-3.83-2.23-16.93-19.1-23.98-24.9
					c-1.3-1.07-4.21-6.71-7.2-12.18c-0.65-1.2-1.3-2.38-1.95-3.51c-0.01-0.01-0.01-0.01-0.01-0.02c-0.49-0.88-0.98-1.72-1.46-2.51
					c-1.03-1.69-1.99-3.12-2.82-4.05c-0.3-0.36-0.59-0.64-0.86-0.84c-0.67-0.5-1.37-0.91-2.08-1.22c-1.91-0.85-3.94-1.07-5.97-0.85
					c-0.13,0.01-0.26,0.03-0.39,0.05c-0.18,0.02-0.35,0.05-0.53,0.08c-0.26,0.04-0.52,0.09-0.78,0.15c1.51,0.32,2.98,0.96,4.36,1.99
					c0.52,0.39,1.13,1.08,1.8,2c1.01,1.37,2.16,3.25,3.36,5.33c0.92,1.6,1.86,3.33,2.8,5.05v0.01c0.1,0.19,0.21,0.38,0.32,0.58
					c2.84,5.25,5.49,10.29,6.75,11.32c7.41,6.1,31.376,26.422,32.786,27.526L171.404,271.252z"/>
				<path style="fill:none;stroke:#263238;stroke-width:2.5;stroke-linecap:round;stroke-linejoin:round;stroke-miterlimit:10;" d="
					M175.74,300.84c0,0-0.67,5.49-6.85,3.06c0,0-4.9,3.07-7.68-0.4c-8.41-10.5-13.05-11.38-14.91-17.37c0,0-1.64-1.27-4.14-3.26
					c-7.15-5.7-21.3-17.37-23.9-22.41c-0.67-1.31-1.42-2.82-2.19-4.46c-0.64-1.37-1.31-2.83-1.97-4.34
					c-0.11-0.24-0.22-0.49-0.32-0.73c-0.65-1.5-1.3-3.03-1.91-4.55c-1.17-2.9-2.22-5.77-2.99-8.28c-1.2-3.94-1.72-7-0.92-7.98
					c1.86-2.28,8.04-7.63,14.59-9.09c0.03-0.01,0.07-0.02,0.1-0.02c0.26-0.06,0.52-0.11,0.78-0.15c0.18-0.03,0.35-0.06,0.53-0.08
					c0.13-0.02,0.26-0.04,0.39-0.05c2.03-0.22,4.06,0,5.97,0.85c0.71,0.31,1.41,0.72,2.08,1.22c0.27,0.2,0.56,0.48,0.86,0.84
					c0.83,0.93,1.79,2.36,2.82,4.05c0.48,0.79,0.97,1.63,1.46,2.51c0,0.01,0,0.01,0.01,0.02c0.65,1.13,1.3,2.31,1.95,3.51
					c2.99,5.47,5.9,11.11,7.2,12.18c7.05,5.8,20.15,22.67,23.98,24.9c3.95,2.31,7.86,9.55,9.55,12.99c0.56,1.12,0.87,1.84,0.87,1.84
					s0.03,0.35,0.08,0.95c0.04,0.43,0.09,1,0.14,1.66c0.01,0.09,0.02,0.18,0.02,0.28c0.05,0.53,0.1,1.12,0.15,1.73
					c0.01,0.02,0.01,0.05,0.01,0.07c0.01,0.16,0.03,0.32,0.04,0.49c0.01,0.08,0.02,0.16,0.02,0.24c0.01,0.14,0.03,0.28,0.04,0.42
					c0.03,0.29,0.06,0.57,0.08,0.86c0.05,0.49,0.1,0.99,0.14,1.47c0.03,0.24,0.05,0.47,0.07,0.71c0.03,0.24,0.05,0.49,0.08,0.72
					c0.01,0.18,0.03,0.36,0.05,0.54c0.02,0.2,0.05,0.4,0.06,0.59c0.06,0.46,0.1,0.89,0.15,1.26
					C182.69,301.32,178.81,303.27,175.74,300.84z"/>
				<path style="fill:none;stroke:#263238;stroke-width:2.5;stroke-linecap:round;stroke-linejoin:round;stroke-miterlimit:10;" d="
					M175.738,300.844c-1.774-1.75-4.397-6.808-4.397-6.808"/>
				<path style="fill:none;stroke:#263238;stroke-width:2.5;stroke-linecap:round;stroke-linejoin:round;stroke-miterlimit:10;" d="
					M168.89,303.898c-2.012-2.044-5.191-6.363-5.191-6.363"/>
				
					<path style="fill:#B5846B;stroke:#263238;stroke-width:2.5;stroke-linecap:round;stroke-linejoin:round;stroke-miterlimit:10;" d="
					M157.867,283.595c0,0,6.568,5.388,14.632,3.805"/>
			</g>
			<g>
				<g>
					<path style="fill:#EC644E;" d="M110.292,204.104c17.532-3.003,27.953,22.204,27.953,22.204s-10.97,6.725-20.971,15.729
						c-6.871,6.186-8.307,5.664-8.307,5.664c-3.367-5.541-4.699-11.021-6.728-18.916L110.292,204.104z"/>
				</g>
				<g>
					<path style="fill:#FFFFFF;" d="M138.24,226.31c0,0-1.83,1.12-4.67,3.06c-0.29-0.98-6.76-22.09-23.32-25.15l0.04-0.12
						C127.82,201.1,138.24,226.31,138.24,226.31z"/>
				</g>
				<g>
					<path style="fill:#EC644E;" d="M133.58,229.41c0,0-0.34,0.21-0.96,0.61c0.33-0.23,0.64-0.44,0.95-0.65
						C133.58,229.4,133.58,229.41,133.58,229.41z"/>
				</g>
				<g>
					
						<path style="fill:none;stroke:#263238;stroke-width:2.5;stroke-linecap:round;stroke-linejoin:round;stroke-miterlimit:10;" d="
						M110.292,204.104c17.532-3.003,27.953,22.204,27.953,22.204s-10.97,6.725-20.971,15.729c-6.871,6.186-8.307,5.664-8.307,5.664
						c-3.367-5.541-4.699-11.021-6.728-18.916"/>
				</g>
			</g>
			<g>
				<path style="fill:#EC644E;" d="M142.98,232.815c0,0-2.631-8.714-4.508-10.376c0,0-13.59,2.331-21.973,8.716
					c-8.472,6.453-12.255,12.829-12.447,13.522c-0.192,0.693,3.445,13.35,9.233,12.307c0,0-3.205-0.556-1.201-3.606
					c3.796-5.779,7.708-9.844,12.33-12.63C135.47,234.08,142.98,232.815,142.98,232.815z"/>
				<path style="fill:#FFFFFF;" d="M142.98,232.82c0,0-1.51,0.26-4.16,1.13c-0.76-2.35-2.69-8.1-4.39-10.62
					c2.44-0.62,4.04-0.89,4.04-0.89C140.35,224.1,142.98,232.82,142.98,232.82z"/>
				<path style="fill:#EC644E;" d="M139.14,234.98c0,0-4.19,0.71-11.07,3.68c4.46-2.4,8.16-3.85,10.75-4.71
					C139.02,234.59,139.14,234.98,139.14,234.98z"/>
				<path style="fill:none;stroke:#263238;stroke-width:2.5;stroke-linecap:round;stroke-linejoin:round;stroke-miterlimit:10;" d="
					M142.98,232.815c0,0-2.631-8.714-4.508-10.376c0,0-13.59,2.331-21.973,8.716c-8.472,6.453-12.255,12.829-12.447,13.522
					c-0.192,0.693,3.445,13.35,9.233,12.307c0,0-3.205-0.556-1.201-3.606c3.796-5.779,7.708-9.844,12.33-12.63
					C135.47,234.08,142.98,232.815,142.98,232.815z"/>
				<path style="fill:#263238;" d="M116.786,257.544l-3.163-6.098c0,0-2.719,4.83-1.831,5.946
					C113.002,258.915,116.786,257.544,116.786,257.544z"/>
			</g>
		</g>
		<g>
			<g>
				<g>
					<g>
						
							<polygon style="fill:#B5846B;stroke:#263238;stroke-width:2.5;stroke-linecap:round;stroke-linejoin:round;stroke-miterlimit:10;" points="
							143.163,433.344 137.94,449.658 103.448,444.661 106.921,428.094 						"/>
					</g>
					<g>
						
							<polygon style="fill:#263238;stroke:#263238;stroke-width:2.5;stroke-linecap:round;stroke-linejoin:round;stroke-miterlimit:10;" points="
							103.451,444.663 101.433,458.597 151.771,465.889 137.939,449.659 138.949,446.507 104.119,441.462 						"/>
						
							<path style="fill:#FFFFFF;stroke:#263238;stroke-width:2.5;stroke-linecap:round;stroke-linejoin:round;stroke-miterlimit:10;" d="
							M101.218,460.078l2.233-15.415c3.601,1.24,11.595,10.722,14.722,11.823c3.127,1.101,7.294-0.37,9.845,0.282
							c2.55,0.652,4.566,2.359,6.229,2.6c1.663,0.241,5.845-3.327,9.835-2.502c3.99,0.826,10.708,10.972,7.475,10.503
							C148.324,466.901,101.218,460.078,101.218,460.078z"/>
					</g>
				</g>
				<g>
					<g>
						<path style="fill:#9ABAE3;" d="M65.088,277.358c0,0,21.931,49.305,51.438,83.565c0,0-5.42,15.863-9.16,33.387
							c-4.384,20.539-5.545,40.777-5.545,40.777c3.975-7.222,17.303,2.573,30.376,5.076c9.758,1.868,17.071-0.249,17.071-0.249
							s17.451-68.589,15.048-81.809c-2.024-11.133-28.606-63.339-37.54-80.749H65.088z"/>
					</g>
					<g>
						<path style="fill:#FFFFFF;" d="M149.269,439.92c0,0-2.58,0.74-6.72,0.95c3.42-13.74,17.05-69.89,14.86-81.92
							c-2.02-11.11-27.6-61.63-37.82-81.59h7.19c8.93,17.41,35.51,69.61,37.54,80.75C166.719,371.33,149.269,439.92,149.269,439.92z
							"/>
					</g>
					<g>
						
							<path style="fill:none;stroke:#263238;stroke-width:2.5;stroke-linecap:round;stroke-linejoin:round;stroke-miterlimit:10;" d="
							M65.088,277.358c0,0,21.931,49.305,51.438,83.565c0,0-5.42,15.863-9.16,33.387c-4.384,20.539-5.545,40.777-5.545,40.777
							c3.975-7.222,17.303,2.573,30.376,5.076c9.758,1.868,17.071-0.249,17.071-0.249s17.451-68.589,15.048-81.809
							c-2.024-11.133-28.606-63.339-37.54-80.749H65.088z"/>
					</g>
					
						<path style="fill:none;stroke:#263238;stroke-width:2.5;stroke-linecap:round;stroke-linejoin:round;stroke-miterlimit:10;" d="
						M75.157,277.817c0,0,25.031,48.009,49.578,75.2l8.51,0.708l-6.326,4.363l5.382,3.426l-5.837,1.762
						c0,0-7.948,15.799-10.214,32.605c-2.266,16.806-2.927,30.401-2.927,30.401"/>
				</g>
			</g>
			<g>
				<g>
					<g>
						
							<polygon style="fill:#B5846B;stroke:#263238;stroke-width:2.5;stroke-linecap:round;stroke-linejoin:round;stroke-miterlimit:10;" points="
							85.045,435.202 83.801,452.095 48.949,452.093 48.424,435.199 						"/>
					</g>
					<g>
						
							<polygon style="fill:#263238;stroke:#263238;stroke-width:2.5;stroke-linecap:round;stroke-linejoin:round;stroke-miterlimit:10;" points="
							48.953,452.094 48.952,466.174 99.816,466.177 83.801,452.096 84.041,448.833 48.848,448.831 						"/>
						
							<path style="fill:#FFFFFF;stroke:#263238;stroke-width:2.5;stroke-linecap:round;stroke-linejoin:round;stroke-miterlimit:10;" d="
							M48.952,467.67l0.001-15.576c3.742,0.711,13.011,8.95,16.264,9.591c3.253,0.642,7.166-1.412,9.783-1.131
							c2.617,0.28,4.857,1.681,6.538,1.681c1.68,0,5.308-4.131,9.375-3.885c4.067,0.245,12.17,9.324,8.903,9.324
							C96.549,467.673,48.952,467.67,48.952,467.67z"/>
					</g>
				</g>
				<g>
					
						<path style="fill:#9ABAE3;stroke:#263238;stroke-width:2.5;stroke-linecap:round;stroke-linejoin:round;stroke-miterlimit:10;" d="
						M125.806,277.358H50.167c0,0-4.798,12.554-5.171,28.444c-0.056,2.392,1.922,7.693,1.874,10.205
						c-0.415,21.304-0.623,42.951,0.884,51.427c0,0-5.567,16.637-5.605,34.556c-0.042,19.76,2.307,38.817,2.307,38.817
						c1.914-7.721,17.749,0.581,27.993,0.581c13.625,0,20.759-2.568,20.759-2.568s2.544-56.883,3.082-63.15
						c0.287-3.355,0.93-34.35,0.93-57.209c0-0.496,4.712-1.227,14.814-4.438"/>
					<path style="fill:#263238;" d="M47.647,437.739l0.297,4.851c0,0-3.993,0.006-4.356-1.399
						C43.225,439.784,47.647,437.739,47.647,437.739z"/>
				</g>
				
					<line style="fill:none;stroke:#263238;stroke-width:2.5;stroke-linecap:round;stroke-linejoin:round;stroke-miterlimit:10;" x1="94.899" y1="287.4" x2="93.201" y2="317.894"/>
				
					<line style="fill:none;stroke:#263238;stroke-width:2.5;stroke-linecap:round;stroke-linejoin:round;stroke-miterlimit:10;" x1="106.523" y1="285.323" x2="104.826" y2="315.818"/>
				<path style="fill:none;stroke:#263238;stroke-width:2.5;stroke-linecap:round;stroke-linejoin:round;stroke-miterlimit:10;" d="
					M110.184,314.593c-3.786,1.055-24.398,6.04-24.398,6.04"/>
				<path style="fill:none;stroke:#263238;stroke-width:2.5;stroke-linecap:round;stroke-linejoin:round;stroke-miterlimit:10;" d="
					M51.091,432.419c-5.389-41.164,4.154-65.755,4.154-65.755s-2.719-27.389-1.21-50.845c0,0-4.016-8.559,1.21-32.023"/>
				<path style="fill:none;stroke:#263238;stroke-width:2.5;stroke-linecap:round;stroke-linejoin:round;stroke-miterlimit:10;" d="
					M59.114,300.57c0,0,10.763-2.03,14.162-6.562c3.399-4.532,3.777-12.062,3.777-12.062"/>
				<path style="fill:none;stroke:#263238;stroke-width:2.5;stroke-linecap:round;stroke-linejoin:round;stroke-miterlimit:10;" d="
					M132.121,300.57c0,0-9.358-2.03-12.313-6.562c-2.955-4.532-3.283-12.062-3.283-12.062"/>
			</g>
		</g>
		<g>
			<g>
				<g>
					
						<path style="fill:#EC644E;stroke:#263238;stroke-width:2.5;stroke-linecap:round;stroke-linejoin:round;stroke-miterlimit:10;" d="
						M113.224,203.859c-7.568-0.127-8.206-0.373-12.564-0.142c-12.041,0.639-23.394-1.93-33.014,6.667
						c-13.49,12.055-15.635,38.395-19.493,55.972c0,0-15.108,36.37-4.625,31.553c13.86-6.369,25.396,2.52,44.75,2.576
						c22.689,0.065,50.949-13.129,50.776-3.044c0,0,7.446-0.198,4.663-9.437c-6.522-21.647-16.534-52.21-17.911-57.223
						c-0.758-2.758-2.293-7.981-2.293-7.981"/>
				</g>
				<path style="fill:none;stroke:#263238;stroke-width:2.5;stroke-linecap:round;stroke-linejoin:round;stroke-miterlimit:10;" d="
					M123.517,250.766c0,0-14.131-0.29-24.51,6.605"/>
				<path style="fill:none;stroke:#263238;stroke-width:2.5;stroke-linecap:round;stroke-linejoin:round;stroke-miterlimit:10;" d="
					M122.004,256.721c0,0-4.425-1.732-11.018,0.102"/>
				<path style="fill:#263238;" d="M134.901,292.999l1.922,5.698c0,0,3.989,0.225,4.926-1.562
					C142.687,295.349,137.423,293.691,134.901,292.999z"/>
			</g>
			<g>
				<path style="fill:#263238;" d="M112.278,182.983c1.803,2.6,1.157,6.17-1.443,7.973c-2.6,1.803-6.17,1.157-7.973-1.443
					c-1.803-2.6-1.157-6.17,1.443-7.973C106.905,179.738,110.475,180.383,112.278,182.983z"/>
				<path style="fill:#263238;" d="M96.973,182.649c1.491,2.791,0.437,6.262-2.354,7.753c-2.791,1.491-6.262,0.438-7.753-2.353
					c-1.491-2.791-0.437-6.262,2.353-7.753C92.01,178.805,95.481,179.858,96.973,182.649z"/>
				<path style="fill:#263238;" d="M102.521,206.472c0,0,2.217,4.297-0.113,4.51c-3.652,0.335-7.906-5.89-7.906-5.89
					L102.521,206.472z"/>
				<g>
					<g>
						<path style="fill:#B5846B;" d="M91.164,197.117c-0.637-6.149,3.044-11.569,8.224-12.106
							c5.179-0.537,9.895,4.012,10.533,10.161c0.638,6.149-3.044,11.569-8.223,12.106C96.517,207.815,91.802,203.266,91.164,197.117
							z"/>
						<path style="fill:#FFFFFF;" d="M101.696,207.278c-1.445,0.149-2.859-0.098-4.152-0.67c0.677,0.117,1.369,0.142,2.075,0.072
							c4.909-0.512,8.399-5.649,7.796-11.479c-0.606-5.832-5.077-10.142-9.985-9.634c-0.124,0.014-0.251,0.028-0.372,0.05
							c0.731-0.314,1.513-0.522,2.331-0.605c5.177-0.536,9.894,4.013,10.532,10.162C110.558,201.322,106.878,206.74,101.696,207.278
							z"/>
						
							<path style="fill:none;stroke:#263238;stroke-width:2.5;stroke-linecap:round;stroke-linejoin:round;stroke-miterlimit:10;" d="
							M91.164,197.117c-0.637-6.149,3.044-11.569,8.224-12.106c5.179-0.537,9.895,4.012,10.533,10.161
							c0.638,6.149-3.044,11.569-8.223,12.106C96.517,207.815,91.802,203.266,91.164,197.117z"/>
					</g>
				</g>
				<path style="fill:#263238;" d="M103.923,180.848c1.491,2.791,0.438,6.262-2.353,7.753c-2.791,1.491-6.262,0.438-7.753-2.353
					c-1.491-2.791-0.438-6.262,2.353-7.753C98.961,177.003,102.432,178.057,103.923,180.848z"/>
				<path style="fill:#263238;" d="M94.761,189.279c1.491,2.791,0.437,6.262-2.353,7.753s-6.262,0.438-7.753-2.353
					c-1.491-2.791-0.437-6.262,2.354-7.753C89.799,185.435,93.27,186.488,94.761,189.279z"/>
			</g>
		</g>
		<g>
			<g>
				
					<path style="fill:#B5846B;stroke:#263238;stroke-width:2.5;stroke-linecap:round;stroke-linejoin:round;stroke-miterlimit:10;" d="
					M131.867,308.441c0,0-0.505,5.505-6.755,3.255c0,0-3.783,1.961-7.686-0.17c-6.749-3.685-13.383-10.986-15.422-16.923
					c0,0-26.664-17.966-29.877-24.908c-3.793-8.193-9.387-28.231-7.252-31.004c2.718-3.531,16.695-12.752,25.777-6.387
					c3.717,2.605,8.084,17.522,10.614,19.482c7.219,5.593,20.767,24.665,24.66,26.788c5.333,2.909,10.513,15.249,10.513,15.249
					s1.29,7.754,1.825,11.215C138.831,308.709,135.014,310.779,131.867,308.441z"/>
				
					<path style="fill:#B5846B;stroke:#263238;stroke-width:2.5;stroke-linecap:round;stroke-linejoin:round;stroke-miterlimit:10;" d="
					M131.867,308.441c-1.825-1.696-4.596-6.675-4.596-6.675"/>
				
					<path style="fill:#B5846B;stroke:#263238;stroke-width:2.5;stroke-linecap:round;stroke-linejoin:round;stroke-miterlimit:10;" d="
					M125.112,311.696c-2.072-1.984-5.377-6.207-5.377-6.207"/>
			</g>
			<g>
				
					<path style="fill:#EC644E;stroke:#263238;stroke-width:2.5;stroke-linecap:round;stroke-linejoin:round;stroke-miterlimit:10;" d="
					M90.432,222.439c1.576,4.66,4.706,15.053,4.706,15.053s-11.748,5.247-22.832,12.881c-7.614,5.244-8.97,4.54-8.97,4.54
					c-2.62-5.93-3.232-11.537-4.221-19.628"/>
			</g>
			<g>
				
					<path style="fill:#EC644E;stroke:#263238;stroke-width:2.5;stroke-linecap:round;stroke-linejoin:round;stroke-miterlimit:10;" d="
					M99.091,243.792c0,0-1.48-8.981-3.126-10.873c0,0-13.778,0.551-22.917,5.796c-9.236,5.301-13.813,11.133-14.093,11.796
					c-0.28,0.662,1.687,13.683,7.561,13.399c0,0-3.106-0.966-0.724-3.732c4.513-5.239,8.918-8.762,13.862-10.927
					C91.48,244.073,99.091,243.792,99.091,243.792z"/>
				<path style="fill:#263238;" d="M69.914,264.92l-2.346-6.456c0,0-3.321,4.437-2.586,5.659
					C65.985,265.789,69.914,264.92,69.914,264.92z"/>
			</g>
		</g>
	</g>
	<path style="fill:#B5846B;" d="M177.769,277.817c6.061,4.332,9.805,6.885,10.146,10.63c0.34,3.745-14.375-0.756-14.375-0.756
		L177.769,277.817z"/>
	<path style="fill:#B5846B;stroke:#263238;stroke-width:2.5;stroke-linecap:round;stroke-linejoin:round;stroke-miterlimit:10;" d="
		M171.68,271.42c6.061,4.332,15.895,13.282,16.235,17.027c0.34,3.745-15.416-1.047-15.416-1.047"/>
</g>
<g id="Character_2">
	<g>
		<g>
			<g>
				<g>
					
						<path style="fill:#FCD8C3;stroke:#263238;stroke-width:2.5;stroke-linecap:round;stroke-linejoin:round;stroke-miterlimit:10;" d="
						M274.699,270.063c2.667-6.84,4.808-10.677,5.102-11.159c2.151-3.513,8.149-11.144,6.368-14.579
						c-0.808-1.557-2.374-1.953-2.374-1.953s0.715-2.656-0.888-3.796c-1.405-1-3.643,0.727-3.643,0.727s0.973-2.707-0.808-3.818
						c-2.976-1.857-16.008,9.79-16.285,10.066c-2.729,2.733-8.068,14.446-8.068,14.446L274.699,270.063z"/>
					
						<path style="fill:#FCD8C3;stroke:#263238;stroke-width:2.5;stroke-linecap:round;stroke-linejoin:round;stroke-miterlimit:10;" d="
						M259.243,250.946c0,0,1.235-5.335,1.45-7.212c0.2-1.744,0.207-4.422,0.286-5.501c0.184-2.516,3.32-3.193,5.093,1.383
						c0.923,2.383,0.51,2.367,1.492,5.714c0,0,4.436,2.349,4.973,7.354"/>
					
						<path style="fill:#F0BA92;stroke:#263238;stroke-width:2.5;stroke-linecap:round;stroke-linejoin:round;stroke-miterlimit:10;" d="
						M283.696,242.67c-0.557,2.715-4.676,7.46-4.676,7.46"/>
					
						<path style="fill:#F0BA92;stroke:#263238;stroke-width:2.5;stroke-linecap:round;stroke-linejoin:round;stroke-miterlimit:10;" d="
						M279.523,238.896c-1.865,3.024-5.495,6.879-5.495,6.879"/>
				</g>
				<g>
					<path style="fill:#EC644E;" d="M227.803,285.199c0,0,9.828,14.213,13.27,15.046c2.145,0.52,7.273,2.375,14.309-1.217
						c6.58-3.359,24.765-30.811,24.765-30.811s-3.374,2.128-15.447-9.518c-5.355-5.165-8.252-2.661-11.478-7.092l-9.476,14.397
						c0,0-13.055-16.905-22.497-16.996c-6.259-0.06-11.208,1.76-11.208,1.76"/>
					<path style="fill:#EC644E;" d="M280.145,268.215c0,0-0.077,0.144-0.222,0.418C280.102,268.417,280.145,268.215,280.145,268.215
						z"/>
					<path style="fill:#FFFFFF;" d="M253.224,251.606l-2.105,3.203c3.174,4.21,6.07,1.833,11.356,6.933
						c9.617,9.279,14.558,10.773,15.228,9.931c-1.322,2.486-10.788,13.126-17.114,22.15c6.744-8.718,17.837-22.391,19.333-25.19
						c-0.677,0.84-5.616-0.668-15.221-9.93C259.345,253.537,256.448,256.042,253.224,251.606z"/>
					<path style="fill:#FFFFFF;" d="M210.038,250.768l0.129,0.247c1.688-0.029,4.228-0.051,7.47-0.019
						c9.44,0.092,23.886,18.05,23.886,18.05l2.104-3.195c-1.336-1.698-13.465-16.756-22.376-16.838
						C214.993,248.951,210.038,250.768,210.038,250.768z"/>
					<path style="fill:#EC644E;" d="M277.924,271.263c0,0-0.077,0.144-0.221,0.41C277.883,271.458,277.924,271.263,277.924,271.263z
						"/>
					
						<path style="fill:none;stroke:#263238;stroke-width:2.5;stroke-linecap:round;stroke-linejoin:round;stroke-miterlimit:10;" d="
						M227.803,285.199c0,0,9.828,14.213,13.27,15.046c2.145,0.52,7.273,2.375,14.309-1.217c6.58-3.359,24.765-30.811,24.765-30.811
						s-3.374,2.128-15.447-9.518c-5.355-5.165-8.252-2.661-11.478-7.092l-9.476,14.397c0,0-13.055-16.905-22.497-16.996
						c-6.259-0.06-11.208,1.76-11.208,1.76"/>
					<path style="fill:#263238;" d="M280.772,268.419c1.04-1.411-3.553-4.462-3.553-4.462l-3.025,3.346
						C274.195,267.303,279.905,269.595,280.772,268.419z"/>
					
						<path style="fill:none;stroke:#263238;stroke-width:2.5;stroke-linecap:round;stroke-linejoin:round;stroke-miterlimit:10;" d="
						M239.754,272.534c0,0,1.697-2.556,4.009-6.588"/>
					<path style="fill:#263238;" d="M252.793,250.981c0.66-0.953,6.095,1.077,6.095,1.077l-2.345,1.953
						C256.543,254.012,252.018,252.1,252.793,250.981z"/>
				</g>
			</g>
			<g>
				<g>
					
						<path style="fill:#263238;stroke:#263238;stroke-width:2.5;stroke-linecap:round;stroke-linejoin:round;stroke-miterlimit:10;" d="
						M202.121,407.931c-5.725-31.128,13.863-60.911,43.665-66.392c29.802-5.481,58.704,15.385,64.429,46.512
						c5.725,31.128-13.863,60.91-43.665,66.391C236.748,459.923,207.846,439.058,202.121,407.931z M207.53,406.936
						c5.266,28.631,31.368,47.912,58.187,42.98c26.819-4.932,44.354-32.238,39.089-60.87c-5.266-28.632-31.368-47.913-58.188-42.981
						C219.8,350.998,202.264,378.304,207.53,406.936z"/>
					
						<path style="fill:#9ABAE3;stroke:#263238;stroke-width:2.5;stroke-linecap:round;stroke-linejoin:round;stroke-miterlimit:10;" d="
						M247.228,399.635c-0.947-5.149,2.293-10.076,7.223-10.982c4.93-0.907,9.711,2.545,10.658,7.694
						c0.947,5.149-2.293,10.075-7.223,10.982C252.956,408.235,248.175,404.784,247.228,399.635z"/>
					
						<line style="fill:none;stroke:#263238;stroke-width:2.5;stroke-linecap:round;stroke-linejoin:round;stroke-miterlimit:10;" x1="248.559" y1="392.68" x2="227.834" y2="381.615"/>
					
						<line style="fill:none;stroke:#263238;stroke-width:2.5;stroke-linecap:round;stroke-linejoin:round;stroke-miterlimit:10;" x1="271.173" y1="387.717" x2="290.647" y2="374.406"/>
					
						<line style="fill:none;stroke:#263238;stroke-width:2.5;stroke-linecap:round;stroke-linejoin:round;stroke-miterlimit:10;" x1="263.959" y1="413.529" x2="274.655" y2="437.035"/>
					
						<line style="fill:none;stroke:#263238;stroke-width:2.5;stroke-linecap:round;stroke-linejoin:round;stroke-miterlimit:10;" x1="258.59" y1="411.27" x2="263.269" y2="428.864"/>
				</g>
				<g>
					
						<rect x="246.512" y="333.658" transform="matrix(-0.9835 0.1809 -0.1809 -0.9835 609.5645 634.3589)" style="fill:#FFFFFF;stroke:#263238;stroke-width:2.5;stroke-linecap:round;stroke-linejoin:round;stroke-miterlimit:10;" width="58.694" height="22.628"/>
					<g>
						
							<path style="fill:#FFFFFF;stroke:#263238;stroke-width:2.5;stroke-linecap:round;stroke-linejoin:round;stroke-miterlimit:10;" d="
							M255.635,404.465l-21.063-114.529c-0.803-4.369-5.011-7.269-9.38-6.465l-6.509,1.197l-0.513-2.788l6.509-1.197
							c5.906-1.086,11.595,2.835,12.681,8.741l21.063,114.529L255.635,404.465z"/>
						
							<path style="fill:#263238;stroke:#263238;stroke-width:2.5;stroke-linecap:round;stroke-linejoin:round;stroke-miterlimit:10;" d="
							M320.522,433.418l2.789-0.513L301.578,314.73c-0.978-5.318-6.1-8.848-11.417-7.87l-49.365,9.078l0.513,2.789l49.365-9.079
							c3.78-0.695,7.421,1.814,8.116,5.594L320.522,433.418z"/>
					</g>
					
						<path style="fill:#EC644E;stroke:#263238;stroke-width:2.5;stroke-linecap:round;stroke-linejoin:round;stroke-miterlimit:10;" d="
						M209.848,287.91l13.3-2.446c1.649-0.303,2.74-1.886,2.437-3.535l-0.039-0.214c-0.303-1.649-1.886-2.74-3.535-2.437l-13.3,2.446
						c-1.649,0.303-2.74,1.886-2.437,3.535l0.039,0.213C206.617,287.123,208.199,288.214,209.848,287.91z"/>
				</g>
				<g>
					<g>
						
							<path style="fill:#9ABAE3;stroke:#263238;stroke-width:2.5;stroke-linecap:round;stroke-linejoin:round;stroke-miterlimit:10;" d="
							M320.385,424.829c-5.071,0.933-8.425,5.798-7.492,10.869c0.933,5.071,5.798,8.425,10.869,7.492
							c5.071-0.933,8.424-5.798,7.492-10.869C330.321,427.25,325.456,423.897,320.385,424.829z M323.164,439.94
							c-3.277,0.603-6.419-1.563-7.021-4.84c-0.603-3.277,1.563-6.419,4.84-7.021c3.277-0.603,6.419,1.563,7.021,4.84
							C328.606,436.196,326.44,439.338,323.164,439.94z"/>
					</g>
					
						<path style="fill:#FFFFFF;stroke:#263238;stroke-width:2.5;stroke-linecap:round;stroke-linejoin:round;stroke-miterlimit:10;" d="
						M324.822,433.504c0.279,1.518-0.725,2.976-2.244,3.255c-1.518,0.279-2.975-0.725-3.255-2.244
						c-0.279-1.518,0.725-2.975,2.244-3.255C323.086,430.981,324.543,431.986,324.822,433.504z"/>
				</g>
			</g>
			<g>
				
					<rect x="188.338" y="411.685" transform="matrix(0.9835 -0.1809 0.1809 0.9835 -71.1433 46.0308)" style="fill:#FFFFFF;stroke:#263238;stroke-width:2.5;stroke-linecap:round;stroke-linejoin:round;stroke-miterlimit:10;" width="56.966" height="2.835"/>
				
					<rect x="173.247" y="297.066" transform="matrix(-0.9835 0.1809 -0.1809 -0.9835 453.2311 621.3949)" style="fill:#9ABAE3;stroke:#263238;stroke-width:2.5;stroke-linecap:round;stroke-linejoin:round;stroke-miterlimit:10;" width="50.073" height="68.593"/>
			</g>
			<g>
				
					<rect x="195.25" y="355.065" transform="matrix(0.9835 -0.1809 0.1809 0.9835 -60.9717 48.546)" style="fill:#263238;stroke:#263238;stroke-width:2.5;stroke-linecap:round;stroke-linejoin:round;stroke-miterlimit:10;" width="80.894" height="7.046"/>
				<g>
					<g>
						<g>
							<g>
								
									<polygon style="fill:#EC644E;stroke:#263238;stroke-width:2.5;stroke-linecap:round;stroke-linejoin:round;stroke-miterlimit:10;" points="
									286.354,424.7 288.534,436.55 295.386,435.29 295.895,431.483 301.516,434.163 331.343,428.677 315.684,419.306 
									314.912,415.945 284.982,421.622 								"/>
							</g>
						</g>
						
							<path style="fill:#FCD8C3;stroke:#263238;stroke-width:2.5;stroke-linecap:round;stroke-linejoin:round;stroke-miterlimit:10;" d="
							M315.682,419.306l3.94,6.889l-33.271-1.495c0,0-16.703-25.648-19.781-45.74c-2.201-14.367-0.383-20.43-2.47-21.738
							c-3.807-2.382-62.28,11.994-54.137-39.499l43.095-7.926l6.701,7.595c0,0,32.879,9.837,40.95,22.8
							C306.62,349.692,315.682,419.306,315.682,419.306z"/>
						
							<path style="fill:none;stroke:#FFFFFF;stroke-width:2.5;stroke-linecap:round;stroke-linejoin:round;stroke-miterlimit:10;" d="
							M260.775,308.377"/>
					</g>
					<g>
						<g>
							<g>
								
									<polygon style="fill:#EC644E;stroke:#263238;stroke-width:2.5;stroke-linecap:round;stroke-linejoin:round;stroke-miterlimit:10;" points="
									261.045,429.354 263.225,441.205 270.077,439.944 270.586,436.137 276.206,438.817 306.034,433.332 290.375,423.96 
									289.603,420.599 259.672,426.277 								"/>
							</g>
						</g>
						
							<path style="fill:#FCD8C3;stroke:#263238;stroke-width:2.5;stroke-linecap:round;stroke-linejoin:round;stroke-miterlimit:10;" d="
							M290.372,423.961l3.94,6.889l-33.27-1.495c0,0-16.703-25.648-19.781-45.74c-2.201-14.367-0.383-20.43-2.47-21.738
							c-3.807-2.382-59.042,11.398-50.899-40.094l47.571-8.749l6.701,7.595c0,0-6.783,3.439-5.408,3.996
							c16.191,6.563,30.573,7.26,38.643,20.223C281.31,354.346,290.372,423.961,290.372,423.961z"/>
						
							<path style="fill:none;stroke:#FFFFFF;stroke-width:2.5;stroke-linecap:round;stroke-linejoin:round;stroke-miterlimit:10;" d="
							M235.466,313.031"/>
					</g>
					<g>
						<path style="fill:#263238;" d="M187.636,321.83c0,0-6.04,20.12,4.403,33.04c13.213,16.347,48.416,9.197,47.487,8.851
							c-2.195-0.817-1.832-3.962,0.228-5.423c4.532-3.213,13.481,0.18,27.138-12.813c11.209-10.664,18.685-12.898,30.393-12.359
							c0,0-6.941-10.78-37.751-18.74l-7.183-4.458L187.636,321.83z"/>
						<path style="fill:#FFFFFF;" d="M297.288,333.124c-1.823-0.083-3.55-0.1-5.202-0.031c-4.38-3.839-14.484-10.274-36.519-15.97
							l-8.054-6.301l4.84-0.89l7.179,4.454C290.342,322.342,297.288,333.124,297.288,333.124z"/>
						
							<path style="fill:none;stroke:#263238;stroke-width:2.5;stroke-linecap:round;stroke-linejoin:round;stroke-miterlimit:10;" d="
							M187.636,321.83c0,0-6.04,20.12,4.403,33.04c13.213,16.347,48.416,9.197,47.487,8.851c-2.195-0.817-1.832-3.962,0.228-5.423
							c4.532-3.213,13.481,0.18,27.138-12.813c11.209-10.664,18.685-12.898,30.393-12.359c0,0-6.941-10.78-37.751-18.74
							l-7.183-4.458L187.636,321.83z"/>
						
							<path style="fill:none;stroke:#FFFFFF;stroke-width:2.5;stroke-linecap:round;stroke-linejoin:round;stroke-miterlimit:10;" d="
							M233.912,325.781c0,0,21.476,0.022,32.475,7.374"/>
						
							<path style="fill:none;stroke:#FFFFFF;stroke-width:2.5;stroke-linecap:round;stroke-linejoin:round;stroke-miterlimit:10;" d="
							M250.488,323.049c0,0,7.292-1.385,14.068,0.151"/>
					</g>
				</g>
			</g>
			<g>
				<g>
					<g>
						<g>
							<g>
								
									<path style="fill:#EC644E;stroke:#263238;stroke-width:2.5;stroke-linecap:round;stroke-linejoin:round;stroke-miterlimit:10;" d="
									M210.635,251.478c-2.207-0.191-4.46,0.042-6.732,0.818c-8.842,3.019-16.152,0.847-22.549,8.53
									c-8.247,9.905-6.145,27.069-3.387,45.517c0.336,2.244-3.148,15.608-3.007,25.48c0.073,5.147,4.419,7.722,5.057,5.313
									c1.649-6.229,18.042,0.797,38.835-5.679c22.46-6.996,34.833-25.261,37.909-18.978c0,0,3.651-2.53-1.169-6.402
									c-9.415-7.564-15.977-23.079-15.977-23.079s1.589-4.419,0.146-6.878c-1.551-2.644-5.172-8.218-10.069-13.403"/>
							</g>
						</g>
					</g>
					<path style="fill:#263238;" d="M178.683,338.024c0.314-2.067,4.84-3.628,4.84-3.628l-0.575,3.763
						C182.948,338.159,178.423,339.739,178.683,338.024z"/>
					
						<path style="fill:#FFFFFF;stroke:#263238;stroke-width:2.5;stroke-linecap:round;stroke-linejoin:round;stroke-miterlimit:10;" d="
						M244.58,317.36c-4.78,3.53-10.92,7.93-18.45,11.32c-10.31-42.58-32.68-74.2-32.68-74.2c3.24-0.56,6.71-0.9,10.45-2.18
						c2.18-0.75,4.36-0.99,6.48-0.83C224.84,270.63,238.19,301.44,244.58,317.36z"/>
					
						<path style="fill:none;stroke:#263238;stroke-width:2.5;stroke-linecap:round;stroke-linejoin:round;stroke-miterlimit:10;" d="
						M233.185,285.783c0,0-11.944,1.421-17.992,9.074"/>
					
						<path style="fill:none;stroke:#263238;stroke-width:2.5;stroke-linecap:round;stroke-linejoin:round;stroke-miterlimit:10;" d="
						M228.005,290.03c0,0-2.969,0.426-5.912,4.431"/>
				</g>
			</g>
			<g>
				
					<rect x="256.928" y="436.147" transform="matrix(0.9835 -0.1809 0.1809 0.9835 -74.6642 60.1399)" style="fill:#9ABAE3;stroke:#263238;stroke-width:2.5;stroke-linecap:round;stroke-linejoin:round;stroke-miterlimit:10;" width="70.987" height="6.63"/>
				<g>
					
						<rect x="176.629" y="346.51" transform="matrix(-0.9835 0.1809 -0.1809 -0.9835 473.2746 672.4912)" style="fill:#EC644E;stroke:#263238;stroke-width:2.5;stroke-linecap:round;stroke-linejoin:round;stroke-miterlimit:10;" width="58.693" height="22.628"/>
					<g>
						
							<path style="fill:#263238;stroke:#263238;stroke-width:2.5;stroke-linecap:round;stroke-linejoin:round;stroke-miterlimit:10;" d="
							M188.54,416.805l-21.063-114.529c-1.086-5.906-6.775-9.827-12.681-8.741l-6.508,1.197l0.513,2.788l6.508-1.197
							c4.368-0.803,8.576,2.097,9.38,6.465l21.063,114.529"/>
						
							<path style="fill:#263238;stroke:#263238;stroke-width:2.5;stroke-linecap:round;stroke-linejoin:round;stroke-miterlimit:10;" d="
							M250.639,446.27l2.789-0.513l-21.733-118.174c-0.978-5.318-6.1-8.848-11.417-7.87l-49.365,9.078l0.513,2.789l49.365-9.079
							c3.78-0.695,7.421,1.814,8.116,5.594L250.639,446.27z"/>
					</g>
					
						<path style="fill:#EC644E;stroke:#263238;stroke-width:2.5;stroke-linecap:round;stroke-linejoin:round;stroke-miterlimit:10;" d="
						M139.965,300.763l13.3-2.446c1.649-0.303,2.74-1.886,2.437-3.535l-0.039-0.214c-0.303-1.649-1.886-2.74-3.535-2.437
						l-13.3,2.446c-1.649,0.303-2.74,1.886-2.436,3.535l0.039,0.214C136.733,299.975,138.316,301.066,139.965,300.763z"/>
				</g>
				<g>
					
						<path style="fill:#263238;stroke:#263238;stroke-width:2.5;stroke-linecap:round;stroke-linejoin:round;stroke-miterlimit:10;" d="
						M131.965,420.833c-5.725-31.128,13.863-60.911,43.665-66.392c29.802-5.481,58.704,15.385,64.429,46.512
						c5.725,31.128-13.863,60.91-43.665,66.391C166.591,472.826,137.689,451.961,131.965,420.833z M137.373,419.838
						c5.266,28.631,31.368,47.912,58.188,42.98c26.819-4.932,44.354-32.238,39.089-60.87c-5.266-28.632-31.368-47.913-58.187-42.981
						C149.643,363.9,132.108,391.206,137.373,419.838z"/>
					
						<path style="fill:#9ABAE3;stroke:#263238;stroke-width:2.5;stroke-linecap:round;stroke-linejoin:round;stroke-miterlimit:10;" d="
						M177.071,412.537c-0.947-5.149,2.293-10.076,7.223-10.982c4.93-0.907,9.71,2.545,10.658,7.694
						c0.947,5.149-2.293,10.075-7.223,10.982C182.799,421.138,178.018,417.686,177.071,412.537z"/>
					
						<line style="fill:none;stroke:#263238;stroke-width:2.5;stroke-linecap:round;stroke-linejoin:round;stroke-miterlimit:10;" x1="178.402" y1="405.583" x2="157.677" y2="394.517"/>
					
						<line style="fill:none;stroke:#263238;stroke-width:2.5;stroke-linecap:round;stroke-linejoin:round;stroke-miterlimit:10;" x1="201.016" y1="400.619" x2="220.49" y2="387.309"/>
					
						<line style="fill:none;stroke:#263238;stroke-width:2.5;stroke-linecap:round;stroke-linejoin:round;stroke-miterlimit:10;" x1="193.802" y1="426.432" x2="204.498" y2="449.938"/>
					
						<line style="fill:none;stroke:#263238;stroke-width:2.5;stroke-linecap:round;stroke-linejoin:round;stroke-miterlimit:10;" x1="188.433" y1="424.172" x2="193.112" y2="441.767"/>
				</g>
				<g>
					<g>
						
							<path style="fill:#9ABAE3;stroke:#263238;stroke-width:2.5;stroke-linecap:round;stroke-linejoin:round;stroke-miterlimit:10;" d="
							M250.501,437.681c-5.071,0.933-8.425,5.798-7.492,10.869c0.933,5.071,5.798,8.425,10.869,7.492
							c5.071-0.933,8.424-5.798,7.492-10.869C260.437,440.103,255.572,436.749,250.501,437.681z M253.28,452.793
							c-3.277,0.603-6.419-1.563-7.021-4.84c-0.603-3.277,1.563-6.419,4.84-7.021c3.277-0.603,6.419,1.563,7.021,4.84
							C258.723,449.048,256.557,452.19,253.28,452.793z"/>
					</g>
					
						<path style="fill:#FFFFFF;stroke:#263238;stroke-width:2.5;stroke-linecap:round;stroke-linejoin:round;stroke-miterlimit:10;" d="
						M254.939,446.356c0.279,1.518-0.725,2.975-2.244,3.255c-1.518,0.279-2.976-0.725-3.255-2.243
						c-0.279-1.518,0.725-2.976,2.244-3.255C253.202,443.833,254.659,444.838,254.939,446.356z"/>
				</g>
			</g>
			<g>
				
					<ellipse transform="matrix(0.7071 -0.7071 0.7071 0.7071 -120.4742 203.0957)" style="fill:#FFFFFF;stroke:#263238;stroke-width:2.5;stroke-linecap:round;stroke-linejoin:round;stroke-miterlimit:10;" cx="184.921" cy="246.973" rx="9.481" ry="9.481"/>
				<g>
					<path style="fill:#263238;" d="M205.553,254.143c0,0,3.669,3.148,1.591,4.222c-3.259,1.683-9.54-2.487-9.54-2.487
						L205.553,254.143z"/>
					<g>
						
							<path style="fill:#FFFFFF;stroke:#263238;stroke-width:2.5;stroke-linecap:round;stroke-linejoin:round;stroke-miterlimit:10;" d="
							M197.769,234.275c0,0,3.779-2.956,8.196-0.984c4.417,1.971,3.385,9.774,3.385,9.774L197.769,234.275z"/>
						<g>
							
								<path style="fill:#FCD8C3;stroke:#263238;stroke-width:2.5;stroke-linecap:round;stroke-linejoin:round;stroke-miterlimit:10;" d="
								M191.512,249.743c-2.902-5.458-1.527-11.865,3.071-14.309c4.598-2.445,10.677-0.001,13.579,5.457
								c2.902,5.458,1.527,11.865-3.07,14.309C200.494,257.645,194.415,255.201,191.512,249.743z"/>
							<path style="fill:#FFFFFF;" d="M205.092,255.201c-1.284,0.681-2.686,0.984-4.1,0.94c0.671-0.146,1.323-0.383,1.95-0.714
								c4.357-2.319,5.66-8.391,2.91-13.568c-2.754-5.176-8.517-7.49-12.874-5.174c-0.109,0.06-0.222,0.12-0.326,0.186
								c0.56-0.566,1.206-1.052,1.933-1.437c4.596-2.442,10.677,0,13.579,5.458C211.065,246.35,209.691,252.754,205.092,255.201z"/>
							
								<path style="fill:none;stroke:#263238;stroke-width:2.5;stroke-linecap:round;stroke-linejoin:round;stroke-miterlimit:10;" d="
								M191.512,249.743c-2.902-5.458-1.527-11.865,3.071-14.309c4.598-2.445,10.677-0.001,13.579,5.457
								c2.902,5.458,1.527,11.865-3.07,14.309C200.494,257.645,194.415,255.201,191.512,249.743z"/>
						</g>
						
							<path style="fill:#FFFFFF;stroke:#263238;stroke-width:2.5;stroke-linecap:round;stroke-linejoin:round;stroke-miterlimit:10;" d="
							M199.402,233.356c0,0,7.834,9.705-6.321,18.71c0,0-5.707-4.768-3.949-11.797C190.891,233.239,199.402,233.356,199.402,233.356
							z"/>
					</g>
				</g>
			</g>
			<g>
				<g>
					<g>
						
							<path style="fill:#FCD8C3;stroke:#263238;stroke-width:2.5;stroke-linecap:round;stroke-linejoin:round;stroke-miterlimit:10;" d="
							M214.698,306.697c1.559,0.221,7.847-0.314,13.955,1.01c20.732,4.494,21.881,16.92,18.003,16.091c0,0,1.357,1.369,0.266,3.868
							c-0.246,0.564-2.362,2.831-5.75-0.691c0,0,2.542,3.895-0.311,4.919c-2.248,0.807-4.303-2.356-10.765-3.565
							c-2.847,1.579-8.753,2.901-14.016,2.281c-1.941-0.229-6.73-1.297-6.193-1.237
							C208.852,329.228,207.395,311.818,214.698,306.697z"/>
						
							<path style="fill:none;stroke:#263238;stroke-width:2.5;stroke-linecap:round;stroke-linejoin:round;stroke-miterlimit:10;" d="
							M241.497,327.268c-1.963-2.083-6.436-4.753-6.436-4.753"/>
						
							<path style="fill:none;stroke:#263238;stroke-width:2.5;stroke-linecap:round;stroke-linejoin:round;stroke-miterlimit:10;" d="
							M246.868,323.915c-1.788-2.352-7.651-6.259-7.651-6.259"/>
					</g>
				</g>
				
					<path style="fill:#EC644E;stroke:#263238;stroke-width:2.5;stroke-linecap:round;stroke-linejoin:round;stroke-miterlimit:10;" d="
					M200.976,281.272c-3.118,5.941-2.986,18.237-2.986,18.237c9.482,0.729,21.471,4.275,21.471,4.275s0.772,2.615-3.744,16.388
					c-4.168,12.711-0.501,14.65-0.501,14.65s-6.077,1.418-14.774-2.107c-7.073-2.867-15.973-3.055-22.272-5.864
					c-8.636-3.851-10.692-10.95-11.096-14.523c-0.67-5.931,1.352-16.391,5.392-35.47c3.296-15.567,9.637-19.19,17.911-21.558"/>
				<path style="fill:none;stroke:#263238;stroke-width:2.5;stroke-linecap:round;stroke-linejoin:round;stroke-miterlimit:10;" d="
					M185.996,300.149c0,0,4.695-1.338,11.844-0.706"/>
				<path style="fill:none;stroke:#263238;stroke-width:2.5;stroke-linecap:round;stroke-linejoin:round;stroke-miterlimit:10;" d="
					M191.289,296.235c0,0,3.64-0.824,5.079-0.896"/>
				<path style="fill:#263238;" d="M215.234,335.373c1.867,0.565,1.9-5.022,1.9-5.022l-3.868-0.561
					C213.266,329.79,213.677,334.902,215.234,335.373z"/>
				
					<line style="fill:none;stroke:#263238;stroke-width:2.5;stroke-linecap:round;stroke-linejoin:round;stroke-miterlimit:10;" x1="199.477" y1="287.088" x2="202.629" y2="283.328"/>
			</g>
		</g>
	</g>
</g>
</svg>
