<?xml version="1.0" encoding="utf-8"?>
<!-- Generator: Adobe Illustrator 27.5.0, SVG Export Plug-In . SVG Version: 6.00 Build 0)  -->
<svg version="1.1" xmlns="http://www.w3.org/2000/svg" xmlns:xlink="http://www.w3.org/1999/xlink" x="0px" y="0px"
	 viewBox="0 0 750 500" style="enable-background:new 0 0 750 500;" xml:space="preserve">
<g id="Background_Simple">
	<g>
		<path style="fill:#92E3A9;" d="M738.003,199.349c0,0-16.701-89.982-136.109-145.56C482.486-1.788,427.195,53.518,367.163,76.59
			c-60.032,23.073-92.598-8.686-192.801-23.683C74.159,37.91-12.683,186.999,15.708,303.446
			c28.391,116.448,91.017,157.91,227.961,184.375c136.944,26.465,217.941-60.87,314.804-44.991
			C655.335,458.71,770.568,369.61,738.003,199.349z"/>
		<path style="opacity:0.7;fill:#FFFFFF;" d="M738.003,199.349c0,0-16.701-89.982-136.109-145.56
			C482.486-1.788,427.195,53.518,367.163,76.59c-60.032,23.073-92.598-8.686-192.801-23.683
			C74.159,37.91-12.683,186.999,15.708,303.446c28.391,116.448,91.017,157.91,227.961,184.375
			c136.944,26.465,217.941-60.87,314.804-44.991C655.335,458.71,770.568,369.61,738.003,199.349z"/>
	</g>
</g>
<g id="Floor">
	<line style="fill:none;stroke:#263238;stroke-miterlimit:10;" x1="3.023" y1="450.618" x2="739.824" y2="450.618"/>
</g>
<g id="Wall">
	<g>
		<g>
			<line style="fill:none;stroke:#263238;stroke-miterlimit:10;" x1="165.508" y1="43.338" x2="165.508" y2="378.286"/>
			<line style="fill:none;stroke:#263238;stroke-miterlimit:10;" x1="265.909" y1="297.291" x2="265.909" y2="378.286"/>
			<line style="fill:none;stroke:#263238;stroke-miterlimit:10;" x1="265.909" y1="96.491" x2="265.909" y2="285.479"/>
			<line style="fill:none;stroke:#263238;stroke-miterlimit:10;" x1="265.909" y1="43.338" x2="265.909" y2="87.21"/>
			<line style="fill:none;stroke:#263238;stroke-miterlimit:10;" x1="366.309" y1="43.338" x2="366.309" y2="378.286"/>
			<line style="fill:none;stroke:#263238;stroke-miterlimit:10;" x1="466.709" y1="43.338" x2="466.709" y2="378.286"/>
			<line style="fill:none;stroke:#263238;stroke-miterlimit:10;" x1="567.109" y1="43.338" x2="567.109" y2="378.286"/>
			<line style="fill:none;stroke:#263238;stroke-miterlimit:10;" x1="667.509" y1="43.338" x2="667.509" y2="378.286"/>
		</g>
		<g>
			<line style="fill:none;stroke:#263238;stroke-miterlimit:10;" x1="718.974" y1="-40.188" x2="114.043" y2="-40.188"/>
			<line style="fill:none;stroke:#263238;stroke-miterlimit:10;" x1="192.507" y1="60.212" x2="114.043" y2="60.212"/>
			<line style="fill:none;stroke:#263238;stroke-miterlimit:10;" x1="612.668" y1="60.212" x2="207.693" y2="60.212"/>
			<line style="fill:none;stroke:#263238;stroke-miterlimit:10;" x1="718.974" y1="60.212" x2="621.105" y2="60.212"/>
			<line style="fill:none;stroke:#263238;stroke-miterlimit:10;" x1="249.878" y1="160.612" x2="114.043" y2="160.612"/>
			<line style="fill:none;stroke:#263238;stroke-miterlimit:10;" x1="411.025" y1="160.612" x2="259.159" y2="160.612"/>
			<line style="fill:none;stroke:#263238;stroke-miterlimit:10;" x1="644.729" y1="160.612" x2="419.461" y2="160.612"/>
			<line style="fill:none;stroke:#263238;stroke-miterlimit:10;" x1="718.974" y1="160.612" x2="654.853" y2="160.612"/>
			<line style="fill:none;stroke:#263238;stroke-miterlimit:10;" x1="522.393" y1="261.012" x2="114.043" y2="261.012"/>
			<line style="fill:none;stroke:#263238;stroke-miterlimit:10;" x1="718.974" y1="261.012" x2="531.673" y2="261.012"/>
			<line style="fill:none;stroke:#263238;stroke-miterlimit:10;" x1="718.974" y1="361.412" x2="114.043" y2="361.412"/>
		</g>
	</g>
</g>
<g id="Pictures">
	<g>
		<rect x="430.741" y="91.851" style="fill:#263238;stroke:#263238;stroke-miterlimit:10;" width="72.597" height="95.338"/>
		<rect x="436.118" y="98.912" style="fill:#FFFFFF;stroke:#263238;stroke-miterlimit:10;" width="61.842" height="81.215"/>
		<rect x="451.522" y="119.141" style="fill:#263238;stroke:#263238;stroke-miterlimit:10;" width="31.036" height="40.757"/>
	</g>
	<g>
		<rect x="350.241" y="137.41" style="fill:#263238;stroke:#263238;stroke-miterlimit:10;" width="37.904" height="49.778"/>
		<rect x="353.049" y="141.097" style="fill:#FFFFFF;stroke:#263238;stroke-miterlimit:10;" width="32.289" height="42.404"/>
		<rect x="361.091" y="151.659" style="fill:#263238;stroke:#263238;stroke-miterlimit:10;" width="16.204" height="21.28"/>
	</g>
	<g>
		<rect x="353.955" y="92.062" style="fill:#263238;stroke:#263238;stroke-miterlimit:10;" width="27.947" height="36.701"/>
		<rect x="356.025" y="94.78" style="fill:#FFFFFF;stroke:#263238;stroke-miterlimit:10;" width="23.807" height="31.264"/>
		<rect x="361.954" y="102.567" style="fill:#263238;stroke:#263238;stroke-miterlimit:10;" width="11.947" height="15.69"/>
	</g>
</g>
<g id="Wheelchair_Elevator">
	<g>
		<g>
			<g>
				<path style="fill:#92E3A9;stroke:#263238;stroke-miterlimit:10;" d="M455.353,378.844c-0.561,0-1.128-0.16-1.631-0.494
					L113.159,151.812c-1.356-0.902-1.724-2.732-0.822-4.089c0.902-1.356,2.731-1.725,4.088-0.822L456.99,373.44
					c1.356,0.901,1.724,2.732,0.822,4.088C457.244,378.382,456.307,378.844,455.353,378.844z"/>
			</g>
			<g>
				<g>
					<path style="fill:#FFFFFF;stroke:#263238;stroke-miterlimit:10;" d="M557.079,414.875c-2.183,0-4.388-0.621-6.341-1.92
						L109.315,119.327c-5.273-3.507-6.704-10.625-3.197-15.897c3.508-5.273,10.626-6.704,15.898-3.197L563.44,393.861
						c5.272,3.507,6.704,10.625,3.196,15.898C564.428,413.078,560.788,414.875,557.079,414.875z"/>
				</g>
				<g>
					<path style="fill:#92E3A9;stroke:#263238;stroke-miterlimit:10;" d="M566.636,409.756c-2.207,3.325-5.848,5.122-9.555,5.122
						c-2.188,0-4.386-0.621-6.345-1.921l-12.766-8.495L121.35,127.33l-12.04-8.007c-5.265-3.507-6.698-10.625-3.192-15.89
						c3.507-5.275,10.626-6.708,15.9-3.201l12.231,8.141L550.87,385.505l12.565,8.361
						C568.71,397.373,570.143,404.482,566.636,409.756z"/>
				</g>
				<g>
					<path style="fill:#92E3A9;stroke:#263238;stroke-miterlimit:10;" d="M546.93,398.134c-0.773,1.165-2.048,1.794-3.347,1.794
						c-0.766,0-1.536-0.217-2.222-0.673l-4.471-2.975L121.462,118.196l-4.217-2.804c-1.844-1.228-2.346-3.722-1.118-5.566
						c1.228-1.847,3.721-2.349,5.569-1.121l4.284,2.851L541.408,389.64l4.401,2.928C547.656,393.797,548.158,396.287,546.93,398.134
						z"/>
				</g>
				<path style="fill:#FFFFFF;stroke:#263238;stroke-miterlimit:10;" d="M122.019,100.231c-5.274-3.507-12.393-2.074-15.9,3.201
					c-3.507,5.265-2.073,12.384,3.192,15.89l12.04,8.007l12.9-18.958L122.019,100.231z M563.435,393.866l-12.565-8.361l-12.9,18.958
					l12.766,8.495c1.959,1.299,4.157,1.921,6.345,1.921c3.707,0,7.348-1.796,9.555-5.122
					C570.143,404.482,568.71,397.373,563.435,393.866z"/>
			</g>
		</g>
		<g>
			<g>
				<path style="fill:#92E3A9;stroke:#263238;stroke-miterlimit:10;" d="M543.035,343.894H428.046
					c-10.92,0-19.803-8.883-19.803-19.802v-89.686c0-10.919,8.883-19.802,19.803-19.802h15.057v6.064h-15.057
					c-7.576,0-13.739,6.163-13.739,13.738v89.686c0,7.575,6.163,13.738,13.739,13.738h114.989c7.575,0,13.738-6.163,13.738-13.738
					v-89.686c0-7.575-6.163-13.738-13.738-13.738h-12.532v-6.064h12.532c10.919,0,19.802,8.883,19.802,19.802v89.686
					C562.838,335.01,553.954,343.894,543.035,343.894z"/>
			</g>
			<path style="fill:#92E3A9;stroke:#263238;stroke-miterlimit:10;" d="M531.468,447.232h-80.59c-6.24,0-11.298-5.058-11.298-11.299
				V303.749c0-6.24,5.059-11.298,11.298-11.298h80.59c6.24,0,11.299,5.059,11.299,11.298v132.184
				C542.767,442.174,537.708,447.232,531.468,447.232z"/>
			<path style="fill:#92E3A9;stroke:#263238;stroke-miterlimit:10;" d="M525.836,447.232h-80.59c-6.24,0-11.299-5.058-11.299-11.299
				V303.749c0-6.24,5.059-11.298,11.299-11.298h80.59c6.24,0,11.298,5.059,11.298,11.298v132.184
				C537.134,442.174,532.076,447.232,525.836,447.232z"/>
			<g>
				<polygon style="fill:#263238;stroke:#263238;stroke-miterlimit:10;" points="515.237,305.866 454.742,305.866 451.513,299.783 
					519.035,299.783 				"/>
				<polyline style="fill:none;stroke:#263238;stroke-miterlimit:10;" points="454.742,305.866 457.401,310.763 474.02,310.763 				
					"/>
				<polyline style="fill:none;stroke:#263238;stroke-miterlimit:10;" points="515.237,305.866 512.578,310.763 495.958,310.763 
									"/>
			</g>
			<polygon style="fill:#92E3A9;stroke:#263238;stroke-miterlimit:10;" points="602.399,450.618 570.555,442.125 416.037,442.125 
				384.193,450.618 			"/>
			<polygon style="fill:#92E3A9;stroke:#263238;stroke-miterlimit:10;" points="590.972,450.618 559.128,442.125 409.66,442.125 
				377.816,450.618 			"/>
			<polygon style="fill:#92E3A9;stroke:#263238;stroke-miterlimit:10;" points="558.971,450.618 412.11,450.618 419.453,434.523 
				551.628,434.523 			"/>
		</g>
	</g>
</g>
<g id="Stairs">
	<g>
		<polygon style="fill:#FFFFFF;stroke:#263238;stroke-miterlimit:10;" points="363.724,412.369 363.724,375.246 307.909,375.246 
			307.909,338.122 252.094,338.122 252.094,300.998 196.279,300.998 196.279,263.875 140.464,263.875 140.464,226.751 
			92.19,226.751 92.19,263.875 92.19,265 92.19,300.998 92.19,302.123 92.19,338.122 92.19,339.247 92.19,375.246 92.19,376.371 
			92.19,412.369 92.19,413.494 92.19,450.618 419.539,450.618 419.539,412.369 		"/>
		<rect x="353.914" y="412.369" style="fill:#FFFFFF;stroke:#263238;stroke-miterlimit:10;" width="65.625" height="38.249"/>
		<rect x="298.099" y="375.246" style="fill:#FFFFFF;stroke:#263238;stroke-miterlimit:10;" width="65.625" height="37.124"/>
		<rect x="242.284" y="338.122" style="fill:#FFFFFF;stroke:#263238;stroke-miterlimit:10;" width="65.625" height="37.124"/>
		<rect x="186.469" y="300.998" style="fill:#FFFFFF;stroke:#263238;stroke-miterlimit:10;" width="65.625" height="37.124"/>
		<rect x="130.654" y="263.875" style="fill:#FFFFFF;stroke:#263238;stroke-miterlimit:10;" width="65.625" height="37.124"/>
		<rect x="74.839" y="226.751" style="fill:#FFFFFF;stroke:#263238;stroke-miterlimit:10;" width="65.625" height="37.124"/>
		<polygon style="fill:#263238;stroke:#263238;stroke-miterlimit:10;" points="298.099,412.369 298.099,375.246 242.284,375.246 
			242.284,338.122 186.469,338.122 186.469,300.998 130.654,300.998 130.654,263.875 74.839,263.875 74.839,226.751 26.565,226.751 
			26.565,263.875 26.565,265 26.565,300.998 26.565,302.123 26.565,338.122 26.565,339.247 26.565,375.246 26.565,376.371 
			26.565,412.369 26.565,413.494 26.565,450.618 353.914,450.618 353.914,412.369 		"/>
	</g>
</g>
<g id="Plant">
	<g>
		<g>
			<g>
				<path style="fill:#A6A6A6;stroke:#263238;stroke-linecap:round;stroke-linejoin:round;stroke-miterlimit:10;" d="
					M73.464,209.994c0,0,0,26.447,0.566,29.275c0.566,2.829,2.232,3.992,2.232,3.992l2.152,163.246l4.667,0.283l-2.829-118.87
					l-1.065-44.659c0,0,1.913,0.11,2.055-4.557c0.141-4.667,2.687-23.477,2.687-23.477l-1.839-0.566c0,0-2.828,23.335-3.394,24.043
					c-0.566,0.707-2.122-1.414-2.404-3.677c-0.283-2.263,0-25.174,0-25.174L73.464,209.994z"/>
				<path style="fill:#263238;stroke:#263238;stroke-linecap:round;stroke-linejoin:round;stroke-miterlimit:10;" d="
					M79.187,243.261c0.2-0.077,0.43-0.164,0.671-0.256c0.566-0.41,1.298-1.481,1.384-4.301c0.141-4.667,2.687-23.477,2.687-23.477
					l-1.839-0.566c0,0-2.828,23.335-3.394,24.043c-0.566,0.707-2.122-1.414-2.404-3.677c-0.283-2.263,0-25.174,0-25.174
					l-2.829,0.141c0,0,0,26.447,0.566,29.275c0.566,2.829,2.232,3.992,2.232,3.992S76.95,244.122,79.187,243.261z"/>
				<path style="fill:#263238;stroke:#263238;stroke-linecap:round;stroke-linejoin:round;stroke-miterlimit:10;" d="
					M78.284,209.546c0,0,5.374-7.496,14.001-11.031c8.627-3.536,24.184-5.799,24.75-5.799c0.566,0-14.567,4.809-19.234,6.93
					c-4.667,2.122-10.749,5.374-12.587,7.354c-1.839,1.98-10.466,15.84-10.466,15.84S75.032,217.183,78.284,209.546z"/>
				<path style="fill:#92E3A9;stroke:#263238;stroke-linecap:round;stroke-linejoin:round;stroke-miterlimit:10;" d="
					M63.543,185.139c0,0-5.374-7.496-14.001-11.031c-8.627-3.536-24.184-5.798-24.75-5.798c-0.566,0,14.567,4.809,19.234,6.93
					c4.667,2.121,10.749,5.374,12.587,7.354c1.839,1.98,10.466,15.84,10.466,15.84S66.796,192.776,63.543,185.139z"/>
				<path style="fill:#92E3A9;stroke:#263238;stroke-linecap:round;stroke-linejoin:round;stroke-miterlimit:10;" d="
					M75.423,206.212c0,0-14.708-21.78-18.81-23.618c-4.101-1.839-7.354-3.536-12.87-2.121c-5.516,1.414-16.971,7.637-19.093,8.769
					c-2.121,1.131-4.95,3.111-6.081,3.677c-1.131,0.566,14.567-8.768,23.335-9.9c8.768-1.132,10.324,3.111,19.8,10.465
					C71.18,200.837,75.423,206.212,75.423,206.212z"/>
				<path style="fill:#92E3A9;stroke:#263238;stroke-linecap:round;stroke-linejoin:round;stroke-miterlimit:10;" d="
					M75.423,206.212c0,0-9.758-15.557-16.406-17.254c-6.647-1.697-14.567,1.98-17.254,3.536c-2.687,1.556-6.647,10.324-7.496,13.718
					c-0.848,3.394-1.414,5.94-1.414,5.94s8.486-13.86,11.88-15.981c3.394-2.121,8.627-5.374,10.183-5.657
					C56.471,190.23,72.028,199.706,75.423,206.212z"/>
				<path style="fill:#92E3A9;stroke:#263238;stroke-linecap:round;stroke-linejoin:round;stroke-miterlimit:10;" d="M71.463,198.15
					c0,0-18.951-12.729-28.851-12.587c-9.9,0.141-22.204,3.819-25.457,4.384c-3.253,0.566-6.506,36.418-6.506,36.418
					s14.001-32.458,18.668-32.317c4.667,0.141,19.941-4.243,25.033-2.546C59.441,193.2,71.463,198.15,71.463,198.15z"/>
				<path style="fill:#92E3A9;stroke:#263238;stroke-linecap:round;stroke-linejoin:round;stroke-miterlimit:10;" d="M75.14,211.162
					c0,0-6.081-11.456-11.173-14.001c-5.091-2.546-10.183,1.98-18.244,5.091c-8.061,3.111-14.143,5.233-14.143,5.233
					s13.294,0.707,18.386-1.132c5.091-1.839,13.153-5.374,14.991-5.091C66.796,201.544,75.14,211.162,75.14,211.162z"/>
				<path style="fill:#263238;stroke:#263238;stroke-linecap:round;stroke-linejoin:round;stroke-miterlimit:10;" d="
					M79.545,214.944c0,0-5.374-28.992-5.374-39.6c0-10.607,0.141-15.133,0.141-15.133s3.536,13.86,3.96,15.557
					c0.424,1.697,0.424,4.526,0.424,4.526s2.546-14.991,5.799-18.668c3.253-3.677,7.354-5.516,7.354-5.516s-3.677,6.93-4.384,8.91
					c-0.707,1.98,2.97-2.687,6.93-3.819c3.96-1.131,13.718-3.253,13.718-3.253s-13.011,5.233-14.567,6.93
					c-1.556,1.697-5.374,7.92-5.657,8.627c-0.283,0.707-4.95,8.768-6.223,13.436C80.394,191.609,79.545,214.944,79.545,214.944z"/>
				<path style="fill:#92E3A9;stroke:#263238;stroke-linecap:round;stroke-linejoin:round;stroke-miterlimit:10;" d="
					M82.798,179.729l11.031-7.354c0,0,13.577-2.121,15.84-1.414c2.263,0.707,5.374,2.829,5.374,2.829s-8.768-0.848-12.587,0.99
					c-3.818,1.839-12.163,5.091-17.113,11.738c-4.95,6.647-6.788,14.001-7.354,16.406c-0.566,2.404-1.697,6.93-1.697,6.93
					s-2.546-12.304-1.556-17.254C75.726,187.649,82.798,179.729,82.798,179.729z"/>
				<path style="fill:#92E3A9;stroke:#263238;stroke-linecap:round;stroke-linejoin:round;stroke-miterlimit:10;" d="
					M68.938,171.809c0,0,6.506,8.768,7.496,11.597c0.99,2.828,2.546-7.071,9.476-13.153c6.93-6.081,29.275-9.758,29.275-9.758
					s-27.154,13.153-31.255,18.385c-4.102,5.233-8.061,14.143-8.061,14.567c0,0.424,0,5.233,0,5.233L68.938,171.809z"/>
				<path style="fill:#263238;stroke:#263238;stroke-linecap:round;stroke-linejoin:round;stroke-miterlimit:10;" d="
					M73.617,190.207c0,0-9.051-15.557-13.718-20.931c-4.667-5.374-20.083-17.395-20.083-17.395s6.364,7.92,14.567,19.093
					c8.203,11.173,21.214,27.578,21.214,27.578L73.617,190.207z"/>
				<path style="fill:#92E3A9;stroke:#263238;stroke-linecap:round;stroke-linejoin:round;stroke-miterlimit:10;" d="
					M72.332,220.601c0,0-14.708-12.021-22.487-9.051c-7.778,2.97-16.688,12.445-16.688,12.445l-1.98,10.749
					c0,0,10.466-15.133,14.991-17.254c4.526-2.121,10.89-2.97,14.001-2.263c3.111,0.707,12.304,8.486,12.729,9.476
					C73.322,225.693,72.332,220.601,72.332,220.601z"/>
				<path style="fill:#92E3A9;stroke:#263238;stroke-linecap:round;stroke-linejoin:round;stroke-miterlimit:10;" d="
					M68.514,184.962c0,0-2.829-2.546-4.667-12.728c-1.839-10.183,0.283-19.375,0.283-19.375s0.99,6.081,3.253,13.153
					c2.263,7.071,2.263,9.617,5.657,20.083c3.394,10.466,3.819,29.275,3.677,29.7C76.575,216.217,68.514,184.962,68.514,184.962z"/>
				<path style="fill:#263238;stroke:#263238;stroke-linecap:round;stroke-linejoin:round;stroke-miterlimit:10;" d="
					M91.708,187.931c0,0,4.384-5.657,10.041-7.354c5.657-1.697,11.456-1.556,11.456-1.556s-8.486-2.404-14.143-1.273
					c-5.657,1.132-10.041,7.779-12.021,14.001c-1.98,6.223-1.98,20.79-1.98,20.79S88.172,193.447,91.708,187.931z"/>
				<path style="fill:#92E3A9;stroke:#263238;stroke-linecap:round;stroke-linejoin:round;stroke-miterlimit:10;" d="
					M70.435,193.413c0,0,0.305-5.955-4.428-12.826c-4.733-6.871-14.353-10.688-21.071-13.589
					c-6.718-2.901-10.688-4.123-10.688-4.123s15.116,11.91,19.086,13.59c3.97,1.68,6.871,3.97,9.62,7.176
					c2.748,3.206,7.635,14.964,7.635,15.727C70.587,200.131,70.435,193.413,70.435,193.413z"/>
				<path style="fill:#92E3A9;stroke:#263238;stroke-linecap:round;stroke-linejoin:round;stroke-miterlimit:10;" d="
					M87.465,201.933c0,0,5.374-7.496,14.001-11.031c8.627-3.536,24.184-5.798,24.75-5.798c0.566,0-14.567,4.809-19.234,6.93
					c-4.667,2.121-10.748,5.374-12.587,7.354c-1.839,1.98-10.465,15.84-10.465,15.84S84.212,209.57,87.465,201.933z"/>
				<path style="fill:#92E3A9;stroke:#263238;stroke-linecap:round;stroke-linejoin:round;stroke-miterlimit:10;" d="
					M75.585,223.005c0,0,14.708-21.78,18.81-23.618c4.101-1.839,7.354-3.536,12.87-2.122c5.516,1.414,16.971,7.637,19.093,8.769
					c2.121,1.131,4.95,3.111,6.081,3.677c1.131,0.566-14.567-8.768-23.335-9.9c-8.769-1.131-10.324,3.111-19.8,10.466
					C79.828,217.631,75.585,223.005,75.585,223.005z"/>
				<path style="fill:#263238;stroke:#263238;stroke-linecap:round;stroke-linejoin:round;stroke-miterlimit:10;" d="
					M75.585,223.005c0,0,9.758-15.557,16.406-17.254c6.647-1.697,14.567,1.98,17.254,3.536c2.687,1.556,6.647,10.324,7.496,13.719
					c0.849,3.394,1.414,5.94,1.414,5.94s-8.486-13.86-11.88-15.981c-3.394-2.121-8.627-5.374-10.183-5.657
					C94.536,207.024,78.979,216.5,75.585,223.005z"/>
				<path style="fill:#92E3A9;stroke:#263238;stroke-linecap:round;stroke-linejoin:round;stroke-miterlimit:10;" d="
					M79.545,214.944c0,0,18.951-12.728,28.851-12.587c9.9,0.142,22.204,3.819,25.457,4.384c3.253,0.566,6.506-0.283,6.506-0.283
					s-14.001,4.243-18.668,4.384c-4.667,0.141-19.941-4.243-25.033-2.546C91.566,209.994,79.545,214.944,79.545,214.944z"/>
				<path style="fill:#92E3A9;stroke:#263238;stroke-linecap:round;stroke-linejoin:round;stroke-miterlimit:10;" d="
					M84.636,209.287c0,0-3.253-9.9,0.141-17.113c3.394-7.213,7.778-17.113,7.778-17.113s1.556,12.587-1.132,21.073
					C88.738,204.62,84.636,209.287,84.636,209.287z"/>
				<path style="fill:#92E3A9;stroke:#263238;stroke-linecap:round;stroke-linejoin:round;stroke-miterlimit:10;" d="M76.434,216.5
					c0,0,0-12.304-8.486-18.103c-8.486-5.798-17.961-7.637-21.355-5.798c-3.394,1.839-13.577,7.496-16.547,11.314
					c-2.97,3.819-5.374,6.788-5.374,6.788s14.991-9.9,19.658-13.294c4.667-3.394,6.93-4.243,8.627-3.819
					c1.697,0.424,11.456,4.95,15.274,7.92C72.049,204.478,76.434,216.5,76.434,216.5z"/>
				<path style="fill:#263238;stroke:#263238;stroke-linecap:round;stroke-linejoin:round;stroke-miterlimit:10;" d="M76.716,218.48
					c-0.142-0.424,0.283-3.677-5.516-4.101s-10.183,2.121-11.173,4.243s0,7.779,0.141,8.344c0.142,0.566,0.849-7.496,7.637-9.051
					C74.595,216.358,76.716,218.48,76.716,218.48z"/>
				<path style="fill:#92E3A9;stroke:#263238;stroke-linecap:round;stroke-linejoin:round;stroke-miterlimit:10;" d="
					M74.453,223.712c0,0-1.839-3.96-5.516-8.203c-3.677-4.243-11.597-8.203-15.415-5.799c-3.819,2.404-8.203,12.446-9.617,15.274
					c-1.414,2.829-4.667,11.456-4.95,11.88c-0.283,0.424,8.344-7.637,12.021-12.446c3.677-4.809,6.223-11.456,8.344-12.021
					c2.121-0.566,6.506,3.677,6.506,3.677l10.466,15.133L74.453,223.712z"/>
				<path style="fill:#92E3A9;stroke:#263238;stroke-linecap:round;stroke-linejoin:round;stroke-miterlimit:10;" d="
					M75.019,213.388c0,0-1.839-8.486-8.203-10.748c-6.364-2.263-14.001-3.111-16.971-1.414c-2.97,1.697-15.981,13.718-15.981,13.718
					l-1.697,4.384c0,0,19.093-14.001,23.477-15.416c4.384-1.414,4.384-1.414,9.051,1.414
					C69.362,208.156,75.019,213.388,75.019,213.388z"/>
				<path style="fill:#92E3A9;stroke:#263238;stroke-linecap:round;stroke-linejoin:round;stroke-miterlimit:10;" d="
					M73.888,213.388c0,0-18.527-11.173-22.487-12.587c-3.96-1.414-12.87,2.121-15.416,5.374
					c-2.546,3.253-11.456,20.931-11.88,22.204c-0.424,1.273,5.94-13.718,15.557-18.103c9.617-4.384,15.84-3.536,21.497-2.97
					c5.657,0.566,12.728,10.041,12.728,10.041V213.388z"/>
				<path style="fill:#92E3A9;stroke:#263238;stroke-linecap:round;stroke-linejoin:round;stroke-miterlimit:10;" d="
					M75.868,227.955c0,0,6.081-11.456,11.173-14.001c5.091-2.546,10.183,1.98,18.244,5.091c8.061,3.111,14.143,5.233,14.143,5.233
					s-13.294,0.707-18.385-1.131c-5.091-1.839-13.153-5.374-14.991-5.091C84.212,218.338,75.868,227.955,75.868,227.955z"/>
				<path style="fill:#92E3A9;stroke:#263238;stroke-linecap:round;stroke-linejoin:round;stroke-miterlimit:10;" d="M76.434,216.5
					c0,0,3.111-8.91,4.95-20.507c1.839-11.597-1.273-32.387-4.243-38.609c-2.97-6.223-11.738-16.406-11.738-16.406
					s15.557,13.577,18.951,26.305c3.394,12.729,3.96,19.517,2.546,26.447S76.434,216.5,76.434,216.5z"/>
				<g>
					<path style="fill:#92E3A9;stroke:#263238;stroke-linecap:round;stroke-linejoin:round;stroke-miterlimit:10;" d="
						M72.725,198.605c0,0-1.374-5.191-2.901-6.26c-1.527-1.069-4.581,0.153-4.581,0.153s5.344,4.733,5.344,6.871
						c0,2.138,5.429,15.009,5.429,15.009L72.725,198.605z"/>
					<path style="fill:#92E3A9;stroke:#263238;stroke-linecap:round;stroke-linejoin:round;stroke-miterlimit:10;" d="
						M69.824,192.344c0,0-2.29,1.602-4.078,3.22c-1.788,1.617-10.301,10.045-10.811,10.556c-0.511,0.511,4.427-10.726,5.533-12.855
						c1.107-2.128,3.065-3.661,3.661-3.575C64.724,189.775,69.986,190.997,69.824,192.344z"/>
				</g>
			</g>
			<g>
				<path style="fill:#A6A6A6;stroke:#263238;stroke-linecap:round;stroke-linejoin:round;stroke-miterlimit:10;" d="
					M102.118,250.094c0,0,0,23.175-0.496,25.654c-0.496,2.478-1.956,3.498-1.956,3.498L97.78,426.838l-4.09,0.248l2.479-108.705
					l0.933-39.135c0,0-1.677,0.096-1.801-3.994c-0.124-4.09-2.355-20.573-2.355-20.573l1.611-0.496c0,0,2.479,20.449,2.974,21.068
					c0.496,0.62,1.859-1.239,2.107-3.222c0.248-1.983,0-22.06,0-22.06L102.118,250.094z"/>
				<path style="fill:#263238;stroke:#263238;stroke-linecap:round;stroke-linejoin:round;stroke-miterlimit:10;" d="
					M97.102,279.246c-0.175-0.067-0.377-0.144-0.588-0.224c-0.496-0.359-1.137-1.298-1.212-3.769
					c-0.124-4.09-2.355-20.573-2.355-20.573l1.611-0.496c0,0,2.479,20.449,2.974,21.068c0.496,0.62,1.859-1.239,2.107-3.222
					c0.248-1.983,0-22.06,0-22.06l2.479,0.124c0,0,0,23.175-0.496,25.654c-0.496,2.478-1.956,3.498-1.956,3.498
					S99.063,280,97.102,279.246z"/>
				<path style="fill:#263238;stroke:#263238;stroke-linecap:round;stroke-linejoin:round;stroke-miterlimit:10;" d="
					M97.893,249.702c0,0-4.71-6.568-12.269-9.667c-7.56-3.098-21.192-5.081-21.688-5.081s12.765,4.214,16.855,6.073
					c4.09,1.859,9.419,4.709,11.03,6.444c1.611,1.735,9.171,13.88,9.171,13.88S100.744,256.394,97.893,249.702z"/>
				<path style="fill:#92E3A9;stroke:#263238;stroke-linecap:round;stroke-linejoin:round;stroke-miterlimit:10;" d="
					M110.811,228.314c0,0,4.709-6.568,12.269-9.667c7.56-3.098,21.192-5.081,21.688-5.081c0.496,0-12.765,4.214-16.855,6.073
					c-4.09,1.859-9.419,4.709-11.03,6.445c-1.611,1.735-9.171,13.88-9.171,13.88S107.961,235.007,110.811,228.314z"/>
				<path style="fill:#92E3A9;stroke:#263238;stroke-linecap:round;stroke-linejoin:round;stroke-miterlimit:10;" d="
					M100.401,246.78c0,0,12.889-19.085,16.483-20.697c3.594-1.611,6.445-3.098,11.278-1.859c4.833,1.239,14.872,6.692,16.731,7.684
					c1.859,0.991,4.338,2.726,5.329,3.222c0.991,0.496-12.765-7.684-20.449-8.675c-7.684-0.991-9.047,2.727-17.35,9.171
					S100.401,246.78,100.401,246.78z"/>
				<path style="fill:#92E3A9;stroke:#263238;stroke-linecap:round;stroke-linejoin:round;stroke-miterlimit:10;" d="
					M100.401,246.78c0,0,8.551-13.632,14.376-15.12c5.825-1.487,12.765,1.735,15.12,3.098c2.355,1.363,5.825,9.047,6.568,12.021
					c0.744,2.974,1.239,5.205,1.239,5.205s-7.436-12.145-10.41-14.004c-2.974-1.859-7.56-4.709-8.923-4.957
					C117.008,232.776,103.375,241.079,100.401,246.78z"/>
				<path style="fill:#92E3A9;stroke:#263238;stroke-linecap:round;stroke-linejoin:round;stroke-miterlimit:10;" d="
					M103.871,239.716c0,0,16.607-11.154,25.282-11.03c8.675,0.124,19.457,3.346,22.308,3.842s5.701-0.248,5.701-0.248
					s-12.269,3.718-16.359,3.842c-4.09,0.124-17.474-3.718-21.936-2.231C114.405,235.378,103.871,239.716,103.871,239.716z"/>
				<path style="fill:#92E3A9;stroke:#263238;stroke-linecap:round;stroke-linejoin:round;stroke-miterlimit:10;" d="
					M100.649,251.118c0,0,5.329-10.038,9.791-12.269s8.923,1.735,15.987,4.462c7.064,2.727,12.393,4.585,12.393,4.585
					s-11.65,0.62-16.111-0.991c-4.462-1.611-11.526-4.709-13.137-4.462C107.961,242.69,100.649,251.118,100.649,251.118z"/>
				<path style="fill:#263238;stroke:#263238;stroke-linecap:round;stroke-linejoin:round;stroke-miterlimit:10;" d="
					M96.788,254.432c0,0,4.709-25.406,4.709-34.701c0-9.295-0.124-13.261-0.124-13.261s-3.098,12.145-3.47,13.632
					c-0.372,1.487-0.372,3.966-0.372,3.966s-2.231-13.137-5.081-16.359c-2.85-3.222-6.444-4.833-6.444-4.833
					s3.222,6.073,3.842,7.808c0.62,1.735-2.603-2.355-6.073-3.346c-3.47-0.991-12.021-2.85-12.021-2.85s11.402,4.585,12.765,6.073
					c1.363,1.487,4.709,6.94,4.957,7.56c0.248,0.62,4.338,7.684,5.453,11.774C96.045,233.983,96.788,254.432,96.788,254.432z"/>
				<path style="fill:#92E3A9;stroke:#263238;stroke-linecap:round;stroke-linejoin:round;stroke-miterlimit:10;" d="
					M93.938,223.573l-9.667-6.445c0,0-11.897-1.859-13.88-1.239c-1.983,0.62-4.709,2.479-4.709,2.479s7.684-0.744,11.03,0.867
					c3.346,1.611,10.658,4.462,14.996,10.286c4.338,5.825,5.949,12.269,6.444,14.376c0.496,2.107,1.487,6.073,1.487,6.073
					s2.231-10.782,1.363-15.12S93.938,223.573,93.938,223.573z"/>
				<path style="fill:#92E3A9;stroke:#263238;stroke-linecap:round;stroke-linejoin:round;stroke-miterlimit:10;" d="
					M106.083,216.633c0,0-5.701,7.684-6.568,10.162c-0.868,2.479-2.231-6.197-8.303-11.526c-6.073-5.329-25.654-8.551-25.654-8.551
					s23.795,11.526,27.389,16.111c3.594,4.585,7.064,12.393,7.064,12.765s0,4.585,0,4.585L106.083,216.633z"/>
				<path style="fill:#263238;stroke:#263238;stroke-linecap:round;stroke-linejoin:round;stroke-miterlimit:10;" d="
					M101.983,232.755c0,0,7.932-13.633,12.021-18.342c4.09-4.709,17.598-15.244,17.598-15.244s-5.577,6.94-12.765,16.731
					c-7.188,9.791-18.59,24.167-18.59,24.167L101.983,232.755z"/>
				<path style="fill:#92E3A9;stroke:#263238;stroke-linecap:round;stroke-linejoin:round;stroke-miterlimit:10;" d="
					M103.109,259.389c0,0,12.889-10.534,19.705-7.932c6.816,2.603,14.624,10.906,14.624,10.906l1.735,9.419
					c0,0-9.171-13.261-13.137-15.12c-3.966-1.859-9.543-2.603-12.269-1.983c-2.726,0.62-10.782,7.436-11.154,8.303
					C102.242,263.851,103.109,259.389,103.109,259.389z"/>
				<path style="fill:#92E3A9;stroke:#263238;stroke-linecap:round;stroke-linejoin:round;stroke-miterlimit:10;" d="
					M106.455,228.159c0,0,2.479-2.231,4.09-11.154c1.611-8.923-0.248-16.979-0.248-16.979s-0.868,5.329-2.85,11.526
					c-1.983,6.197-1.983,8.427-4.957,17.598c-2.974,9.171-3.346,25.654-3.222,26.026
					C99.391,255.548,106.455,228.159,106.455,228.159z"/>
				<path style="fill:#263238;stroke:#263238;stroke-linecap:round;stroke-linejoin:round;stroke-miterlimit:10;" d="M86.13,230.761
					c0,0-3.842-4.957-8.799-6.445c-4.957-1.487-10.038-1.363-10.038-1.363s7.436-2.107,12.393-1.115
					c4.957,0.992,8.799,6.816,10.534,12.269c1.735,5.453,1.735,18.218,1.735,18.218S89.229,235.594,86.13,230.761z"/>
				<path style="fill:#92E3A9;stroke:#263238;stroke-linecap:round;stroke-linejoin:round;stroke-miterlimit:10;" d="
					M104.772,235.565c0,0-0.268-5.218,3.88-11.239c4.148-6.021,12.577-9.366,18.465-11.908c5.887-2.542,9.366-3.613,9.366-3.613
					s-13.246,10.436-16.725,11.908c-3.479,1.472-6.021,3.479-8.429,6.289c-2.408,2.81-6.69,13.113-6.69,13.782
					C104.638,241.452,104.772,235.565,104.772,235.565z"/>
				<path style="fill:#92E3A9;stroke:#263238;stroke-linecap:round;stroke-linejoin:round;stroke-miterlimit:10;" d="M89.848,243.03
					c0,0-4.709-6.568-12.269-9.667c-7.56-3.098-21.192-5.081-21.688-5.081c-0.496,0,12.765,4.214,16.855,6.073
					c4.09,1.859,9.419,4.709,11.03,6.444c1.611,1.735,9.171,13.88,9.171,13.88S92.699,249.723,89.848,243.03z"/>
				<path style="fill:#92E3A9;stroke:#263238;stroke-linecap:round;stroke-linejoin:round;stroke-miterlimit:10;" d="
					M100.259,261.496c0,0-12.889-19.085-16.483-20.697c-3.594-1.611-6.444-3.098-11.278-1.859
					c-4.833,1.239-14.872,6.692-16.731,7.684c-1.859,0.992-4.338,2.727-5.329,3.222c-0.991,0.496,12.765-7.684,20.449-8.675
					c7.684-0.992,9.047,2.726,17.35,9.171C96.541,256.787,100.259,261.496,100.259,261.496z"/>
				<path style="fill:#263238;stroke:#263238;stroke-linecap:round;stroke-linejoin:round;stroke-miterlimit:10;" d="
					M100.259,261.496c0,0-8.551-13.632-14.376-15.12c-5.825-1.487-12.765,1.735-15.12,3.098c-2.355,1.363-5.825,9.047-6.568,12.021
					c-0.744,2.974-1.239,5.205-1.239,5.205s7.436-12.145,10.41-14.004c2.974-1.859,7.56-4.71,8.923-4.957
					C83.652,247.492,97.284,255.795,100.259,261.496z"/>
				<path style="fill:#92E3A9;stroke:#263238;stroke-linecap:round;stroke-linejoin:round;stroke-miterlimit:10;" d="
					M96.788,254.432c0,0-16.607-11.154-25.282-11.03c-8.675,0.124-19.457,3.346-22.308,3.842c-2.85,0.496-5.701-0.248-5.701-0.248
					s12.269,3.718,16.359,3.842c4.09,0.124,17.474-3.718,21.936-2.231C86.254,250.094,96.788,254.432,96.788,254.432z"/>
				<path style="fill:#92E3A9;stroke:#263238;stroke-linecap:round;stroke-linejoin:round;stroke-miterlimit:10;" d="
					M92.327,249.475c0,0,2.85-8.675-0.124-14.996c-2.974-6.321-6.816-14.996-6.816-14.996s-1.363,11.03,0.991,18.466
					C88.733,245.385,92.327,249.475,92.327,249.475z"/>
				<path style="fill:#92E3A9;stroke:#263238;stroke-linecap:round;stroke-linejoin:round;stroke-miterlimit:10;" d="
					M99.515,255.795c0,0,0-10.782,7.436-15.863c7.436-5.081,15.739-6.692,18.714-5.081c2.974,1.611,11.897,6.568,14.5,9.915
					c2.603,3.346,4.709,5.949,4.709,5.949s-13.137-8.675-17.226-11.65c-4.09-2.974-6.073-3.718-7.56-3.346
					c-1.487,0.372-10.038,4.338-13.384,6.94C103.357,245.261,99.515,255.795,99.515,255.795z"/>
				<path style="fill:#263238;stroke:#263238;stroke-linecap:round;stroke-linejoin:round;stroke-miterlimit:10;" d="M99.267,257.53
					c0.124-0.372-0.248-3.222,4.833-3.594c5.081-0.372,8.923,1.859,9.791,3.718c0.868,1.859,0,6.816-0.124,7.312
					c-0.124,0.496-0.744-6.568-6.692-7.932C101.126,255.671,99.267,257.53,99.267,257.53z"/>
				<path style="fill:#92E3A9;stroke:#263238;stroke-linecap:round;stroke-linejoin:round;stroke-miterlimit:10;" d="
					M101.25,262.116c0,0,1.611-3.47,4.833-7.188c3.222-3.718,10.162-7.188,13.509-5.081c3.346,2.107,7.188,10.906,8.427,13.385
					c1.239,2.479,4.09,10.038,4.338,10.41c0.248,0.372-7.312-6.692-10.534-10.906c-3.222-4.214-5.453-10.038-7.312-10.534
					c-1.859-0.496-5.701,3.222-5.701,3.222l-9.171,13.261L101.25,262.116z"/>
				<path style="fill:#92E3A9;stroke:#263238;stroke-linecap:round;stroke-linejoin:round;stroke-miterlimit:10;" d="
					M100.754,253.069c0,0,1.611-7.436,7.188-9.419c5.577-1.983,12.269-2.726,14.872-1.239c2.603,1.487,14.004,12.021,14.004,12.021
					l1.487,3.842c0,0-16.731-12.269-20.573-13.508c-3.842-1.239-3.842-1.239-7.932,1.239
					C105.712,248.483,100.754,253.069,100.754,253.069z"/>
				<path style="fill:#92E3A9;stroke:#263238;stroke-linecap:round;stroke-linejoin:round;stroke-miterlimit:10;" d="
					M101.746,253.069c0,0,16.235-9.791,19.705-11.03c3.47-1.239,11.278,1.859,13.508,4.709c2.231,2.85,10.038,18.342,10.41,19.457
					c0.372,1.115-5.205-12.021-13.633-15.863c-8.427-3.842-13.88-3.098-18.838-2.602c-4.957,0.496-11.154,8.799-11.154,8.799
					V253.069z"/>
				<path style="fill:#92E3A9;stroke:#263238;stroke-linecap:round;stroke-linejoin:round;stroke-miterlimit:10;" d="
					M100.011,265.834c0,0-5.329-10.038-9.791-12.269c-4.462-2.231-8.923,1.735-15.987,4.461c-7.064,2.727-12.393,4.586-12.393,4.586
					s11.65,0.62,16.111-0.992c4.462-1.611,11.526-4.709,13.137-4.461S100.011,265.834,100.011,265.834z"/>
				<path style="fill:#92E3A9;stroke:#263238;stroke-linecap:round;stroke-linejoin:round;stroke-miterlimit:10;" d="
					M99.515,255.795c0,0-2.727-7.808-4.338-17.97c-1.611-10.162,1.115-28.38,3.718-33.833c2.603-5.453,10.286-14.376,10.286-14.376
					s-13.632,11.897-16.607,23.051c-2.974,11.154-3.47,17.103-2.231,23.175C91.583,241.915,99.515,255.795,99.515,255.795z"/>
				<g>
					<path style="fill:#92E3A9;stroke:#263238;stroke-linecap:round;stroke-linejoin:round;stroke-miterlimit:10;" d="
						M102.765,240.114c0,0,1.204-4.549,2.542-5.486c1.338-0.937,4.014,0.134,4.014,0.134s-4.683,4.148-4.683,6.021
						c0,1.873-4.757,13.152-4.757,13.152L102.765,240.114z"/>
					<path style="fill:#92E3A9;stroke:#263238;stroke-linecap:round;stroke-linejoin:round;stroke-miterlimit:10;" d="
						M105.307,234.628c0,0,2.007,1.404,3.574,2.822c1.566,1.417,9.026,8.803,9.474,9.25s-3.879-9.399-4.849-11.264
						c-0.97-1.865-2.686-3.208-3.208-3.133C109.776,232.377,105.165,233.448,105.307,234.628z"/>
				</g>
			</g>
			<g>
				<path style="fill:#263238;stroke:#263238;stroke-linecap:round;stroke-linejoin:round;stroke-miterlimit:10;" d="
					M101.512,300.251c0,0,11.415-4.165,18.356-6.479c6.941-2.314,12.186,3.394,12.186,3.394s-8.638,1.234-11.723,1.388
					c-3.085,0.154-7.713,0.309-10.489,1.388c-2.777,1.08,5.553,0.926,8.33,3.702c2.777,2.776,8.638,9.872,9.564,12.032
					c0.926,2.159-9.409-10.181-16.659-12.032c-7.25-1.851-12.957,2.005-12.957,2.005L101.512,300.251z"/>
				<path style="fill:#A6A6A6;stroke:#263238;stroke-linecap:round;stroke-linejoin:round;stroke-miterlimit:10;" d="
					M90.252,317.219c0,0,1.08,5.09,0,19.282c-1.08,14.191-2.16,71.099-2.16,71.099l3.702,0.463c0,0,1.851-76.498,1.851-79.121
					c0-2.622,0.154-12.032,0.154-12.032L90.252,317.219z"/>
				<path style="fill:#92E3A9;stroke:#263238;stroke-linecap:round;stroke-linejoin:round;stroke-miterlimit:10;" d="
					M93.183,302.257c-0.287-0.627-4.628-9.872-6.941-11.415c-2.314-1.543-8.175-3.702-10.798-3.702c-2.622,0-9.41,0.771-9.41,0.771
					s12.032,2.777,15.425,5.399c3.394,2.622,9.255,8.638,9.41,9.718c0.154,1.08,1.388,3.548,1.388,3.548
					S94.879,305.959,93.183,302.257z"/>
				<path style="fill:#263238;stroke:#263238;stroke-linecap:round;stroke-linejoin:round;stroke-miterlimit:10;" d="
					M89.789,308.272c0,0-9.255-1.08-12.649,1.388c-3.394,2.468-9.41,9.409-9.41,13.111c0,3.702,0.309,12.186,0.309,11.415
					c0-0.771,1.697-12.803,5.553-16.505c3.856-3.702,5.553-5.862,10.643-6.479c5.09-0.617,5.09-0.617,5.09-0.617l5.245,2.776
					L89.789,308.272z"/>
				<path style="fill:#92E3A9;stroke:#263238;stroke-linecap:round;stroke-linejoin:round;stroke-miterlimit:10;" d="M96.874,306.03
					c0,0,1.851-1.543,8.484-2.468c6.633-0.926,8.484-1.542,12.649-0.771c4.165,0.771,8.638,2.468,8.638,2.468
					s-13.266-0.309-14.5-0.309c-1.234,0,8.021,6.016,9.718,7.867c1.697,1.851,3.239,5.707,3.239,5.707s-13.266-9.564-15.58-10.644
					c-2.314-1.08-3.239-1.697-3.239-1.697s-3.702-0.617-5.245-0.154c-1.542,0.463-2.776,0.926-3.239,1.08
					c-0.463,0.154-2.16,0.617-2.16,0.617L96.874,306.03z"/>
				<path style="fill:#92E3A9;stroke:#263238;stroke-linecap:round;stroke-linejoin:round;stroke-miterlimit:10;" d="
					M94.879,301.023c0,0,0.771-8.947,5.09-12.957c4.319-4.011,19.127-11.723,19.127-11.723l9.101-4.473c0,0-2.622,5.862-8.175,8.175
					c-5.553,2.314-7.404,0.617-10.026,3.394c-2.622,2.776-6.787,8.484-7.558,11.106c-0.771,2.622-5.862,9.872-6.17,11.569
					C95.959,307.81,94.879,301.023,94.879,301.023z"/>
				<path style="fill:#92E3A9;stroke:#263238;stroke-linecap:round;stroke-linejoin:round;stroke-miterlimit:10;" d="
					M95.496,303.491c0,0,0.926-13.883-0.617-17.431c-1.543-3.548-6.324-11.723-7.404-13.574c-1.08-1.851-2.468-3.394-2.468-3.394
					s3.856,12.186,4.936,18.51c1.08,6.324,1.234,8.33,1.542,10.952c0.309,2.622,0.617,4.936,0.617,4.936H95.496z"/>
				<path style="fill:#92E3A9;stroke:#263238;stroke-linecap:round;stroke-linejoin:round;stroke-miterlimit:10;" d="
					M93.491,308.581c0,0,2.005-5.553,5.09-10.489s7.558-6.016,8.33-6.016c0.771,0,3.394,0,3.394,0s-6.016,2.931-6.787,5.707
					c-0.771,2.777-2.468,8.484-3.702,9.718c-1.234,1.234-4.319,7.713-5.09,9.255c-0.771,1.542-2.777,2.314-2.777,2.314
					S89.172,314.905,93.491,308.581z"/>
				<path style="fill:#92E3A9;stroke:#263238;stroke-linecap:round;stroke-linejoin:round;stroke-miterlimit:10;" d="
					M95.959,309.044l-4.011,10.026l1.234,1.08c0,0,1.851-2.16,3.239-4.165c1.388-2.005,2.468-3.548,2.468-4.473
					C98.89,310.586,95.959,309.044,95.959,309.044z"/>
				<path style="fill:#92E3A9;stroke:#263238;stroke-linecap:round;stroke-linejoin:round;stroke-miterlimit:10;" d="
					M94.359,317.502c0,0-5.862-12.803-7.713-15.579c-1.851-2.777-3.856-5.09-7.867-6.17c-4.011-1.08-10.798-3.085-16.814-2.005
					c-6.016,1.08-16.351,2.468-16.351,2.468s7.404,3.393,16.351,2.776c8.947-0.617,16.814-0.154,16.814-0.154
					s1.851,0.771,3.239,5.245c1.388,4.473,4.319,8.484,6.17,10.181c1.851,1.697,4.936,5.862,4.936,5.862L94.359,317.502z"/>
				<path style="fill:#92E3A9;stroke:#263238;stroke-linecap:round;stroke-linejoin:round;stroke-miterlimit:10;" d="
					M95.496,303.491c0,0-6.479-2.622-8.021-0.309c-1.542,2.314-4.011,14.345-4.011,14.345s-1.234,6.324-1.543,6.941
					c-0.308,0.617,8.175-5.862,10.181-11.415C94.108,307.501,95.496,303.491,95.496,303.491z"/>
				<path style="fill:#92E3A9;stroke:#263238;stroke-linecap:round;stroke-linejoin:round;stroke-miterlimit:10;" d="
					M101.666,307.501c0,0-5.707,0.154-5.707,1.543c0,1.388,0.771,3.856,0.463,6.941c-0.308,3.085-0.617,5.862-0.617,5.862
					s6.17-2.622,6.479-6.17C102.592,312.129,101.666,307.501,101.666,307.501z"/>
				<path style="fill:#263238;stroke:#263238;stroke-linecap:round;stroke-linejoin:round;stroke-miterlimit:10;" d="
					M104.415,307.49c0,0,5.862,4.011,7.867,7.713c2.005,3.702,3.548,11.415,3.548,11.415s-4.011-7.713-7.096-11.878
					c-3.085-4.165-7.713-7.558-8.638-6.479S102.255,306.564,104.415,307.49z"/>
			</g>
		</g>
		<g>
			<polygon style="fill:#92E3A9;stroke:#263238;stroke-miterlimit:10;" points="101.96,448.314 70.165,448.314 63.352,404.868 
				108.773,404.868 			"/>
			<polygon style="fill:#92E3A9;stroke:#263238;stroke-miterlimit:10;" points="105.467,450.618 65.671,450.618 63.681,446.668 
				107.456,446.668 			"/>
		</g>
	</g>
</g>
<g id="Character">
	<g>
		<g>
			<g>
				<line style="fill:none;stroke:#263238;stroke-miterlimit:10;" x1="694.161" y1="385.686" x2="644.759" y2="439.603"/>
				<line style="fill:none;stroke:#263238;stroke-miterlimit:10;" x1="664.662" y1="376.587" x2="676.014" y2="448.827"/>
				<line style="fill:none;stroke:#263238;stroke-miterlimit:10;" x1="639.156" y1="393.978" x2="702.714" y2="430.143"/>
				<line style="fill:none;stroke:#263238;stroke-miterlimit:10;" x1="636.85" y1="424.761" x2="704.753" y2="397.618"/>
				<line style="fill:none;stroke:#263238;stroke-miterlimit:10;" x1="659.48" y1="445.758" x2="680.595" y2="375.746"/>
				<line style="fill:none;stroke:#263238;stroke-miterlimit:10;" x1="690.005" y1="441.156" x2="648.433" y2="380.996"/>
				<line style="fill:none;stroke:#263238;stroke-miterlimit:10;" x1="705.439" y1="414.422" x2="632.484" y2="409.414"/>
			</g>
			<g>
				<path style="fill:#263238;stroke:#263238;stroke-miterlimit:10;" d="M669.965,373.724c-21.009,0-38.04,17.031-38.04,38.04
					c0,21.009,17.031,38.04,38.04,38.04c21.009,0,38.04-17.031,38.04-38.04C708.005,390.755,690.974,373.724,669.965,373.724z
					 M669.965,445.272c-18.506,0-33.509-15.002-33.509-33.509c0-18.506,15.002-33.509,33.509-33.509
					c18.506,0,33.509,15.002,33.509,33.509C703.473,430.27,688.471,445.272,669.965,445.272z"/>
				<circle style="fill:#FFFFFF;stroke:#263238;stroke-miterlimit:10;" cx="669.965" cy="411.764" r="4.326"/>
			</g>
		</g>
		<g>
			
				<ellipse transform="matrix(0.9872 -0.1598 0.1598 0.9872 -62.6626 105.8108)" style="fill:#263238;stroke:#263238;stroke-miterlimit:10;" cx="626.638" cy="442.564" rx="8.053" ry="8.054"/>
			<path style="fill:#263238;stroke:#263238;stroke-miterlimit:10;" d="M620.544,430.471c0,0,0.197,3.616,1.25,7.654
				s3.511,6.671,4.916,6.145c1.404-0.527,0.175-1.229-0.878-3.16c-1.053-1.931-2.458-4.564-2.458-10.885L620.544,430.471z"/>
		</g>
		<g>
			<path style="fill:#FFFFFF;stroke:#263238;stroke-miterlimit:10;" d="M662.33,262.616c0,0-3.993,3.387-4.912,7.614
				c-0.919,4.227-0.184,5.697-0.735,7.535c-0.551,1.838-3.343,3.946-2.056,5.049c1.286,1.103,2.067,0.845,2.067,0.845
				s0.939,3.194,1.409,5.167c0.47,1.973,0.376,3.946,1.973,4.603c1.597,0.658,5.355-0.094,5.355-0.094l6.294,9.206l11.931-8.643
				l-2.536-5.355c0,0,4.039-11.931,3.476-17.004c-0.564-5.073-3.852-9.018-7.422-10.803
				C673.603,258.952,667.685,258.388,662.33,262.616z"/>
			<path style="fill:#263238;stroke:#263238;stroke-miterlimit:10;" d="M684.595,271.54c-0.564-5.073-3.852-9.019-7.422-10.803
				c-3.57-1.785-9.488-2.349-14.843,1.879c0,0-1.387,1.183-2.714,3.015l0.272-0.009l2.724-1.315l-0.094,1.409l1.879-0.751
				c0,0-0.939,2.63-1.221,3.57c-0.282,0.939-0.376,3.382-0.376,3.382l3.288-1.503l-1.503,2.724l2.067-0.188
				c0,0-0.094,1.033-0.094,1.691s-0.188,4.321-0.188,4.321l3.194-2.63c0,0-0.376,0.939-0.47,1.409
				c-0.094,0.47,1.503-2.912,3.288-2.161c1.785,0.751,2.255,4.039,1.973,5.261c-0.282,1.221-1.127,3.288-1.127,3.288l3.194,4.228
				l0.658-0.939l0.845-0.752l-0.188,1.785l1.503-0.845v1.315l1.879-0.376C681.119,288.544,685.158,276.613,684.595,271.54z"/>
			<path style="fill:none;stroke:#263238;stroke-miterlimit:10;" d="M669.845,279.056c0,0,0.658-4.603,2.536-3.476
				c1.879,1.127,2.161,3.664,1.127,5.918c-1.033,2.255-2.349,3.006-3.194,2.067"/>
			<path style="fill:#263238;" d="M659.503,277.199c0,0.739-0.292,1.337-0.653,1.337c-0.361,0-0.653-0.599-0.653-1.337
				c0-0.738,0.292-1.337,0.653-1.337C659.211,275.862,659.503,276.46,659.503,277.199z"/>
			<path style="fill:none;stroke:#263238;stroke-miterlimit:10;" d="M657.821,274.264c0,0,1.315-1.315,2.067,0.658"/>
			<path style="fill:none;stroke:#263238;stroke-miterlimit:10;" d="M658.384,285.913c0.282,0,1.503-0.658,2.349-2.255"/>
			<polygon style="fill:#263238;stroke:#263238;stroke-miterlimit:10;" points="665.43,293.335 668.812,292.489 667.403,295.965 			
				"/>
		</g>
		<g>
			<path style="fill:#263238;stroke:#263238;stroke-linecap:round;stroke-linejoin:round;stroke-miterlimit:10;" d="
				M611.588,419.593c0,0-4.188,2.255-4.671,2.255c-0.483,0-8.698,1.611-8.698,1.611s-6.765-0.805-6.604,1.128
				c0.161,1.933,0.483,5.154,2.899,6.282c2.416,1.127,13.047,2.094,16.913,2.255c3.866,0.161,11.598,1.772,14.175,1.611
				c2.577-0.161,4.349-1.933,4.349-5.154s-3.383-9.665-3.383-9.665L611.588,419.593z"/>
			<path style="fill:#FFFFFF;stroke:#263238;stroke-linecap:round;stroke-linejoin:round;stroke-miterlimit:10;" d="
				M594.514,430.869c2.416,1.127,13.047,2.094,16.913,2.255c3.866,0.161,11.597,1.772,14.175,1.611
				c2.577-0.161,4.349-1.933,4.349-5.154c0-0.228-0.021-0.475-0.052-0.732c-1.684,0.99-4.786,2.45-8.324,2.343
				c-5.316-0.161-23.195-1.128-25.772-1.772c-2.577-0.644-4.188-4.832-4.188-4.832C591.776,426.52,592.098,429.741,594.514,430.869z
				"/>
			<path style="fill:#808080;stroke:#263238;stroke-miterlimit:10;" d="M631.283,370.999l-3.655,50.56c0,0-7.919,3.96-12.183,1.523
				l0.914-52.996L631.283,370.999z"/>
			<path style="fill:#263238;stroke:#263238;stroke-linecap:round;stroke-linejoin:round;stroke-miterlimit:10;" d="
				M603.432,421.286c0,0-4.188,2.255-4.671,2.255c-0.483,0-8.698,1.611-8.698,1.611s-6.765-0.805-6.604,1.128
				c0.161,1.933,0.483,5.154,2.899,6.282c2.416,1.128,13.047,2.094,16.913,2.255c3.866,0.161,11.597,1.772,14.175,1.611
				c2.577-0.161,4.349-1.933,4.349-5.154s-3.383-9.664-3.383-9.664L603.432,421.286z"/>
			<path style="fill:#FFFFFF;stroke:#263238;stroke-linecap:round;stroke-linejoin:round;stroke-miterlimit:10;" d="
				M586.358,432.561c2.416,1.128,13.047,2.094,16.913,2.255c3.866,0.161,11.597,1.772,14.175,1.611
				c2.577-0.161,4.349-1.933,4.349-5.154c0-0.228-0.021-0.475-0.052-0.732c-1.684,0.99-4.786,2.45-8.324,2.343
				c-5.315-0.161-23.195-1.128-25.772-1.772c-2.577-0.644-4.188-4.832-4.188-4.832C583.62,428.212,583.942,431.434,586.358,432.561z
				"/>
		</g>
		<polygon style="fill:#263238;stroke:#263238;stroke-miterlimit:10;" points="614.481,371.875 615.278,390.201 670.149,401.46 
			679.818,395.513 683.005,379.046 		"/>
		<path style="fill:#808080;stroke:#263238;stroke-miterlimit:10;" d="M660.614,355.567c0,0-27.544-0.805-36.403-1.611
			c-8.859-0.805-14.014,2.416-14.014,2.416s-8.537,0.483-10.309,5.477c-1.772,4.993,3.705,56.054,3.705,56.054l-2.255,1.611
			l0.644,2.899c0,0,4.832,3.06,10.47,2.094c5.638-0.966,7.087-2.416,7.087-2.416v-4.349l-1.128-43.007c0,0,44.296,8.698,49.45,8.537
			c5.154-0.161,13.047,0.644,14.98-2.416c1.933-3.06,1.772-7.087,1.772-7.087L660.614,355.567z"/>
		<path style="fill:#92E3A9;stroke:#263238;stroke-miterlimit:10;" d="M680.265,293.875c0,0-2.577,1.933-6.282,5.316
			c-3.705,3.383-5.96,7.732-7.409,12.725c-1.45,4.993-3.383,20.296-4.027,25.45c-0.644,5.154-0.966,6.604-0.966,6.604
			s-3.222,3.06-3.383,4.832c-0.161,1.772,0.161,4.671-0.483,6.121s4.027,8.215,8.698,12.564c4.671,4.349,15.946,9.503,17.879,9.342
			c1.933-0.161,4.188-6.604,4.188-6.604l7.571-31.571c0,0,3.544-11.114,2.577-23.678c-0.966-12.564-7.732-16.752-10.148-18.846
			C686.064,294.037,683.809,290.976,680.265,293.875z"/>
		<line style="fill:none;stroke:#263238;stroke-miterlimit:10;" x1="650.628" y1="358.95" x2="612.936" y2="356.695"/>
		<g>
			<path style="fill:none;stroke:#263238;stroke-miterlimit:10;" d="M617.285,374.091c0,0-7.087-1.289-10.309-2.899
				c-3.221-1.611-3.383-4.349-3.383-4.349"/>
			<path style="fill:none;stroke:#263238;stroke-miterlimit:10;" d="M605.365,363.138c0,0-0.967,3.383,1.611,6.282"/>
		</g>
		<g>
			
				<rect x="598.958" y="419.301" transform="matrix(0.6247 -0.7809 0.7809 0.6247 -106.8386 628.5792)" style="fill:#FFFFFF;stroke:#263238;stroke-miterlimit:10;" width="3.083" height="12.269"/>
		</g>
		<g>
			<path style="fill:#FFFFFF;stroke:#263238;stroke-miterlimit:10;" d="M594.253,436.723L594.253,436.723
				c-1.058-0.118-1.82-1.071-1.702-2.129l3.53-31.667c0.52-4.668,2.82-9.026,6.585-11.834c3.619-2.7,8.061-3.787,12.522-3.06
				l56.413,9.183l-0.619,3.804l-56.413-9.183c-3.423-0.556-6.828,0.277-9.602,2.349c-2.885,2.155-4.646,5.498-5.045,9.076
				l-3.54,31.759C596.264,436.078,595.311,436.84,594.253,436.723z"/>
		</g>
		<path style="fill:#263238;stroke:#263238;stroke-miterlimit:10;" d="M595.343,410.289c0,0,25.888,2.036,28.63,1.475
			c2.742-0.561,4.873-1.779,4.873-1.779v6.701c0,0-1.557-0.017-9.306,1.057c-7.75,1.074-24.501-3.189-24.501-3.189L595.343,410.289z
			"/>
		<path style="fill:#263238;stroke:#263238;stroke-miterlimit:10;" d="M684.292,376.829l-9.833,2.495l5.66-25.117
			c0,0,0.826-5.896,5.307-7.193c4.481-1.297,7.193,0.354,7.193,0.354s-3.656,4.599-4.127,8.844S684.292,376.829,684.292,376.829z"/>
		<g>
			<path style="fill:#263238;stroke:#263238;stroke-miterlimit:10;" d="M670.462,401.492c-0.103,0-0.208-0.01-0.313-0.032
				c-0.834-0.172-1.37-0.988-1.199-1.822c0.347-1.68,8.51-41.199,9.676-45.362c1.694-6.049,4.786-9.282,9.191-9.608
				c4.976-0.364,11.226,4.764,11.922,5.35c0.651,0.549,0.735,1.52,0.187,2.172c-0.549,0.652-1.521,0.734-2.172,0.188
				c-1.628-1.368-6.515-4.864-9.709-4.634c-3.015,0.223-5.124,2.632-6.449,7.364c-1.137,4.061-9.541,44.744-9.625,45.155
				C671.82,400.99,671.178,401.492,670.462,401.492z"/>
		</g>
		<g>
			<path style="fill:#263238;stroke:#263238;stroke-miterlimit:10;" d="M679.78,401.492c-0.103,0-0.208-0.01-0.313-0.032
				c-0.834-0.172-1.37-0.988-1.199-1.822c0.347-1.68,8.51-41.199,9.676-45.362c1.694-6.049,4.786-9.282,9.191-9.608
				c4.976-0.364,11.226,4.764,11.922,5.35c0.651,0.549,0.735,1.52,0.187,2.172c-0.549,0.652-1.521,0.734-2.172,0.188
				c-1.628-1.368-6.515-4.864-9.709-4.634c-3.015,0.223-5.124,2.632-6.449,7.364c-1.137,4.061-9.541,44.744-9.625,45.155
				C681.138,400.99,680.496,401.492,679.78,401.492z"/>
		</g>
		<g>
			<g>
				<line style="fill:none;stroke:#263238;stroke-miterlimit:10;" x1="681.677" y1="385.686" x2="632.276" y2="439.603"/>
				<line style="fill:none;stroke:#263238;stroke-miterlimit:10;" x1="652.179" y1="376.587" x2="663.531" y2="448.827"/>
				<line style="fill:none;stroke:#263238;stroke-miterlimit:10;" x1="626.673" y1="393.978" x2="690.231" y2="430.143"/>
				<line style="fill:none;stroke:#263238;stroke-miterlimit:10;" x1="624.367" y1="424.761" x2="692.27" y2="397.618"/>
				<line style="fill:none;stroke:#263238;stroke-miterlimit:10;" x1="646.996" y1="445.758" x2="668.112" y2="375.746"/>
				<line style="fill:none;stroke:#263238;stroke-miterlimit:10;" x1="677.521" y1="441.156" x2="635.95" y2="380.996"/>
				<line style="fill:none;stroke:#263238;stroke-miterlimit:10;" x1="692.956" y1="414.422" x2="620.001" y2="409.414"/>
			</g>
			<g>
				<path style="fill:#263238;stroke:#263238;stroke-miterlimit:10;" d="M657.482,373.724c-21.009,0-38.04,17.031-38.04,38.04
					c0,21.009,17.031,38.04,38.04,38.04s38.04-17.031,38.04-38.04C695.521,390.755,678.49,373.724,657.482,373.724z
					 M657.482,445.272c-18.506,0-33.509-15.002-33.509-33.509c0-18.506,15.002-33.509,33.509-33.509
					c18.506,0,33.509,15.002,33.509,33.509C690.99,430.27,675.988,445.272,657.482,445.272z"/>
				<circle style="fill:#FFFFFF;stroke:#263238;stroke-miterlimit:10;" cx="657.482" cy="411.764" r="4.326"/>
				<g>
					
						<ellipse transform="matrix(0.9872 -0.1598 0.1598 0.9872 -62.871 103.2196)" style="fill:#263238;stroke:#263238;stroke-miterlimit:10;" cx="610.421" cy="442.564" rx="8.053" ry="8.054"/>
					<path style="fill:#263238;stroke:#263238;stroke-miterlimit:10;" d="M604.327,430.471c0,0,0.196,3.616,1.25,7.654
						c1.053,4.038,3.511,6.671,4.916,6.145c1.404-0.527,0.175-1.229-0.878-3.16c-1.053-1.931-2.458-4.564-2.458-10.885
						L604.327,430.471z"/>
				</g>
				<path style="fill:#FFFFFF;stroke:#263238;stroke-miterlimit:10;" d="M608.421,429.267c0-1.729-1.402-3.131-3.131-3.131
					c-1.729,0-3.131,1.402-3.131,3.131s1.402,3.131,3.131,3.131C607.019,432.398,608.421,430.997,608.421,429.267z"/>
			</g>
		</g>
		<path style="fill:#FFFFFF;stroke:#263238;stroke-miterlimit:10;" d="M668.829,331.567l-1.289,15.463l-26.416,25.933
			c0,0-8.054,5.96-9.181,7.409c-1.128,1.45-3.221,4.671-3.544,5.316c-0.322,0.644,0.966,1.45,1.45,1.128
			c0.483-0.322,1.45-2.094,1.45-2.094s-1.45,5.96-0.644,6.765c0.805,0.805,4.832,0.644,7.409,0.161
			c2.577-0.483,3.383-1.772,4.188-2.577c0.805-0.805,4.993-12.242,4.993-12.242l20.457-11.92c0,0,9.181-9.665,9.664-10.953
			c0.483-1.289,4.51-20.134,4.51-20.134L668.829,331.567z"/>
		<path style="fill:#92E3A9;stroke:#263238;stroke-miterlimit:10;" d="M671.245,305.473c0,0-3.06,4.188-3.383,7.57
			c-0.322,3.383-0.161,20.457-0.161,20.457l15.624,1.772l2.577-16.43c0,0,2.738-4.188,0.644-10.309"/>
	</g>
</g>
</svg>
