<?xml version="1.0" encoding="utf-8"?>
<!-- Generator: Adobe Illustrator 27.5.0, SVG Export Plug-In . SVG Version: 6.00 Build 0)  -->
<svg version="1.1" id="_x3C_Layer_x3E_" xmlns="http://www.w3.org/2000/svg" xmlns:xlink="http://www.w3.org/1999/xlink" x="0px"
	 y="0px" viewBox="0 0 3116 1640" style="enable-background:new 0 0 3116 1640;" xml:space="preserve">
<rect style="fill:#FFFFFF;" width="3116" height="1640"/>
<g>
	<path style="fill:#FBECDB;" d="M423.918,1484.7c0,0-306.008-328.555-51.751-684.262
		c225.594-315.608,488.614-294.034,681.587-165.959c82.19,54.55,319.153,6.724,520.838-314.419
		c275.044-437.951,1228.443-172.332,1054.609,501.467c-84.124,326.07,256.021,337.923,82.704,663.863L423.918,1484.7z"/>
	<path style="fill:#A8D29F;" d="M482.232,1485.391c0,0,106.58-255.834,329.552-117.865
		c168.792,104.445,381.016-30.711,491.52-184.786s777.104,1.985,925.423,190.136c62.305,79.034,213.122,6.73,237.123,109.468
		L482.232,1485.391z"/>
	<g>
		<path style="fill:#F4A671;" d="M1805.97,945.822c0.195-10.451,8.304-28.282-7.708-45.221
			c-11.346-12.16-21.35-25.828-26.128-32.508c-1.733-2.711-21.106,13.225-20.688,13.867c3.186,4.724,17.804,28.781,19.927,42.196
			c2.318,15.121,28.224,31.671,28.224,31.671S1805.912,956.22,1805.97,945.822z"/>
		<path style="fill:#F4A671;" d="M1782.168,881.554l-30.729,0.401c0,0-48.061-75.938-49.533-100.028
			c-1.418-23.007-47.605-123.691,6.465-186.553c2.436-2.852,5.086-5.622,7.963-8.299c0.094-0.106,0.201-0.2,0.309-0.294
			c0,0,0.093,0.147,0.267,0.441c1.099,1.834,5.394,9.597,10.426,26.754c7.884,26.82,17.626,76.607,19.929,162.597
			C1747.264,776.573,1768.65,850.184,1782.168,881.554z"/>
		<path style="fill:#2C3A64;" d="M1686.272,478.392c0,0-3.316,8.974,1.581,12.489c4.896,3.517-12.436,19.65-15.781,33.201
			c-3.346,13.551,0.836,20.745,0.836,20.745s-0.501-8.197,2.51-12.212c0,0-3.234,9.312,2.119,16.228
			c5.354,6.914,2.21,10.426,2.21,10.426s16.973,0.28,21.1-11.207c0,0-1.004,5.465-2.23,7.473c0,0,16.574-5.8,20.89-17.176
			c4.316-11.376-3.756-24.695-8.789-26.487c-5.033-1.793-13.216-15.392-11.711-19.072
			C1700.512,489.118,1686.272,478.392,1686.272,478.392z"/>
		<path style="fill:#B64C41;" d="M1690.168,1444.504l-19.888,7.405c0,0-86.385-119.81-97.02-225.221
			c-1.899-18.819-1.267-37.054,2.842-53.892c0,0-0.845-4.822-2.322-13.347c-0.683-3.979-1.526-8.768-2.484-14.256
			c-2.809-16.091-6.674-38.108-11.091-63.179c-10.163-57.69-23.332-131.44-33.562-185.655l5.358-1.722l57.982-18.705l11.983-38.061
			l43.175-11.365c0,0,9.645,18.867,18.267,107.992c1.591,11.691,3.036,24.584,4.124,38.563c3.361,42.671,3.605,95.604-4.107,156.12
			c-1.98,15.49-4.481,31.484-7.583,47.917c-2.273,12.048-2.614,28.464-1.656,47.314
			C1658.538,1310.586,1690.168,1444.504,1690.168,1444.504z"/>
		<path style="fill:#963333;" d="M1667.533,973.063l-93.753,186.387c-0.683-3.979-1.526-8.768-2.484-14.256
			c-2.809-16.091-6.674-38.108-11.091-63.179c-10.163-57.69-23.332-131.44-33.562-185.655l5.358-1.722l57.982-18.705l11.983-38.061
			l51.573-15.337c0,0,1.246,22.839,9.868,111.964C1665,946.191,1666.445,959.084,1667.533,973.063z"/>
		<path style="fill:#2C3A64;" d="M1729.484,422.193l-93.632,75.805c0,0-2.73-16.448-12.366-13.919
			c-15.03,3.935-38.093-36.363-20.347-72.806c1.165-2.383,15.577-38.46,61.688-43.002
			C1724.113,372.814,1729.484,422.193,1729.484,422.193z"/>
		<path style="fill:#FFB27D;" d="M1695.754,624.68c-11.415,5.293-25.201,8.898-41.876,9.808
			c-62.514,3.426-76.704-51.374-79.286-87.746c9.012-3.264,16.903-2.955,21.449-2.711c4.434,0.243,9.061,0.698,12.876,1.169
			c7.648-3.994,21.385-23.398,29.324-55.856l2.695,1.251l45.106,21.205c0,0-4.789,14.679-8.328,28.724
			c-2.761,10.993-4.742,21.611-3.086,24.583c3.557,1.445,5.684,2.354,5.684,2.354s0,0.017,0.016,0.049
			C1680.783,568.662,1690.59,593.65,1695.754,624.68z"/>
		<path style="fill:#F99746;" d="M1711.396,665.691c-0.469,1.244-0.99,2.462-1.552,3.72
			c-15.834,34.101-58.861,146.765-58.861,146.765c4.176,25.401-177.132,23.595-177.641,0.468
			c-5.514-19.714,13.585-49.025,30.435-70.036c4.122-5.126,8.097-9.743,11.55-13.624c2.209-2.49,4.189-5.153,5.916-7.964
			c4.35-7.039,7.106-15.002,7.99-23.314c2.328-22.056,2.489-43.175,2.436-60.332c-0.026-8.338-0.094-15.725,0-21.842
			c3.439-2.557,6.772-4.912,9.877-7.148c4.738-3.453,8.927-6.692,12.005-9.971c3.399-3.573,5.527-7.228,5.769-11.35
			c0.174-3.118,0.08-6.317-0.241-9.516c-0.147-1.512-0.348-3.011-0.575-4.523c-2.436-15.872-9.061-30.26-9.061-30.26
			c16.782-6.786,46.602-2.744,46.602-2.744s-0.026,1.66-0.04,4.377c-0.107,10.893,0,38.865,3.493,44.165
			c4.362,6.585,84.262,35.481,88.491,26.526c4.149-8.793-7.227-50.028-7.655-51.58c-0.013-0.04-0.013-0.054-0.013-0.054
			c0.856,0.335,1.687,0.67,2.503,0.99c4.068,1.66,7.588,3.561,10.974,4.792c21.735,7.937,23.783,15.163,23.783,15.163
			C1701.452,598.854,1723.869,632.62,1711.396,665.691z"/>
		<path style="fill:#ED985F;" d="M1686.045,511.809c0,0-4.796,14.663-8.329,28.723c-26.365-7.357-34.372-35.071-36.782-49.928
			L1686.045,511.809z"/>
		<path style="fill:#FFB27D;" d="M1691.597,527.335c0,0-63.079-14.598-53.383-53.741c9.695-39.143,8.084-67.389,48.769-59.723
			c40.685,7.666,44.779,24.532,44.722,38.386C1731.646,466.109,1708.256,530.124,1691.597,527.335z"/>
		<path style="fill:#2C3A64;" d="M1735.252,430.034c-6.782-14.188-14.764-13.431-19.756-10.916
			c-29.64-27.423-58.712-5.02-58.712-5.02c-11.189,27.032-35.44,38.078-35.44,38.078s9.69,9.922,37.776,9.703
			c8.58-0.066,17.205-4.005,25.054-9.433c-15.139,15.247-32.89,24.53-32.89,24.53c35.158-6.729,58.734-47.432,61.149-51.755
			c2.979,4.398,8.676,13.762,9.154,21.668c0.652,10.744-3.044,31.608,3.108,32.398
			C1724.696,479.289,1745.422,451.31,1735.252,430.034z"/>
		<path style="fill:#233862;" d="M1752.408,1481.021H1652.24c0,0-3.746-15.976,2.831-26.849c5.821-9.618,5.345-15.471,1.033-23.429
			c4.537,1.857,8.653,3.919,15.116,3.549c4.991-0.286,10.529-3.813,15.158-6.501c4.312,4.916,22.51,27.099,28.279,31.244
			C1721.204,1463.738,1750.394,1462.063,1752.408,1481.021z"/>
		<path style="fill:#ED7D2B;" d="M1573.626,755.28c-26.152-1.848-51.046-4.163-69.85-8.673c4.122-5.126,8.097-9.743,11.55-13.624
			c2.209-2.49,4.189-5.153,5.916-7.964c4.35-7.039,7.106-15.002,7.99-23.314c2.328-22.056,2.489-43.175,2.436-60.332
			c22.806-25.536,41.958-46.294,41.958-46.294s42.506,38.96,49.09,77.771C1629.301,711.663,1641.733,760.099,1573.626,755.28z"/>
		<path style="fill:#963333;" d="M1584.154,543.017c0,0,30.866,36.574,24.252,91.463h12.791c0,0,7.237-38.382-25.156-90.449
			c0,0-4.228-0.6-5.6-0.716C1588.843,543.178,1584.154,543.017,1584.154,543.017z"/>
		<path style="fill:#963333;" d="M1695.449,663.565l-12.42-3.064c16.689-44.112,3.895-81.907-0.214-92.052
			c4.068,1.659,7.723,3.266,10.975,4.792C1711.015,629.465,1695.449,663.565,1695.449,663.565z"/>
		<path style="fill:#B64C41;" d="M1700.852,641.393c0,0-61.586-16.041-78.964-20.502c-17.378-4.462-18.748,5.799-18.748,5.799
			s-2.424,33.44-2.687,36.876c-4.015,52.491-79.217,61.458-79.217,61.458s-19.426,24.207-36.088,48.007
			c-28.569,40.806-25.052,109.745-25.052,109.745l0,0c-0.611,8.341-0.703,17.406-0.091,27.238
			c2.258,36.227,6.381,190.168,10.688,235.721c1.556,16.511,2.92,28.26,3.477,32.952c0.012,0.023,0.012,0.034,0.012,0.046
			c0.17,1.432-0.33,2.783-1.058,4.033c-6.34,10.762-11.589,21.965-15.896,33.43c-42.271,112.64,6.51,251.356,6.51,251.356
			l12.659-5.101c0,0,27.759-154.376,50.314-222.576c3.829-11.567,7.498-20.656,10.862-26.088
			c9.807-15.829,18.907-41.69,27.168-72.449c15.613-58.154,28.18-133.807,36.543-192.201c1.153,0.055,10.32-78.42,40.454-114.522
			l11.802-12.079l37.405-91.919c0,0,10.329-61.1,13.452-71.361C1707.521,648.996,1700.852,641.393,1700.852,641.393z"/>
		<g>
			<g>
				<path style="fill:#ED7D2B;" d="M1609.361,629.813c0-2.956,2.396-5.354,5.354-5.354s5.354,2.397,5.354,5.354
					c0,2.957-2.396,5.354-5.354,5.354S1609.361,632.769,1609.361,629.813z"/>
				<path style="fill:#F99746;" d="M1610.324,629.813c0-2.956,2.396-5.354,5.353-5.354c2.957,0,5.354,2.397,5.354,5.354
					c0,2.957-2.396,5.354-5.354,5.354C1612.721,635.166,1610.324,632.769,1610.324,629.813z"/>
			</g>
			<path style="fill:#2B478B;" d="M1612.517,628.804c0.13-0.41,0.568-0.636,0.978-0.504c0.409,0.13,0.635,0.568,0.505,0.977
				c-0.132,0.41-0.569,0.636-0.979,0.505C1612.611,629.65,1612.386,629.212,1612.517,628.804z"/>
			<path style="fill:#2B478B;" d="M1617.355,630.35c0.131-0.41,0.568-0.636,0.978-0.505c0.409,0.13,0.636,0.568,0.505,0.978
				c-0.131,0.409-0.568,0.636-0.978,0.504C1617.451,631.195,1617.225,630.758,1617.355,630.35z"/>
		</g>
		<g>
			<g>
				<path style="fill:#ED7D2B;" d="M1686.523,647.18c0-2.956,2.397-5.354,5.354-5.354c2.957,0,5.354,2.397,5.354,5.354
					c0,2.957-2.396,5.353-5.354,5.353C1688.921,652.532,1686.523,650.137,1686.523,647.18z"/>
				<path style="fill:#F99746;" d="M1687.485,647.18c0-2.956,2.396-5.354,5.354-5.354c2.956,0,5.353,2.397,5.353,5.354
					c0,2.957-2.396,5.353-5.353,5.353C1689.882,652.532,1687.485,650.137,1687.485,647.18z"/>
			</g>
			<path style="fill:#2B478B;" d="M1689.678,646.17c0.131-0.408,0.568-0.635,0.979-0.504c0.409,0.131,0.635,0.568,0.504,0.978
				c-0.131,0.409-0.568,0.635-0.978,0.505C1689.773,647.018,1689.548,646.58,1689.678,646.17z"/>
			<path style="fill:#2B478B;" d="M1694.518,647.716c0.131-0.409,0.568-0.635,0.979-0.505c0.409,0.131,0.635,0.569,0.504,0.979
				c-0.131,0.409-0.568,0.635-0.979,0.504C1694.613,648.563,1694.388,648.125,1694.518,647.716z"/>
		</g>
		<path style="fill:#2C3A64;" d="M1601.938,459.655c0,0-3.315,8.973,1.581,12.488c4.896,3.518-12.435,19.651-15.781,33.202
			c-3.346,13.551,0.837,20.744,0.837,20.744s-0.502-8.197,2.51-12.213c0,0-3.235,9.313,2.119,16.229
			c5.353,6.914,2.209,10.426,2.209,10.426s16.974,0.281,21.1-11.207c0,0-1.003,5.466-2.229,7.473c0,0,16.573-5.799,20.89-17.176
			c4.315-11.376-3.757-24.695-8.789-26.488c-5.033-1.793-13.217-15.391-11.711-19.071
			C1616.179,470.381,1601.938,459.655,1601.938,459.655z"/>
		<path style="fill:#F99746;" d="M1727.335,613.977c-14.307,2.102-20.103,10.586-20.103,10.586s-1.23-18,1.139-29.188
			c0.815-3.909,2.088-6.987,3.988-8.164c0.869-0.536,2.248-0.536,3.975-0.135c0.188,0.04,0.375,0.095,0.575,0.148
			C1718.008,589.057,1722.303,596.819,1727.335,613.977z"/>
		<g>
			<path style="fill:#2B478B;" d="M1927.623,947.896c-25.478,1.329-42.891-38.205-53.623-38.726
				c-1.762-0.078-5.107,0.409-9.404,1.041c10.566,17.336,18.642,37.717,23.116,60.115c15.276,76.266-16.914,147.025-71.89,158.025
				c-53.469,10.699-108.81-39.08-125.835-112.001c-0.477-2.038-0.919-4.099-1.341-6.181c-4.453-22.243-4.862-44.009-1.85-63.97
				c0-0.056,0.012-0.122,0.022-0.177c-2.304,0.609-4.087,1.141-5.141,1.639c-9.714,4.619-10.556,47.798-34.593,56.383
				c-24.026,8.573-40.221-37.474-11.608-73.342c17.445-21.877,48.362-32.434,69.829-37.34c4.464-7.278,9.593-13.814,15.309-19.463
				c0.211-0.211,0.421-0.433,0.643-0.643c-15.773-8.529-27.771-23.749-31.569-42.713c-1.285-6.414-1.528-12.805-0.864-18.986
				c-0.055-0.011-0.1-0.033-0.155-0.044c-10.855-3.279-19.584-12.274-21.966-24.159c-3.434-17.17,7.698-33.885,24.879-37.318
				c12.43-2.492,24.624,2.659,31.714,12.207c4.774-2.35,9.925-4.132,15.397-5.228c4.851-0.965,9.682-1.352,14.41-1.186
				c3.002-11.332,12.186-20.548,24.447-23.007c17.181-3.434,33.885,7.698,37.33,24.879c2.249,11.266-1.771,22.342-9.648,29.587
				c3.235,5.683,5.639,11.974,6.99,18.73c3.589,17.901-0.864,35.536-10.855,49.183c8.972,3.091,17.679,7.722,25.931,13.669
				c21.534-4.12,56.737-7.466,82.812,6.868C1950.33,897.826,1953.101,946.555,1927.623,947.896z"/>
			<path style="fill:#233862;" d="M1689.987,1016.351c-0.477-2.038-0.919-4.099-1.341-6.181c-4.453-22.243-4.862-44.009-1.85-63.97
				c3.157-3.678,7.355-6.414,12.118-4.154c10.524,4.985,8.861,55.386,24.924,67.017
				C1735.746,1017.68,1705.972,1017.78,1689.987,1016.351z"/>
			<path style="fill:#233862;" d="M1751.077,865.892c-6.037,2.237-18.92,6.236-30.462,8.009c0.211-0.211,0.421-0.433,0.643-0.643
				c-15.773-8.529-27.771-23.749-31.569-42.713c-1.285-6.414-1.528-12.805-0.864-18.986c-0.055-0.011-0.1-0.033-0.155-0.044
				c0.631-0.255,1.44,0.133,2.493,1.617c4.01,5.683,25.665,51.651,59.915,46.391
				C1751.077,859.523,1760.027,862.568,1751.077,865.892z"/>
			<path style="fill:#233862;" d="M1767.316,759.829c0,0,8.03-14.954,19.938-11.077c11.907,3.877,13.569,21.046,5.815,25.754
				C1793.07,774.506,1781.528,763.827,1767.316,759.829z"/>
			<path style="fill:#233862;" d="M1711.377,768.57c0,0-17.17-7.91-24.924,1.228c-7.754,9.139,7.754,20.797,7.754,20.797
				S1701.685,775.096,1711.377,768.57z"/>
		</g>
		<g>
			<path style="fill:#FFB27D;" d="M1718.383,852.539l-5.533,20.481c0,0-19.426-7.076-29.445-10.874
				c-3.003-1.155-4.7-1.919-4.7-1.919c-8-3.128-17.522-7.142-27.906-11.465l-0.148-0.027c-17.712-7.788-37.483-16.864-53.891-25.948
				c-11.517-6.514-21.353-13.03-27.78-18.934c-0.66-0.578-1.172-1.131-1.807-1.858c-15.055-15.717-28.953-56.464-37.779-99.048
				c-1.231-5.882-2.315-11.736-3.426-17.442c-3.821-21.186-6.213-41.807-6.718-59.333c-0.402-10.472-0.225-19.925,0.844-27.532
				c0.333-2.691,0.639-5.234,1.216-7.58c8.056-42.897,30.453-44.969,30.453-44.969c0.471-0.068,0.942-0.137,1.562-0.176
				c3.81,0.075,7.206,3.288,10.322,8.9c3.938,6.98,7.479,17.868,10.791,30.854c4.991,20.632,9.41,46.973,13.263,73.057
				c2.157,14.307,4.166,28.588,6.361,41.831c1.154,8.01,2.389,15.573,3.58,22.52c2.345,13.27,4.672,24.09,7.225,31.129
				c1.62,4.574,7.391,11.582,15.247,19.73c13.64,14.24,34.108,32.163,52.072,47.029c7.438,6.239,14.511,11.952,20.386,16.685
				C1702.043,845.325,1718.383,852.539,1718.383,852.539z"/>
			<path style="fill:#F99746;" d="M1576.969,585.938c-28.51-13.404-55.705,5.062-55.705,5.062
				c8.253-43.539,31.756-45.458,31.756-45.458C1562.694,543.556,1570.417,560.567,1576.969,585.938z"/>
			<path style="fill:#FFB27D;" d="M1705.243,847.97c0,0,11.802,4.698,18.516,5.891c6.714,1.193,17.071-2.137,25.579,3.413
				c8.508,5.549,14.565,9.242,14.565,9.242s2.073,3.147-2.454,4.424c-2.579,0.727-15.626-7.528-16.181-5.326
				c-0.556,2.202,8.298,7.13,13.444,7.407c5.146,0.278,14.527,4.788,14.527,8.116c0,3.329-15.204,11.207-24.082,10.651
				c-8.878-0.555-27.122-16.204-31.736-17.315c-4.613-1.109-24.034-8.86-24.034-8.86L1705.243,847.97z"/>
		</g>
		<path style="fill:#233862;" d="M1537.333,1481.03h-100.169c0,0-2.401-15.267,2.831-26.849
			c5.013-11.113,13.799-16.615,11.919-30.062c6.364,6.554,15.115,12.866,29.597,10.917c1.774,2.877,12.144,19.748,18.07,24.007
			C1506.128,1463.748,1535.317,1462.072,1537.333,1481.03z"/>
	</g>
	<g id="man_1_">
		<g>
			<path style="fill:#2C3A64;" d="M2573.271,1389.219c0,0,19.403,17.983,15.617,30.762c-3.786,12.777-21.297,21.296-23.663,36.914
				c-2.366,15.617-11.831,24.136-20.351,24.136c-8.518,0-40.611,0-40.611,0s-6.271-10.989,8.873-14.303
				c15.145-3.313,20.854-21.665,19.907-38.702s1.421-39.754,1.421-39.754l32.181-7.571L2573.271,1389.219z"/>
			<path style="fill:#2C3A64;" d="M2331.44,1479.28c-1.484,0.746-5.822,1.312-11.956,1.746h-98.22
				c0.46-3.148,3.026-12.193,17.417-14.53c16.958-2.746,46.354-12.611,52.915-34.301c0.205-0.705,0.394-1.419,0.558-2.141
				c5.207-23.189,43.066,7.102,43.066,7.102s0.114,0.927,0.278,2.501C2336.377,1448.161,2338.624,1475.681,2331.44,1479.28z"/>
			<path style="fill:#35488B;" d="M2243.182,859.021c0,0,5.75,71.741,12.508,157.978c9.186,117.146,20.231,261.04,21.326,288.299
				c1.888,47.335,9.469,123.052,9.469,123.052s17.975,17.988,53.951,10.407c0,0,32.059-108.087,41.216-222.45
				c0.142-1.874,0.284-3.762,0.427-5.65c8.518-116.421,21.765-361.572,21.765-361.572L2243.182,859.021z"/>
			<path style="fill:#2C3A64;" d="M2243.182,859.021c0,0,5.75,71.741,12.508,157.978l125.962,199.308
				c0.142-1.874,0.284-3.762,0.427-5.65c8.518-116.421,21.765-361.572,21.765-361.572L2243.182,859.021z"/>
			<path style="fill:#35488B;" d="M2269.44,867.541c0,0,103.643,259.818,171.792,381.919
				c68.149,122.1,89.445,156.175,89.445,156.175s39.044-15.618,42.594-26.267c0,0-26.061-235.721-71.699-293.183
				c-25.787-32.469-56.081-129.908-57.5-163.983c-1.42-34.074-9.229-101.514-9.229-101.514L2269.44,867.541z"/>
		</g>
		<path style="fill:#FFB27D;" d="M2066.042,831.582c0,0-36.572,17.555-41.497,22.061c-4.924,4.505-17.072,26.624-16.139,28.292
			c0.932,1.667,2.752,2.183,6.068-0.109c3.314-2.293,12.617-11.873,12.959-10.094c0.342,1.778-24.828,31.398-20.377,37.666
			c4.451,6.268,29.686,4.416,44.095-5.833c14.41-10.247,28.793-47.918,30.96-49.975
			C2100.484,836.146,2066.042,831.582,2066.042,831.582z"/>
		<path style="fill:#ED7D2B;" d="M2064.395,850.393c-10.153-8.834-10.42-11.07-10.42-11.07s64.854-112.147,70.476-122.932
			c5.622-10.786,40.379-179.212,40.379-179.212l120.163-34.839c0,0-84.641,218.861-99.422,245.909
			c-24.427,44.697-104.168,110.48-104.168,110.48S2072.371,857.33,2064.395,850.393z"/>
		<path style="fill:#FFB27D;" d="M2223.783,458.512c0,0-42.289,74.403-83.623,84.115c0,0,1.722-24.989,11.785-42.089
			c-4.121-4.861-7.74-9.327-10.873-13.323c-10.405-13.333-15.352-21.495-15.352-21.495l14.027-37.712l9.52-25.589
			c4.573,8.304,9.617,15.381,14.873,21.432C2191.23,454.996,2223.783,458.512,2223.783,458.512z"/>
		<path style="fill:#ED975D;" d="M2164.141,423.851c0,0,5.046,37.286-23.068,63.364c-10.405-13.333-15.352-21.495-15.352-21.495
			l14.027-37.712C2154.79,423.424,2164.141,423.851,2164.141,423.851z"/>
		<path style="fill:#FFB27D;" d="M2114.576,471.218c0,0,63.184-24.632,47.238-63.743s-18.529-68.631-59.544-54.558
			c-41.016,14.073-42.72,32.174-40.573,46.523C2063.845,413.788,2097.729,476.618,2114.576,471.218z"/>
		<path style="fill:#F99746;" d="M2440.964,840.325c-25.479,36.638-216.059,85.599-213.781,60.245
			c0.86-9.717,2.024-26.82-0.024-50.023c-0.482-5.439-1.164-11.209-2.025-17.281c-4.857-33.35-16.344-76.187-42.002-125.805
			c-1.923-3.719-3.922-7.464-5.996-11.26c-10.577-19.204-19.56-39.496-26.416-59.359c-13.208-38.155-18.547-74.668-11.867-98.527
			c0.025-0.127,0.051-0.228,0.102-0.329c39.826-18.42,55.26-89.849,55.26-89.849s135.9,24.392,212.036,205.531
			c0,0,7.312,19.889,15.662,46.886c10.146,32.741,21.836,75.908,23.86,106.701C2446.758,821.88,2445.543,833.722,2440.964,840.325z"
			/>
		<path style="fill:#2B478B;" d="M2170.885,334.822c0.441-0.874,1.728-1.809,4.865-2.769c0,0-2.939-0.988-6.361-0.236
			c-1.771-4.328-6.084-11.699-14.172-11.757c0,0,4.636,1.207,6.348,5.852c-11.083-7.025-31.627-9.065-82.911,8.017
			c-67.588,22.513-33.819,61.749-23.577,64.895c10.244,3.146,29.103-17.042,46.064-19.798c16.961-2.757,26.137,20.871,32.604,22.83
			c6.467,1.959,2.79-3.416,9.56-8.801c6.771-5.385,10.661,7.283,10.514,16.179c-0.146,8.897,13.056,17.329,13.056,17.329
			s0,0,7.744-14.204c7.743-14.204,5.637-65.769-1.762-75.05C2172.202,336.489,2171.551,335.656,2170.885,334.822z"/>
		<path style="fill:#ED7D2B;" d="M2445.771,807.255c-163.985-49.466-190.072-244.979-190.072-244.979s93.365,71.354,166.212,138.278
			C2432.058,733.295,2443.747,776.462,2445.771,807.255z"/>
		<path style="fill:#FFB27D;" d="M2490.731,813.674c0,0-3.698,31.024-2.804,36.086c0.895,5.063,6.801,20.123,8.27,20.206
			c1.469,0.082,5.929,0.263,5.809-2.84c-0.12-3.103-2.135-6.001-0.837-5.487c1.298,0.512,1.671,12.223,7.584,11.919
			s23.323-6.866,22.616-20.466c-0.708-13.601-19.253-38.513-19.693-40.771C2507.928,793.171,2490.731,813.674,2490.731,813.674z"/>
		<path style="fill:#F99746;" d="M2500.555,818.908c-13.01,5.961-17.84-0.119-17.84-0.119s-75.783-126.545-83.765-136.722
			c-7.982-10.177-147.877-70.21-147.877-70.21s-56.935-21.764-59.185-56.3c-1.955-30.011,15.082-48.448,33.741-59.569
			c22.235-13.253,50.367-11.303,70.812,4.574c45.891,35.639,136.863,107.327,151.504,126.767
			c32.584,43.267,68.701,178.888,68.701,178.888S2510.773,814.225,2500.555,818.908z"/>
		<g>
			<path style="fill:#4A75CB;" d="M2174.799,904.721l-34.106,34.077l-0.473-0.297l-51.189-32.112c0,0,26.489,8.553,30.072,7.554
				c3.376-0.942,40.382-13.657,49.104-12.599c0.534,0.065,0.964,0.183,1.271,0.356
				C2174.799,904.721,2174.799,904.721,2174.799,904.721z"/>
			<path style="fill:#E58638;" d="M2139.152,948.05c-1.369-0.297-5.43-1.26-10.958-2.675c-15.894-4.07-43.918-11.875-54.983-18.277
				c-9.926-5.743-62.371-36.236-98.503-57.656c14.413-7.706,28.634-8.791,40.554-7.294c42.183,24.763,97.294,57.267,104.038,62.009
				c11.095,7.805,26.215,17.243,26.215,17.243s-0.057,0.429-0.217,1.072C2144.785,944.567,2143.213,948.923,2139.152,948.05z"/>
			<path style="fill:#739AF0;" d="M2139.152,948.05c-1.369-0.297-5.43-1.26-10.958-2.675c-15.894-4.07-43.918-11.875-54.983-18.277
				c-9.926-5.743-62.371-36.236-98.503-57.656c-18.144-10.753-32.174-19.222-34.639-21.116c-7.37-5.667-21.563-19.835-18.074-22.507
				c3.493-2.674,10.299,0.017,12.858-0.379c0.035-0.006,0.071-0.01,0.109-0.018c0.6-0.092,1.589-0.248,2.953-0.33
				c4.874-0.289,14.536,0.384,28.297,8.328c0,0,21.834,12.752,49.049,28.728c42.183,24.763,97.294,57.267,104.038,62.009
				c11.095,7.805,26.215,17.243,26.215,17.243s-0.057,0.429-0.217,1.072C2144.785,944.567,2143.213,948.923,2139.152,948.05z"/>
			<path style="fill:#4A75CB;" d="M2139.152,948.048c-1.369-0.294-5.43-1.257-10.956-2.673c0.718-6.304-3.69-11.324-3.69-11.324
				l20.793,8.421C2144.785,944.565,2143.214,948.924,2139.152,948.048z"/>
			<g style="opacity:0.5;">
				<g>
					<path style="fill:#4A75CB;" d="M2094.096,921.26L2094.096,921.26c-0.323-0.191-0.433-0.613-0.241-0.938l0.369-0.623
						c0.191-0.324,0.614-0.433,0.938-0.241l0,0c0.323,0.191,0.433,0.613,0.241,0.938l-0.369,0.623
						C2094.842,921.343,2094.42,921.451,2094.096,921.26z"/>
					<path style="fill:#4A75CB;" d="M2091.058,919.463L2091.058,919.463c-0.324-0.191-0.433-0.613-0.241-0.936l0.369-0.624
						c0.191-0.323,0.613-0.432,0.938-0.24l0,0c0.323,0.191,0.432,0.613,0.24,0.938l-0.369,0.623
						C2091.803,919.547,2091.381,919.654,2091.058,919.463z"/>
					<path style="fill:#4A75CB;" d="M2088.019,917.667L2088.019,917.667c-0.324-0.191-0.433-0.612-0.241-0.936l0.369-0.624
						c0.191-0.323,0.613-0.433,0.938-0.241l0,0c0.324,0.191,0.432,0.613,0.24,0.938l-0.369,0.624
						C2088.764,917.75,2088.343,917.859,2088.019,917.667z"/>
					<path style="fill:#4A75CB;" d="M2084.979,915.871L2084.979,915.871c-0.323-0.19-0.432-0.612-0.24-0.937l0.368-0.624
						c0.191-0.324,0.613-0.433,0.938-0.241l0,0c0.324,0.192,0.432,0.613,0.241,0.938l-0.368,0.624
						C2085.727,915.954,2085.304,916.063,2084.979,915.871z"/>
					<path style="fill:#4A75CB;" d="M2081.941,914.076L2081.941,914.076c-0.323-0.192-0.433-0.613-0.24-0.938l0.368-0.624
						c0.191-0.323,0.614-0.432,0.938-0.24l0,0c0.324,0.191,0.433,0.614,0.241,0.938l-0.369,0.624
						C2082.688,914.158,2082.266,914.268,2081.941,914.076z"/>
					<path style="fill:#4A75CB;" d="M2078.903,912.279L2078.903,912.279c-0.324-0.191-0.433-0.613-0.241-0.938l0.369-0.623
						c0.191-0.324,0.613-0.433,0.938-0.241l0,0c0.323,0.191,0.432,0.613,0.24,0.938l-0.369,0.624
						C2079.648,912.362,2079.227,912.471,2078.903,912.279z"/>
					<path style="fill:#4A75CB;" d="M2075.864,910.483L2075.864,910.483c-0.323-0.191-0.432-0.613-0.241-0.938l0.369-0.624
						c0.191-0.323,0.613-0.432,0.938-0.24l0,0c0.324,0.191,0.432,0.613,0.24,0.938l-0.367,0.623
						C2076.609,910.566,2076.188,910.675,2075.864,910.483z"/>
					<path style="fill:#4A75CB;" d="M2072.826,908.688L2072.826,908.688c-0.324-0.191-0.433-0.613-0.241-0.938l0.368-0.623
						c0.191-0.324,0.613-0.433,0.938-0.241l0,0c0.323,0.191,0.433,0.613,0.241,0.937l-0.369,0.624
						C2073.572,908.771,2073.149,908.879,2072.826,908.688z"/>
					<path style="fill:#4A75CB;" d="M2069.787,906.891L2069.787,906.891c-0.323-0.191-0.432-0.613-0.24-0.937l0.369-0.624
						c0.19-0.324,0.613-0.432,0.937-0.24l0,0c0.324,0.192,0.433,0.613,0.241,0.937l-0.369,0.624
						C2070.533,906.975,2070.111,907.082,2069.787,906.891z"/>
				</g>
				<g>
					<path style="fill:#4A75CB;" d="M2033.983,885.727L2033.983,885.727c-0.324-0.191-0.433-0.613-0.241-0.938l0.369-0.624
						c0.191-0.324,0.613-0.432,0.938-0.24l0,0c0.324,0.191,0.432,0.613,0.24,0.937l-0.369,0.624
						C2034.729,885.81,2034.308,885.919,2033.983,885.727z"/>
					<path style="fill:#4A75CB;" d="M2030.944,883.932L2030.944,883.932c-0.323-0.191-0.433-0.614-0.24-0.938l0.368-0.624
						c0.191-0.324,0.613-0.433,0.938-0.241l0,0c0.324,0.191,0.432,0.614,0.24,0.938l-0.367,0.624
						C2031.691,884.015,2031.27,884.123,2030.944,883.932z"/>
					<path style="fill:#4A75CB;" d="M2027.906,882.135L2027.906,882.135c-0.323-0.191-0.432-0.613-0.24-0.937l0.369-0.624
						c0.191-0.324,0.613-0.433,0.937-0.241l0,0c0.323,0.191,0.433,0.613,0.241,0.938l-0.369,0.623
						C2028.652,882.219,2028.23,882.326,2027.906,882.135z"/>
					<path style="fill:#4A75CB;" d="M2024.868,880.339L2024.868,880.339c-0.324-0.191-0.433-0.613-0.241-0.937l0.369-0.624
						c0.191-0.324,0.613-0.433,0.937-0.241l0,0c0.324,0.191,0.433,0.613,0.241,0.938l-0.369,0.624
						C2025.613,880.422,2025.191,880.53,2024.868,880.339z"/>
					<path style="fill:#4A75CB;" d="M2021.829,878.543L2021.829,878.543c-0.324-0.191-0.433-0.613-0.241-0.938l0.369-0.623
						c0.191-0.324,0.613-0.433,0.938-0.241l0,0c0.324,0.191,0.432,0.613,0.24,0.938l-0.369,0.624
						C2022.574,878.626,2022.153,878.734,2021.829,878.543z"/>
					<path style="fill:#4A75CB;" d="M2018.79,876.746L2018.79,876.746c-0.323-0.191-0.431-0.612-0.24-0.937l0.368-0.624
						c0.191-0.323,0.613-0.432,0.938-0.24l0,0c0.324,0.191,0.433,0.613,0.241,0.938l-0.368,0.623
						C2019.537,876.83,2019.115,876.938,2018.79,876.746z"/>
					<path style="fill:#4A75CB;" d="M2015.752,874.951L2015.752,874.951c-0.323-0.192-0.432-0.613-0.24-0.938l0.369-0.624
						c0.191-0.323,0.613-0.433,0.937-0.24l0,0c0.324,0.191,0.433,0.612,0.241,0.936l-0.369,0.624
						C2016.498,875.033,2016.076,875.143,2015.752,874.951z"/>
					<path style="fill:#4A75CB;" d="M2012.714,873.155L2012.714,873.155c-0.324-0.191-0.433-0.613-0.241-0.938l0.369-0.623
						c0.191-0.324,0.613-0.432,0.938-0.24l0,0c0.323,0.191,0.432,0.612,0.24,0.936l-0.369,0.624
						C2013.459,873.237,2013.037,873.347,2012.714,873.155z"/>
					<path style="fill:#4A75CB;" d="M2009.675,871.359L2009.675,871.359c-0.323-0.191-0.433-0.614-0.241-0.938l0.369-0.624
						c0.191-0.323,0.613-0.432,0.938-0.24l0,0c0.324,0.191,0.432,0.614,0.24,0.938l-0.367,0.624
						C2010.42,871.442,2010,871.551,2009.675,871.359z"/>
				</g>
				<g>
					<path style="fill:#4A75CB;" d="M1997.916,864.408L1997.916,864.408c-0.323-0.191-0.432-0.613-0.24-0.938l0.369-0.623
						c0.191-0.324,0.613-0.433,0.937-0.241l0,0c0.324,0.192,0.433,0.613,0.241,0.937l-0.369,0.624
						C1998.662,864.491,1998.24,864.6,1997.916,864.408z"/>
					<path style="fill:#4A75CB;" d="M2003.858,867.92L2003.858,867.92c-0.325-0.191-0.433-0.613-0.241-0.938l0.368-0.623
						c0.191-0.324,0.613-0.432,0.938-0.24l0,0c0.322,0.191,0.432,0.613,0.24,0.937l-0.369,0.624
						C2004.604,868.004,2004.182,868.111,2003.858,867.92z"/>
					<path style="fill:#4A75CB;" d="M1994.878,862.612L1994.878,862.612c-0.324-0.191-0.433-0.614-0.241-0.938l0.369-0.624
						c0.191-0.324,0.613-0.432,0.938-0.24l0,0c0.323,0.192,0.432,0.613,0.241,0.938l-0.37,0.623
						C1995.624,862.695,1995.201,862.804,1994.878,862.612z"/>
					<path style="fill:#4A75CB;" d="M1991.84,860.815L1991.84,860.815c-0.324-0.19-0.434-0.613-0.24-0.937l0.367-0.624
						c0.191-0.324,0.614-0.433,0.938-0.241l0,0c0.324,0.191,0.433,0.613,0.241,0.938l-0.368,0.623
						C1992.586,860.899,1992.164,861.007,1991.84,860.815z"/>
					<path style="fill:#4A75CB;" d="M1988.801,859.019L1988.801,859.019c-0.324-0.191-0.432-0.612-0.24-0.936l0.367-0.624
						c0.191-0.323,0.614-0.433,0.938-0.241l0,0c0.324,0.191,0.433,0.613,0.241,0.938l-0.369,0.623
						C1989.547,859.104,1989.125,859.211,1988.801,859.019z"/>
					<path style="fill:#4A75CB;" d="M1985.762,857.224L1985.762,857.224c-0.323-0.191-0.432-0.612-0.24-0.936l0.369-0.624
						c0.191-0.323,0.613-0.433,0.937-0.241l0,0c0.324,0.192,0.433,0.613,0.241,0.938l-0.369,0.624
						C1986.508,857.307,1986.086,857.416,1985.762,857.224z"/>
					<path style="fill:#4A75CB;" d="M1982.725,855.428L1982.725,855.428c-0.325-0.191-0.434-0.613-0.242-0.938l0.369-0.623
						c0.191-0.324,0.613-0.433,0.938-0.24l0,0c0.324,0.191,0.433,0.612,0.241,0.936l-0.368,0.624
						C1983.47,855.511,1983.049,855.619,1982.725,855.428z"/>
					<path style="fill:#4A75CB;" d="M1979.686,853.631L1979.686,853.631c-0.324-0.191-0.434-0.612-0.24-0.937l0.367-0.624
						c0.191-0.323,0.614-0.433,0.938-0.24l0,0c0.324,0.191,0.433,0.613,0.241,0.938l-0.368,0.623
						C1980.432,853.715,1980.01,853.823,1979.686,853.631z"/>
					<path style="fill:#4A75CB;" d="M1976.646,851.836L1976.646,851.836c-0.323-0.191-0.432-0.613-0.24-0.938l0.369-0.624
						c0.191-0.323,0.613-0.433,0.937-0.24l0,0c0.323,0.191,0.433,0.613,0.241,0.937l-0.369,0.624
						C1977.393,851.919,1976.971,852.027,1976.646,851.836z"/>
					<path style="fill:#4A75CB;" d="M1973.608,850.04L1973.608,850.04c-0.324-0.191-0.433-0.614-0.241-0.938l0.369-0.623
						c0.191-0.324,0.613-0.432,0.938-0.24l0,0c0.323,0.191,0.432,0.613,0.24,0.937l-0.369,0.624
						C1974.354,850.122,1973.932,850.231,1973.608,850.04z"/>
					<path style="fill:#4A75CB;" d="M1970.631,848.279L1970.631,848.279c-0.324-0.191-0.433-0.613-0.241-0.938l0.368-0.624
						c0.192-0.323,0.613-0.432,0.938-0.24l0,0c0.324,0.191,0.433,0.612,0.241,0.938l-0.369,0.624
						C1971.376,848.362,1970.954,848.471,1970.631,848.279z"/>
					<path style="fill:#4A75CB;" d="M1967.592,846.483L1967.592,846.483c-0.324-0.192-0.433-0.613-0.24-0.938l0.368-0.624
						c0.191-0.323,0.613-0.432,0.937-0.24l0,0c0.324,0.191,0.433,0.613,0.241,0.938l-0.368,0.623
						C1968.337,846.566,1967.916,846.675,1967.592,846.483z"/>
					<path style="fill:#4A75CB;" d="M1964.554,844.688L1964.554,844.688c-0.325-0.191-0.433-0.613-0.241-0.938l0.368-0.623
						c0.192-0.324,0.613-0.433,0.938-0.241l0,0c0.323,0.191,0.433,0.613,0.24,0.937l-0.368,0.624
						C1965.299,844.771,1964.877,844.879,1964.554,844.688z"/>
					<path style="fill:#4A75CB;" d="M1941.196,829.024c-0.285,0.357-0.763,0.48-1.177,0.333c-0.104-0.038-0.202-0.092-0.293-0.164
						l-4.764-3.772c0.6-0.092,1.589-0.248,2.953-0.33l3.11,2.462C1941.477,827.911,1941.555,828.571,1941.196,829.024z"/>
					<path style="fill:#4A75CB;" d="M2017.672,879.67l-0.924-0.546c-0.609-0.36-0.814-1.154-0.453-1.765l2.275-3.85
						c0.361-0.609,1.154-0.814,1.764-0.453l0.924,0.546c0.611,0.36,0.814,1.155,0.453,1.765l-2.275,3.85
						C2019.075,879.826,2018.281,880.03,2017.672,879.67z"/>
					<path style="fill:#4A75CB;" d="M2023.709,883.238l-0.924-0.546c-0.611-0.36-0.814-1.155-0.453-1.765l2.275-3.85
						c0.36-0.609,1.154-0.814,1.764-0.453l0.924,0.546c0.609,0.36,0.814,1.155,0.453,1.765l-2.275,3.85
						C2025.112,883.394,2024.318,883.599,2023.709,883.238z"/>
				</g>
				<g>
					<path style="fill:#4A75CB;" d="M2060.855,901.611L2060.855,901.611c-0.324-0.191-0.433-0.613-0.24-0.938l0.368-0.623
						c0.191-0.324,0.613-0.433,0.937-0.241l0,0c0.324,0.191,0.433,0.614,0.241,0.938l-0.368,0.624
						C2061.602,901.695,2061.18,901.803,2060.855,901.611z"/>
					<path style="fill:#4A75CB;" d="M2057.817,899.815L2057.817,899.815c-0.324-0.191-0.433-0.613-0.241-0.937l0.369-0.624
						c0.191-0.324,0.612-0.433,0.938-0.241l0,0c0.323,0.191,0.432,0.613,0.24,0.938l-0.369,0.623
						C2058.563,899.898,2058.142,900.007,2057.817,899.815z"/>
					<path style="fill:#4A75CB;" d="M2054.779,898.019L2054.779,898.019c-0.324-0.191-0.433-0.613-0.241-0.938l0.368-0.623
						c0.191-0.324,0.613-0.433,0.938-0.241l0,0c0.324,0.191,0.433,0.613,0.24,0.938l-0.368,0.623
						C2055.524,898.102,2055.103,898.211,2054.779,898.019z"/>
					<path style="fill:#4A75CB;" d="M2051.74,896.223L2051.74,896.223c-0.324-0.191-0.433-0.613-0.241-0.937l0.369-0.624
						c0.191-0.324,0.612-0.432,0.937-0.24l0,0c0.324,0.191,0.433,0.613,0.241,0.937l-0.368,0.624
						C2052.485,896.307,2052.064,896.414,2051.74,896.223z"/>
					<path style="fill:#4A75CB;" d="M2048.701,894.427L2048.701,894.427c-0.323-0.191-0.432-0.612-0.24-0.937l0.368-0.624
						c0.192-0.323,0.613-0.433,0.937-0.241l0,0c0.325,0.191,0.433,0.613,0.241,0.938l-0.368,0.623
						C2049.447,894.51,2049.025,894.618,2048.701,894.427z"/>
					<path style="fill:#4A75CB;" d="M2045.663,892.631L2045.663,892.631c-0.323-0.191-0.433-0.613-0.241-0.938l0.369-0.623
						c0.191-0.324,0.613-0.433,0.938-0.241l0,0c0.324,0.192,0.432,0.613,0.24,0.938l-0.369,0.624
						C2046.408,892.714,2045.987,892.823,2045.663,892.631z"/>
					<path style="fill:#4A75CB;" d="M2042.625,890.835L2042.625,890.835c-0.324-0.191-0.433-0.612-0.241-0.938l0.368-0.624
						c0.191-0.323,0.613-0.432,0.938-0.24l0,0c0.324,0.191,0.433,0.613,0.24,0.938l-0.368,0.624
						C2043.37,890.918,2042.948,891.027,2042.625,890.835z"/>
					<path style="fill:#4A75CB;" d="M2039.586,889.039L2039.586,889.039c-0.324-0.191-0.433-0.613-0.241-0.938l0.369-0.624
						c0.191-0.323,0.613-0.433,0.937-0.241l0,0c0.324,0.192,0.433,0.613,0.241,0.938l-0.368,0.624
						C2040.331,889.122,2039.91,889.231,2039.586,889.039z"/>
					<path style="fill:#4A75CB;" d="M2036.547,887.243L2036.547,887.243c-0.323-0.192-0.432-0.613-0.24-0.938l0.368-0.624
						c0.192-0.323,0.613-0.433,0.937-0.24l0,0c0.324,0.191,0.434,0.612,0.242,0.938l-0.369,0.623
						C2037.293,887.326,2036.871,887.435,2036.547,887.243z"/>
				</g>
			</g>
			<path style="fill:#2B478B;" d="M2017.843,895.755c2.042,0.367,3.585-1.826,2.554-3.626c-1.032-1.799-2.611-3.882-4.849-5.174
				c-4.601-2.657-5.964,5.764-4.466,6.711C2011.963,894.225,2015.125,895.267,2017.843,895.755z"/>
			<path style="fill:#2B478B;" d="M2017.39,885.738l-5.652,9.563c0,0-5.622-1.142-13.309-5.436
				c-4.704-2.629-7.539-5.063-9.029-6.554c-0.945-0.946-1.351-1.514-1.351-1.514l5.926-10.025c0.57-0.066,1.277,0.033,2.09,0.263
				c6.729,1.908,20.546,12.806,20.546,12.806L2017.39,885.738z"/>
			<path style="fill:#4A75CB;" d="M1996.064,872.035l-6.665,11.276c-0.945-0.946-1.351-1.514-1.351-1.514l5.926-10.025
				C1994.545,871.706,1995.252,871.806,1996.064,872.035z"/>
			<path style="fill:#2B478B;" d="M2124.753,932.367c0.276-0.102,19.81,4.313,30.427,12.085l-13.426-0.206l-17.248-10.195
				C2124.506,934.051,2123.369,932.88,2124.753,932.367z"/>
			<g>
				<path style="fill:#4A75CB;" d="M2084.887,893.467c0,0-12.085,8.316-14.186,9.444c-2.101,1.128-5.471,0.818-5.471,0.818
					l-0.02-0.004l-20.786-3.504c0,0-22.157-12.94-26.927-15.876l-0.001-0.001c-0.432-0.267-0.722-0.452-0.839-0.535
					c-1.396-1.013-1.861-1.911-1.385-2.191c0.477-0.278,36.918,14.218,40.941,15.848c0.038,0.016,0.077,0.03,0.114,0.047
					c3.925,1.567,4.714,0.75,4.714,0.75l20.093-5.517c0.289-0.144,0.671-0.168,1.079-0.127
					C2083.43,892.746,2084.887,893.467,2084.887,893.467z"/>
				<path style="fill:#4A75CB;" d="M2082.215,892.619c-5.496,1.69-20.687,6.329-22.01,6.498
					c-1.424,0.183-34.561-11.831-42.707-14.771l-0.001-0.001c-0.432-0.267-0.722-0.452-0.839-0.535
					c-1.396-1.013-1.861-1.911-1.385-2.191c0.477-0.278,36.918,14.218,40.941,15.848c4.023,1.631,4.828,0.797,4.828,0.797
					l20.093-5.517C2081.425,892.602,2081.807,892.578,2082.215,892.619z"/>
				<path style="fill:#4A75CB;" d="M2084.887,893.467c0,0-12.085,8.316-14.186,9.444c-2.101,1.128-5.471,0.818-5.471,0.818
					l-0.02-0.004c-3.933-2.085-6.963-4.488-8.882-6.213c3.925,1.567,4.714,0.75,4.714,0.75l20.093-5.517
					c0.289-0.144,0.671-0.168,1.079-0.127C2083.43,892.746,2084.887,893.467,2084.887,893.467z"/>
			</g>
			<path style="fill:#739AF0;" d="M2141.158,939.003l-52.128-32.614c0,0,26.915,8.781,30.54,7.804
				c3.415-0.921,40.835-13.413,49.684-12.287c-10.053,4.062-33.633,14.118-35.264,19.694
				C2132.438,926.91,2138.168,935.173,2141.158,939.003z"/>
		</g>
	</g>
	<g>
		<path style="fill:#2C3A64;" d="M889.31,304.716c-0.105-2.88-2.335-33.919-49.613-35.541c0,0,23.25,2.771,27.267,12.993
			c0,0-15.83-12.629-28.722-8.567s-20.464,26.648-20.539,34.077c-0.076,7.429,7.086,31.376,15.268,33.412
			c3.1,0.772,6.669,0.565,9.91,0.013c-2.178,3.398-4.311,7.149-6.351,11.336c-18.864,38.726,0.591,76.571,16.562,72.391
			c10.243-2.682,13.141,14.796,13.141,14.796l99.513-80.563C965.745,359.061,929.194,283.43,889.31,304.716z"/>
		<path style="fill:#2B478B;" d="M923.958,1445.584l-21.138,7.871c0,0-91.81-127.335-103.113-239.368
			c-2.018-20-1.346-39.381,3.02-57.276c0,0-0.897-5.125-2.467-14.185c-0.726-4.229-1.622-9.318-2.64-15.152
			c-2.986-17.102-7.094-40.502-11.788-67.147c-10.803-61.314-24.799-139.695-35.67-197.316l5.695-1.83l61.625-19.88l12.735-40.45
			l45.887-12.08c0,0,10.251,20.053,19.414,114.777c1.691,12.424,3.227,26.127,4.384,40.985c3.572,45.351,3.83,101.609-4.366,165.927
			c-2.106,16.463-4.763,33.461-8.059,50.926c-2.416,12.804-2.778,30.251-1.76,50.286
			C890.342,1303.254,923.958,1445.584,923.958,1445.584z"/>
		<path style="fill:#233862;" d="M899.902,944.532l-99.642,198.094c-0.726-4.229-1.622-9.318-2.64-15.152
			c-2.986-17.102-7.094-40.502-11.788-67.147c-10.803-61.314-24.799-139.695-35.67-197.316l5.695-1.83l61.625-19.88l12.735-40.45
			l45.887-12.08c0,0,10.251,20.053,19.414,114.777C897.21,915.971,898.746,929.674,899.902,944.532z"/>
		<path style="fill:#2B478B;" d="M856.067,814.191l-2.307-19.781c-38.646,10.265-141.899-28.683-141.899-28.683
			s-37.438,32.909-32.522,111.794c2.399,38.502,6.782,202.112,11.358,250.527c1.654,17.547,3.103,30.034,3.695,35.021
			c0.012,0.024,0.012,0.036,0.012,0.049c0.182,1.521-0.35,2.959-1.123,4.287c-6.738,11.437-12.317,23.344-16.895,35.529
			c-44.925,119.715,6.92,267.145,6.92,267.145l13.453-5.422c0,0,29.502-164.072,53.475-236.556
			c4.069-12.294,7.971-21.954,11.546-27.729c10.421-16.821,20.095-44.308,28.874-77c16.594-61.807,29.949-142.21,38.838-204.272
			C830.719,919.159,856.067,814.191,856.067,814.191z"/>
		<path style="fill:#ED985F;" d="M1160.521,788.922c-8.317,7.357-30.394-17.916-33.433-21.274c-0.159-0.32-0.319-0.481-0.319-0.481
			l6.719-18.717c0,0,28.953-1.118,33.751,3.679C1172.039,756.929,1169.639,781.084,1160.521,788.922z"/>
		<path style="fill:#ED985F;" d="M1133.488,748.45l-2.88,19.357c0,0-1.279,0-3.52-0.16c-7.038-0.481-24.153-1.44-43.509-3.522
			c-29.113-2.878-63.666-7.998-77.423-16.475c-20.954-12.795-55.347-51.987-77.741-91.179c-0.641-0.96-1.119-1.918-1.6-2.878
			c-11.678-20.797-19.836-41.433-20.475-57.907c-0.48-10.078,0.639-18.717,2.719-26.234c2.719-9.917,7.198-17.755,11.837-23.674
			c0.641-0.961,1.28-1.919,2.24-2.72c7.678-9.117,15.196-12.957,15.196-12.957c3.839-1.6,7.998,0.32,12.316,4.959v0.16
			c3.52,3.68,7.358,9.276,11.037,16.316c0.16,0.16,0.32,0.32,0.32,0.481c0.801,1.438,1.601,3.038,2.561,4.798
			c0.318,0.319,0.478,0.8,0.639,1.12c1.76,3.679,3.519,7.518,5.279,11.517c19.675,42.869,40.631,107.814,58.066,127.17
			c7.518,8.318,41.911,24.634,69.263,36.792C1117.492,742.054,1133.488,748.45,1133.488,748.45z"/>
		<path style="fill:#FFB27D;" d="M929.894,574.265c-12.132,5.626-26.783,9.457-44.506,10.424
			c-66.439,3.641-81.522-54.602-84.267-93.258c9.577-3.468,17.965-3.141,22.797-2.882c4.711,0.26,9.63,0.742,13.685,1.242
			c8.129-4.245,22.728-24.867,31.166-59.364l2.865,1.329l47.939,22.538c0,0-5.09,15.6-8.852,30.527
			c-2.935,11.683-5.04,22.97-3.279,26.127c3.779,1.536,6.04,2.502,6.04,2.502s0,0.018,0.017,0.053
			C913.983,514.727,924.406,541.286,929.894,574.265z"/>
		<path style="fill:#F99746;" d="M946.514,617.856c-0.501,1.329-1.054,2.623-1.657,3.953
			c-16.825,36.239-47.975,186.358-47.975,186.358c4.435,26.989-202.839-5.298-203.374-29.872
			c-7.3-26.059,25.903-67.924,44.628-88.927c2.346-2.639,4.452-5.469,6.281-8.455c4.624-7.489,7.559-15.946,8.49-24.781
			c3.677-34.836,2.277-67.484,2.588-87.335c0-0.002,0-0.002,0-0.004c3.659-2.708,7.197-5.211,10.493-7.593
			c5.038-3.676,9.491-7.109,12.771-10.595c3.607-3.797,5.867-7.68,6.125-12.063c0.19-3.314,0.087-6.714-0.258-10.113
			c-0.156-1.604-0.362-3.21-0.604-4.815c-2.589-16.86-9.63-32.15-9.63-32.15c17.827-7.213,49.528-2.916,49.528-2.916
			s-0.034,1.76-0.052,4.642c-0.104,11.58,0,41.314,3.71,46.939c4.643,7.007,89.564,37.707,94.052,28.198
			c4.417-9.354-7.68-53.17-8.129-54.825c-0.017-0.035-0.017-0.053-0.017-0.053c28.438,11.166,38.604,20.536,38.604,20.536
			C934.95,545.1,959.767,582.703,946.514,617.856z"/>
		<path style="fill:#ED985F;" d="M919.575,454.303c0,0-5.097,15.586-8.852,30.527c-28.021-7.817-36.531-37.273-39.093-53.064
			L919.575,454.303z"/>
		<path style="fill:#FFB27D;" d="M925.477,470.806c0,0-67.042-15.515-56.737-57.117c10.305-41.601,8.593-71.622,51.832-63.474
			c43.24,8.146,47.593,26.073,47.53,40.796C968.04,405.733,943.182,473.77,925.477,470.806z"/>
		<path style="fill:#2C3A64;" d="M971.873,367.392c-7.207-15.078-15.689-14.273-20.996-11.601
			c-31.501-29.145-62.398-5.335-62.398-5.335c-11.893,28.73-37.668,40.47-37.668,40.47s10.299,10.546,40.15,10.313
			c9.117-0.071,18.285-4.258,26.627-10.026c-16.09,16.206-34.956,26.072-34.956,26.072c37.366-7.151,62.424-50.411,64.99-55.006
			c3.165,4.675,9.22,14.626,9.73,23.028c0.692,11.419-3.236,33.594,3.303,34.435C960.655,419.742,982.682,390.005,971.873,367.392z"
			/>
		<path style="fill:#F99746;" d="M952.094,533.979c0,0,16.143,28.158,18.557,35.405c0,0-20.932-0.806-29.385,15.296
			C941.266,584.681,939.239,537.774,952.094,533.979z"/>
		<path style="fill:#ED7D2B;" d="M841.072,757.725c-40.882-0.433-75.5-42.884-96.656-76.812c4.624-7.489,7.559-15.946,8.49-24.781
			c3.677-34.836,2.277-67.484,2.588-87.335c0-0.002,0-0.002,0-0.004c3.659-2.708,7.197-5.211,10.493-7.593
			c5.038-3.676,9.491-7.109,12.771-10.595C812.235,607.19,896.502,758.31,841.072,757.725z"/>
		<path style="fill:#233862;" d="M761.523,1481.071H655.061c0,0-2.552-16.226,3.009-28.536c5.329-11.812,13.675-17.18,11.677-31.471
			c6.765,6.965,17.79,14.765,33.181,12.694c1.887,3.058,12.173,19.419,18.473,23.945
			C728.357,1462.703,759.381,1460.921,761.523,1481.071z"/>
		<path style="fill:#233862;" d="M990.108,1481.071H883.648c0,0-3.979-16.98,3.01-28.536c6.187-10.223,3.814-16.047-0.768-24.504
			c4.823,1.974,11.063,3.77,17.932,3.377c5.304-0.306,10.913-2.713,15.832-5.57c4.582,5.225,24.202,27.461,30.333,31.866
			C956.943,1462.703,987.966,1460.921,990.108,1481.071z"/>
		<g>
			<polygon style="fill:#233862;" points="1082.205,695.406 978.616,830.154 987.038,836.05 1091.896,701.302 			"/>
			<polygon style="fill:#2B478B;" points="1091.896,701.302 1197.021,701.302 1086.977,836.05 987.038,836.05 			"/>
			<polygon style="fill:#CCDFED;" points="1082.205,695.406 1186.635,695.406 1192.529,701.302 1091.896,701.302 			"/>
			<polygon style="fill:#2B478B;" points="1084.983,697.097 1188.529,697.097 1190.213,695.406 1082.205,695.406 			"/>
		</g>
		<path style="fill:#FFB27D;" d="M1070.273,783.074c-0.292-5.362-7.363-5.116-12.734-5.142c-8.811-0.042-22.708-0.645-30.747-3.726
			c0,0,25.673-0.366,20.217-8.479c-0.994-1.477-13.755-0.358-28.003-0.358c-5.842,0-20.283,8.006-19.538,8.378
			c-10.322-1.364-19.709-3.364-22.743-4.02l0,0c-7.039-3.839-15.517-8.479-24.474-13.599c-21.596-12.155-46.39-27.032-63.346-39.35
			c-9.758-7.038-17.116-13.276-19.675-17.756c-3.999-6.879-8.479-17.756-13.438-31.191c-2.559-7.039-5.278-14.717-7.998-22.875
			c-4.799-13.438-9.598-27.994-14.557-42.549c-8.957-26.555-18.556-53.27-27.673-73.905c-5.918-12.956-11.678-23.674-17.116-30.232
			c-4.319-5.279-8.479-7.998-12.478-7.357c-0.64,0.158-1.12,0.318-1.6,0.479c0,0-23.034,6.398-23.354,52.786
			c-0.16,2.563,0,5.28,0.16,8.159c0.32,8.158,1.92,18.077,4.319,28.953c3.839,18.236,10.237,39.351,18.235,60.788
			c2.239,5.757,4.478,11.677,6.879,17.594c17.275,42.871,39.511,82.862,58.226,96.456c0.801,0.641,1.44,1.121,2.239,1.602
			c7.838,4.96,19.356,9.918,32.632,14.556c18.876,6.401,41.271,12.157,61.267,16.957h0.16c11.677,2.559,22.394,4.96,31.352,6.719
			c0,0,1.471,0.366,4.088,0.887c0.375,0.074,0.771,0.152,1.191,0.232c8.478,2.079,25.913,6.559,42.391,12.957
			c23.035,9.117,39.979-2.218,47.668-10.237C1066.698,794.716,1070.54,787.969,1070.273,783.074z"/>
		<path style="fill:#F99746;" d="M805.509,528.569c-30.795-8.49-54.55,15.555-54.55,15.555c0.387-46.314,23.44-52.654,23.44-52.654
			C783.675,487.629,794.423,503.691,805.509,528.569z"/>
	</g>
	<g>
		<g>
			<path style="fill:#EFCDAF;" d="M1538.062,1095.406c-12.575-11.308-2.23-38.011-7.022-43.282c-0.789-0.86-2.587-2.199-4.898-3.916
				c-3.162,13.083-8.919,26.427-17.309,39.03c-28.552,42.935-76.793,61.057-107.737,40.47
				c-30.097-20.021-32.746-69.294-6.582-111.479c0.73-1.179,1.487-2.354,2.266-3.528c8.328-12.52,18.329-22.924,29.091-30.878
				c0.026-0.025,0.063-0.052,0.094-0.072c-1.366-0.793-2.451-1.38-3.179-1.638c-6.721-2.383-27.338,17.481-42.636,10.25
				c-15.287-7.229-1.32-36.418,28.901-39.845c18.432-2.093,37.88,7.433,50.25,15.185c5.502-1.324,10.97-1.989,16.297-1.962
				c0.196,0,0.4-0.006,0.602,0c-3.405-11.39-1.905-24.148,5.193-34.824c2.401-3.611,5.28-6.725,8.486-9.313
				c-0.021-0.031-0.031-0.063-0.052-0.094c-3.557-6.623-3.44-14.93,1.009-21.622c6.431-9.663,19.481-12.291,29.15-5.856
				c6.998,4.651,10.308,12.78,9.162,20.58c3.34,1.134,6.591,2.709,9.672,4.758c2.728,1.82,5.175,3.9,7.316,6.193
				c6.715-3.91,15.34-3.934,22.244,0.655c9.669,6.436,12.292,19.481,5.861,29.155c-4.221,6.338-11.295,9.651-18.383,9.362
				c-1.144,4.181-2.963,8.258-5.493,12.061c-6.699,10.08-17.048,16.268-28.127,17.991c2.763,5.651,4.679,11.901,5.765,18.558
				c12.032,8.151,30.114,23.069,35.636,42.006C1572.163,1082.552,1550.642,1106.709,1538.062,1095.406z"/>
			<path style="fill:#E2B99A;" d="M1394.513,1016.229c0.73-1.179,1.487-2.354,2.266-3.528c8.328-12.52,18.329-22.924,29.091-30.878
				c3.204-0.246,6.455,0.436,7.632,3.728c2.603,7.267-21.781,30.135-19.693,43.113
				C1415.358,1038.284,1401.342,1024.386,1394.513,1016.229z"/>
			<path style="fill:#E2B99A;" d="M1493.639,974.251c-3.88-1.777-11.797-5.935-18.042-10.509c0.196,0,0.4-0.006,0.602,0
				c-3.405-11.39-1.905-24.148,5.193-34.824c2.401-3.611,5.28-6.725,8.486-9.313c-0.021-0.031-0.031-0.063-0.052-0.094
				c0.416,0.176,0.613,0.736,0.412,1.926c-0.78,4.544-12.15,36.254,6.384,49.825
				C1496.622,971.263,1499.395,976.884,1493.639,974.251z"/>
			<path style="fill:#FFF3E9;" d="M1550.931,932.097c0,0,10.771-3.255,14.542,4.141c3.771,7.396-3.49,16.229-9.334,14.807
				C1556.139,951.044,1555.725,940.628,1550.931,932.097z"/>
			<path style="fill:#FFF3E9;" d="M1520.592,909.999c0,0-4.35-11.752-12.268-11.097c-7.918,0.656-6.102,13.389-6.102,13.389
				S1512.989,908.521,1520.592,909.999z"/>
		</g>
		<g>
			<g>
				<path style="fill:#AFCDFB;" d="M1276.611,1026.298c0,0-26.989-34.796-27.172-63.196c-0.184-28.4,0.643-37.827,5.383-36.547
					c4.742,1.281,26.064,17.115,33.728,32.887c7.662,15.771,21.126,57.034,21.406,62.646S1276.611,1026.298,1276.611,1026.298z"/>
				<path style="fill:#E57970;" d="M1278.086,1015.19c0,0-17.244-24.037-17.898-43.241c-0.651-19.204-0.324-25.56,2.613-24.604
					c2.938,0.956,16.34,12.066,21.348,22.874c5.009,10.808,14.066,38.96,14.346,42.759
					C1298.772,1016.775,1278.086,1015.19,1278.086,1015.19z"/>
			</g>
			<g>
				<path style="fill:#AFCDFB;" d="M1320.161,1011.775c0,0-12.941-47.129-7.829-59.961c5.111-12.833,31.619-4.263,34.625,4.783
					c3.006,9.047,1.154,47.243,1.154,47.243L1320.161,1011.775z"/>
				<path style="fill:#E57970;" d="M1323.601,957.589c0,0-1.871,37.352,4.661,51.887l12.559-3.565c0,0,1.949-41.705,0.273-44.523
					C1339.419,958.569,1323.601,957.589,1323.601,957.589z"/>
				<path style="fill:#AFCDFB;" d="M1311.6,954.491c0,0,43.52,28.804,47.033,25.764c3.515-3.041-9.725-32.28-14.856-34.898
					C1338.646,942.74,1311.286,937.34,1311.6,954.491z"/>
			</g>
		</g>
		<g>
			
				<rect x="1231.554" y="991.721" transform="matrix(-1 -1.224647e-16 1.224647e-16 -1 3056.4033 2472.6523)" style="fill:#D3671E;" width="593.296" height="489.211"/>
			<rect x="1528.198" y="991.722" style="fill:#F1A34F;" width="593.296" height="489.213"/>
			<polygon style="opacity:0.4;fill:#D86713;" points="2121.494,991.722 2121.494,1327.279 1528.198,1480.935 1528.198,991.722 			
				"/>
			<polygon style="fill:#F1A34F;" points="1528.201,991.721 1645.596,1120.438 2231.044,1120.438 2121.497,991.721 			"/>
			<polygon style="fill:#F1A34F;" points="1231.899,1356.866 1325.913,1356.866 1317.631,1330.411 1325.913,1311.508 
				1231.899,1311.508 			"/>
			<polygon style="opacity:0.4;fill:#D86713;" points="2121.623,1440.767 2027.611,1440.767 2035.892,1414.312 2027.611,1395.409 
				2121.623,1395.409 			"/>
			<polygon style="fill:#C95C12;" points="1528.201,1047.026 1403.143,1172.085 1231.899,1172.085 1231.899,991.721 
				1528.201,991.721 			"/>
			<polygon style="fill:#F1A34F;" points="1231.554,991.721 1098.164,1120.438 1394.998,1120.438 1528.201,991.721 			"/>
		</g>
		<g>
			<path style="fill:#F1A34F;" d="M1569.678,1278.198v-96.376h29.654c6.486,0,12.434,1.114,17.839,3.342
				c5.405,2.229,10.038,5.362,13.9,9.399c3.861,4.039,6.872,8.881,9.035,14.529c2.161,5.649,3.243,11.915,3.243,18.8v4.368
				c0,6.884-1.07,13.139-3.21,18.766c-2.141,5.627-5.163,10.458-9.068,14.495c-3.905,4.039-8.571,7.161-14,9.367
				c-5.428,2.207-11.408,3.31-17.938,3.31H1569.678z M1589.535,1197.906v64.34h9.599c7.854,0,13.833-2.593,17.938-7.779
				c4.104-5.184,6.156-12.586,6.156-22.206v-4.501c0-9.796-2.03-17.221-6.09-22.274c-4.06-5.053-9.995-7.579-17.806-7.579H1589.535z
				"/>
			<path style="fill:#F1A34F;" d="M1736.945,1232.194c0,7.37-0.992,13.978-2.979,19.824c-1.986,5.848-4.776,10.801-8.373,14.86
				c-3.597,4.061-7.91,7.182-12.94,9.366c-5.03,2.186-10.568,3.276-16.614,3.276s-11.584-1.091-16.615-3.276
				c-5.03-2.185-9.365-5.306-13.006-9.366c-3.642-4.06-6.477-9.013-8.506-14.86c-2.03-5.847-3.045-12.454-3.045-19.824v-4.236
				c0-7.325,1.004-13.923,3.012-19.791s4.82-10.856,8.439-14.96c3.618-4.104,7.943-7.248,12.974-9.433s10.568-3.277,16.614-3.277
				c6.045,0,11.584,1.093,16.614,3.277s9.354,5.328,12.974,9.433c3.617,4.104,6.432,9.092,8.439,14.96s3.012,12.466,3.012,19.791
				V1232.194z M1716.824,1227.826c0-10.105-1.811-17.784-5.429-23.035c-3.619-5.251-8.781-7.878-15.489-7.878
				s-11.87,2.627-15.489,7.878c-3.618,5.251-5.428,12.93-5.428,23.035v4.368c0,5.03,0.474,9.478,1.424,13.339
				c0.948,3.86,2.316,7.104,4.104,9.729c1.787,2.626,3.982,4.613,6.586,5.957c2.604,1.348,5.582,2.02,8.937,2.02
				c6.707,0,11.848-2.648,15.423-7.943c3.573-5.295,5.362-12.994,5.362-23.101V1227.826z"/>
			<path style="fill:#F1A34F;" d="M1829.748,1278.198h-19.857l-38.657-63.413v63.413h-19.857v-96.376h19.857l38.723,63.544v-63.544
				h19.792V1278.198z"/>
			<path style="fill:#F1A34F;" d="M1902.692,1258.34h-34.817l-6.619,19.858h-21.115l35.875-96.376h18.402l36.075,96.376h-21.116
				L1902.692,1258.34z M1873.236,1242.256h24.094l-12.112-36.075L1873.236,1242.256z"/>
			<path style="fill:#F1A34F;" d="M2004.099,1197.906h-29.522v80.292h-19.857v-80.292h-29.125v-16.084h78.505V1197.906z"/>
			<path style="fill:#F1A34F;" d="M2073.402,1236.431h-38.128v25.815h44.746v15.952h-64.603v-96.376h64.471v16.084h-44.614v22.969
				h38.128V1236.431z"/>
		</g>
	</g>
	<g>
		<g>
			<path style="fill:#CADDFF;" d="M1085.064,1352.059l-10.805,2.097c-12.818,2.493-25.342-5.963-27.826-18.78l-15.893-81.801
				c-2.265-11.689,4.54-23.109,15.455-26.934c-0.094-0.277-0.178-0.563-0.236-0.867l-0.935-4.809
				c-0.648-3.335,1.549-6.595,4.894-7.242l4.808-0.936c3.344-0.648,6.604,1.55,7.252,4.885l0.926,4.817
				c0.051,0.219,0.076,0.446,0.093,0.674c0,0.042,0.009,0.076,0.009,0.117c11.841-0.926,22.839,7.218,25.155,19.135l15.884,81.809
				C1106.338,1337.034,1097.883,1349.565,1085.064,1352.059z"/>
			
				<rect x="1036.371" y="1252.131" transform="matrix(0.9817 -0.1906 0.1906 0.9817 -224.6295 226.6478)" style="fill:#2B478B;" width="58.489" height="57.268"/>
			<path style="fill:#4A75CB;" d="M1062.797,1223.163l-16.801,3.478c-0.094-0.277-0.178-0.563-0.236-0.867l-0.935-4.809
				c-0.648-3.335,1.549-6.595,4.894-7.242l4.808-0.936c3.344-0.648,6.604,1.55,7.252,4.885l0.926,4.817
				C1062.755,1222.708,1062.78,1222.936,1062.797,1223.163z"/>
		</g>
		<g>
			<path style="fill:#F9DDBF;" d="M1376.18,1202.518c0,0-7.113,10.014-13.635,10.153s-16.443-4.642-16.443-4.642
				s-5.988-13.346-1.926-18.567c0,0,4.072-1.787,8.331,1.369c0.731,0.546,1.474,1.23,2.205,2.112
				c1.033,1.242,2.193,1.949,3.424,2.321c4.653,1.415,10.177-1.915,12.243,1.3c1.205,1.868,2.518,3.271,3.597,4.258
				C1375.252,1201.96,1376.18,1202.518,1376.18,1202.518z"/>
			<path style="fill:#F9DDBF;" d="M1283.441,1274.754c0,0,25.144-60.923,70.4-62.083c0,0,41.775,4.642,44.097,62.083H1283.441z"/>
			<path style="fill:#F1A34F;" d="M1341.443,1214.531c0,0,18.141,4.033,23.737,1.663c0,0,0.846-7.585-6.794-6.521
				c-5.229,0.728-8.635-1.785-10.638-2.804C1344.914,1205.426,1340.69,1211.357,1341.443,1214.531z"/>
			<path style="fill:#E5C1A1;" d="M1357.229,1203.097c-1.159,0.871-4.723-12.266-4.723-12.266c0.731,0.546,1.474,1.23,2.205,2.112
				c1.033,1.242,2.193,1.949,3.424,2.321C1358.147,1195.647,1358.355,1202.25,1357.229,1203.097z"/>
			<path style="fill:#E5C1A1;" d="M1373.976,1200.822c-0.255,0.151-8.646,5.176-9.782,5.176c-1.161,0,6.186-9.434,6.186-9.434
				C1371.584,1198.433,1372.896,1199.836,1373.976,1200.822z"/>
			<path style="fill:#E5C1A1;" d="M1308.004,1257.734c-0.464-0.397,17.794-26.883,22.822-27.077
				c5.029-0.192,16.326,5.803,24.507,6.576c8.18,0.773,16.109-1.547,17.656,3.288s5.802,21.978,3.19,24.721
				S1318.044,1266.312,1308.004,1257.734z"/>
		</g>
		<g>
			<path style="fill:#E57970;" d="M1096.113,1298.924c-0.691,1.359-1.692,2.456-2.88,3.251c-0.669,0.444-1.384,0.79-2.142,1.037
				c-2.106,0.688-4.467,0.574-6.584-0.501l-112.74-57.272c-4.234-2.152-5.938-7.371-3.786-11.606
				c1.076-2.117,2.915-3.601,5.022-4.288c2.106-0.687,4.467-0.573,6.584,0.502l112.739,57.272
				C1096.561,1289.469,1098.265,1294.689,1096.113,1298.924z"/>
			<polygon style="fill:#B64C41;" points="1009.152,1264.43 1002.045,1241.454 983.89,1232.231 994.834,1257.156 			"/>
			<polygon style="fill:#B64C41;" points="1036.686,1278.417 1022.367,1271.144 1011.424,1246.219 1029.579,1255.441 			"/>
			<polygon style="fill:#B64C41;" points="1064.196,1292.393 1049.871,1285.115 1038.927,1260.191 1057.089,1269.418 			"/>
			<path style="fill:#B64C41;" d="M1093.233,1302.175c-0.669,0.444-1.384,0.79-2.142,1.037c-2.106,0.688-4.467,0.574-6.584-0.501
				l-6.615-3.361l-10.944-24.924l18.155,9.224L1093.233,1302.175z"/>
			<path style="fill:#B64C41;" d="M967.981,1233.832c0,0-2.276-12.255-12.233-15.896c0,0,1.17,1.414-3.619,2.94
				c-4.79,1.525-3.398,4.83-5.102,6.325C947.026,1227.201,953.935,1236.379,967.981,1233.832z"/>
			<path style="fill:#4A75CB;" d="M966.051,1235.449l-0.266-0.135c-0.762-0.387-1.069-1.329-0.682-2.092l1.402-2.762
				c0.388-0.764,1.33-1.071,2.094-0.684l0.264,0.135c0.765,0.388,1.071,1.329,0.684,2.093l-1.404,2.762
				C967.756,1235.53,966.813,1235.837,966.051,1235.449z"/>
			<path style="fill:#B64C41;" d="M1095.644,1298.686c0,0,11.239-5.391,20.053,0.504c0,0-1.833-0.111-0.24,4.657
				c1.592,4.768-1.896,5.593-2.1,7.852C1113.356,1311.698,1101.87,1311.531,1095.644,1298.686z"/>
			<path style="fill:#4A75CB;" d="M1095.476,1301.198l0.266,0.135c0.762,0.388,1.704,0.08,2.093-0.684l1.402-2.762
				c0.388-0.763,0.081-1.705-0.683-2.093l-0.265-0.134c-0.763-0.388-1.706-0.081-2.094,0.682l-1.402,2.763
				C1094.405,1299.868,1094.713,1300.811,1095.476,1301.198z"/>
		</g>
		<g>
			<path style="fill:#F1A34F;" d="M1242.047,1299.81c-1.319,0.764-2.757,1.138-4.187,1.157c-0.802,0.007-1.59-0.092-2.36-0.298
				c-2.141-0.571-4.059-1.952-5.248-4.008l-63.328-109.452c-2.379-4.112-0.963-9.417,3.148-11.795
				c2.056-1.19,4.406-1.432,6.548-0.86c2.14,0.572,4.058,1.952,5.246,4.009l63.329,109.452
				C1247.574,1292.126,1246.158,1297.431,1242.047,1299.81z"/>
			<polygon style="fill:#F9DDBF;" points="1187.924,1223.503 1194.482,1200.365 1184.283,1182.739 1179.881,1209.602 			"/>
			<polygon style="fill:#F9DDBF;" points="1203.39,1250.234 1195.346,1236.332 1199.75,1209.47 1209.948,1227.097 			"/>
			<polygon style="fill:#F9DDBF;" points="1218.844,1276.942 1210.796,1263.035 1215.199,1236.172 1225.402,1253.805 			"/>
			<path style="fill:#F9DDBF;" d="M1237.86,1300.967c-0.802,0.007-1.59-0.092-2.36-0.298c-2.141-0.571-4.059-1.952-5.248-4.008
				l-3.716-6.423l4.404-26.861l10.197,17.626L1237.86,1300.967z"/>
			<path style="fill:#F1A34F;" d="M1170.072,1175.414c0,0,4.77-11.517-1.597-19.996c0,0,0.212,1.824-4.636,0.494
				c-4.849-1.331-5.481,2.197-7.727,2.523C1156.113,1158.436,1156.906,1169.896,1170.072,1175.414z"/>
			<path style="fill:#D3671E;" d="M1167.572,1175.718l-0.148-0.258c-0.43-0.74-0.173-1.697,0.567-2.126l2.683-1.552
				c0.74-0.429,1.697-0.174,2.126,0.567l0.148,0.258c0.429,0.74,0.174,1.697-0.567,2.127l-2.682,1.551
				C1168.958,1176.715,1168.001,1176.458,1167.572,1175.718z"/>
			<path style="fill:#F1A34F;" d="M1241.783,1299.354c0,0,12.36,1.604,16.539,11.35c0,0-1.477-1.092-2.739,3.773
				c-1.262,4.866-4.638,3.656-6.038,5.439C1249.545,1319.916,1240.005,1313.518,1241.783,1299.354z"/>
			<path style="fill:#D3671E;" d="M1240.273,1301.369l0.148,0.258c0.429,0.74,1.387,0.996,2.127,0.566l2.682-1.551
				c0.74-0.429,0.996-1.387,0.567-2.127l-0.149-0.257c-0.428-0.741-1.385-0.996-2.127-0.568l-2.681,1.552
				C1240.1,1299.671,1239.845,1300.628,1240.273,1301.369z"/>
		</g>
		<g>
			<path style="fill:#4A75CB;" d="M1037.104,1330.514c-1.348-0.712-2.428-1.73-3.204-2.931c-0.433-0.677-0.767-1.396-1.002-2.159
				c-0.653-2.116-0.502-4.475,0.607-6.574l59.082-111.803c2.219-4.2,7.465-5.818,11.665-3.6c2.1,1.11,3.553,2.974,4.206,5.09
				c0.653,2.117,0.502,4.477-0.607,6.576l-59.081,111.802C1046.551,1331.114,1041.304,1332.733,1037.104,1330.514z"/>
			<polygon style="fill:#699FF0;" points="1072.996,1244.121 1096.082,1237.384 1105.597,1219.38 1080.499,1229.922 			"/>
			<polygon style="fill:#699FF0;" points="1058.567,1271.425 1066.07,1257.226 1091.168,1246.685 1081.653,1264.689 			"/>
			<polygon style="fill:#699FF0;" points="1044.15,1298.708 1051.657,1284.5 1076.755,1273.96 1067.236,1291.971 			"/>
			<path style="fill:#699FF0;" d="M1033.9,1327.583c-0.433-0.677-0.767-1.396-1.002-2.159c-0.653-2.116-0.502-4.475,0.607-6.574
				l3.467-6.561l25.097-10.541l-9.514,18.004L1033.9,1327.583z"/>
			<path style="fill:#699FF0;" d="M1104.253,1203.447c0,0,12.29-2.078,16.091-11.976c0,0-1.433,1.147-2.881-3.666
				s-4.775-3.475-6.243-5.204C1111.22,1182.602,1101.933,1189.363,1104.253,1203.447z"/>
			<path style="fill:#4A75CB;" d="M1102.667,1201.491l0.139-0.263c0.4-0.757,1.347-1.049,2.104-0.648l2.738,1.447
				c0.757,0.4,1.05,1.347,0.649,2.104l-0.139,0.263c-0.4,0.757-1.347,1.049-2.104,0.648l-2.739-1.447
				C1102.559,1203.194,1102.267,1202.248,1102.667,1201.491z"/>
			<path style="fill:#4A75CB;" d="M1037.352,1330.048c0,0,5.207,11.325-0.828,20.043c0,0,0.141-1.831-4.652-0.315
				c-4.792,1.516-5.562-1.987-7.816-2.226C1024.055,1347.55,1024.407,1336.067,1037.352,1330.048z"/>
			<path style="fill:#4A75CB;" d="M1034.842,1329.841l-0.14,0.263c-0.399,0.757-0.107,1.703,0.649,2.104l2.739,1.447
				c0.756,0.4,1.703,0.107,2.104-0.649l0.139-0.263c0.399-0.756,0.107-1.703-0.649-2.104l-2.738-1.446
				C1036.188,1328.792,1035.242,1329.084,1034.842,1329.841z"/>
		</g>
		<g>
			<path style="fill:#B64C41;" d="M1155.143,1228.892c0,0,5.164,7.268,9.896,7.369c4.732,0.101,11.934-3.369,11.934-3.369
				s4.346-9.685,1.397-13.475c0,0-2.955-1.297-6.046,0.993c-0.531,0.396-1.069,0.894-1.601,1.533
				c-0.749,0.901-1.592,1.415-2.484,1.685c-3.377,1.027-7.386-1.39-8.885,0.943c-0.876,1.356-1.827,2.374-2.61,3.091
				C1155.817,1228.487,1155.143,1228.892,1155.143,1228.892z"/>
			<path style="fill:#B64C41;" d="M1222.447,1281.317c0,0-18.247-44.215-51.092-45.057c0,0-30.318,3.368-32.002,45.057H1222.447z"/>
			<path style="fill:#963333;" d="M1180.354,1237.61c0,0-13.165,2.928-17.227,1.208c0,0-0.614-5.506,4.93-4.733
				c3.795,0.528,6.267-1.295,7.72-2.035C1177.834,1231.003,1180.9,1235.308,1180.354,1237.61z"/>
			<path style="fill:#963333;" d="M1168.896,1229.313c0.842,0.632,3.428-8.902,3.428-8.902c-0.531,0.396-1.069,0.894-1.601,1.533
				c-0.749,0.901-1.592,1.415-2.484,1.685C1168.23,1223.906,1168.08,1228.698,1168.896,1229.313z"/>
			<path style="fill:#963333;" d="M1156.744,1227.662c0.185,0.109,6.273,3.756,7.1,3.756c0.842,0-4.489-6.847-4.489-6.847
				C1158.479,1225.928,1157.527,1226.945,1156.744,1227.662z"/>
			<path style="fill:#963333;" d="M1204.621,1268.965c0.338-0.288-12.913-19.51-16.563-19.65s-11.849,4.211-17.785,4.772
				c-5.936,0.562-11.691-1.123-12.813,2.386c-1.124,3.51-4.212,15.949-2.317,17.941
				C1157.038,1276.404,1197.335,1275.189,1204.621,1268.965z"/>
		</g>
		<g>
			<path style="fill:#CADDFF;" d="M1285.969,1231.253l0.004-0.001c-5.436,0.066-8.158-8.139-8.158-8.139l-52.917,16.02
				c2.373,5.799-1.462,10.268-1.462,10.268s-9.154,6.114-6.309,15.514l11.71,38.685c2.076,6.855,9.382,10.766,16.235,8.689
				l55.82-16.897c6.854-2.074,10.765-9.381,8.689-16.234l-11.711-38.686C1296.232,1235.06,1291.332,1231.497,1285.969,1231.253z"/>
			<g>
				<path style="fill:#963333;" d="M1219.609,1237.418l3.178,10.5c1.149,3.795,15.642,2.767,32.372-2.298
					c16.728-5.064,29.358-12.246,28.21-16.042l-3.179-10.499L1219.609,1237.418z"/>
				<path style="fill:#B64C41;" d="M1280.19,1219.079c1.149,3.795-11.48,10.977-28.211,16.041
					c-16.729,5.064-31.222,6.093-32.37,2.298c-1.149-3.795,11.48-10.978,28.21-16.042
					C1264.549,1216.313,1279.041,1215.283,1280.19,1219.079z"/>
			</g>
		</g>
		<g>
			<path style="fill:#B7D2F9;" d="M1143.992,1252.267l0.002,0.001c-3.796-1.84-2.839-8.481-2.839-8.481l-42.299-7.235
				c-0.364,4.85-4.577,6.622-4.577,6.622s-8.478,1.069-9.763,8.583l-5.289,30.922c-0.938,5.479,2.778,10.729,8.258,11.665
				l44.617,7.633c5.479,0.938,10.729-2.778,11.666-8.258l5.29-30.922C1149.799,1258.471,1147.632,1254.297,1143.992,1252.267z"/>
			<g>
				<path style="fill:#C95C12;" d="M1095.778,1233.525l-1.436,8.393c-0.519,3.034,9.901,7.348,23.273,9.635
					c13.372,2.288,24.634,1.683,25.152-1.351l1.436-8.394L1095.778,1233.525z"/>
				<path style="fill:#F1A34F;" d="M1144.204,1241.809c-0.519,3.035-11.78,3.64-25.152,1.352
					c-13.372-2.287-23.792-6.601-23.273-9.635c0.52-3.033,11.78-3.639,25.153-1.352
					C1134.304,1234.462,1144.723,1238.775,1144.204,1241.809z"/>
			</g>
		</g>
		<g>
			
				<rect x="1009.188" y="1264.817" transform="matrix(-1 -1.224647e-16 1.224647e-16 -1 2280.4727 2745.749)" style="fill:#D3671E;" width="262.096" height="216.114"/>
			
				<rect x="1140.236" y="1264.817" transform="matrix(-1 -1.224647e-16 1.224647e-16 -1 2542.5684 2745.749)" style="fill:#F1A34F;" width="262.096" height="216.114"/>
			<polygon style="opacity:0.4;fill:#D86713;" points="1140.236,1264.817 1403.008,1264.817 1403.008,1412.879 1140.236,1480.932 
							"/>
			<polygon style="fill:#F1A34F;" points="1140.236,1264.817 1192.098,1321.68 1450.726,1321.68 1402.332,1264.817 			"/>
			<polygon style="fill:#F1A34F;" points="1009.342,1426.124 1050.873,1426.124 1047.215,1414.438 1050.873,1406.087 
				1009.342,1406.087 			"/>
			<polygon style="fill:#C95C12;" points="1140.236,1289.249 1084.99,1344.495 1009.342,1344.495 1009.342,1264.817 
				1140.236,1264.817 			"/>
			<polygon style="fill:#F1A34F;" points="1009.188,1264.817 950.262,1321.68 1081.393,1321.68 1140.236,1264.817 			"/>
		</g>
		<g>
			<path style="fill:#F1A34F;" d="M1158.559,1391.372v-42.575h13.101c2.866,0,5.492,0.491,7.88,1.476
				c2.389,0.985,4.436,2.369,6.141,4.153c1.706,1.783,3.037,3.923,3.992,6.418c0.955,2.496,1.433,5.264,1.433,8.305v1.93
				c0,3.042-0.473,5.805-1.418,8.29c-0.946,2.485-2.281,4.62-4.007,6.403c-1.725,1.785-3.786,3.164-6.184,4.138
				c-2.398,0.975-5.04,1.463-7.924,1.463H1158.559z M1167.331,1355.902v28.423h4.241c3.469,0,6.111-1.146,7.924-3.438
				c1.813-2.289,2.72-5.56,2.72-9.81v-1.988c0-4.328-0.897-7.607-2.69-9.84c-1.794-2.231-4.416-3.348-7.866-3.348H1167.331z"/>
			<path style="fill:#F1A34F;" d="M1232.452,1371.049c0,3.256-0.438,6.175-1.316,8.758c-0.877,2.584-2.11,4.771-3.699,6.565
				s-3.493,3.172-5.717,4.137c-2.222,0.966-4.668,1.447-7.339,1.447s-5.118-0.481-7.34-1.447c-2.223-0.965-4.138-2.343-5.746-4.137
				c-1.607-1.794-2.861-3.981-3.757-6.565c-0.897-2.583-1.346-5.502-1.346-8.758v-1.871c0-3.236,0.444-6.15,1.331-8.743
				s2.129-4.796,3.728-6.608c1.599-1.813,3.509-3.203,5.731-4.167c2.223-0.965,4.668-1.448,7.34-1.448
				c2.67,0,5.117,0.483,7.339,1.448c2.223,0.964,4.133,2.354,5.731,4.167c1.599,1.813,2.841,4.016,3.729,6.608
				c0.887,2.593,1.331,5.507,1.331,8.743V1371.049z M1223.563,1369.119c0-4.464-0.8-7.855-2.398-10.176s-3.879-3.48-6.842-3.48
				c-2.964,0-5.244,1.16-6.843,3.48s-2.398,5.712-2.398,10.176v1.93c0,2.223,0.21,4.187,0.63,5.893
				c0.419,1.706,1.023,3.139,1.813,4.298c0.79,1.16,1.76,2.037,2.91,2.632s2.465,0.892,3.947,0.892c2.963,0,5.233-1.17,6.813-3.509
				c1.58-2.339,2.369-5.74,2.369-10.205V1369.119z"/>
			<path style="fill:#F1A34F;" d="M1273.448,1391.372h-8.772l-17.077-28.014v28.014h-8.772v-42.575h8.772l17.106,28.071v-28.071
				h8.743V1391.372z"/>
			<path style="fill:#F1A34F;" d="M1305.672,1382.6h-15.381l-2.924,8.772h-9.328l15.849-42.575h8.13l15.937,42.575h-9.329
				L1305.672,1382.6z M1292.659,1375.494h10.645l-5.351-15.938L1292.659,1375.494z"/>
			<path style="fill:#F1A34F;" d="M1350.47,1355.902h-13.042v35.47h-8.771v-35.47h-12.867v-7.105h34.681V1355.902z"/>
			<path style="fill:#F1A34F;" d="M1381.085,1372.92h-16.843v11.405h19.768v7.047h-28.54v-42.575h28.48v7.105h-19.708v10.146h16.843
				V1372.92z"/>
		</g>
	</g>
	<path style="fill:#A8D29F;" d="M636.733,1438.15c0,0-52.528-267.692-142.03-256.701C405.2,1192.44,636.733,1438.15,636.733,1438.15
		z"/>
	<path style="fill:#A8D29F;" d="M597.761,1425.736c0,0-82.729-98.695-156.267-69.349
		C367.957,1385.734,545.672,1378.414,597.761,1425.736z"/>
	<path style="fill:#A8D29F;" d="M2139.852,1325.112c0,0,32.869-182.104,61.198-150.629
		C2229.377,1205.959,2139.852,1325.112,2139.852,1325.112z"/>
	<path style="fill:#A8D29F;" d="M2151.893,1340.778c0,0,56.501-89.703,76.436-60.326
		C2248.263,1309.83,2151.893,1340.778,2151.893,1340.778z"/>
	<path style="fill:#2E3552;" d="M2836.813,1488.006H212.972c-1.639,0-2.979-1.341-2.979-2.979v-1.017
		c0-1.639,1.341-2.979,2.979-2.979h2623.842c1.639,0,2.979,1.341,2.979,2.979v1.017
		C2839.793,1486.665,2838.452,1488.006,2836.813,1488.006z"/>
</g>
</svg>
