<svg width="136" height="36" viewBox="0 0 136 36" fill="none" xmlns="http://www.w3.org/2000/svg">
<g clip-path="url(#clip0_72_15683)">
<path d="M19.1773 21.6431C20.1696 21.9329 21.195 22.0936 22.2283 22.1211C23.2542 22.1426 24.2795 22.0592 25.2883 21.8721C26.2184 21.7064 27.134 21.4673 28.0263 21.1571C28.9723 20.8338 29.8962 20.4493 30.7923 20.0061C31.6351 19.592 32.4257 19.079 33.1473 18.4782C33.4678 18.2111 33.763 17.9152 34.0293 17.5942C34.3479 17.2242 34.6239 16.8197 34.8523 16.3882C35.0691 15.967 35.2368 15.5225 35.3523 15.0631C35.4651 14.602 35.5222 14.1289 35.5223 13.6542C35.5209 13.1824 35.4535 12.7132 35.3223 12.2601C35.1961 11.8131 34.9967 11.3901 34.7323 11.0082C34.5738 10.7796 34.3958 10.5651 34.2004 10.3671C33.9836 10.1594 33.7494 9.97071 33.5003 9.80314C33.0741 9.5253 32.6145 9.30254 32.1323 9.14014C31.2025 8.83024 30.2378 8.63709 29.2604 8.56513C27.2431 8.33608 25.2034 8.71424 23.4023 9.65116C22.6018 10.0947 21.8713 10.654 21.2344 11.3111C20.5936 11.9692 20.0401 12.707 19.5873 13.5061C18.5991 15.335 18.0287 17.3603 17.9173 19.4361C17.821 20.487 17.8799 21.5464 18.0924 22.5801C18.2142 23.101 18.3999 23.6048 18.6453 24.0801C18.8786 24.5208 19.1604 24.934 19.4854 25.3121C19.7456 25.6247 20.0375 25.9096 20.3563 26.1621C20.7442 26.4809 21.1626 26.7606 21.6054 26.9971C22.0978 27.2517 22.6143 27.4567 23.1473 27.6091C23.6867 27.7549 24.2378 27.8529 24.7943 27.9021C25.2483 27.9465 25.705 27.9552 26.1603 27.9281C26.4642 27.9214 26.7546 27.8012 26.9743 27.5911C27.1903 27.3751 27.3117 27.0821 27.3117 26.7766C27.3117 26.4712 27.1903 26.1782 26.9743 25.9621C26.8675 25.8552 26.7406 25.7704 26.6009 25.7125C26.4612 25.6547 26.3115 25.625 26.1603 25.6252C25.6137 25.6573 25.0653 25.6379 24.5223 25.5671L24.8283 25.6082C24.1853 25.5233 23.556 25.3552 22.9563 25.1082L23.2313 25.2242C22.7242 25.0113 22.2466 24.734 21.8103 24.3991L22.0433 24.5791C21.651 24.275 21.2979 23.9233 20.9923 23.5321L21.1723 23.7651C20.894 23.4056 20.6624 23.0121 20.4833 22.5942L20.5993 22.8691C20.4041 22.3908 20.2727 21.8888 20.2083 21.3761L20.2493 21.6821C20.133 20.6116 20.1569 19.5305 20.3203 18.4661L20.2793 18.7721C20.4255 17.6483 20.7176 16.5484 21.1484 15.5002L21.0324 15.7752C21.3712 14.9644 21.8131 14.2008 22.3474 13.5031L22.1673 13.7362C22.6312 13.1376 23.1688 12.6 23.7673 12.1361L23.5343 12.3161C24.0591 11.912 24.633 11.576 25.2423 11.3161L24.9674 11.4321C25.6513 11.149 26.3694 10.9571 27.1033 10.8612L26.7973 10.9021C27.7734 10.7804 28.7613 10.7882 29.7354 10.9251L29.4294 10.8841C30.2454 10.9772 31.0458 11.1762 31.8103 11.4761L31.5353 11.3601C31.8832 11.5046 32.2115 11.6924 32.5123 11.9191L32.2793 11.7391C32.4973 11.9078 32.6938 12.1026 32.8644 12.3192L32.6843 12.0862C32.8486 12.3016 32.9853 12.5368 33.0913 12.7861L32.9753 12.5111C33.1 12.8108 33.1847 13.1255 33.2273 13.4471L33.1863 13.1411C33.2347 13.5248 33.2327 13.9131 33.1803 14.2961L33.2214 13.9901C33.1621 14.4159 33.0474 14.8321 32.8803 15.2282L32.9963 14.9531C32.8251 15.3487 32.6043 15.7211 32.3393 16.0611L32.5194 15.8281C32.1532 16.2919 31.7302 16.7079 31.2604 17.0661L31.4934 16.8861C30.5787 17.5569 29.5824 18.1083 28.5284 18.5271L28.8034 18.4111C27.6325 18.9119 26.4158 19.2977 25.1704 19.5631C24.817 19.6365 24.4613 19.6975 24.1033 19.7461L24.4093 19.7051C23.3069 19.86 22.1889 19.8681 21.0844 19.7291L21.3904 19.7701C20.8489 19.6976 20.314 19.5829 19.7904 19.4272C19.4964 19.3457 19.1821 19.3842 18.9164 19.5342C18.6508 19.6841 18.4555 19.9334 18.3734 20.2271C18.3332 20.3755 18.3228 20.5303 18.3427 20.6827C18.3626 20.8351 18.4125 20.9821 18.4894 21.1151C18.6463 21.3697 18.8911 21.5578 19.1773 21.6441V21.6431Z" fill="#FDA614"/>
<path d="M15.73 19.4221C15.2064 19.5778 14.6714 19.6925 14.13 19.7651L14.436 19.7241C13.3315 19.863 12.2134 19.8549 11.111 19.7001L11.417 19.7411C10.157 19.5615 8.91986 19.247 7.72701 18.8031C7.387 18.6791 7.05033 18.5457 6.717 18.4031L6.992 18.5191C5.93798 18.1002 4.94163 17.5488 4.02701 16.8781L4.26001 17.0581C3.79013 16.6998 3.36714 16.2838 3.00101 15.8201L3.181 16.0531C2.91605 15.713 2.69529 15.3407 2.524 14.9451L2.64 15.2201C2.47299 14.824 2.35835 14.4078 2.299 13.9821L2.34 14.2881C2.28758 13.905 2.28556 13.5167 2.334 13.1331L2.293 13.4391C2.33559 13.1174 2.42032 12.8027 2.545 12.5031L2.429 12.7781C2.53502 12.5287 2.67174 12.2936 2.836 12.0781L2.65601 12.3111C2.82655 12.0946 3.02301 11.8997 3.241 11.7311L3.008 11.9111C3.30882 11.6843 3.63709 11.4965 3.985 11.3521L3.71001 11.4681C4.47459 11.1681 5.27499 10.9691 6.091 10.8761L5.785 10.9171C6.75905 10.7801 7.74693 10.7724 8.72301 10.8941L8.41701 10.8531C9.15095 10.949 9.8691 11.141 10.553 11.4241L10.278 11.3081C10.8873 11.5679 11.4612 11.9039 11.986 12.3081L11.753 12.1281C12.3515 12.592 12.8891 13.1296 13.353 13.7281L13.173 13.4951C13.7072 14.1927 14.1492 14.9564 14.488 15.7671L14.372 15.4921C14.8026 16.5404 15.0947 17.6403 15.241 18.7641L15.2 18.4581C15.3635 19.5224 15.3874 20.6035 15.271 21.6741L15.312 21.3681C15.2477 21.8807 15.1162 22.3827 14.921 22.8611L15.037 22.5861C14.8579 23.0041 14.6264 23.3975 14.348 23.7571L14.528 23.5241C14.2224 23.9152 13.8693 24.2669 13.477 24.5711L13.71 24.3911C13.2737 24.7259 12.7961 25.0032 12.289 25.2161L12.564 25.1001C11.9643 25.3472 11.335 25.5152 10.692 25.6001L10.998 25.5591C10.455 25.6298 9.90661 25.6492 9.36 25.6171C9.13233 25.6173 8.90983 25.685 8.7206 25.8116C8.53137 25.9382 8.38389 26.118 8.2968 26.3284C8.2097 26.5387 8.18689 26.7702 8.23125 26.9935C8.2756 27.2168 8.38513 27.422 8.54601 27.5831C8.7678 27.7899 9.0569 27.9096 9.36 27.9201C9.83239 27.9483 10.3063 27.9379 10.777 27.8891C11.3387 27.8369 11.8946 27.7345 12.438 27.5831C12.9684 27.4268 13.482 27.2181 13.971 26.9601C14.406 26.7228 14.817 26.4438 15.198 26.1271C15.5151 25.872 15.805 25.5848 16.063 25.2701C16.3824 24.8935 16.6591 24.4826 16.888 24.0451C17.1321 23.5659 17.3158 23.0584 17.435 22.5341C17.555 21.9675 17.6219 21.391 17.635 20.8121C17.6539 19.7593 17.5695 18.7073 17.383 17.6711C17.2293 16.7362 16.9714 15.8215 16.614 14.9441C16.2618 14.0505 15.7967 13.2056 15.23 12.4301C14.9292 12.0214 14.6014 11.6332 14.249 11.2681C13.8895 10.9116 13.5048 10.5815 13.098 10.2801C11.5026 9.13163 9.58679 8.51319 7.621 8.51208C6.59698 8.49779 5.57458 8.5984 4.573 8.81206C4.1521 8.89518 3.73823 9.01052 3.33501 9.15706C2.85433 9.32261 2.39718 9.54983 1.97501 9.83306C1.7352 9.9978 1.50943 10.1821 1.3 10.3841C1.10001 10.5886 0.918942 10.8109 0.759003 11.0481C0.654235 11.1999 0.562895 11.3604 0.486008 11.5281C0.366553 11.7757 0.266256 12.0321 0.186005 12.2951C0.126286 12.5193 0.0828353 12.7476 0.0559998 12.9781C0.0217876 13.2099 0.00307962 13.4437 0 13.6781C0.00267749 14.1528 0.0621011 14.6255 0.177002 15.0861C0.72888 16.9249 1.97728 18.4755 3.65601 19.4071C4.47053 19.8933 5.32296 20.313 6.205 20.6621C7.08244 21.0303 7.98466 21.3364 8.905 21.5781C9.90892 21.8397 10.9344 22.0101 11.969 22.0871C12.9876 22.1571 14.0108 22.1081 15.018 21.9411C15.4668 21.8704 15.9104 21.7701 16.346 21.6411C16.6333 21.5567 16.8787 21.3681 17.034 21.1121C17.1495 20.9144 17.2035 20.6867 17.1891 20.4582C17.1746 20.2296 17.0924 20.0106 16.9529 19.829C16.8134 19.6474 16.6229 19.5115 16.4058 19.4387C16.1887 19.3658 15.9548 19.3594 15.734 19.4201L15.73 19.4221Z" fill="#FDA614"/>
</g>
<path d="M73.4916 30.6745C73.6056 30.7835 73.6951 30.9155 73.7543 31.0616C73.8134 31.2078 73.8408 31.3649 73.8346 31.5225C73.8397 31.6829 73.8119 31.8427 73.7529 31.9919C73.6938 32.1412 73.6048 32.2767 73.4913 32.3902C73.3778 32.5037 73.2423 32.5928 73.093 32.6518C72.9438 32.7108 72.784 32.7386 72.6236 32.7335H58.2116C58.0512 32.7386 57.8914 32.7108 57.7422 32.6518C57.5929 32.5928 57.4574 32.5037 57.3439 32.3902C57.2304 32.2767 57.1414 32.1412 57.0823 31.9919C57.0233 31.8427 56.9955 31.6829 57.0006 31.5225V5.68549C56.996 5.52333 57.026 5.36207 57.0886 5.21241C57.1512 5.06275 57.2449 4.92815 57.3636 4.81751C57.6156 4.58533 57.9492 4.46205 58.2916 4.47449C58.6213 4.46701 58.9406 4.59034 59.1796 4.81751C59.2983 4.92815 59.3919 5.06275 59.4545 5.21241C59.5171 5.36207 59.5471 5.52333 59.5426 5.68549V30.3515H72.6196C72.9416 30.3396 73.2551 30.4557 73.4916 30.6745Z" fill="white"/>
<path d="M77.751 8.65367C77.5988 8.51356 77.4799 8.34111 77.403 8.14903C77.3262 7.95695 77.2934 7.75009 77.3069 7.54365V7.14366C77.2937 6.93542 77.3288 6.72695 77.4092 6.53444C77.4897 6.34192 77.6135 6.17057 77.7709 6.03367C78.1366 5.76014 78.5871 5.62447 79.043 5.65065C80.119 5.65065 80.6573 6.14867 80.658 7.14467V7.54466C80.6717 7.74932 80.6408 7.95451 80.5676 8.14613C80.4944 8.33775 80.3806 8.51123 80.2339 8.65465C79.8863 8.93253 79.447 9.06959 79.003 9.03865C78.5527 9.06702 78.1075 8.93015 77.751 8.65367ZM79.87 32.3916C79.7006 32.5659 79.4827 32.6851 79.2446 32.7338C79.0066 32.7826 78.7594 32.7586 78.5352 32.665C78.3109 32.5713 78.12 32.4124 77.9873 32.2089C77.8546 32.0054 77.7862 31.7666 77.791 31.5237V12.9537C77.791 12.6325 77.9185 12.3245 78.1456 12.0974C78.3727 11.8703 78.6808 11.7427 79.002 11.7427C79.3231 11.7427 79.6312 11.8703 79.8583 12.0974C80.0854 12.3245 80.213 12.6325 80.213 12.9537V31.5197C80.2185 31.6805 80.1911 31.8408 80.1323 31.9906C80.0734 32.1404 79.9845 32.2766 79.871 32.3907L79.87 32.3916Z" fill="white"/>
<path d="M88.8321 32.3904C88.6628 32.5646 88.4448 32.6838 88.2068 32.7325C87.9687 32.7813 87.7215 32.7573 87.4973 32.6637C87.2731 32.57 87.0822 32.4112 86.9495 32.2076C86.8167 32.0041 86.7484 31.7653 86.7532 31.5224V4.07037C86.7532 3.7492 86.8807 3.44116 87.1078 3.21405C87.3349 2.98694 87.6429 2.85938 87.9641 2.85938C88.2853 2.85938 88.5933 2.98694 88.8204 3.21405C89.0475 3.44116 89.1752 3.7492 89.1752 4.07037V31.5224C89.1802 31.6828 89.1524 31.8426 89.0934 31.9918C89.0344 32.1411 88.9455 32.2767 88.8321 32.3904Z" fill="white"/>
<path d="M112.469 22.0552C112.243 22.277 111.938 22.4003 111.621 22.3982H96.3612C96.3356 23.9035 96.675 25.3926 97.3502 26.7382C97.9878 27.9938 98.9674 29.0436 100.176 29.7662C101.492 30.5306 102.995 30.9149 104.516 30.8762C105.722 30.8967 106.915 30.6196 107.988 30.0692C108.955 29.5783 109.797 28.8743 110.451 28.0102C110.683 27.7945 110.983 27.6661 111.299 27.6472C111.573 27.6612 111.832 27.7763 112.026 27.9703C112.22 28.1643 112.335 28.4233 112.349 28.6972C112.343 28.8582 112.304 29.0162 112.235 29.1619C112.167 29.3076 112.069 29.438 111.949 29.5452C111.055 30.621 109.949 31.5007 108.699 32.1292C107.422 32.7949 106.002 33.1411 104.561 33.1382C102.647 33.1772 100.755 32.7182 99.0711 31.8062C97.5039 30.9392 96.2157 29.6441 95.3572 28.0722C94.4434 26.3671 93.9846 24.4553 94.0251 22.5212C93.9795 20.5117 94.4301 18.5219 95.3371 16.7282C96.1273 15.1642 97.3362 13.8504 98.8292 12.9332C100.226 12.0747 101.833 11.6205 103.472 11.6212C105.057 11.6136 106.618 12.0021 108.014 12.7512C109.444 13.5207 110.637 14.665 111.466 16.0612C112.385 17.6268 112.859 19.4132 112.838 21.2282C112.839 21.3843 112.806 21.5389 112.743 21.6814C112.679 21.824 112.586 21.9515 112.469 22.0552ZM99.1272 15.5762C97.7346 16.759 96.823 18.4105 96.5642 20.2192H110.33V19.8962C110.22 18.7499 109.802 17.6548 109.119 16.7272C108.464 15.8403 107.596 15.1323 106.596 14.6682C105.618 14.2046 104.549 13.9635 103.467 13.9622C101.875 13.9742 100.338 14.5472 99.1272 15.5802V15.5762Z" fill="white"/>
<path d="M134.915 22.0552C134.688 22.277 134.383 22.4003 134.067 22.3982H118.807C118.781 23.9035 119.12 25.3926 119.796 26.7382C120.433 27.9939 121.413 29.0437 122.621 29.7662C123.938 30.5306 125.44 30.9149 126.962 30.8762C128.168 30.8967 129.36 30.6196 130.433 30.0692C131.4 29.5783 132.242 28.8743 132.896 28.0102C133.128 27.7944 133.428 27.666 133.744 27.6472C134.018 27.6612 134.277 27.7763 134.471 27.9703C134.665 28.1643 134.781 28.4233 134.795 28.6972C134.788 28.8582 134.749 29.0162 134.681 29.1619C134.612 29.3076 134.515 29.4379 134.395 29.5452C133.501 30.6211 132.394 31.5007 131.145 32.1292C129.867 32.795 128.447 33.1412 127.006 33.1382C125.092 33.1771 123.2 32.7181 121.516 31.8062C119.949 30.9392 118.661 29.6441 117.802 28.0722C116.889 26.3671 116.43 24.4552 116.47 22.5212C116.425 20.5117 116.875 18.5219 117.782 16.7282C118.573 15.1642 119.782 13.8504 121.275 12.9332C122.671 12.0749 124.278 11.6207 125.916 11.6212C127.501 11.6137 129.062 12.0021 130.458 12.7512C131.888 13.5206 133.082 14.6649 133.911 16.0612C134.829 17.6267 135.304 19.4131 135.284 21.2282C135.284 21.3843 135.252 21.5389 135.188 21.6814C135.124 21.824 135.031 21.9515 134.915 22.0552ZM121.577 15.5802C120.184 16.763 119.272 18.4145 119.014 20.2232H132.776V19.9002C132.666 18.7539 132.248 17.6588 131.566 16.7312C130.91 15.8443 130.043 15.1363 129.042 14.6722C128.064 14.2087 126.996 13.9676 125.914 13.9662C124.323 13.9778 122.788 14.5493 121.577 15.5802Z" fill="white"/>
<defs>
<clipPath id="clip0_72_15683">
<rect width="35" height="35" fill="white" transform="translate(0 0.5)"/>
</clipPath>
</defs>
</svg>
