<?xml version="1.0" encoding="utf-8"?>
<!-- Generator: Adobe Illustrator 27.5.0, SVG Export Plug-In . SVG Version: 6.00 Build 0)  -->
<svg version="1.1" xmlns="http://www.w3.org/2000/svg" xmlns:xlink="http://www.w3.org/1999/xlink" x="0px" y="0px"
	 viewBox="0 0 750 500" style="enable-background:new 0 0 750 500;" xml:space="preserve">
<g id="BACKGROUND">
	
		<rect x="125.496" y="-124.256" transform="matrix(6.123234e-17 -1 1 6.123234e-17 125 625)" style="fill:#FFFFFF;" width="499.008" height="748.512"/>
</g>
<g id="OBJECTS">
	<path style="fill:#DEFFFC;" d="M651.775,70.771c-17.309,7.347-30.831,23.006-40.156,39.726c-3.53,6.33-6.786,13.107-12.419,17.67
		c-28.632,23.195-58.332-23.819-96.152-1.513c-26.332,15.53-32.421,55.574-21.476,81.815c7.173,17.198,21.872,31.256,39.613,36.953
		c18.382,5.903,38.853,2.747,56.255-5.613c17.402-8.36,32.056-21.558,44.952-35.924c12.937-14.411,24.742-30.494,41.374-40.415
		c15.602-9.307,35.169-13.04,46.909-26.904c11.921-14.078,11.736-36.469,0.737-51.278s-31.242-21.53-49.302-17.767
		C658.529,68.267,655.083,69.367,651.775,70.771z"/>
	<path style="fill:#DEFFFC;" d="M220.834,55.786c26.296,14.36,50.816,34.394,80.115,40.422c20.24,4.164,45.631,5.798,59.622,23.187
		c15.505,19.27,10.835,51.925-10.505,64.981c-18.133,11.092-41.215,2.919-62.02-1.442c-27.134-5.689-54.751-1.849-79.709,10.03
		c-25.775,12.268-48.022,35.09-77.603,37.678c-32.323,2.828-63.423-21.926-72.487-53.081
		C38.511,109.724,111.222,31.935,179.726,41.024C194.391,42.97,207.83,48.684,220.834,55.786z"/>
	<path style="fill:#DEFFFC;" d="M676.45,435.43c37.436-34.772,68.015-114.18,15.118-149.301
		c-44.918-29.824-106.753-8.651-150.846,11.001c-41.862,18.657-80.287,45.047-121.326,65.676
		c-20.496,10.302-41.863,19.226-64.282,22.741c-19.449,3.049-39.26,1.961-58.823-0.092c-22.883-2.402-45.954-6.208-67.028-16.013
		c-33.321-15.504-61.699-45.841-97.937-48.973c-11.023-0.952-22.094,0.753-32.96,2.95c-15.491,3.133-31.567,7.709-42.947,19.343
		c-11.126,11.374-16.227,28.251-16.545,44.682c-0.319,16.431,3.695,32.604,8.533,48.208L676.45,435.43z"/>
	<ellipse style="fill:#DEFFFC;" cx="354.474" cy="303.536" rx="61.412" ry="53.814"/>
	
		<line style="fill:none;stroke:#000000;stroke-width:1.5235;stroke-linecap:round;stroke-linejoin:round;stroke-miterlimit:10;" x1="19.108" y1="438.011" x2="699.128" y2="438.011"/>
	<g>
		<g>
			
				<line style="fill:none;stroke:#000000;stroke-width:4.0209;stroke-linecap:round;stroke-linejoin:round;stroke-miterlimit:10;" x1="414.909" y1="406.572" x2="441.648" y2="336.244"/>
			<path style="fill:#B1A7B7;" d="M449.519,337.204L449.519,337.204c-4.541,3.204-10.877,2.11-14.081-2.431l-21.393-30.322
				c-3.204-4.541-2.11-10.877,2.431-14.081l0,0c4.541-3.204,10.877-2.11,14.081,2.431l21.393,30.322
				C455.154,327.664,454.06,334.001,449.519,337.204z"/>
			
				<path style="fill:none;stroke:#000000;stroke-width:0.8616;stroke-linecap:round;stroke-linejoin:round;stroke-miterlimit:10;" d="
				M445.331,338.913l1.84-4.801c1.513-3.947,0.839-8.398-1.772-11.72l-10.068-12.808"/>
			<g>
				<g>
					<path style="fill:#B1A7B7;" d="M373.959,406.669c-0.52,4.79-5.19,22.424-0.645,24.793c3.081,1.606,6.586,1.922,9.893,2.89
						c6.453,1.89,12.231,6.451,15.538,12.266l-43.033-1.091l5.153-43.95L373.959,406.669z"/>
					<path d="M357.124,432.149c0.011,0.02,0.02,0.041,0.031,0.061c1.389,2.55,3.802,4.632,6.84,4.669
						c4.424,0.054,8.665-3.888,10.868-8.202c0.235,0.326,0.389,0.925,0.406,1.921c0.009,0.537,0.652,0.89,1.126,1.125
						c4.302,2.129,7.972,2.326,11.974,3.498c6.203,1.817,11.891,5.673,15.976,10.71c1.324,1.632,0.105,4.069-1.996,4.016
						l-44.552-1.13c-1.455-0.037-2.563-1.316-2.393-2.761C355.405,446.056,356.602,436.371,357.124,432.149z"/>
					<path style="fill:#B1A7B7;" d="M406.149,452.737l-50.713-1.286c-1.443-0.036-2.685-1.218-2.762-2.626l0,0
						c-0.076-1.408,1.042-2.53,2.485-2.493l50.713,1.286c1.443,0.036,2.685,1.218,2.762,2.626l0,0
						C408.71,451.651,407.592,452.773,406.149,452.737z"/>
					<path style="fill:#B1A7B7;" d="M372.857,437.158L372.857,437.158c-0.573-0.545-0.62-1.413-0.105-1.931l7.496-7.521
						c0.515-0.517,1.406-0.495,1.978,0.05l0,0c0.573,0.545,0.62,1.413,0.105,1.931l-7.496,7.521
						C374.32,437.726,373.43,437.703,372.857,437.158z"/>
					<path style="fill:#B1A7B7;" d="M379.128,439.839L379.128,439.839c-0.572-0.545-0.661-1.371-0.198-1.834l6.736-6.74
						c0.463-0.463,1.31-0.396,1.882,0.149l0,0c0.572,0.545,0.661,1.371,0.198,1.834l-6.736,6.74
						C380.548,440.452,379.701,440.384,379.128,439.839z"/>
				</g>
				<g>
					<path style="fill:#F0C754;" d="M386.529,144.23c0.479,2.531,0.142,15.706,0.038,18.43c-0.215,5.595-2.84,8.912-4.42,10.328
						c1.67,2.292,7.044,4.193,9.796,4.894c2.752,0.701,5.745,0.412,8.311-0.801c0.7-0.331,1.367-0.727,2.033-1.122
						c0.816-0.485,2.544-1.073,3.361-1.558c-3.541-6.084-7.477-12.71-6.53-19.68c-1.767-0.329-4.268-1.072-6.035-1.401
						c-0.766-0.143-1.541-0.286-2.32-0.252C389.525,153.12,387.748,144.439,386.529,144.23z"/>
					<path d="M390.874,155.548c1.359,3.249,3.965,5.855,7.071,7.466c0.801,0.415,1.635,0.763,2.491,1.043
						c-0.911-3.082-1.318-6.254-0.881-9.478c-1.773-0.33-4.283-1.078-6.056-1.408c-0.769-0.143-1.546-0.287-2.328-0.254
						c-0.344,0.015-0.744-0.173-1.168-0.451C390.172,153.521,390.458,154.555,390.874,155.548z"/>
					<path d="M423.141,245.088c-0.026,0.391,3.604,36.472-11.764,45.416c-12.144,7.069-27.459,13.405-38.367,2.5
						c-7.827-7.826-6.979-22.873-6.919-33.913L423.141,245.088z"/>
					<path style="fill:#C3BEF9;" d="M429.071,221.433c-0.596,9.56-2.009,19.101-3.977,28.505c-0.672,3.214-1.485,6.563-3.823,9.069
						c-3.822,4.095-10.119,4.743-15.683,4.98c-6.894,0.294-13.796,0.179-20.685-0.166c-6.051-0.304-13.96,0.22-19.646-1.86
						c-5.323-1.948-6.493-7.36-6.892-11.985c-0.617-7.157-0.363-14.239-1.356-21.374c-1.034-7.432-3.172-14.738-5.242-21.993
						c-1.276-4.47-2.688-8.957-2.917-13.568c-0.229-4.611-8.401,0.717-5.181-2.877c3.074-3.432,17.009-15.548,21.727-16.742
						c14.024-3.548,28.92-1.327,43.439-0.24c5.021,0.376,10.547,0.807,14.071,4.045c2.687,2.469,3.592,6.054,4.236,9.459
						C429.311,198.158,429.795,209.81,429.071,221.433z"/>
				</g>
				<g>
					<path style="fill:#2E2521;" d="M388.538,137.074c2.81-0.26,5.109,2.008,5.498,4.565c0.388,2.557-0.724,5.249-2.191,7.609
						c-1.941-2.657-3.475-5.052-5.415-7.709c-0.729-0.998-1.446-2.379-0.588-3.429C386.323,137.519,387.778,137.145,388.538,137.074
						z"/>
					<path style="fill:#F0C754;" d="M405.338,147.085c0.026,0.095,0.05,0.191,0.072,0.288c0.011,0.049,0.023,0.098,0.033,0.147
						c0.006,0.03,0.014,0.061,0.019,0.092c0.02,0.093,0.037,0.186,0.053,0.279c0.005,0.028,0.009,0.056,0.014,0.084
						c0.022,0.136,0.041,0.273,0.057,0.409c0.017,0.145,0.03,0.29,0.04,0.435c0.004,0.052,0.007,0.103,0.009,0.154
						c0.002,0.031,0.003,0.062,0.004,0.093c0.006,0.124,0.008,0.247,0.007,0.371c0,0.299-0.015,0.597-0.045,0.893
						c-0.007,0.071-0.015,0.143-0.024,0.213c-0.08,0.639-0.227,1.265-0.436,1.868c-0.046,0.131-0.094,0.26-0.145,0.387
						c-0.027,0.069-0.056,0.137-0.085,0.206c-0.049,0.113-0.099,0.224-0.152,0.336c-0.129,0.272-0.271,0.537-0.426,0.794
						c-0.073,0.12-0.148,0.238-0.225,0.355c-0.318,0.477-0.68,0.925-1.084,1.335c-0.304,0.311-0.632,0.6-0.982,0.866
						c-0.077,0.059-0.154,0.115-0.233,0.171c-0.056,0.04-0.112,0.079-0.169,0.117c-0.03,0.021-0.061,0.042-0.093,0.063
						c-0.029,0.019-0.058,0.038-0.087,0.056c-0.093,0.06-0.186,0.118-0.281,0.175c-0.565,0.334-1.174,0.61-1.822,0.82
						c-0.143,0.046-0.284,0.088-0.427,0.127c-1.607,0.434-3.245,0.402-4.761-0.016c-2.855-0.788-5.28-2.949-6.254-5.963
						l-0.661-2.045l-1.944-6.014l-0.608-1.881l-0.839-2.596c-0.046-0.143-0.088-0.286-0.127-0.429
						c-0.019-0.07-0.038-0.142-0.055-0.213c-0.014-0.057-0.028-0.113-0.039-0.169c-0.013-0.056-0.025-0.114-0.036-0.171
						c-0.004-0.014-0.007-0.028-0.009-0.041c-0.007-0.035-0.014-0.07-0.02-0.105c-0.008-0.042-0.016-0.083-0.023-0.126
						c-0.005-0.025-0.009-0.051-0.013-0.077c-0.01-0.062-0.02-0.124-0.028-0.186c-0.008-0.052-0.014-0.105-0.021-0.158
						c-0.005-0.031-0.008-0.061-0.011-0.093c-0.015-0.122-0.025-0.244-0.033-0.367c-0.006-0.069-0.01-0.139-0.013-0.207
						c-0.003-0.064-0.005-0.127-0.007-0.191c-0.002-0.062-0.002-0.125-0.004-0.187c0.001-0.002,0-0.004,0-0.006
						c0-0.063,0-0.125,0.001-0.188c0.001-0.063,0.003-0.126,0.005-0.19c0.003-0.062,0.006-0.126,0.009-0.189
						c0.007-0.128,0.018-0.255,0.031-0.382c0.002-0.024,0.006-0.048,0.008-0.073c0.011-0.105,0.024-0.209,0.039-0.313
						c0.004-0.024,0.008-0.048,0.011-0.072c0.016-0.107,0.035-0.215,0.055-0.322c0.003-0.017,0.006-0.034,0.01-0.051
						c0.612-3.146,2.87-5.885,6.121-6.936c3.656-1.182,7.546,0.102,9.846,2.92c0.692,0.847,1.24,1.832,1.595,2.932l4.053,12.536
						C405.255,146.793,405.298,146.938,405.338,147.085z"/>
				</g>
				<path style="fill:#F0C754;" d="M367.922,311.101l-0.888,25.896c-2.047,20.545-6.941,71.058-6.94,71.059
					c2.74,3.349,4.567,4.749,12.361,7.185c6.975-36.024,15.941-73.514,20.544-104.141H367.922z"/>
				<polygon points="367.587,271.635 364.573,330.407 391.699,343.217 397.712,288.156 424.099,333.421 448.21,310.063 
					419.578,267.868 				"/>
				<g>
					<path style="fill:#B1A7B7;" d="M420.819,404.818c-2.782,4.243-2.795,10.175-0.031,14.06c1.874,2.634,4.742,4.231,7.122,6.358
						c4.643,4.152,7.402,10.527,7.421,17.143l-36.572-17.029l11.952-25.669L420.819,404.818z"/>
					<path d="M431.303,426.773c-2.719-2.431-5.997-4.257-8.138-7.266c-1.83-2.573-2.595-5.931-2.296-9.244
						c-1.431,0.901-2.844,1.838-4.313,2.666c-1.422,0.802-2.93,1.518-4.51,1.77c-1.587,0.253-3.115-0.092-4.386-1.019
						c-0.937-0.683-1.675-1.617-2.28-2.649l-7.391,15.873l41.794,19.46C439.762,438.802,436.608,431.518,431.303,426.773z"/>
					<path style="fill:#B1A7B7;" d="M437.629,448.292l-40.51-18.862c-1.207-0.562-1.734-2.008-1.172-3.215l0.087-0.186
						c0.562-1.206,2.009-1.734,3.215-1.172l40.509,18.862c1.207,0.562,1.734,2.009,1.172,3.215l-0.086,0.185
						C440.282,448.327,438.835,448.854,437.629,448.292z"/>
					<path style="fill:#B1A7B7;" d="M414.971,418.21L414.971,418.21c-0.216-0.677,0.146-1.453,0.803-1.725l9.561-3.942
						c0.658-0.271,1.372,0.062,1.587,0.739l0,0c0.216,0.678-0.146,1.454-0.803,1.725l-9.561,3.942
						C415.901,419.22,415.187,418.888,414.971,418.21z"/>
					<path style="fill:#B1A7B7;" d="M417.621,423.277L417.621,423.277c-0.216-0.677,0.146-1.453,0.803-1.724l9.561-3.942
						c0.657-0.271,1.372,0.062,1.587,0.739l0,0c0.216,0.677-0.146,1.454-0.803,1.724l-9.561,3.942
						C418.551,424.288,417.836,423.955,417.621,423.277z"/>
				</g>
				<g>
					<path style="fill:#F0C754;" d="M348.157,202.098l-29.709-39.425l-1.058-1.404c-0.948-1.258-1.399-2.739-1.387-4.201
						l0.438-53.649c0.018-2.228,1.839-4.019,4.067-4.001c1.905,0.016,3.491,1.353,3.899,3.132l11.992,52.293l-2.444-5.605
						l34.787,35.026c5.312,5.348,5.283,13.991-0.066,19.303C362.904,209.394,353.042,208.672,348.157,202.098L348.157,202.098z"/>
					<path style="fill:#F0C754;" d="M320.451,105.157c3.982,0.319,8.671-5.92,10.755-8.728c1.241-1.673,2.131-3.339,2.995-5.217
						l-2.96-1.353l1.981-4.335l-12.453-5.691c-2.504,5.479-6.697,13.597-6.19,20.269c0.307,4.043,2.619,6.223,4.843,8.868
						L320.451,105.157z"/>
					
						<path style="fill:none;stroke:#2D201B;stroke-width:0.6494;stroke-linecap:round;stroke-linejoin:round;stroke-miterlimit:10;" d="
						M332.823,90.583l-6.023-2.752c-1.262,0.758-2.859,0.642-4.342,0.221c-0.671-0.191-1.187,0.626-0.741,1.162
						c1.647,1.977,3.814,3.236,6.659,3.116c-3.21-0.105-5.468,2.097-6.655,4.841"/>
					
						<path style="fill:none;stroke:#2D201B;stroke-width:0.6494;stroke-linecap:round;stroke-linejoin:round;stroke-miterlimit:10;" d="
						M321.705,96.687c-0.236-2.399-0.539-4.752-1.598-6.918"/>
				</g>
				<path style="fill:#F0C754;" d="M447.456,206.835l22.546,20.677l-6.714-2.258l51.465,0.636c3.012,0.037,5.423,2.509,5.386,5.521
					c-0.034,2.73-2.069,4.966-4.692,5.333l-50.965,7.183c-2.219,0.313-4.351-0.345-5.967-1.65l-0.747-0.608l-23.727-19.311
					c-4.396-3.578-5.059-10.042-1.481-14.438C436.256,203.346,443.136,202.849,447.456,206.835L447.456,206.835z"/>
				<path style="fill:#FFFFFF;" d="M394.837,143.186c0.024,0.204,0.062,0.408,0.126,0.611c0.546,1.744,2.403,2.715,4.147,2.168
					c1.744-0.546,2.715-2.403,2.169-4.147c-0.064-0.203-0.148-0.393-0.245-0.573L394.837,143.186z"/>
				<path style="fill:#C3BEF9;" d="M378.201,187.712c-3.966-16.234-25.87-22.092-32.95-36.814
					c-5.121,12.01-9.916,21.558-13.295,34.355c4.235,9.82,15.371,23.213,24.802,28.478
					C365.451,209.055,378.518,203.799,378.201,187.712z"/>
				<path style="fill:#C3BEF9;" d="M418.917,175.887c7.148-0.435,16.338,10.894,22.007,14.752
					c5.601,3.812,11.717,7.813,17.832,10.568c-3.579,10.482-14.773,25.58-24.343,31.39c-9.138-2.048-29.037-17.849-34.125-24.482
					L418.917,175.887z"/>
				<path style="fill:none;stroke:#2D201B;stroke-width:0.6494;stroke-miterlimit:10;" d="M425.056,182.562
					c6.061,13.42,6.057,35.047,3.463,44.589c3.31-8.196,6.954-16.807,8.225-25.541"/>
				<path style="fill:none;stroke:#2D201B;stroke-width:0.6494;stroke-miterlimit:10;" d="M404.709,247.931
					c6.494,6.926,17.749,7.792,17.749,7.792s-8.658-5.195-9.524-10.823"/>
				<polyline style="fill:none;stroke:#2D201B;stroke-width:0.6494;stroke-miterlimit:10;" points="352.328,186.458 
					351.895,203.342 359.254,180.398 				"/>
				<g>
					<path style="fill:#F0C754;" d="M506.061,226.508c0.218-2.048,3.489-4.301,4.609-6.11c0.47-0.759,1.184-4.092,1.868-4.463
						c1.65-0.896,1.498,2.117,1.46,3.131c-0.076,2.054-1.096,3.412-2.198,4.997l11.53-0.066l0.085,14.691l-15.798,0.091
						c-2.986,0.017-4.081-6.283-1.347-8.374C506.02,229.279,505.933,227.714,506.061,226.508z"/>
					<path style="fill:#F0C754;" d="M513.193,227.881l9.464-0.055c1.174-0.007,2.129-0.973,2.122-2.146l0,0
						c-0.007-1.174-0.973-2.129-2.146-2.122l-9.464,0.054c-1.174,0.007-2.129,0.973-2.122,2.146l0,0
						C511.054,226.933,512.019,227.887,513.193,227.881z"/>
					<path style="fill:#F0C754;" d="M513.216,231.778l9.464-0.055c1.174-0.007,2.129-0.973,2.122-2.146l0,0
						c-0.007-1.174-0.973-2.129-2.146-2.122l-9.464,0.055c-1.174,0.007-2.129,0.973-2.122,2.146l0,0
						C511.076,230.83,512.042,231.785,513.216,231.778z"/>
					<path style="fill:#F0C754;" d="M513.238,235.675l9.464-0.055c1.174-0.007,2.129-0.973,2.122-2.146l0,0
						c-0.007-1.174-0.973-2.129-2.146-2.122l-9.464,0.055c-1.174,0.007-2.129,0.973-2.122,2.146l0,0
						C511.098,234.727,512.064,235.682,513.238,235.675z"/>
					<path style="fill:#F0C754;" d="M513.261,239.572l9.464-0.055c1.174-0.007,2.128-0.973,2.122-2.146l0,0
						c-0.007-1.174-0.973-2.129-2.146-2.122l-9.464,0.055c-1.174,0.007-2.129,0.973-2.122,2.146l0,0
						C511.121,238.624,512.087,239.579,513.261,239.572z"/>
				</g>
				
					<line style="fill:none;stroke:#2D201B;stroke-width:0.6494;stroke-linecap:round;stroke-linejoin:round;stroke-miterlimit:10;" x1="513.191" y1="227.51" x2="513.236" y2="235.304"/>
				
					<path style="fill:none;stroke:#2D201B;stroke-width:0.6494;stroke-linecap:round;stroke-linejoin:round;stroke-miterlimit:10;" d="
					M507.957,234.727c0,0,3.046,0.177,5.257-3.32"/>
				<path style="fill:#F0C754;" d="M376.943,148.905c0.915,2.831,3.951,4.383,6.782,3.468c2.83-0.915,4.383-3.951,3.468-6.782
					c-0.915-2.831-3.951-4.383-6.782-3.468C377.581,143.038,376.028,146.074,376.943,148.905z"/>
			</g>
			<path d="M406.675,130.607l-2.163-6.108c-2.142-6.047-8.841-9.243-14.889-7.101c-6.047,2.142-9.243,8.841-7.101,14.889
				l2.163,6.108L406.675,130.607z"/>
			<path d="M388.457,137.059l-2.681-7.571c-0.905-2.555-3.736-3.906-6.291-3.001c-2.555,0.905-3.905,3.736-3,6.291l2.681,7.571
				L388.457,137.059z"/>
			<path style="fill:#F0C754;" d="M390.106,140.794c-0.185-4.34-2.358-8.556-5.785-11.225c5.487,1.888,9.747,6.955,10.666,12.685"/>
			
				<path style="fill:none;stroke:#000000;stroke-width:0.5744;stroke-linecap:round;stroke-linejoin:round;stroke-miterlimit:10;" d="
				M377.889,125.244c1.45,0.198,3.114,0.953,4.168,1.968c-0.551-2.268-0.709-4.675-0.098-6.928s2.054-4.337,4.128-5.407"/>
			
				<circle style="fill:none;stroke:#000000;stroke-width:0.8616;stroke-linecap:round;stroke-linejoin:round;stroke-miterlimit:10;" cx="440.84" cy="329.395" r="2.944"/>
			
				<path style="fill:none;stroke:#000000;stroke-width:0.8616;stroke-linecap:round;stroke-linejoin:round;stroke-miterlimit:10;" d="
				M449.609,327.749"/>
			<g>
				<path style="fill:#B1A7B7;" d="M451.356,356.358c-1.296,1.397-2.973,2.856-4.852,2.535c-2.005-0.343-3.072-2.478-4.029-4.274
					c-1.302-2.445-3.022-4.766-5.413-6.163c-2.392-1.397-5.554-1.707-7.9-0.234c-2.448,1.537-3.482,4.539-4.192,7.341
					c-2.337,9.223-3.179,19.164-8.465,27.075c2.024-0.342,4.321,2.264,4.955,4.216c0.634,1.953,0.622,4.097,1.467,5.969
					c1.396,3.093,5.258,4.824,8.496,3.808c3.897-1.223,5.906-5.416,7.473-9.188C443.147,377.208,447.105,366.592,451.356,356.358z"
					/>
				
					<path style="fill:none;stroke:#000000;stroke-width:0.7733;stroke-linecap:round;stroke-linejoin:round;stroke-miterlimit:10;" d="
					M435.177,355.641c-0.258,1.173-1.418,1.915-2.592,1.658c-1.173-0.258-1.916-1.418-1.658-2.592s1.418-1.915,2.592-1.658
					C434.693,353.307,435.435,354.468,435.177,355.641z"/>
				
					<path style="fill:none;stroke:#000000;stroke-width:0.7733;stroke-linecap:round;stroke-linejoin:round;stroke-miterlimit:10;" d="
					M439.723,350.538c1.869,3.488,2.064,7.7,1.186,11.559c-0.237,1.044-0.553,2.081-1.089,3.008
					c-1.721,2.976-5.289,4.245-8.564,5.288c-1.791,6.436-4.288,13.307-7.145,19.345"/>
			</g>
		</g>
		<path style="fill:none;stroke:#2D201B;stroke-width:0.6494;stroke-miterlimit:10;" d="M378.103,172.679
			c2.294,10.46,2.589,21.488-0.271,31.807c-2.86,10.32-9.033,19.881-17.927,25.845"/>
		<path style="fill:none;stroke:#2D201B;stroke-width:0.587;stroke-miterlimit:10;" d="M410.58,173.495
			c-1.005,10.623-0.577,21.549,2.065,31.743c2.642,10.193,7.588,19.628,14.578,26.045"/>
		
			<path style="fill:none;stroke:#FFFFFF;stroke-width:0.3433;stroke-linecap:round;stroke-linejoin:round;stroke-miterlimit:10;" d="
			M370.159,263.127c0,0-1.192,9.64,2.052,18.074l-2.266,50.44"/>
	</g>
	<g>
		
			<path style="fill:none;stroke:#B1A7B7;stroke-width:8.9034;stroke-linecap:round;stroke-linejoin:round;stroke-miterlimit:10;" d="
			M77.126,326.67c0,0-5.437-62.412,79.77-55.559"/>
		<g>
			<path d="M153.219,321.219c31.137,0,56.379,25.242,56.379,56.379c0,31.137-25.242,56.379-56.379,56.379
				S96.84,408.736,96.84,377.598C96.84,346.461,122.082,321.219,153.219,321.219 M153.219,314.647c-8.495,0-16.74,1.665-24.505,4.95
				c-7.497,3.171-14.229,7.709-20.008,13.488c-5.779,5.779-10.317,12.511-13.488,20.008c-3.284,7.765-4.95,16.01-4.95,24.505
				c0,8.495,1.665,16.74,4.95,24.505c3.171,7.497,7.709,14.229,13.488,20.008c5.779,5.779,12.511,10.317,20.008,13.488
				c7.765,3.284,16.01,4.95,24.505,4.95s16.74-1.665,24.505-4.95c7.497-3.171,14.229-7.709,20.008-13.488
				c5.779-5.779,10.317-12.511,13.488-20.008c3.284-7.765,4.95-16.01,4.95-24.505c0-8.496-1.665-16.74-4.95-24.505
				c-3.171-7.497-7.709-14.229-13.488-20.008c-5.779-5.779-12.511-10.317-20.008-13.488
				C169.96,316.312,161.715,314.647,153.219,314.647L153.219,314.647z"/>
			<path style="fill:#B1A7B7;" d="M115.694,417.528l-0.922-0.922c-1.134-1.134-1.134-2.989,0-4.123l74.064-74.064
				c1.134-1.134,2.989-1.134,4.123,0l0.922,0.922c1.134,1.134,1.134,2.989,0,4.123l-74.064,74.064
				C118.683,418.662,116.828,418.662,115.694,417.528z"/>
			<g>
				
					<circle style="fill:none;stroke:#CDC2D3;stroke-width:6.7375;stroke-linecap:round;stroke-linejoin:round;stroke-miterlimit:10;" cx="153.219" cy="377.598" r="56.379"/>
				<path style="fill:#B1A7B7;" d="M155.758,431.384h-1.443c-1.602,0-2.913-1.311-2.913-2.913V325.867
					c0-1.602,1.311-2.913,2.913-2.913h1.443c1.602,0,2.913,1.311,2.913,2.913v102.604
					C158.671,430.073,157.36,431.384,155.758,431.384z"/>
				<path style="fill:#B1A7B7;" d="M97.709,377.639v-2.009c0-1.74,1.424-3.164,3.164-3.164h105.214c1.74,0,3.164,1.424,3.164,3.164
					v2.009c0,1.74-1.424,3.164-3.164,3.164H100.873C99.133,380.803,97.709,379.379,97.709,377.639z"/>
				<path style="fill:#B1A7B7;" d="M113.723,337.031l1.039-1.039c1.166-1.166,3.073-1.166,4.239,0l74.823,74.822
					c1.166,1.166,1.166,3.073,0,4.239l-1.039,1.039c-1.166,1.166-3.073,1.166-4.239,0l-74.823-74.822
					C112.557,340.104,112.557,338.197,113.723,337.031z"/>
			</g>
		</g>
		
			<path style="fill:none;stroke:#CDC2D3;stroke-width:7.2636;stroke-linecap:round;stroke-linejoin:round;stroke-miterlimit:10;" d="
			M76.088,418.413v-85.132c0-7.996,6.482-14.478,14.478-14.478h65.245"/>
		<g>
			<path style="fill:#CDC2D3;" d="M146.044,270.374H63.215c-2.328,0-4.233-1.905-4.233-4.233v-2.028
				c0-2.328,1.905-4.233,4.233-4.233h82.829c2.328,0,4.233,1.905,4.233,4.233v2.028
				C150.277,268.469,148.372,270.374,146.044,270.374z"/>
			
				<path style="fill:none;stroke:#CDC2D3;stroke-width:7.8886;stroke-linecap:round;stroke-linejoin:round;stroke-miterlimit:10;" d="
				M134.713,317.766v-15.91l1.3-67.294c0.143-7.383,6.168-13.293,13.553-13.293h6.861"/>
			<rect x="137.334" y="226.689" width="100.934" height="67.102"/>
		</g>
		<path style="fill:#343036;" d="M282.312,230.088h-15.564c-2.711,0-4.929-2.218-4.929-4.929l0,0c0-2.711,2.218-4.929,4.929-4.929
			h15.564c2.711,0,4.929,2.218,4.929,4.929l0,0C287.241,227.87,285.023,230.088,282.312,230.088z"/>
		<g>
			
				<path style="fill:none;stroke:#CDC2D3;stroke-width:7.8886;stroke-linecap:round;stroke-linejoin:round;stroke-miterlimit:10;" d="
				M241.067,321.916v-15.91l1.3-67.294c0.143-7.383,6.168-13.293,13.552-13.293h6.861"/>
			
				<path style="fill:none;stroke:#CDC2D3;stroke-width:7.2636;stroke-linecap:round;stroke-linejoin:round;stroke-miterlimit:10;" d="
				M159.867,439.697l0.786-113.16c0-7.996,6.482-14.478,14.478-14.478h65.245"/>
			
				<line style="fill:none;stroke:#CDC2D3;stroke-width:7.2636;stroke-linecap:round;stroke-linejoin:round;stroke-miterlimit:10;" x1="176.736" y1="276.78" x2="176.736" y2="312.059"/>
		</g>
		<g>
			<g>
				<g>
					<g>
						<g>
							<path style="fill:#E697D2;" d="M183.325,157.844c-0.518,2.791-0.817,5.623-0.896,8.462c-0.117,4.248,0.42,8.884,3.332,11.93
								c-1.805,2.527-4.543,4.603-7.517,5.375c-2.974,0.772-6.21,0.454-8.984-0.884c-0.757-0.365-1.477-0.802-2.197-1.238
								c-0.883-0.535-1.765-1.07-2.648-1.605c3.826-6.709,7.096-14.131,6.071-21.818c1.91-0.362,4.614-1.182,6.524-1.544
								c0.828-0.157,1.665-0.315,2.507-0.278C180.853,156.302,182.006,158.073,183.325,157.844z"/>
							<path style="fill:#2D201B;" d="M168.504,171.493c1.664-4.317,2.596-8.824,1.982-13.427c1.91-0.362,4.614-1.182,6.524-1.544
								c0.56-0.106,1.125-0.208,1.692-0.254C179.011,163.084,174.651,169.566,168.504,171.493z"/>
							<path style="fill:#DA5915;" d="M164.419,229.714l15.27-0.873c12.115-0.693,22.585,8.831,23.265,21.164
								c0,0,2.61,21.998,2.609,22.364c-0.014,4.443,1.057,19.473-2.885,31.169c-2.614,7.757-9.473,13.31-17.503,13.967
								c-0.197,0.016-0.394,0.03-0.59,0.041l-15.27,0.873c-11.61,0.664-22.187-16.624-23.645-28.862
								c0.05-0.51-0.301-4.909-0.502-8.233c0,0-1.563-27.483-1.538-27.925C142.948,241.065,152.304,230.408,164.419,229.714z"/>
							<path style="fill:#69A8DD;" d="M137.211,212.004c0.263-3.818,0.761-7.601,1.259-11.397c0.456-3.485,1.001-7.037,2.19-10.396
								c0.544-1.537,1.23-3.136,2.285-4.43c0.926-1.135,2.101-1.984,3.422-2.719c1.929-1.077,4.017-1.847,6.055-2.713
								c1.756-0.273,3.635-0.373,5.68-0.448c0.397-0.014,0.8-0.028,1.21-0.042c0.234-0.008,0.471-0.015,0.709-0.024
								c0.082-0.002,0.165-0.005,0.248-0.008c0.197-0.006,0.395-0.014,0.595-0.02c0.795-0.029,1.614-0.064,2.461-0.109
								c1.084-0.058,2.167-0.127,3.251-0.201c6.804-0.466,13.586-1.185,20.409-1.373c0.674-0.019,1.353-0.034,2.04-0.043
								c1.872-0.026,3.772-0.011,5.672,0.074c0.057,0.003,0.113,0.005,0.169,0.008c0.853,0.04,1.704,0.094,2.555,0.163
								c4.277,0.353,8.482,1.126,12.288,2.656c0.605,0.244,1.229,0.497,1.861,0.767c0.053,0.023,0.106,0.045,0.16,0.068
								c5.68,2.42,12.079,5.921,13.396,11.904c1.858,8.433-1.508,19.086-2.993,27.455c-0.01,0.058-0.021,0.117-0.031,0.175
								c-0.066,0.379-0.134,0.764-0.205,1.151c-0.418,2.337-0.889,4.809-1.396,7.38c-1.429,7.267-3.14,15.318-4.722,23.289
								c-0.003,0.015-0.007,0.031-0.01,0.046c-0.227,1.14-0.452,2.279-0.671,3.414c-0.842,4.339-1.629,8.616-2.293,12.692
								c-0.99,6.073-4.55,12.888-10.488,15.093c-3.334,1.238-7.551,0.947-11.05,1.203c-4.733,0.346-9.473,0.598-14.217,0.677
								c-1.701,0.029-3.404,0.037-5.105,0.023c-3.33-0.029-6.66-0.15-9.981-0.399c-3.153-0.236-6.286-0.536-9.357-1.29
								c-1.158-0.284-2.301-0.62-3.427-1.005c-0.947-0.324-2.013-0.625-2.793-1.255c-0.216-0.173-0.418-0.359-0.606-0.555
								c-0.368-0.377-0.687-0.795-0.96-1.241c-0.542-2.052-1-4.128-1.546-6.164c-0.437-1.625-0.89-3.245-1.337-4.868
								c-1.009-4.264-2.067-8.527-2.927-12.823c-0.394-2.676-0.648-5.366-0.895-8.065c-0.366-4.023-0.672-8.051-0.895-12.085
								C136.771,228.39,136.646,220.179,137.211,212.004z"/>
							<path style="fill:#E697D2;" d="M168.536,171.426c-1.118,2.916-2.574,5.746-4.121,8.458c0.883,0.535,1.765,1.07,2.648,1.605
								c0.72,0.436,1.44,0.873,2.197,1.238c2.774,1.338,6.01,1.657,8.984,0.884c2.974-0.772,5.712-2.848,7.517-5.375
								c-1.756-1.837-2.647-4.251-3.054-6.811H168.536z"/>
						</g>
						<g>
							<path style="fill:#2E2521;" d="M178.559,145.438c-2.71,0.592-4.199,3.442-3.812,5.998s2.219,4.792,4.288,6.604
								c1.039-3.115,1.773-5.859,2.812-8.974c0.39-1.17,0.657-2.702-0.455-3.447C180.766,145.201,179.293,145.278,178.559,145.438z"
								/>
							<path style="fill:#E697D2;" d="M165.753,160.01c0.004,0.099,0.01,0.198,0.017,0.296c0.004,0.05,0.007,0.1,0.012,0.15
								c0.003,0.031,0.005,0.062,0.009,0.093c0.009,0.095,0.02,0.188,0.032,0.282c0.004,0.029,0.007,0.056,0.011,0.084
								c0.02,0.137,0.042,0.273,0.067,0.408c0.027,0.143,0.057,0.286,0.09,0.427c0.012,0.05,0.024,0.1,0.037,0.149
								c0.007,0.03,0.015,0.06,0.024,0.09c0.031,0.12,0.065,0.238,0.102,0.356c0.087,0.285,0.189,0.565,0.305,0.838
								c0.027,0.066,0.056,0.132,0.085,0.196c0.263,0.586,0.584,1.139,0.957,1.652c0.081,0.111,0.165,0.22,0.249,0.326
								c0.046,0.058,0.093,0.114,0.14,0.171c0.079,0.093,0.159,0.185,0.241,0.275c0.201,0.221,0.412,0.431,0.633,0.63
								c0.104,0.093,0.209,0.183,0.316,0.272c0.438,0.36,0.909,0.679,1.408,0.95c0.376,0.206,0.768,0.383,1.175,0.533
								c0.089,0.033,0.178,0.064,0.268,0.094c0.064,0.021,0.128,0.042,0.192,0.061c0.035,0.011,0.07,0.022,0.105,0.032
								c0.033,0.009,0.066,0.019,0.098,0.027c0.105,0.03,0.209,0.057,0.315,0.083c0.628,0.15,1.279,0.231,1.949,0.238
								c0.147,0.001,0.292-0.001,0.438-0.007c1.633-0.066,3.16-0.586,4.458-1.439c2.445-1.606,4.083-4.392,4.111-7.558l0.019-2.149
								l0.056-6.319l0.018-1.977l0.024-2.728c0.001-0.15-0.001-0.3-0.007-0.447c-0.003-0.073-0.007-0.147-0.011-0.22
								c-0.003-0.059-0.007-0.116-0.013-0.173c-0.004-0.058-0.01-0.116-0.016-0.174c-0.001-0.014-0.002-0.029-0.004-0.042
								c-0.003-0.036-0.007-0.071-0.012-0.107c-0.004-0.043-0.009-0.084-0.015-0.127c-0.003-0.026-0.006-0.051-0.01-0.077
								c-0.009-0.062-0.018-0.124-0.028-0.186c-0.008-0.052-0.017-0.105-0.027-0.157c-0.005-0.031-0.01-0.061-0.017-0.092
								c-0.022-0.121-0.048-0.241-0.076-0.36c-0.015-0.067-0.032-0.135-0.049-0.201c-0.016-0.062-0.032-0.123-0.049-0.184
								c-0.016-0.06-0.035-0.12-0.052-0.18c-0.001-0.002-0.001-0.003-0.002-0.005c-0.018-0.06-0.037-0.119-0.056-0.179
								c-0.02-0.06-0.04-0.12-0.06-0.179c-0.021-0.059-0.042-0.119-0.064-0.178c-0.044-0.12-0.092-0.238-0.141-0.355
								c-0.01-0.022-0.02-0.044-0.029-0.067c-0.041-0.097-0.084-0.192-0.129-0.287c-0.01-0.022-0.021-0.044-0.032-0.066
								c-0.047-0.098-0.096-0.195-0.146-0.291c-0.008-0.015-0.016-0.03-0.024-0.045c-1.498-2.819-4.418-4.757-7.773-4.788
								c-3.774-0.035-7.043,2.352-8.371,5.729c-0.4,1.015-0.625,2.119-0.634,3.274l-0.118,13.172
								C165.745,159.707,165.748,159.859,165.753,160.01z"/>
						</g>
					</g>
				</g>
			</g>
			<path style="fill:#DA5915;" d="M205.421,288.398c-2.074-7.438-9.488-0.834-16.926,1.24c-0.483,0.135-5.348,1.899-5.804,2.079
				l-58.513,23.328l-0.91,0.363c-4.029,1.606-6.431,5.56-6.284,9.659l3.613,95.198c0.146,3.847,3.383,6.847,7.23,6.701
				c3.66-0.139,7.358-2.488,7.504-6.086l6.766-84.97l49.528-17.739C199.061,316.098,207.495,295.836,205.421,288.398z"/>
			<path style="fill:#DA5915;" d="M143.218,289.395l-58.514,23.328l-0.91,0.363c-4.029,1.606-6.432,5.56-6.284,9.66l3.613,95.198
				c0.146,3.847,3.383,6.847,7.23,6.701c3.66-0.139,6.555-3.103,6.701-6.701l3.613-95.198l-7.194,10.022l60.678-16.918
				c7.438-2.074,11.786-9.785,9.713-17.223c-2.074-7.438-9.785-11.786-17.223-9.713
				C144.157,289.049,143.673,289.215,143.218,289.395z"/>
			<g>
				<path d="M86.612,416.756c-2.264-1.211-4.221-3.388-5.739-5.554c-1.23,2.231-3.042,4.123-5.271,5.312
					c-3.291,1.755-7.126,2.015-10.703,3.031c-6.981,1.983-13.061,7.054-16.352,13.637h47.242V416.92
					C92.934,418.386,89.621,418.365,86.612,416.756z"/>
				
					<path style="fill:none;stroke:#FFFFFF;stroke-width:0.5744;stroke-linecap:round;stroke-linejoin:round;stroke-miterlimit:10;" d="
					M78.746,430.545c0,0,2.565-10.26,17.314-9.298"/>
			</g>
			<g>
				<path style="fill:#2D201B;" d="M126.085,418.416c-2.264-1.211-4.221-3.388-5.739-5.554c-1.23,2.231-3.042,4.123-5.271,5.312
					c-3.291,1.755-7.126,2.015-10.703,3.031c-6.981,1.983-13.062,7.054-16.352,13.637h47.242V418.58
					C132.407,420.046,129.093,420.025,126.085,418.416z"/>
				<path d="M126.085,418.416c-2.261-1.209-4.215-3.382-5.733-5.545c-1.234,2.227-3.051,4.115-5.278,5.302
					c-3.291,1.755-7.126,2.015-10.703,3.031c-6.981,1.983-13.062,7.054-16.352,13.637h47.242V418.58
					C132.407,420.046,129.093,420.025,126.085,418.416z"/>
				
					<path style="fill:none;stroke:#FFFFFF;stroke-width:0.5744;stroke-linecap:round;stroke-linejoin:round;stroke-miterlimit:10;" d="
					M118.218,432.205c0,0,2.565-10.26,17.314-9.298"/>
			</g>
			<path style="fill:#FCF7F2;" d="M171.736,155.193c-1.734,0-3.14-1.918-3.14-4.283h6.28
				C174.876,153.275,173.471,155.193,171.736,155.193z"/>
			<path style="fill:#E697D2;" d="M272.992,251.189l-0.364-0.448l-52.469-64.712c-5.342-6.589-15.015-7.6-21.604-2.257
				c-6.589,5.342-7.6,15.015-2.257,21.604c0.326,0.402,0.683,0.797,1.04,1.157l40.784,41.012l-29.66,0.56
				c-0.593,0.011-1.185,0.066-1.768,0.174c-0.003,0.001-0.006,0.001-0.009,0.002c-5.043,0.939-10.019,2.22-14.903,3.787
				c-4.905,1.573-9.717,3.431-14.433,5.503c-0.291,0.128-0.58,0.259-0.87,0.388c-0.092,0.611-0.137,1.237-0.125,1.875
				c0.116,6.141,5.188,11.025,11.329,10.91l76.883-1.451c6.136-0.116,11.017-5.184,10.901-11.32
				C275.417,255.399,274.497,253.046,272.992,251.189z"/>
			<path style="fill:#E697D2;" d="M150.911,184.228c-6.72-3.97-14.648-1.159-17.709,6.28l-30.062,73.049l-0.209,0.506
				c-0.008,0.019-0.015,0.039-0.023,0.059l22.036,0.174c3.256-0.611,4.924-1.691,5.88-2.905l0,0l26.087-55.181
				c0.221-0.419,0.436-0.872,0.623-1.325C160.595,197.446,157.63,188.198,150.911,184.228z"/>
			<path style="fill:#69A8DD;" d="M150.91,184.228c-6.719-3.97-14.648-1.159-17.709,6.28l-13.979,33.968
				c0.046,1.254,0.433,2.484,0.942,3.625c0.675,1.512,1.561,2.925,2.521,4.271c3.535,4.958,7.987,9.206,13.16,12.423
				c0.727,0.452,1.464,0.884,2.212,1.298l18.855-39.883c0.221-0.419,0.436-0.872,0.623-1.325
				C160.595,197.446,157.63,188.198,150.91,184.228z"/>
			<path style="fill:#69A8DD;" d="M197.337,206.533l26.902,27.053c2.173-0.626,4.321-1.341,6.431-2.156
				c4.195-1.62,8.244-3.648,11.988-6.143c2.015-1.342,3.929-2.83,5.725-4.448l-28.225-34.811c-5.342-6.589-15.015-7.6-21.604-2.257
				c-6.589,5.342-7.6,15.015-2.257,21.604C196.623,205.778,196.981,206.173,197.337,206.533z"/>
			<path style="fill:#E697D2;" d="M130.824,255.936c0.021-2.034-0.688-3.986-1.909-5.602c-2.979-3.942-7.852-5.598-12.679-5.185
				c-6.941,0.595-13.173,3.284-19.5,5.966c-2.557,1.084-16.339,4.967-16.294,5.167c0.12,0.539,2.768,8.017,2.768,8.017
				c4.184,0.796,28.09,1.455,28.091,1.455c2.504-0.053,5.026-0.217,7.517-0.477c2.535-0.265,5.238-0.401,7.558-1.562
				C129.25,262.276,130.79,259.076,130.824,255.936z"/>
			<path style="fill:#E697D2;" d="M190.549,255.916l19.203-3.88c11.243,1.194,18.08,9.813,21.157,17.893l-33.712,0.816
				c-4.789,0.116-9.225-4.78-8.835-10.91C188.53,257.197,190.549,255.916,190.549,255.916z"/>
			
				<line style="fill:none;stroke:#000000;stroke-width:0.8616;stroke-linecap:round;stroke-linejoin:round;stroke-miterlimit:10;" x1="161.863" y1="298.627" x2="124.177" y2="315.046"/>
		</g>
		<g>
			<path d="M246.426,321.37c34.981,0,63.339,29.126,63.339,65.054c0,35.928-28.358,65.054-63.339,65.054
				c-34.981,0-63.339-29.126-63.339-65.054C183.086,350.496,211.444,321.37,246.426,321.37 M246.426,313.787
				c-9.544,0-18.807,1.921-27.531,5.711c-8.422,3.659-15.985,8.895-22.478,15.564c-6.493,6.668-11.591,14.436-15.153,23.086
				c-3.69,8.96-5.561,18.473-5.561,28.276s1.871,19.316,5.561,28.276c3.562,8.65,8.661,16.418,15.153,23.086
				c6.493,6.668,14.055,11.905,22.478,15.564c8.724,3.79,17.986,5.711,27.531,5.711c9.544,0,18.807-1.922,27.531-5.711
				c8.422-3.659,15.985-8.895,22.478-15.564c6.493-6.668,11.591-14.436,15.153-23.086c3.69-8.96,5.561-18.473,5.561-28.276
				s-1.871-19.316-5.561-28.276c-3.562-8.65-8.661-16.418-15.153-23.086c-6.493-6.668-14.055-11.905-22.478-15.564
				C265.233,315.709,255.97,313.787,246.426,313.787L246.426,313.787z"/>
			<path style="fill:#B1A7B7;" d="M204.268,432.498l-1.036-1.064c-1.274-1.308-1.274-3.449,0-4.757l83.207-85.459
				c1.274-1.308,3.358-1.308,4.632,0l1.036,1.064c1.274,1.308,1.274,3.449,0,4.757l-83.207,85.459
				C207.626,433.806,205.541,433.806,204.268,432.498z"/>
			<g>
				
					<ellipse style="fill:none;stroke:#CDC2D3;stroke-width:7.671;stroke-linecap:round;stroke-linejoin:round;stroke-miterlimit:10;" cx="246.426" cy="386.424" rx="63.339" ry="65.054"/>
				<path style="fill:#B1A7B7;" d="M249.234,448.485H247.7c-1.824,0-3.316-1.492-3.316-3.317v-118.48
					c0-1.824,1.492-3.317,3.316-3.317h1.534c1.824,0,3.317,1.492,3.317,3.317v118.48
					C252.55,446.992,251.058,448.485,249.234,448.485z"/>
				<path style="fill:#B1A7B7;" d="M184.063,386.52v-2.415c0-1.981,1.621-3.602,3.602-3.602h118.107
					c1.981,0,3.602,1.621,3.602,3.602v2.415c0,1.981-1.621,3.602-3.602,3.602H187.665
					C185.684,390.122,184.063,388.501,184.063,386.52z"/>
				<path style="fill:#B1A7B7;" d="M201.26,338.411l1.007-1.035c1.293-1.328,3.409-1.328,4.702,0l85.102,87.405
					c1.293,1.328,1.293,3.501,0,4.83l-1.007,1.035c-1.293,1.328-3.409,1.328-4.702,0l-85.102-87.405
					C199.967,341.913,199.967,339.74,201.26,338.411z"/>
			</g>
		</g>
		<path style="fill:#E697D2;" d="M90.18,255.398l-14.465-3.164c-2.087-0.456-4.266-0.231-6.215,0.643l-11.321,5.077
			c-2.48,1.112,9.013,3.574,9.227,6.284c0.013,0.17,15.999,0.89,20.069,0.692c0.247-0.012,5.678,0.14,5.678,0.14L90.18,255.398z"/>
		<path style="fill:#E697D2;" d="M72.832,256.69c-0.352-1.06-1.476-1.71-2.586-1.838c-3.207-0.369-7.192,1.486-10.296,2.313
			c-3.094,0.824-6.137,1.925-9.101,3.129c-0.975,0.396-1.961,0.879-2.763,1.57c-0.392,0.338-0.767,0.744-0.951,1.237
			c-0.156,0.419-0.249,1.289,0.215,1.549c0.596,0.334,1.829,0.207,2.509,0.258c0.972,0.073,1.947,0.124,2.922,0.119
			c1.617-0.009,3.459-0.07,4.937-0.809c0.547-0.26,1.087-0.555,1.679-0.68c0.564-0.12,1.148-0.08,1.724-0.04
			c1.134,0.079,2.268,0.157,3.401,0.236c1.143,0.079,2.313,0.156,3.414-0.161c1.831-0.528,3.197-2.068,4.177-3.703
			C72.693,258.909,73.186,257.756,72.832,256.69z"/>
		
			<path style="fill:none;stroke:#422E22;stroke-width:0.4513;stroke-linecap:round;stroke-linejoin:round;stroke-miterlimit:10;" d="
			M87.476,264.931c1.509-1.229,2.371-3.212,2.239-5.153"/>
		
			<path style="fill:none;stroke:#422E22;stroke-width:0.4513;stroke-linecap:round;stroke-linejoin:round;stroke-miterlimit:10;" d="
			M50.348,264.741c-0.202-1.088,0.425-2.196,1.296-2.878c0.871-0.683,1.953-1.025,3.01-1.353c5.496-1.71,10.992-3.421,16.488-5.131"
			/>
		
			<path style="fill:none;stroke:#422E22;stroke-width:0.4513;stroke-linecap:round;stroke-linejoin:round;stroke-miterlimit:10;" d="
			M67.407,264.238c0.283-1.433,1.32-2.695,2.671-3.251c1.039-0.427,2.196-0.445,3.32-0.417c1.123,0.029,2.265,0.095,3.355-0.178
			c1.09-0.274,2.145-0.957,2.547-2.007"/>
		<path d="M138.314,436.575H47.174c-1.42,0-2.583-1.162-2.583-2.582l0,0c0-1.42,1.162-2.583,2.583-2.583h91.139
			c1.42,0,2.583,1.162,2.583,2.583l0,0C140.896,435.413,139.734,436.575,138.314,436.575z"/>
		
			<ellipse transform="matrix(0.2182 -0.9759 0.9759 0.2182 -181.5433 544.0006)" style="fill:none;stroke:#000000;stroke-width:0.8616;stroke-linecap:round;stroke-linejoin:round;stroke-miterlimit:10;" cx="248.773" cy="385.313" rx="7.542" ry="7.542"/>
		
			<path style="fill:none;stroke:#B1A7B7;stroke-width:8.9034;stroke-linecap:round;stroke-linejoin:round;stroke-miterlimit:10;" d="
			M160.606,332.339c0,0-5.437-62.412,79.769-55.559"/>
		
			<ellipse transform="matrix(0.2318 -0.9728 0.9728 0.2318 -304.1387 490.8776)" style="fill:none;stroke:#000000;stroke-width:3.4465;stroke-linecap:round;stroke-linejoin:round;stroke-miterlimit:10;" cx="158.741" cy="438.011" rx="21.05" ry="21.05"/>
		
			<ellipse transform="matrix(0.1591 -0.9873 0.9873 0.1591 -371.7673 431.4625)" style="fill:none;stroke:#000000;stroke-width:3.4465;stroke-linecap:round;stroke-linejoin:round;stroke-miterlimit:10;" cx="67.407" cy="433.978" rx="21.05" ry="21.05"/>
		<path style="fill:#CDC2D3;" d="M247.258,277.638h-78.855c-2.017,0-3.667-1.65-3.667-3.667v-1.006c0-2.017,1.65-3.667,3.667-3.667
			h78.855c2.017,0,3.667,1.65,3.667,3.667v1.006C250.925,275.987,249.275,277.638,247.258,277.638z"/>
		<g>
			<g>
				<path style="fill:#E697D2;" d="M168.145,260.831c0.16,2.149,11.002,1.98,11.002,1.98s-16.446,13.521-14.803,15.806
					c0.066,0.092,0.156,0.155,0.255,0.206c0.714-0.138,1.431-0.263,2.149-0.369c4.081-1.853,11.561-8.494,11.561-8.494
					s-2.408,2.418-4.893,5.312c2.451-0.854,5.013-1.304,7.625-1.478c0.309-0.379,0.484-0.599,0.484-0.599s-0.165,0.219-0.442,0.596
					c3.8-0.249,7.704,0.074,11.523,0.554c4.118-5.302,9.96-13.466,9.96-13.466l-6.478-5.601
					C196.089,255.277,167.874,257.203,168.145,260.831z"/>
			</g>
			<path style="fill:#E697D2;" d="M179.764,277.608c0.107,1.534,1.585,2.724,3.144,2.955c1.559,0.231,3.142-0.311,4.531-1.053
				c3.106-1.661,5.599-4.395,6.924-7.595c0.897-2.166,1.142-4.938-0.57-6.551c-1.447-1.363-3.727-1.374-5.73-1.105
				c-4.774,0.642-13.782,2.953-15.898,7.879C170.347,276.368,176.806,282.382,179.764,277.608z"/>
		</g>
		
			<line style="fill:none;stroke:#000000;stroke-width:0.8616;stroke-linecap:round;stroke-linejoin:round;stroke-miterlimit:10;" x1="205.74" y1="214.26" x2="220.502" y2="229.881"/>
		
			<path style="fill:none;stroke:#000000;stroke-width:0.8616;stroke-linecap:round;stroke-linejoin:round;stroke-miterlimit:10;" d="
			M137.334,226.689c0,0,0.662,16.845,0.722,19.404"/>
		<path d="M183.683,153.455c-1.79-0.419-3.224-1.819-4.113-3.427c-0.889-1.609-1.311-3.427-1.721-5.218
			c-0.21,0.459-0.612,0.726-1.113,0.795c-2.556,0.351-5.263-0.924-6.619-3.118c0.387,1.451,1.419,2.718,2.761,3.391
			c-3.284,0.685-6.828,0.024-9.645-1.798c-2.243-1.451-4.066-3.73-4.442-6.374c-0.376-2.644,0.968-5.586,3.441-6.594
			c1.843-0.751,3.969-0.37,5.798,0.415c1.829,0.785,3.471,1.945,5.257,2.824c1.786,0.879,3.824,1.476,5.761,1.02
			c0.437-0.103,0.869-0.258,1.317-0.252c1.24,0.017,2.151,1.304,2.237,2.541c1.526-0.319,3.116,0.907,3.867,2.274
			c0.751,1.367,0.786,3.026,0.492,4.558c-0.294,1.531-0.89,2.985-1.35,4.475C185.16,150.436,183.868,151.928,183.683,153.455z"/>
		<path style="fill:#E697D2;" d="M190.789,154.916c-0.024,2.638-2.143,4.757-4.735,4.733c-2.591-0.024-4.673-2.182-4.65-4.82
			c0.024-2.638,2.143-4.757,4.735-4.733C188.73,150.12,190.812,152.278,190.789,154.916z"/>
		
			<path style="fill:none;stroke:#000000;stroke-width:0.8616;stroke-linecap:round;stroke-linejoin:round;stroke-miterlimit:10;" d="
			M238.121,247.546c0,0,17.65-1.808,24.659,4.489"/>
		
			<path style="fill:none;stroke:#000000;stroke-width:0.8616;stroke-linecap:round;stroke-linejoin:round;stroke-miterlimit:10;" d="
			M198.816,256.685c0,0,4.164,6.327-2.193,12.613"/>
	</g>
	<g>
		<g>
			<g>
				<path style="fill:#69A8DD;" d="M540.392,189.423c5.26-8.188,13.772-13.863,23.354-15.57l36.87-6.568l-4.559,24.639
					l-28.197,5.023c-3.219,0.574-5.965,2.404-7.732,5.155c-1.767,2.751-2.291,6.009-1.474,9.175l13.355,51.784
					c1.618,6.272-2.156,12.668-8.428,14.286c-1.709,0.441-3.427,0.481-5.056,0.18c-4.347-0.804-8.054-4.045-9.23-8.608
					l-13.355-51.784C533.508,207.711,535.131,197.611,540.392,189.423z"/>
			</g>
			<path style="fill:#F3D4BA;" d="M565.947,169.308l25.755-6.987c9.599-2.604,19.583,3.119,22.187,12.718l0,0
				c2.604,9.599-3.119,19.583-12.718,22.187l-25.755,6.987L565.947,169.308z"/>
		</g>
		<g>
			
				<path style="fill:none;stroke:#B1A7B7;stroke-width:6.3189;stroke-linecap:round;stroke-linejoin:round;stroke-miterlimit:10;" d="
				M547.519,206.545l-6.534,57.288c-1.1,9.642,5.618,18.529,15.369,20.333l2.027,0.375c9.086,1.681,18.024-3.327,21.113-11.829
				l20.265-55.778"/>
			<path style="fill:#1A1615;" d="M618.923,220.697l-75.407-13.952c-3.366-0.623-5.611-3.887-4.988-7.253l0,0
				c0.623-3.366,3.887-5.611,7.253-4.988l75.407,13.952c3.366,0.623,5.611,3.887,4.988,7.253l0,0
				C625.554,219.076,622.29,221.32,618.923,220.697z"/>
			
				<line style="fill:none;stroke:#908896;stroke-width:5.4133;stroke-linecap:round;stroke-linejoin:round;stroke-miterlimit:10;" x1="560.674" y1="277.054" x2="531.478" y2="434.845"/>
			<polygon style="fill:#1A1615;" points="537.543,440.117 523.182,437.459 528.849,425.036 536.724,426.494 			"/>
			
				<line style="fill:none;stroke:#FFFFFF;stroke-width:0.4868;stroke-linecap:round;stroke-linejoin:round;stroke-miterlimit:10;" x1="527.998" y1="427.629" x2="537.124" y2="429.317"/>
		</g>
		<g>
			<g>
				<path style="fill:#1A1615;" d="M601.307,412.844c0.796,5.339-1.836,11.076-6.239,13.597c-2.984,1.709-6.468,1.973-9.715,2.968
					c-6.336,1.942-11.844,6.87-14.812,13.254l42.925-0.148l-0.104-30.127L601.307,412.844z"/>
				<path style="fill:#1A1615;" d="M585.354,429.409c3.247-0.995,6.73-1.259,9.715-2.968c2.551-1.461,4.508-4.002,5.547-6.919
					c0.858,1.32,1.688,2.663,2.606,3.936c0.89,1.233,1.885,2.426,3.122,3.256c1.243,0.833,2.669,1.137,4.105,0.849
					c1.059-0.212,2.047-0.713,2.961-1.35l0.056,16.302l-42.925,0.148C573.51,436.279,579.018,431.351,585.354,429.409z"/>
				<path style="fill:#1A1615;" d="M571.611,445.134l41.606-0.143c1.239-0.004,2.249-1.022,2.245-2.261l-0.001-0.191
					c-0.004-1.239-1.022-2.249-2.261-2.245l-41.606,0.143c-1.239,0.004-2.25,1.022-2.245,2.261l0.001,0.191
					C569.354,444.128,570.371,445.139,571.611,445.134z"/>
			</g>
			<g>
				<path style="fill:#69A8DD;" d="M637.727,132.298c-0.731,2.542-3.326,10.601-3.647,13.227c-0.481,3.93-0.376,8.277,2.108,11.359
					c-1.924,2.184-4.69,3.867-7.565,4.32c-2.875,0.453-5.902-0.129-8.405-1.616c-0.683-0.406-1.325-0.875-1.966-1.343
					c-0.787-0.574-1.574-1.149-2.36-1.723c4.196-5.883,7.928-12.477,7.63-19.697c1.835-0.167,4.458-0.687,6.293-0.854
					c0.796-0.072,1.6-0.144,2.391-0.036C633.463,136.108,636.462,132.394,637.727,132.298z"/>
				<path style="fill:#1A1615;" d="M633.482,141.903c0.927-2.797,1.727-5.628,2.421-8.49c-1.333,1.11-2.882,2.634-3.697,2.522
					c-0.792-0.109-1.596-0.036-2.391,0.036c-1.835,0.167-4.459,0.687-6.293,0.854c0.091,2.192-0.192,4.326-0.745,6.399
					c1.455,1.648,3.246,2.846,5.389,2.543C630.365,145.456,632.12,143.714,633.482,141.903z"/>
				<path style="fill:#69A8DD;" d="M620.518,149.043c-1.309,2.606-2.93,5.101-4.626,7.48c0.787,0.574,1.574,1.149,2.36,1.723
					c0.641,0.468,1.284,0.937,1.966,1.343c2.502,1.487,5.529,2.069,8.405,1.616c2.875-0.453,8.146,3.637,10.07,1.453
					c-1.498-1.859-4.635-9.95-4.796-12.359L620.518,149.043z"/>
				<path style="fill:#201204;" d="M635.716,156.236c0.148,0.221,0.302,0.439,0.472,0.649c-1.597,1.813-3.775,3.278-6.113,3.983
					C632.266,159.594,634.136,158.025,635.716,156.236z"/>
				<path style="fill:#1A1615;" d="M611.561,202.737l14.492,0.542c11.498,0.43,20.554,10.19,20.124,21.688l-1.019,27.234
					c-0.118,0.266-0.2,0.568-0.232,0.907c-0.399,4.12,1.08,3.359,1.341,3.346c0,0-0.268,7.638-5.007,18.136
					c-3.143,6.962-10.102,11.506-17.74,11.403c-0.187-0.003-0.375-0.007-0.561-0.014l-14.492-0.542
					c-11.019-0.412-19.501-17.383-19.812-28.862c0.092-0.469,0.142-4.579,0.242-7.681c0,0,0.915-25.627,0.977-26.035
					C590.303,211.362,600.063,202.307,611.561,202.737z"/>
				<path style="fill:#E6B78F;" d="M585.161,206.676c-0.586,13.376,0.252,26.787,2.823,39.922c0.183,0.932,0.384,1.889,0.909,2.68
					c0.696,1.05,1.866,1.675,3.017,2.186c4.97,2.21,10.418,3.095,15.818,3.75c12.688,1.54,25.516,1.927,38.275,1.156
					c5.128-21.229,10.983-42.283,17.552-63.112c1.604-5.087,3.27-10.285,3.102-15.617c-0.462-14.654-17.204-19.718-29.392-20.848
					c-7.859-0.729-15.781-0.283-23.661-0.725c-4.194-0.235-8.608-0.545-12.682,0.683c-7.173,2.162-9.881,9.104-11.317,15.828
					C587.209,183.791,585.663,195.221,585.161,206.676z"/>
				<path style="fill:#F3D4BA;" d="M585.161,206.676c-0.586,13.376,0.252,26.787,2.823,39.922c0.183,0.932,0.384,1.889,0.909,2.68
					c0.696,1.05,1.866,1.675,3.017,2.186c4.97,2.21,10.418,3.095,15.818,3.75c12.688,1.54,25.516,1.927,38.275,1.156
					c5.128-21.229,10.983-42.283,17.552-63.112c1.604-5.087,3.27-10.285,3.102-15.617c-0.462-14.654-17.204-19.718-29.392-20.848
					c-7.859-0.729-15.781-0.283-23.661-0.725c-4.194-0.235-8.608-0.545-12.682,0.683c-7.173,2.162-9.881,9.104-11.317,15.828
					C587.209,183.791,585.663,195.221,585.161,206.676z"/>
			</g>
			<g>
				<path style="fill:#69A8DD;" d="M638.111,120.506v0.215c0,0.06,0,0.12-0.006,0.179c0,0.072,0,0.143-0.006,0.215
					c-0.006,0.149-0.018,0.299-0.036,0.448l-0.281,2.725l-0.203,1.972l-0.161,1.566l-0.09,0.872l-0.263,2.593l-0.132,1.273
					l-0.036,0.341l-0.185,1.805c-0.328,3.161-2.253,5.785-4.888,7.153c-0.353,0.185-0.717,0.346-1.094,0.478
					c-1.117,0.412-2.325,0.603-3.573,0.538c-0.149-0.012-0.293-0.024-0.448-0.036c-0.556-0.06-1.094-0.167-1.614-0.323h-0.006
					c-0.113-0.03-0.227-0.066-0.335-0.102c-0.108-0.036-0.209-0.072-0.317-0.113c-0.03-0.012-0.06-0.024-0.095-0.036
					c-0.036-0.012-0.072-0.03-0.102-0.042c-0.066-0.024-0.132-0.054-0.191-0.078c-0.09-0.042-0.179-0.078-0.263-0.119
					c-0.4-0.191-0.783-0.407-1.147-0.645c-0.478-0.317-0.926-0.681-1.339-1.082c-0.101-0.102-0.203-0.203-0.299-0.305
					c-0.203-0.221-0.4-0.448-0.586-0.687c-0.071-0.102-0.143-0.197-0.215-0.299c-0.042-0.06-0.084-0.119-0.125-0.185
					c-0.078-0.114-0.155-0.227-0.227-0.347c-0.329-0.55-0.604-1.13-0.819-1.739c-0.024-0.072-0.042-0.137-0.066-0.209
					c-0.089-0.281-0.167-0.568-0.233-0.866c-0.024-0.119-0.048-0.239-0.066-0.365c-0.006-0.03-0.012-0.06-0.018-0.09
					c-0.006-0.054-0.018-0.102-0.024-0.155c-0.018-0.144-0.036-0.287-0.054-0.43c-0.012-0.137-0.018-0.275-0.03-0.418v-0.084
					c-0.006-0.096-0.006-0.185-0.006-0.281v-0.251c0-0.096,0.006-0.197,0.012-0.293c0.006-0.155,0.018-0.305,0.036-0.46l1.35-13.141
					c0.09-0.89,0.311-1.739,0.64-2.528c0.089-0.233,0.197-0.46,0.311-0.681c1.667-3.245,5.217-5.319,9.047-4.924
					c0.532,0.054,1.052,0.155,1.554,0.305c0.735,0.203,1.428,0.502,2.074,0.879c1.709,0.992,3.06,2.522,3.831,4.338
					c0.006,0.018,0.012,0.036,0.018,0.048c0.042,0.102,0.084,0.203,0.12,0.305c0.012,0.024,0.018,0.048,0.03,0.072
					c0.036,0.096,0.066,0.197,0.102,0.299c0.006,0.024,0.018,0.048,0.024,0.066c0.036,0.126,0.078,0.245,0.108,0.37
					c0.018,0.06,0.036,0.126,0.048,0.185c0.018,0.06,0.03,0.119,0.047,0.185c0.012,0.06,0.024,0.12,0.042,0.185
					c0.012,0.066,0.024,0.126,0.036,0.185c0.012,0.066,0.024,0.125,0.03,0.191c0.012,0.066,0.024,0.137,0.03,0.203
					c0.018,0.126,0.036,0.245,0.048,0.371c0,0.03,0.006,0.06,0.006,0.09c0.006,0.054,0.012,0.108,0.012,0.161
					c0.006,0.06,0.012,0.125,0.012,0.185c0.006,0.03,0.006,0.054,0.006,0.084v0.125C638.111,120.435,638.111,120.47,638.111,120.506
					z"/>
			</g>
			<g>
				<path style="fill:#1A1615;" d="M633.553,123.809c0.254-0.057,0.484,0.115,0.495,0.377c0.102,2.492,0.871,5.168,3.069,6.597
					l0.211-2.084l0.09-0.873l0.161-1.566l0.203-1.972l0.281-2.725c0.018-0.149,0.03-0.299,0.036-0.448
					c0.006-0.072,0.006-0.143,0.006-0.215c0.006-0.06,0.006-0.119,0.006-0.179v-0.215c0-0.036,0-0.072-0.006-0.108v-0.125
					c0-0.03,0-0.054-0.006-0.084c0-0.06-0.006-0.126-0.012-0.185c0-0.054-0.006-0.108-0.012-0.161c0-0.03-0.006-0.06-0.006-0.09
					c-0.012-0.125-0.03-0.245-0.048-0.371c-0.006-0.066-0.018-0.137-0.03-0.203c-0.006-0.066-0.018-0.126-0.03-0.191
					c-0.012-0.06-0.024-0.119-0.036-0.185c-0.018-0.066-0.03-0.125-0.042-0.185c-0.018-0.066-0.03-0.125-0.047-0.185
					c-0.012-0.06-0.03-0.126-0.048-0.185c-0.03-0.125-0.072-0.245-0.108-0.37c-0.006-0.018-0.018-0.042-0.024-0.066
					c-0.036-0.102-0.066-0.203-0.102-0.299c-0.012-0.024-0.018-0.048-0.03-0.072c-0.036-0.102-0.078-0.203-0.12-0.305
					c-0.006-0.012-0.012-0.03-0.018-0.048c-0.771-1.817-2.122-3.347-3.831-4.339c-0.645-0.377-1.339-0.675-2.074-0.879
					c-0.502-0.149-1.022-0.251-1.554-0.305c-3.831-0.394-7.38,1.679-9.047,4.924c-0.113,0.221-0.221,0.448-0.311,0.681
					c-0.329,0.789-0.55,1.637-0.64,2.528l-0.32,3.115C623.547,125.522,629.06,124.822,633.553,123.809z"/>
			</g>
			<g>
				<path style="fill:#1A1615;" d="M635.175,125.639c0.243-0.569,0.491-1.144,0.755-1.734c0.507-1.132,0.921-2.636-0.14-3.486
					c-0.596-0.478-2.102-0.542-2.862-0.451c-1.78,0.211-3.144,1.373-3.869,2.855C631.02,124.013,633.082,125.003,635.175,125.639z"
					/>
				<path style="fill:#1A1615;" d="M637.586,126.199l0.197-1.91l0.281-2.725c0.018-0.149,0.03-0.299,0.036-0.448
					c0.006-0.072,0.006-0.143,0.006-0.215c0.006-0.06,0.006-0.119,0.006-0.179v-0.215c0-0.036,0-0.072-0.006-0.108v-0.125
					c0-0.03,0-0.054-0.006-0.084c0-0.06-0.006-0.126-0.012-0.185c0-0.054-0.006-0.108-0.012-0.161c0-0.03-0.006-0.06-0.006-0.09
					c-0.012-0.125-0.03-0.245-0.048-0.371c-0.006-0.066-0.018-0.137-0.03-0.203c-0.006-0.066-0.018-0.126-0.03-0.191
					c-0.012-0.06-0.024-0.119-0.036-0.185c-0.018-0.066-0.03-0.125-0.042-0.185c-0.018-0.066-0.03-0.125-0.047-0.185
					c-0.012-0.06-0.03-0.126-0.048-0.185c-0.03-0.125-0.072-0.245-0.108-0.37c-0.006-0.018-0.018-0.042-0.024-0.066
					c-0.036-0.102-0.066-0.203-0.102-0.299c-0.012-0.024-0.018-0.048-0.03-0.072c-0.036-0.102-0.078-0.203-0.12-0.305
					c-0.006-0.012-0.012-0.03-0.018-0.048c-0.771-1.817-2.122-3.347-3.831-4.339c-0.645-0.377-1.339-0.675-2.074-0.879
					c-0.502-0.149-1.022-0.251-1.554-0.305c-3.787-0.39-7.296,1.634-8.986,4.816C625.254,120.647,631.404,125.192,637.586,126.199z"
					/>
			</g>
			<path style="fill:#1A1615;" d="M612.864,270.479l-2.06,10.004c0.238-0.068,0.475-0.136,0.713-0.205
				c9.091-2.615,23.022-10.878,32.298-12.655l-22.25,74.114c-2.312,20.017-5.634,69.907-5.637,69.961
				c0.284,2.78-13.037,8.025-19.504,5.266C598.472,355.767,608.563,290.784,612.864,270.479z"/>
			<path style="fill:#1A1615;" d="M655.123,327.731c-0.001-0.001-41.936,6.809-63.351,9.578v21.827
				c23.182-3.844,48.304-8.91,72.458-13.88C664.745,338.356,657.388,330.554,655.123,327.731z"/>
			<path style="fill:#69A8DD;" d="M643.776,131.006c-0.191,2.05-2.062,3.544-4.183,3.346c-0.872-0.084-1.65-0.436-2.247-0.968
				c-0.161-0.149-0.317-0.305-0.448-0.478c-0.245-0.299-0.442-0.639-0.574-1.004c-0.191-0.502-0.275-1.046-0.221-1.613
				c0.06-0.663,0.305-1.273,0.675-1.781c0.179-0.257,0.394-0.484,0.639-0.681c0.281-0.239,0.598-0.436,0.944-0.574v-0.006
				c0.586-0.251,1.243-0.365,1.924-0.299C642.408,127.146,643.973,128.962,643.776,131.006z"/>
			<path style="fill:none;" d="M629.554,113.012c5.486,2.428,9.324,8.196,9.445,14.194"/>
			<path style="fill:#1A1615;" d="M588.774,249.454c0,0-19.646,68.682,2.997,109.682l8.995-22.898c1.241,0,6.182-57.08,6.182-57.08
				L588.774,249.454z"/>
			<path style="fill:#DA5915;" d="M622.844,143.208c-10.877,1.667-20.105,12.306-22.098,23.128c3.778,0,6.724,0.063,10.502,0.063
				C615,158.763,619.065,155.715,622.844,143.208z"/>
			<path style="fill:#DA5915;" d="M634.531,142.323c-2.539,8.639-3.992,19.254-1.786,27.984c1.01-0.625,0.162,4.533,1.173,3.908
				c1.174-0.725,3.652-0.654,4.69-1.563c1.054-0.924,2.829-2.688,3.518-3.908c0.607-1.077,4.168-7.369,4.299-8.599
				c0.225-2.11-2.352-6.743-3.478-8.541c-1.126-1.798-2.633-3.321-4.127-4.828C637.691,145.637,635.66,143.462,634.531,142.323z"/>
			<path style="fill:#DA5915;" d="M610.662,234.602c0.49-19.591,2.136-59.211,4.104-81.492c-4.951-0.782-14.461,2.736-18.37,5.472
				c-15.623,10.936-14.195,20.099-14.461,20.324c-4.132,12.866-6.299,32.135-7.071,45.626c-0.49,8.573-0.226,17.472,3.356,25.276
				c3.582,7.804,11.169,14.282,19.755,14.288c2.875,0.002,5.867-0.781,7.953-2.76c2.126-2.017,3.046-4.987,3.563-7.871
				C610.598,247.299,610.466,242.419,610.662,234.602z"/>
			<path style="fill:#DA5915;" d="M619.6,226.165c-0.108,6.948,0.132,14.024,2.357,20.606c1.899,5.617,5.236,10.74,9.605,14.748
				c5.797,5.316,14.544,8.604,21.585,5.099c5.813-2.894,8.813-9.632,9.398-16.099c0.586-6.467-0.769-12.931-1.347-19.4
				c-0.842-9.424-0.018-18.994,2.421-28.136c2.431-9.111,7.035-19.609,3.911-28.507c-2.257-6.429-7.913-11.444-14.201-14.071
				c-4.225-1.765-16.299-11.248-19.412-7.296c-3.388,4.299-7.097,20.148-8.188,24.681C621.921,193.625,619.854,209.88,619.6,226.165
				z"/>
			
				<path style="fill:none;stroke:#201204;stroke-width:0.9563;stroke-linecap:round;stroke-linejoin:round;stroke-miterlimit:10;" d="
				M604.778,156.422c-3.635,3.846-4.968,9.718-3.351,14.756c1.617,5.039,6.119,9.037,11.313,10.05"/>
			
				<line style="fill:none;stroke:#201204;stroke-width:0.9563;stroke-linecap:round;stroke-linejoin:round;stroke-miterlimit:10;" x1="612.551" y1="184.117" x2="610.076" y2="250.04"/>
			
				<path style="fill:none;stroke:#201204;stroke-width:0.9563;stroke-linecap:round;stroke-linejoin:round;stroke-miterlimit:10;" d="
				M624.667,182.032c-4.55,21.278-8.143,51.006-1.498,68.399"/>
			
				<path style="fill:none;stroke:#201204;stroke-width:0.9563;stroke-linecap:round;stroke-linejoin:round;stroke-miterlimit:10;" d="
				M632.22,156.763c-2.733,6.639-4.296,14.065-6.229,21.263"/>
			
				<path style="fill:none;stroke:#201204;stroke-width:0.9563;stroke-linecap:round;stroke-linejoin:round;stroke-miterlimit:10;" d="
				M629.942,179.931c4.667-1.197,9.032-3.768,12.055-7.519c3.023-3.752,4.619-8.709,3.987-13.486"/>
			<path style="fill:#1A1615;" d="M637.881,123.923c-9.298-1.801-16.583-8.209-23.614-14.114c-3.568-2.996-7.175-5.992-11.181-8.394
				c-3.252-1.949-6.836-4.295-10.699-4.691c-4.62-0.474-8.279,3.677-6.324,8.243c1.247,2.911,4.056,5.611,6.774,7.166
				c2.758,1.578,5.803,2.668,8.818,3.644c5.965,1.931,11.818,4.024,18.192,3.818c0.489-1.661,0.877-2.347,1.961-3.61"/>
			<g>
				<path style="fill:#FFFFFF;" d="M621.696,126.627c-0.029,0.145-0.055,0.292-0.074,0.442c-0.338,2.619,1.001,4.95,2.989,5.206
					c1.988,0.256,3.874-1.659,4.211-4.278c0.019-0.15,0.032-0.299,0.04-0.447L621.696,126.627z"/>
			</g>
			<path style="fill:#1A1615;" d="M633.233,114.024L633.233,114.024c-0.806,0-1.466-0.66-1.466-1.466l0,0
				c0-0.806,0.66-1.466,1.466-1.466l0,0c0.806,0,1.466,0.66,1.466,1.466l0,0C634.699,113.365,634.04,114.024,633.233,114.024z"/>
			
				<line style="fill:none;stroke:#201204;stroke-width:0.9563;stroke-linecap:round;stroke-linejoin:round;stroke-miterlimit:10;" x1="630.249" y1="219.707" x2="653.433" y2="219.707"/>
			
				<line style="fill:none;stroke:#201204;stroke-width:0.9563;stroke-linecap:round;stroke-linejoin:round;stroke-miterlimit:10;" x1="581.177" y1="219.707" x2="604.361" y2="219.707"/>
			<g>
				<path style="fill:#B1A7B7;" d="M691.233,363.666l-16.758-42.864l-28.025,8.463c2.546,5.072,4.316,10.53,5.706,16.018
					c0.129,0.509,0.249,1.019,0.372,1.529c4.161,0.343,8.322,2.039,11.462,4.924c3.709,3.407,5.869,8.029,8.82,12.058
					c2.185,2.983,4.847,5.645,7.831,7.888C686.206,375.865,693.768,370.15,691.233,363.666z"/>
			</g>
		</g>
		
			<path style="fill:none;stroke:#201204;stroke-width:0.9563;stroke-linecap:round;stroke-linejoin:round;stroke-miterlimit:10;" d="
			M659.202,348.571c0,0,9.387-12.074,0-23.158"/>
		
			<path style="fill:none;stroke:#201204;stroke-width:0.9563;stroke-linecap:round;stroke-linejoin:round;stroke-miterlimit:10;" d="
			M668.579,356.92c4.057-4.747,5.782-11.032,6.908-17.174c1.146-6.255,1.678-13.151-1.67-18.557"/>
		
			<path style="fill:none;stroke:#201204;stroke-width:0.9563;stroke-linecap:round;stroke-linejoin:round;stroke-miterlimit:10;" d="
			M674.261,365.927c-0.305,0.128-0.316-0.451-0.111-0.71c3.583-4.513,8.987-7.537,14.707-8.229"/>
		
			<path style="fill:none;stroke:#FFFFFF;stroke-width:0.3595;stroke-linecap:round;stroke-linejoin:round;stroke-miterlimit:10;" d="
			M634.699,272.056l-20.546,63.665c-0.456,1.414-0.751,2.875-0.878,4.355l-6.327,73.68"/>
		
			<path style="fill:none;stroke:#B1A7B7;stroke-width:5.4133;stroke-linecap:round;stroke-linejoin:round;stroke-miterlimit:10;" d="
			M649.032,215.306l3.388,49.815c0.57,8.384,7.538,14.894,15.941,14.894h1.747c7.83,0,14.506-5.673,15.769-13.401l8.286-50.693"/>
		<path style="fill:#1A1615;" d="M714.245,216.232h-69.88c-3.12,0-5.672-2.552-5.672-5.672v0c0-3.119,2.552-5.672,5.672-5.672h69.88
			c3.12,0,5.672,2.552,5.672,5.672v0C719.917,213.679,717.364,216.232,714.245,216.232z"/>
		<g>
			<g>
				<path style="fill:#69A8DD;" d="M720.46,198.91c-3.683-9.008-11.02-16.137-20.131-19.559l-35.059-13.167v25.057l26.812,10.07
					c3.061,1.15,5.428,3.45,6.665,6.476c1.237,3.026,1.159,6.326-0.22,9.291l-22.553,48.49c-2.732,5.873-0.185,12.849,5.688,15.581
					c1.601,0.744,3.283,1.097,4.939,1.097c4.421,0,8.655-2.512,10.642-6.785l22.553-48.49
					C723.901,218.146,724.143,207.919,720.46,198.91z"/>
			</g>
			<path style="fill:#F3D4BA;" d="M698.99,174.482l-24.054-11.557c-8.965-4.307-19.823-0.496-24.13,8.469l0,0
				c-4.307,8.965-0.496,19.824,8.469,24.131l24.054,11.556L698.99,174.482z"/>
		</g>
		
			<line style="fill:none;stroke:#908896;stroke-width:5.4133;stroke-linecap:round;stroke-linejoin:round;stroke-miterlimit:10;" x1="666.668" y1="282.245" x2="666.668" y2="442.714"/>
		<g>
			<path style="fill:#69A8DD;" d="M680.271,265.388c-3.221-1.05-8.802,2.347-12.27,2.811c-1.456,0.195-6.94-0.973-7.956-0.196
				c-2.454,1.875,2.17,3.671,3.719,4.297c3.134,1.266,5.859,0.648,8.978,0.059l-7.85,17.263l21.997,10.002l10.756-23.654
				c2.033-4.471-6.689-10.349-11.665-7.652C684.459,267.189,682.169,266.007,680.271,265.388z"/>
			<path style="fill:#69A8DD;" d="M677.539,277.017l-6.444,14.171c-0.799,1.758-2.891,2.542-4.648,1.742l0,0
				c-1.758-0.799-2.542-2.891-1.742-4.648l6.443-14.171c0.799-1.757,2.891-2.542,4.648-1.742l0,0
				C677.554,273.168,678.338,275.26,677.539,277.017z"/>
			<path style="fill:#69A8DD;" d="M683.374,279.671l-6.444,14.171c-0.799,1.758-2.891,2.542-4.648,1.742l0,0
				c-1.758-0.799-2.542-2.891-1.743-4.648l6.444-14.171c0.799-1.758,2.891-2.542,4.648-1.743l0,0
				C683.389,275.821,684.173,277.913,683.374,279.671z"/>
			<path style="fill:#69A8DD;" d="M689.209,282.324l-6.444,14.171c-0.799,1.757-2.891,2.541-4.648,1.742l0,0
				c-1.757-0.799-2.542-2.891-1.742-4.648l6.444-14.171c0.799-1.758,2.891-2.542,4.648-1.743l0,0
				C689.224,278.474,690.008,280.566,689.209,282.324z"/>
			<path style="fill:#69A8DD;" d="M695.044,284.977l-6.444,14.171c-0.799,1.757-2.891,2.542-4.648,1.742l0,0
				c-1.758-0.799-2.542-2.891-1.742-4.648l6.444-14.171c0.799-1.757,2.891-2.542,4.648-1.742l0,0
				C695.059,281.128,695.843,283.22,695.044,284.977z"/>
		</g>
		<polygon style="fill:#1A1615;" points="673.591,446.795 658.986,446.795 662.298,433.548 670.307,433.548 		"/>
		
			<line style="fill:none;stroke:#FFFFFF;stroke-width:0.4868;stroke-linecap:round;stroke-linejoin:round;stroke-miterlimit:10;" x1="661.933" y1="436.252" x2="671.214" y2="436.252"/>
		<g>
			<path style="fill:#69A8DD;" d="M566.957,262.344c3.275-0.866,8.654,2.842,12.091,3.502c1.442,0.277,6.983-0.578,7.954,0.255
				c2.344,2.011-2.375,3.543-3.956,4.079c-3.201,1.086-5.886,0.315-8.967-0.45l6.858,17.68l-22.529,8.739l-9.397-24.226
				c-1.776-4.579,7.265-9.953,12.081-6.978C562.674,263.905,565.027,262.854,566.957,262.344z"/>
			<path style="fill:#69A8DD;" d="M569.026,274.109l5.63,14.513c0.698,1.8,2.742,2.702,4.542,2.003l0,0
				c1.8-0.698,2.701-2.742,2.003-4.542l-5.63-14.513c-0.698-1.8-2.742-2.701-4.542-2.003l0,0
				C569.229,270.266,568.328,272.31,569.026,274.109z"/>
			<path style="fill:#69A8DD;" d="M563.05,276.428l5.63,14.513c0.698,1.8,2.742,2.701,4.542,2.003l0,0
				c1.8-0.698,2.701-2.742,2.003-4.542l-5.63-14.513c-0.698-1.8-2.742-2.701-4.542-2.003l0,0
				C563.253,272.584,562.352,274.628,563.05,276.428z"/>
			<path style="fill:#69A8DD;" d="M557.074,278.746l5.63,14.514c0.698,1.8,2.742,2.701,4.542,2.003l0,0
				c1.8-0.698,2.701-2.742,2.003-4.542l-5.63-14.513c-0.698-1.8-2.742-2.701-4.542-2.003l0,0
				C557.277,274.902,556.376,276.946,557.074,278.746z"/>
			<path style="fill:#69A8DD;" d="M551.098,281.064l5.63,14.514c0.698,1.8,2.742,2.701,4.542,2.003l0,0
				c1.8-0.698,2.701-2.742,2.003-4.542l-5.63-14.514c-0.698-1.8-2.742-2.701-4.542-2.003l0,0
				C551.301,277.22,550.399,279.264,551.098,281.064z"/>
		</g>
	</g>
</g>
</svg>
